<svg width="24" height="24" viewBox="0 0 24 24" fill="none" xmlns="http://www.w3.org/2000/svg">
<path fill-rule="evenodd" clip-rule="evenodd" d="M12.8715 12.6347C12.8496 12.575 12.8235 12.5166 12.7948 12.4599C12.7762 12.4233 12.7547 12.3885 12.7334 12.3531C12.7183 12.3278 12.7031 12.3028 12.6868 12.2782C12.6623 12.2416 12.6368 12.2064 12.6096 12.1716C12.594 12.1518 12.5772 12.1329 12.5609 12.1137C12.5097 12.0542 12.4552 11.9989 12.3965 11.9471C12.3755 11.9285 12.3553 11.9086 12.3334 11.8911C12.3057 11.8692 12.2772 11.85 12.2485 11.8299C12.2147 11.8063 12.1803 11.7841 12.1452 11.7635C12.1212 11.7496 12.0974 11.7359 12.0728 11.7234C12.01 11.6915 11.9464 11.6629 11.881 11.6419C11.8276 11.6246 11.7746 11.6128 11.7218 11.6036C11.711 11.6017 11.7001 11.6 11.6892 11.5986C11.5815 11.5833 11.4762 11.5844 11.3763 11.6022C11.3741 11.6026 11.3716 11.6031 11.3693 11.6036C11.2378 11.6281 11.1157 11.6794 11.0113 11.7598C11.0009 11.7678 10.9937 11.7789 10.9835 11.7872C10.9554 11.8108 10.9298 11.8375 10.9049 11.8651C10.8875 11.8845 10.8685 11.902 10.8531 11.923C10.8203 11.967 10.791 12.0145 10.7659 12.0662C10.7655 12.0672 10.7657 12.0681 10.7652 12.0691C10.6998 12.2049 10.6636 12.3611 10.6636 12.5331C10.6636 13.1714 11.1395 13.8254 11.747 14.0218C11.8617 14.0589 11.9761 14.0771 12.0861 14.0771C12.2836 14.0771 12.4676 14.0182 12.6166 13.9036C12.8407 13.7311 12.9644 13.4563 12.9644 13.1303C12.9644 12.9632 12.9304 12.7957 12.8713 12.635C12.8715 12.635 12.8715 12.635 12.8715 12.6347ZM11.235 12.1867C11.2566 12.1631 11.2812 12.1435 11.3077 12.1265C11.3229 12.1166 11.3394 12.109 11.3562 12.1014C11.3793 12.0908 11.403 12.0811 11.4286 12.0747C11.4474 12.0702 11.4671 12.0684 11.487 12.0662C11.5165 12.0629 11.5459 12.0599 11.5774 12.0617C11.5858 12.0622 11.5944 12.0629 11.603 12.0641C11.6494 12.0688 11.6974 12.0776 11.7472 12.0936C11.7941 12.1088 11.8396 12.1296 11.8844 12.1527C11.8937 12.1574 11.9027 12.1624 11.9118 12.1674C12.0028 12.2184 12.0884 12.2843 12.1645 12.3616C12.1683 12.3656 12.1724 12.3694 12.1762 12.3736C12.2498 12.4502 12.3137 12.5372 12.366 12.6293C12.3737 12.6433 12.3814 12.657 12.3886 12.6711C12.3934 12.6804 12.3968 12.69 12.4015 12.6993C12.2888 12.8306 12.0988 12.8694 11.881 12.7997C11.6113 12.7123 11.3636 12.4819 11.2253 12.1967C11.2285 12.1929 11.2319 12.19 11.235 12.1867ZM17.7672 13.691C17.7708 13.6747 17.7776 13.6607 17.7831 13.6456C17.7883 13.631 17.7919 13.6154 17.7985 13.6021C17.7989 13.6012 17.7998 13.6005 17.8003 13.5995C17.8127 13.5752 17.8281 13.5535 17.8456 13.5338C17.8684 13.5081 17.8958 13.4878 17.9266 13.4719C17.9327 13.4686 17.9395 13.4663 17.9459 13.4634C17.9753 13.4507 18.0072 13.4419 18.0419 13.4379C18.0466 13.4374 18.0509 13.436 18.0559 13.4355C18.0849 13.4329 18.1154 13.4346 18.1467 13.4384C18.1503 13.4388 18.1537 13.4384 18.1573 13.4388H18.1576C18.16 13.4391 18.1632 13.4405 18.1659 13.441C18.194 13.4457 18.2219 13.4528 18.2526 13.4632C18.2708 13.4693 18.2907 13.4783 18.3104 13.4868C18.3224 13.492 18.3346 13.4963 18.3466 13.5017C18.3595 13.5078 18.3729 13.5112 18.3865 13.5145C18.3912 13.5156 18.3957 13.518 18.4005 13.519C18.417 13.522 18.4336 13.5225 18.4501 13.5218C18.4521 13.5218 18.4542 13.5223 18.4562 13.522C18.4739 13.5208 18.4913 13.5171 18.5083 13.5114C18.5092 13.5112 18.5101 13.5112 18.5112 13.5109C18.5223 13.5071 18.5325 13.5008 18.5429 13.4951C18.5495 13.4915 18.5565 13.4894 18.5626 13.4852C18.6088 13.4542 18.6409 13.4069 18.6563 13.3538C18.6625 13.332 18.6665 13.3098 18.6665 13.2867V12.7588C18.6665 12.2503 18.4376 11.7612 18.0539 11.4481L14.12 7.5644C14.0369 7.48241 13.9085 7.47768 13.8207 7.55353C13.7498 7.6145 13.645 7.62702 13.5247 7.58803C13.2435 7.49706 13.006 7.17594 13.006 6.88672C13.006 6.82694 13.0171 6.77377 13.0389 6.72888C13.0839 6.63554 13.0649 6.52259 12.9924 6.45076L12.3177 5.78489C12.3119 5.77922 12.3057 5.77379 12.2994 5.76882C11.7725 5.34964 11.1261 5.2185 10.6437 5.4392L7.29504 7.12514C6.91422 7.29692 6.66788 7.69956 6.66697 8.15395L6.66675 8.1549V8.15702V11.8777C6.66675 11.9478 6.69663 12.0142 6.74826 12.0594C6.79988 12.104 6.86735 12.1225 6.93391 12.1102C7.00931 12.0953 7.08968 12.1017 7.17187 12.1284C7.51171 12.2383 7.7988 12.6267 7.7988 12.9771C7.7988 13.1123 7.7542 13.2212 7.67314 13.2836C7.58258 13.3533 7.45239 13.3656 7.30568 13.3181C7.21579 13.289 7.12455 13.2361 7.03512 13.161C6.96697 13.1043 6.87391 13.0924 6.79512 13.1321C6.71656 13.1714 6.66675 13.2543 6.66675 13.345V13.8561C6.66675 14.3644 6.99663 14.8056 7.46009 14.9258L17.3506 17.9664C17.4367 17.9891 17.5236 18 17.6099 18C17.8428 18 18.0704 17.9194 18.2594 17.7653C18.5185 17.5543 18.6668 17.237 18.6668 16.8941V14.9235C18.6668 14.8653 18.6466 14.8117 18.6126 14.7704C18.5787 14.7288 18.5311 14.6992 18.4761 14.69C18.4714 14.6893 18.4666 14.6872 18.4619 14.6862C18.2613 14.647 18.0629 14.4993 17.9275 14.3067C17.8628 14.2144 17.815 14.1118 17.7858 14.0064C17.7776 13.9766 17.7686 13.9471 17.7638 13.9171C17.7573 13.8748 17.7545 13.8337 17.7552 13.7952C17.7557 13.7749 17.7593 13.7567 17.7616 13.7378C17.7634 13.7222 17.7638 13.7056 17.7672 13.691ZM7.48319 7.55472L10.8327 5.8683C11.1567 5.72062 11.6199 5.82624 12.0155 6.13697L12.5747 6.68894C12.5605 6.75227 12.5534 6.81819 12.5534 6.88672C12.5534 7.38128 12.9214 7.88741 13.3912 8.03935C13.5816 8.10102 13.7702 8.09582 13.9309 8.02801L17.5345 11.5859L13.6393 10.3751C13.5399 9.97269 13.2252 9.60549 12.8376 9.48049C12.5838 9.3985 12.332 9.43371 12.1454 9.57666C12.0537 9.64708 11.9836 9.739 11.9362 9.84604L7.37428 8.42899C7.23413 8.40088 7.15263 8.30022 7.13248 8.12938C7.13112 8.11874 7.12614 8.10906 7.12319 8.09866C7.14153 7.85741 7.27489 7.64876 7.48319 7.55472ZM13.2223 10.6331C13.2223 10.708 13.2057 10.8103 13.1265 10.8711C13.0567 10.9249 12.9544 10.9337 12.8376 10.8961C12.8025 10.8848 12.7678 10.8699 12.7346 10.8517C12.5342 10.7435 12.3721 10.5244 12.3297 10.3049C12.3227 10.2688 12.3191 10.2326 12.3191 10.1969C12.32 10.1917 12.3229 10.166 12.3234 10.161C12.3239 10.1553 12.3218 10.1501 12.322 10.1447C12.3291 10.0788 12.3519 10.0051 12.4146 9.95686C12.4561 9.92496 12.5091 9.90889 12.5697 9.90889C12.6114 9.90889 12.6567 9.91645 12.704 9.93181C12.9671 10.0169 13.189 10.3028 13.217 10.5762C13.2173 10.5783 13.2168 10.5802 13.2168 10.5823L13.2223 10.6331ZM12.3479 13.5237C12.2312 13.6135 12.0655 13.6298 11.881 13.5707C11.5921 13.4771 11.3376 13.2174 11.2079 12.924C11.3689 13.0724 11.5529 13.1879 11.747 13.2508C11.8615 13.2876 11.9747 13.3056 12.0832 13.3056C12.2365 13.3056 12.3798 13.2682 12.5054 13.2004C12.4916 13.3398 12.4384 13.4542 12.3479 13.5237ZM15.984 13.3283C15.7381 13.2489 15.4947 13.2831 15.315 13.4216C15.1427 13.5542 15.044 13.7723 15.044 14.0201C15.044 14.4963 15.3981 14.9835 15.8502 15.1295C15.9374 15.1576 16.0241 15.1716 16.1081 15.1716C16.2607 15.1716 16.4033 15.1257 16.5192 15.0364C16.6915 14.9039 16.7903 14.686 16.7903 14.4381C16.79 13.9618 16.4359 13.4741 15.984 13.3283ZM16.2503 14.656C16.1864 14.7051 16.0916 14.7132 15.9838 14.6782C15.7196 14.5929 15.4965 14.2914 15.4965 14.0201C15.4965 13.9511 15.5115 13.8573 15.5835 13.8018C15.6213 13.773 15.6695 13.7581 15.725 13.7581C15.7637 13.7581 15.8056 13.7652 15.85 13.7796C16.1142 13.8649 16.3372 14.1664 16.3372 14.4379C16.3372 14.5069 16.3223 14.6007 16.2503 14.656ZM9.64451 12.8557C9.39885 12.7763 9.15523 12.8106 8.97546 12.949C8.80316 13.0816 8.70445 13.2997 8.70445 13.5475C8.70445 14.0237 9.05855 14.5109 9.5107 14.6569C9.59786 14.6851 9.68458 14.699 9.76858 14.699C9.92118 14.699 10.0638 14.6532 10.1797 14.5638C10.352 14.4313 10.4508 14.2134 10.4508 13.9655C10.4505 13.4892 10.0964 13.0015 9.64451 12.8557ZM9.91076 14.1834C9.84692 14.2326 9.75205 14.2404 9.64428 14.2056C9.38006 14.1203 9.15704 13.8188 9.15704 13.5475C9.15704 13.4785 9.17199 13.3847 9.24398 13.3292C9.28179 13.3004 9.33002 13.2855 9.38549 13.2855C9.42421 13.2855 9.46609 13.2926 9.51047 13.307C9.77469 13.3923 9.99771 13.6938 9.99771 13.9653C9.99771 14.0343 9.98276 14.1281 9.91076 14.1834ZM14.3991 14.9672C14.2157 14.9083 14.0314 14.9341 13.8938 15.0402C13.7613 15.1423 13.6855 15.3082 13.6855 15.4958C13.6855 15.8396 13.9402 16.1909 14.2653 16.2961C14.3296 16.3169 14.3939 16.3273 14.4564 16.3273C14.5723 16.3273 14.6812 16.2921 14.7707 16.2233C14.9031 16.1212 14.9792 15.9551 14.9792 15.7675C14.9787 15.4235 14.724 15.0721 14.3991 14.9672ZM14.5017 15.8424C14.4818 15.8578 14.4426 15.8585 14.3991 15.8445C14.2624 15.8003 14.1383 15.634 14.1383 15.4955C14.1383 15.4785 14.1408 15.4372 14.1625 15.4206C14.1727 15.4126 14.1883 15.4086 14.2074 15.4086C14.2246 15.4086 14.2443 15.4119 14.2651 15.4185C14.4019 15.4627 14.5259 15.6288 14.5259 15.7673C14.5259 15.7843 14.5234 15.8254 14.5017 15.8424ZM14.1037 13.4866C14.168 13.5074 14.2323 13.5178 14.295 13.5178C14.4107 13.5178 14.5198 13.4826 14.6092 13.4138C14.7417 13.3117 14.8175 13.1458 14.8175 12.9582C14.8175 12.6144 14.5628 12.2631 14.2377 12.1579C14.0536 12.0986 13.8698 12.1251 13.7326 12.2309C13.6001 12.333 13.5241 12.4991 13.5241 12.6867C13.5238 13.0301 13.7785 13.3817 14.1037 13.4866ZM14.0011 12.6114C14.0115 12.6033 14.0271 12.5993 14.0459 12.5993C14.0631 12.5993 14.0828 12.6026 14.1037 12.6092C14.2404 12.6534 14.3645 12.8198 14.3645 12.9582C14.3645 12.9752 14.362 13.0166 14.3403 13.0331C14.3208 13.0485 14.2812 13.049 14.2377 13.0353C14.101 12.9911 13.9769 12.825 13.9769 12.6865C13.9767 12.6695 13.9791 12.6281 14.0011 12.6114ZM9.15704 10.4767C9.15704 10.1088 8.88422 9.73238 8.53577 9.61943C8.34038 9.55587 8.14521 9.58446 8.00031 9.69623C7.86061 9.80374 7.78024 9.9793 7.78024 10.178C7.78024 10.5462 8.05329 10.9226 8.40174 11.0351C8.47034 11.0573 8.53871 11.0681 8.60505 11.0681C8.72754 11.0681 8.84301 11.031 8.9372 10.9585C9.07712 10.851 9.15704 10.6754 9.15704 10.4767ZM8.66845 10.5778C8.6406 10.5993 8.59034 10.6017 8.53577 10.5837C8.37457 10.5315 8.23306 10.3422 8.23306 10.178C8.23306 10.1504 8.23781 10.1005 8.26883 10.0764C8.28423 10.0646 8.30619 10.0587 8.332 10.0587C8.35306 10.0587 8.3766 10.0627 8.40174 10.0707C8.56294 10.123 8.70422 10.3125 8.70422 10.4767C8.70422 10.5043 8.69969 10.5542 8.66845 10.5778ZM18.2135 16.8944C18.2135 17.0905 18.1286 17.2724 17.9803 17.393C17.832 17.5142 17.6429 17.5555 17.469 17.5109L7.57873 14.4703C7.3084 14.3996 7.11957 14.1473 7.11957 13.8561V13.751C7.137 13.7576 7.15444 13.764 7.17187 13.7694C7.45488 13.8611 7.73518 13.8224 7.94167 13.6638C8.14136 13.5102 8.2514 13.2661 8.2514 12.9771C8.2514 12.4195 7.83593 11.8484 7.30568 11.6771C7.24364 11.657 7.18115 11.643 7.11934 11.6359V8.84085C7.16576 8.86164 7.21512 8.87724 7.26674 8.8874L11.8733 10.3196C11.8747 10.3309 11.8783 10.342 11.8801 10.3534C11.8839 10.3782 11.8896 10.4027 11.895 10.4275C11.9025 10.4616 11.9111 10.4949 11.9217 10.5284C11.9297 10.5537 11.9387 10.5783 11.9485 10.6029C11.9609 10.6348 11.9745 10.6662 11.9897 10.6972C12.0014 10.7217 12.0139 10.7456 12.0273 10.7692C12.0442 10.7992 12.0623 10.8278 12.0816 10.8564C12.0968 10.8791 12.1119 10.9016 12.1285 10.9235C12.1495 10.9512 12.1722 10.9769 12.1953 11.0027C12.2131 11.0228 12.2306 11.0431 12.2496 11.0618C12.2749 11.087 12.3021 11.1097 12.3295 11.1326C12.3488 11.1489 12.3673 11.166 12.3875 11.1811C12.4189 11.2045 12.4522 11.2243 12.4857 11.2442C12.5038 11.255 12.5211 11.2676 12.5398 11.2775C12.5928 11.3054 12.6474 11.3292 12.7038 11.3474C12.7606 11.3659 12.8172 11.3763 12.8731 11.3829C12.8883 11.3848 12.903 11.3855 12.918 11.3867C12.9354 11.3878 12.9533 11.3909 12.9707 11.3909C13.0017 11.3909 13.0318 11.3876 13.062 11.3841C13.0676 11.3833 13.0735 11.3836 13.0792 11.3826C13.131 11.3751 13.1806 11.3609 13.2284 11.3427C13.2395 11.3385 13.2503 11.3337 13.2612 11.3288C13.3085 11.3077 13.3542 11.2834 13.3957 11.2515C13.4358 11.2205 13.4704 11.1844 13.5021 11.1459C13.5105 11.136 13.5182 11.1256 13.5261 11.1152C13.5535 11.0781 13.5782 11.0386 13.5981 10.9958C13.5999 10.992 13.6022 10.989 13.604 10.9852C13.6205 10.9483 13.6345 10.9101 13.6454 10.8697L17.7346 12.14C18.0124 12.2021 18.2139 12.462 18.2139 12.7586V12.97C18.144 12.9604 18.0763 12.9592 18.0108 12.9651C17.9547 12.9703 17.901 12.9819 17.8496 12.9977C17.8318 13.0031 17.8148 13.0109 17.7976 13.0178C17.7618 13.0317 17.7271 13.0478 17.6941 13.0672C17.678 13.0766 17.6624 13.0863 17.647 13.0969C17.6124 13.121 17.5804 13.1482 17.5499 13.1782C17.5422 13.1858 17.5329 13.1907 17.5254 13.1988C17.5229 13.2014 17.5216 13.2049 17.5191 13.2078C17.515 13.2122 17.5102 13.2153 17.5062 13.22L17.5057 13.2205C17.4842 13.2453 17.4688 13.276 17.4502 13.3039C17.4353 13.3266 17.4179 13.3474 17.4052 13.3717C17.4029 13.376 17.3998 13.3791 17.3977 13.3831C17.3794 13.4197 17.3685 13.4601 17.3554 13.4996C17.3488 13.5197 17.3391 13.5381 17.3339 13.5589C17.3205 13.6109 17.3144 13.6664 17.3099 13.7224C17.3085 13.7382 17.3044 13.7529 17.3038 13.7689C17.3038 13.7715 17.3029 13.7739 17.3029 13.7765C17.3013 13.8372 17.3069 13.9008 17.3155 13.9648C17.3169 13.9745 17.3158 13.9835 17.3171 13.9932C17.3278 14.0605 17.3447 14.1267 17.3658 14.1919C17.3674 14.1966 17.3676 14.2014 17.3692 14.2059C17.3767 14.2285 17.3866 14.2519 17.4036 14.2902C17.4152 14.3186 17.4262 14.3469 17.4396 14.3746C17.4444 14.3852 17.4482 14.3961 17.4536 14.4067C17.4665 14.432 17.4819 14.4556 17.4967 14.4795C17.5096 14.5015 17.5225 14.5232 17.5363 14.5445L17.5361 14.5447C17.5451 14.5605 17.5546 14.5764 17.5639 14.5891C17.6008 14.6418 17.6418 14.6912 17.6764 14.729C17.6812 14.7349 17.6911 14.7474 17.6966 14.7531C17.7122 14.7699 17.7292 14.7841 17.7453 14.7999C17.7527 14.8072 17.7604 14.8145 17.7681 14.8219C17.8059 14.8575 17.8449 14.8904 17.8852 14.9211C17.8924 14.9265 17.8994 14.9322 17.9067 14.9376C17.949 14.9686 17.9925 14.9965 18.0369 15.0215C18.0437 15.0253 18.05 15.0298 18.0568 15.0333C18.1084 15.0612 18.161 15.0863 18.2144 15.1059V16.8944H18.2135Z" fill="black"/>
<path fill-rule="evenodd" clip-rule="evenodd" d="M0.933334 11.9998C0.933334 18.1012 5.89875 23.0667 12.0001 23.0667C18.1015 23.0667 23.0667 18.1013 23.0667 11.9998C23.0667 5.89857 18.1015 0.933334 12.0001 0.933334C5.89872 0.933334 0.933334 5.8986 0.933334 11.9998ZM0 11.9998C0 18.6167 5.38328 24 12.0001 24C18.617 24 24 18.6167 24 11.9998C24 5.3831 18.617 0 12.0001 0C5.38328 0 0 5.3831 0 11.9998Z" fill="black"/>
</svg>
