<svg width="24" height="24" viewBox="0 0 24 24" fill="none" xmlns="http://www.w3.org/2000/svg">
<path fill-rule="evenodd" clip-rule="evenodd" d="M0.933333 11.9998C0.933333 18.1012 5.89874 23.0667 12.0001 23.0667C18.1014 23.0667 23.0667 18.1012 23.0667 11.9998C23.0667 5.89857 18.1015 0.933333 12.0001 0.933333C5.89871 0.933333 0.933333 5.89859 0.933333 11.9998ZM0 11.9998C0 18.6167 5.38327 24 12.0001 24C18.6169 24 24 18.6167 24 11.9998C24 5.3831 18.6169 0 12.0001 0C5.38327 0 0 5.3831 0 11.9998Z" fill="black"/>
<path fill-rule="evenodd" clip-rule="evenodd" d="M18.365 16.5456L17.9521 16.353C18.0396 16.23 18.0921 16.1512 18.0955 16.1458L18.1117 16.1178C18.7018 14.9417 18.5417 13.7556 17.6723 12.8636L17.5109 12.6978L15.8425 10.9854L12.2966 7.34607C11.2511 6.27299 9.66927 6.07925 8.42875 6.76271L8.28745 5.74855C8.25861 5.54028 8.10918 5.38072 7.90759 5.34224C7.70468 5.30241 7.51068 5.39821 7.4108 5.58253L6.83432 6.64808L6.32128 6.82352C6.13646 6.88702 6.01063 7.05654 6.00067 7.2562C5.99044 7.45586 6.09845 7.63829 6.27567 7.7209L7.10775 8.10892C6.42719 9.3857 6.61044 11.0225 7.66247 12.1026L12.8678 17.4452L13.0382 17.6201C13.5623 18.158 14.1891 18.4313 14.855 18.4313C15.1984 18.4313 15.5523 18.3576 15.908 18.211L16.0011 18.8791C16.0328 19.1075 16.1959 19.2819 16.4169 19.3239C16.4497 19.3301 16.4822 19.3333 16.5144 19.3333C16.699 19.3333 16.8678 19.2329 16.9609 19.0607L17.6682 17.7487L18.3144 17.5278C18.5165 17.4586 18.6546 17.273 18.6659 17.0542C18.6772 16.8357 18.559 16.636 18.365 16.5456ZM12.2114 8.01958L13.3893 9.22882C11.9154 9.42202 9.8533 10.4219 9.50778 13.2362L8.3231 12.0205C8.51185 8.3484 11.5909 8.04299 12.2114 8.01958ZM13.8805 9.73254L15.0592 10.9426C13.589 11.1374 11.5227 12.1346 11.1767 14.9484L9.99224 13.7327C10.1807 10.0554 13.2658 9.75703 13.8805 9.73254ZM15.5481 11.4447L16.7257 12.6534C15.2519 12.8469 13.1905 13.8465 12.8445 16.6608L11.6601 15.4451C11.8486 11.7687 14.9318 11.4673 15.5481 11.4447ZM7.39874 7.6539L6.61752 7.28957L7.01914 7.15207C7.13108 7.11386 7.22415 7.03475 7.28208 6.92846L7.79093 5.98776L7.94429 7.09018C7.9123 7.11601 7.88163 7.144 7.85044 7.17144C7.78385 7.22876 7.72014 7.28661 7.66247 7.34607L7.66116 7.34715C7.56914 7.44187 7.48551 7.5417 7.40661 7.64421C7.40425 7.64771 7.40136 7.6504 7.39874 7.6539ZM7.70232 8.1404C7.75239 8.06452 7.80508 7.99187 7.86014 7.92298C7.87167 7.90872 7.88452 7.8958 7.89631 7.88208C7.94088 7.82853 7.98597 7.77526 8.03342 7.72655C8.04286 7.71687 8.05439 7.70718 8.06409 7.69749C8.10787 7.6539 8.1527 7.61273 8.19858 7.57291C8.25415 7.52555 8.31366 7.47846 8.37894 7.43057L8.4859 7.35199C8.93864 7.0517 9.45876 6.90048 9.97966 6.90048C10.5897 6.90048 11.1997 7.10767 11.7007 7.52044C10.2355 7.72171 8.19333 8.71865 7.84178 11.5042C7.08861 10.5522 7.03041 9.21026 7.66509 8.1969L7.70232 8.1404ZM13.4092 17.2399L13.3287 17.1573C13.5172 13.4859 16.5954 13.1805 17.2165 13.1568L17.3019 13.2446C18.0058 13.9668 18.1301 14.894 17.6535 15.8571C17.6301 15.8915 17.5622 15.9913 17.4645 16.1256L16.8266 15.8283L16.7026 16.0164C16.5789 16.2042 16.4415 16.3761 16.2939 16.5273C16.1731 16.6514 16.0336 16.7709 15.8674 16.8927L15.7376 16.988L15.8312 17.6607C15.2487 17.9306 14.2853 18.1394 13.4092 17.2399ZM17.5025 17.2388C17.3798 17.2805 17.2781 17.3677 17.2151 17.4834L16.5204 18.8032L16.3015 17.2323C16.4371 17.1258 16.5566 17.0187 16.6649 16.9075C16.7254 16.8454 16.7844 16.7803 16.8418 16.7127C16.8987 16.6455 16.954 16.5755 17.0075 16.5031L17.6259 16.7918L17.6322 16.7835L18.1489 17.0173L17.5025 17.2388ZM7.84283 9.63433C7.89474 9.69487 7.96736 9.72581 8.03997 9.72581C8.10132 9.72581 8.16319 9.70375 8.213 9.65908C8.32179 9.56114 8.33254 9.39108 8.23711 9.27914C8.19517 9.23017 8.15873 9.18981 8.12648 9.15402C8.01061 9.02486 7.97915 8.99015 7.91545 8.80395C7.86748 8.66349 7.71752 8.58976 7.58146 8.63927C7.44488 8.68851 7.37279 8.84216 7.42102 8.98208C7.51593 9.26004 7.59614 9.35744 7.74138 9.51862C7.771 9.55172 7.80456 9.58912 7.84283 9.63433ZM8.85397 10.2812C8.75146 10.3864 8.75146 10.5565 8.85397 10.6617L9.50411 11.3293C9.55523 11.3817 9.62234 11.4081 9.68946 11.4081C9.75657 11.4081 9.82368 11.3817 9.8748 11.3293C9.9773 11.2241 9.9773 11.054 9.8748 10.9488L9.22465 10.2812C9.12215 10.176 8.95621 10.176 8.85397 10.2812ZM11.1853 13.0549C11.2364 13.1073 11.3035 13.1337 11.3707 13.1337C11.4378 13.1337 11.5049 13.1073 11.556 13.0549C11.6585 12.9497 11.6585 12.7796 11.556 12.6744L10.8789 11.9791C10.7764 11.8739 10.6107 11.8739 10.5082 11.9791C10.4057 12.0843 10.4057 12.2544 10.5082 12.3596L11.1853 13.0549ZM12.8993 14.8141C12.9504 14.8666 13.0175 14.893 13.0846 14.893C13.1517 14.893 13.2189 14.8666 13.27 14.8141C13.3725 14.7089 13.3725 14.5388 13.27 14.4336L12.6274 13.7741C12.5249 13.6689 12.3592 13.6689 12.2567 13.7741C12.1542 13.8793 12.1542 14.0494 12.2567 14.1546L12.8993 14.8141ZM14.2934 15.5221C14.1901 15.4182 14.0245 15.4203 13.9227 15.5264C13.8215 15.6326 13.8234 15.803 13.9269 15.9068C14.3653 16.3471 14.7734 16.6974 15.1748 16.9775C15.2199 17.009 15.2713 17.0241 15.3221 17.0241C15.406 17.0241 15.4883 16.9829 15.5392 16.9062C15.6207 16.7835 15.5895 16.6161 15.4697 16.5322C15.0941 16.2706 14.7095 15.9399 14.2934 15.5221ZM8.93786 7.80109C9.11848 7.87912 9.1696 7.93213 9.32008 8.08954L9.36648 8.13798C9.4176 8.19098 9.48524 8.21789 9.55287 8.21789C9.61946 8.21789 9.68605 8.19206 9.73717 8.14013C9.84019 8.03573 9.84098 7.8654 9.73926 7.75965L9.69417 7.71256C9.52849 7.53927 9.41891 7.42491 9.14076 7.30491C9.00811 7.24678 8.85344 7.31136 8.7976 7.44886C8.7415 7.58582 8.80416 7.74351 8.93786 7.80109ZM10.9942 9.82053C11.0453 9.873 11.1124 9.89937 11.1795 9.89937C11.2467 9.89937 11.3138 9.873 11.3649 9.82053C11.4674 9.71532 11.4674 9.54526 11.3649 9.44005L10.6468 8.70277C10.5443 8.59756 10.3787 8.59756 10.2762 8.70277C10.1737 8.80798 10.1737 8.97804 10.2762 9.08325L10.9942 9.82053ZM12.629 11.4982C12.6801 11.5507 12.7472 11.5771 12.8143 11.5771C12.8815 11.5771 12.9486 11.5507 12.9997 11.4982C13.1022 11.393 13.1022 11.223 12.9997 11.1178L12.3519 10.4529C12.2494 10.3477 12.0837 10.3477 11.9812 10.4529C11.8787 10.5581 11.8787 10.7281 11.9812 10.8333L12.629 11.4982ZM14.2955 13.2093C14.3466 13.2618 14.4138 13.2882 14.4809 13.2882C14.548 13.2882 14.6151 13.2618 14.6662 13.2093C14.7687 13.1041 14.7687 12.9341 14.6662 12.8288L14.019 12.1645C13.9164 12.0593 13.7508 12.0593 13.6483 12.1645C13.5458 12.2697 13.5458 12.4398 13.6483 12.545L14.2955 13.2093ZM16.387 15.5552C16.4365 15.6375 16.5225 15.6827 16.6104 15.6827C16.6575 15.6827 16.705 15.6698 16.748 15.6426C16.8712 15.5643 16.909 15.3986 16.8329 15.2721C16.5215 14.756 16.1209 14.3125 15.7342 13.9103C15.632 13.8043 15.4663 13.8034 15.3635 13.9076C15.2603 14.012 15.2595 14.1823 15.3609 14.2881C15.7261 14.6683 16.1031 15.0843 16.387 15.5552Z" fill="black"/>
</svg>
