<svg width="24" height="24" viewBox="0 0 24 24" fill="none" xmlns="http://www.w3.org/2000/svg">
<path fill-rule="evenodd" clip-rule="evenodd" d="M0.933334 11.9998C0.933334 18.1012 5.89875 23.0667 12.0001 23.0667C18.1015 23.0667 23.0667 18.1013 23.0667 11.9998C23.0667 5.89857 18.1015 0.933334 12.0001 0.933334C5.89872 0.933334 0.933334 5.8986 0.933334 11.9998ZM0 11.9998C0 18.6167 5.38328 24 12.0001 24C18.617 24 24 18.6167 24 11.9998C24 5.3831 18.617 0 12.0001 0C5.38328 0 0 5.3831 0 11.9998Z" fill="black"/>
<path fill-rule="evenodd" clip-rule="evenodd" d="M12.2022 6.00002C16.0199 5.98999 19.6419 9.10951 19.7362 13.0325C19.7743 14.6243 19.063 15.6083 18.1319 16.0537C17.7576 16.2332 17.3473 16.3225 16.9379 16.3275C16.3209 16.3346 15.7028 16.15 15.1981 15.7919L15.3316 16.9855C15.4309 17.8763 14.7376 18.6667 13.8266 18.6667H10.5778C9.66679 18.6667 8.97349 17.8763 9.07282 16.9855L9.20627 15.7919C8.70159 16.15 8.08354 16.3346 7.46649 16.3275C7.05714 16.3225 6.64678 16.2332 6.27253 16.0537C5.34144 15.6083 4.63009 14.6243 4.66821 13.0325C4.76252 9.10951 8.38454 5.98999 12.2022 6.00002ZM13.8266 17.8141C14.2339 17.8141 14.5289 17.475 14.4848 17.0788C14.4135 16.4379 14.262 15.5652 14.1597 14.7678C14.0774 14.1308 13.8657 13.0656 14.3624 12.5711C14.9142 12.0204 16.053 12.0976 16.5316 12.6523C13.8978 12.0635 14.6784 15.502 16.9309 15.4779C17.2178 15.4749 17.5048 15.4117 17.7657 15.2874C18.4178 14.9754 18.9155 14.2522 18.8864 13.0515C18.8031 9.61606 15.5945 6.84159 12.2022 6.84962C8.80895 6.84159 5.60131 9.61606 5.51803 13.0515C5.48893 14.2522 5.98659 14.9754 6.63875 15.2874C6.89961 15.4117 7.18657 15.4749 7.47352 15.4779C9.72599 15.502 10.5066 12.0635 7.87284 12.6523C8.35143 12.0976 9.49021 12.0204 10.042 12.5711C10.5377 13.0656 10.327 14.1308 10.2447 14.7678C10.1424 15.5652 9.99087 16.4379 9.91963 17.0788C9.87549 17.475 10.1705 17.8141 10.5778 17.8141H13.8266Z" fill="black"/>
<path fill-rule="evenodd" clip-rule="evenodd" d="M20.4368 3.66332L16.4368 7.66333L15.7769 7.00336L19.7769 3.00336L20.4368 3.66332Z" fill="black"/>
<path fill-rule="evenodd" clip-rule="evenodd" d="M7.79095 16.3091L3.66338 20.4366L3.00342 19.7767L7.13099 15.6491L7.79095 16.3091Z" fill="black"/>
</svg>
