<svg width="24" height="24" viewBox="0 0 24 24" fill="none" xmlns="http://www.w3.org/2000/svg">
<path fill-rule="evenodd" clip-rule="evenodd" d="M0.933334 11.9998C0.933334 18.1012 5.89875 23.0667 12.0001 23.0667C18.1015 23.0667 23.0667 18.1013 23.0667 11.9998C23.0667 5.89857 18.1015 0.933334 12.0001 0.933334C5.89872 0.933334 0.933334 5.8986 0.933334 11.9998ZM0 11.9998C0 18.6167 5.38328 24 12.0001 24C18.617 24 24 18.6167 24 11.9998C24 5.3831 18.617 0 12.0001 0C5.38328 0 0 5.3831 0 11.9998Z" fill="black"/>
<path d="M19.2783 5.98223L19.2774 5.95364C19.427 5.93292 19.5748 6.00189 19.655 6.12992M19.2783 5.98223L19.6126 6.15646M19.2783 5.98223L19.2699 5.95546C19.2654 5.95688 19.2608 5.95839 19.2561 5.96002C19.1294 5.98377 19.0006 6.00736 18.8702 6.03123C17.6484 6.25501 16.2862 6.50452 15.1566 7.15749L15.1817 7.20078L15.1566 7.1575C13.9016 7.88312 12.9704 9.15964 12.9499 11.275C12.6564 11.8064 12.4122 12.4192 12.2228 13.1371C12.0725 12.7917 11.9032 12.4682 11.717 12.1644C11.7165 11.0794 11.5008 10.2297 11.13 9.56547C10.7586 8.90019 10.2333 8.42383 9.61881 8.08386C9.00592 7.74475 8.3174 7.52419 7.60475 7.3381C7.30079 7.25873 6.99403 7.18597 6.68663 7.11306C6.26953 7.01414 5.85127 6.91493 5.43733 6.79857L19.2783 5.98223ZM19.655 6.12992L19.6126 6.15646M19.655 6.12992C19.655 6.12992 19.655 6.12991 19.655 6.12991L19.6126 6.15646M19.655 6.12992C19.7352 6.25788 19.7326 6.42106 19.6487 6.54654L19.6485 6.54679C19.2315 7.16218 18.9121 7.79745 18.6219 8.41224C18.5572 8.54922 18.4939 8.68531 18.4313 8.81998C18.2135 9.28853 18.0037 9.73984 17.7709 10.1516L17.7274 10.127M19.6126 6.15646C19.6823 6.2677 19.6801 6.40961 19.6071 6.51874C19.0941 7.27582 18.7286 8.06197 18.3854 8.80005C18.1678 9.26826 17.9591 9.71713 17.7274 10.127M17.7274 10.127L17.7709 10.1516C17.4709 10.6823 17.1239 11.1592 16.6477 11.5056C16.1705 11.8528 15.5698 12.0514 14.8324 12.0514H14.6661M17.7274 10.127C17.429 10.6549 17.0862 11.1248 16.6183 11.4652C16.1505 11.8055 15.5603 12.0014 14.8324 12.0014H14.6657M14.6661 12.0514L15.5146 7.7735C16.3856 7.26997 17.4958 7.03109 18.5894 6.82256C18.5784 6.84162 18.5675 6.86067 18.5567 6.87971M14.6661 12.0514C14.5637 12.0528 14.4649 12.0131 14.392 11.9412M14.6661 12.0514C14.6662 12.0514 14.6663 12.0514 14.6664 12.0514L14.6657 12.0014M14.6657 12.0014C14.5766 12.0027 14.4906 11.9682 14.4271 11.9056M14.6657 12.0014L14.392 11.9412M14.4271 11.9056C14.3635 11.8429 14.3277 11.7574 14.3277 11.6682C14.3277 11.579 14.3635 11.4935 14.4271 11.4309M14.4271 11.9056L14.392 11.9411M14.4271 11.9056L14.392 11.9412M14.4271 11.4309C14.4906 11.3682 14.5766 11.3337 14.6657 11.335M14.4271 11.4309L14.392 11.3953C14.392 11.3953 14.392 11.3953 14.392 11.3953M14.4271 11.4309L13.866 10.0094M14.6657 11.335H14.8324C15.4456 11.335 15.872 11.1824 16.2278 10.9236C16.5835 10.6647 16.8703 10.2835 17.1442 9.79898C17.3466 9.44089 17.5409 9.02935 17.7501 8.58598C18.0045 8.04716 18.281 7.46134 18.6213 6.86738C18.5997 6.87148 18.5782 6.87559 18.5567 6.87971M14.6657 11.335V11.285H14.6661M14.6657 11.335L14.6664 11.285C14.6663 11.285 14.6662 11.285 14.6661 11.285M18.5567 6.87971C17.4761 7.08651 16.3912 7.32445 15.5396 7.81678C14.7419 8.27804 14.1332 8.92708 13.866 10.0094M18.5567 6.87971C18.2603 7.40065 18.0125 7.9144 17.7855 8.394C17.7584 8.45138 17.7315 8.50825 17.705 8.56457C17.4955 9.00825 17.3021 9.418 17.1007 9.77437C16.8282 10.2563 16.5457 10.6304 16.1984 10.8831C15.8519 11.1352 15.436 11.285 14.8324 11.285H14.6661M13.866 10.0094C14.6877 9.1237 15.6942 8.51226 16.8002 7.8405C16.8505 7.80788 16.9076 7.78759 16.9672 7.78107L16.9682 7.78096C17.1469 7.76506 17.3126 7.87521 17.3673 8.04613L17.3673 8.04617C17.4218 8.21693 17.3507 8.40271 17.1961 8.4933C16.0172 9.20939 15.0379 9.81688 14.2872 10.6856C13.5716 11.5139 13.0401 12.5958 12.7503 14.3127C13.555 14.4317 14.2867 14.8951 14.7115 15.6343C15.4379 15.6702 16.0664 15.8765 16.5331 16.2098C17.0446 16.5751 17.3819 17.0962 17.3819 17.6667C17.3819 17.8784 17.2103 18.0499 16.9987 18.05H16.9987H7.66794H7.6679C7.45636 18.0499 7.28473 17.8784 7.28473 17.6667C7.28473 17.0962 7.62201 16.575 8.13353 16.2098C8.60019 15.8765 9.22875 15.6703 9.95514 15.6343C10.367 14.9178 11.0672 14.466 11.8423 14.3306C11.6522 13.6971 11.4093 13.1404 11.1184 12.645C10.6125 12.8111 10.1893 12.8847 9.76114 12.8847C9.0556 12.8847 8.47404 12.6752 8.0125 12.3225C7.55209 11.9706 7.21547 11.4909 6.91619 10.9587L6.91618 10.9587C6.69401 10.5634 6.48918 10.1329 6.27739 9.68771C6.20428 9.53405 6.13034 9.37865 6.05457 9.22235C5.75873 8.61204 5.43387 7.98551 5.01816 7.3854L5.01815 7.38539C4.94169 7.27497 4.92859 7.13248 4.9838 7.00991M13.866 10.0094L5.28776 6.78657L5.2876 6.78659C5.15423 6.80262 5.03889 6.88734 4.9838 7.00991M14.6661 11.285C14.5637 11.2836 14.4649 11.3233 14.392 11.3953M14.392 11.3953C14.3189 11.4673 14.2777 11.5656 14.2777 11.6682C14.2777 11.7708 14.3189 11.8691 14.392 11.9411M14.392 11.3953V11.9411M14.392 11.9411L14.392 11.9412M4.9838 7.00991L5.02939 7.03044M4.9838 7.00991C4.98379 7.00992 4.98379 7.00994 4.98378 7.00995L5.02939 7.03044M5.02939 7.03044C5.07727 6.92386 5.17758 6.85018 5.29357 6.83623C5.33727 6.83112 5.38155 6.83472 5.42374 6.84669L5.02939 7.03044ZM14.4998 16.3338C14.3691 16.3327 14.251 16.2553 14.1977 16.1358L14.4998 16.3338ZM14.4998 16.3338C15.1879 16.3338 15.7469 16.526 16.1192 16.7919L14.4998 16.3338ZM10.4698 16.1358L10.5155 16.1562C10.4543 16.2935 10.3185 16.3826 10.1681 16.3838L10.1677 16.3838C9.48866 16.3838 8.94012 16.5735 8.57743 16.8326C8.38326 16.9713 8.26617 17.1264 8.18535 17.2834H16.4822C16.4014 17.1264 16.2843 16.9714 16.0901 16.8326C15.7274 16.5735 15.1789 16.3838 14.4998 16.3838H14.4994C14.349 16.3826 14.2133 16.2935 14.1521 16.1562C13.8283 15.4389 13.117 15.0508 12.3338 15.0508L10.4698 16.1358ZM10.4698 16.1358L10.5154 16.1564C10.8391 15.439 11.5505 15.0508 12.3337 15.0508L10.4698 16.1358ZM6.15107 7.767C6.43772 8.2668 6.68021 8.76113 6.90323 9.22538C6.93451 9.29048 6.96539 9.35497 6.99595 9.41879C7.19844 9.84165 7.38678 10.235 7.58167 10.5817C7.85584 11.0694 8.14346 11.4549 8.47964 11.712C8.81485 11.968 9.20125 12.1183 9.76149 12.1183C10.0429 12.1183 10.3315 12.0705 10.6672 11.9741C9.94413 11.0306 8.99393 10.316 7.81686 9.67146C7.66281 9.5932 7.58029 9.42145 7.61524 9.25226C7.65022 9.08298 7.79413 8.95811 7.96666 8.94729C8.04332 8.94076 8.1201 8.95743 8.1872 8.99516C8.18729 8.99521 8.18738 8.99527 8.18748 8.99532L8.16293 9.03888L6.15107 7.767ZM6.15107 7.767C6.25245 7.7919 6.35338 7.81649 6.45374 7.84093C7.50679 8.09745 8.49537 8.33826 9.24789 8.75454C9.66606 8.98594 10.0185 9.27044 10.2911 9.65427C10.539 10.0032 10.7225 10.4365 10.8282 10.9907L6.15107 7.767ZM12.9999 11.2847C12.9999 11.2858 13 11.2869 12.9999 11.2881V11.283C12.9999 11.2836 12.9999 11.2841 12.9999 11.2847Z" fill="black" stroke="black" stroke-width="0.1"/>
</svg>
