<svg width="24" height="24" viewBox="0 0 24 24" fill="none" xmlns="http://www.w3.org/2000/svg">
<path fill-rule="evenodd" clip-rule="evenodd" d="M0.933333 11.9998C0.933333 18.1012 5.89875 23.0667 12.0001 23.0667C18.1015 23.0667 23.0667 18.1012 23.0667 11.9998C23.0667 5.89857 18.1015 0.933333 12.0001 0.933333C5.89871 0.933333 0.933333 5.89859 0.933333 11.9998ZM0 11.9998C0 18.6167 5.38327 24 12.0001 24C18.6169 24 24 18.6167 24 11.9998C24 5.3831 18.6169 0 12.0001 0C5.38327 0 0 5.3831 0 11.9998Z" fill="black"/>
<path fill-rule="evenodd" clip-rule="evenodd" d="M12.2487 4.66675C10.8528 4.66675 9.42838 5.67024 8.34054 7.42028C7.26117 9.15622 6.66675 11.3733 6.66675 13.6626C6.66675 15.2059 7.15819 16.6519 8.05053 17.7338C9.08109 18.9835 10.5329 19.6441 12.2487 19.6441C13.9112 19.6441 15.394 18.9539 16.4237 17.7008C17.3177 16.6133 17.8306 15.1413 17.8306 13.6626C17.8306 10.3994 16.8681 8.30221 16.0606 7.11737C15.0148 5.58281 13.5896 4.66675 12.2487 4.66675ZM12.2487 5.55331C14.2217 5.55331 16.9548 8.36832 16.9548 13.6538C16.9548 16.1278 15.3054 18.7572 12.2487 18.7572C10.8029 18.7572 9.58462 18.2068 8.72558 17.1649C7.96274 16.24 7.54261 14.9931 7.54261 13.6538C7.54261 9.0917 10.0723 5.55331 12.2487 5.55331Z" fill="black"/>
<path fill-rule="evenodd" clip-rule="evenodd" d="M8.78383 13.299C8.76662 13.299 8.74913 13.2979 8.73136 13.2956C8.49889 13.2668 8.33386 13.0553 8.36263 12.8229C8.43965 12.201 8.56773 11.589 8.74349 11.0043C9.27246 9.24442 10.2119 7.78515 11.3217 7.00081C11.5133 6.86571 11.7776 6.91112 11.9125 7.10206C12.0479 7.29328 12.0025 7.55755 11.8112 7.69293C10.8673 8.36023 10.024 9.68919 9.5557 11.2483C9.39377 11.7873 9.27556 12.3522 9.20418 12.9273C9.17767 13.1419 8.99485 13.299 8.78383 13.299Z" fill="black"/>
</svg>
