<svg width="24" height="24" viewBox="0 0 24 24" fill="none" xmlns="http://www.w3.org/2000/svg">
<path fill-rule="evenodd" clip-rule="evenodd" d="M10.6425 13.4277L3.66406 20.4359L3.00269 19.7774L9.98113 12.7691L10.6425 13.4277Z" fill="black"/>
<path fill-rule="evenodd" clip-rule="evenodd" d="M14.4052 9.73162L12.0473 12.0526L11.3926 11.3874L13.7504 9.06647L14.4052 9.73162Z" fill="black"/>
<path fill-rule="evenodd" clip-rule="evenodd" d="M20.3032 3.66332L16.6365 7.32999L15.9766 6.67002L19.6432 3.00336L20.3032 3.66332Z" fill="black"/>
<path fill-rule="evenodd" clip-rule="evenodd" d="M0.933333 11.9998C0.933333 18.1012 5.89874 23.0667 12.0001 23.0667C18.1014 23.0667 23.0667 18.1012 23.0667 11.9998C23.0667 5.89857 18.1015 0.933333 12.0001 0.933333C5.89871 0.933333 0.933333 5.89859 0.933333 11.9998ZM0 11.9998C0 18.6167 5.38327 24 12.0001 24C18.6169 24 24 18.6167 24 11.9998C24 5.3831 18.6169 0 12.0001 0C5.38327 0 0 5.3831 0 11.9998Z" fill="black"/>
<path fill-rule="evenodd" clip-rule="evenodd" d="M9.0097 6.06149C8.94519 6.20938 8.97655 6.3816 9.08906 6.49727C9.08906 6.49727 9.37086 6.79463 9.69729 7.18462C10.0237 7.57461 10.3937 8.06985 10.5383 8.37389C10.9671 9.2762 11.1319 10.3467 11.2629 11.4188C11.4449 12.9081 11.2978 16.1246 11.2978 16.1246C11.2907 16.2664 11.3599 16.4012 11.4792 16.4782C11.5986 16.5551 11.7499 16.5625 11.8762 16.4976C12.0025 16.4327 12.0846 16.3053 12.0914 16.1635C12.0914 16.1635 12.2549 12.991 12.0511 11.3227C11.9184 10.237 11.7541 9.08158 11.2559 8.03343C11.0405 7.58025 10.6498 7.08549 10.3063 6.67504C9.96277 6.26464 9.66548 5.95051 9.66548 5.95051C9.59244 5.87165 9.49056 5.82575 9.38309 5.8233C9.22177 5.81942 9.07421 5.9136 9.0097 6.06149Z" fill="black"/>
<path fill-rule="evenodd" clip-rule="evenodd" d="M7.07352 3.79216C7.07352 3.79216 7.02748 4.1982 7.00447 4.70138C6.98146 5.20456 6.97167 5.79405 7.08205 6.26145C7.22062 6.84816 7.42301 7.55903 7.99285 8.03175C8.7923 8.69496 9.98854 9.25307 11.0969 8.88044C11.913 8.60599 12.4264 7.79364 12.5313 7.00076C12.6455 6.13797 12.2374 5.26823 11.6275 4.71067C11.0006 4.13751 9.99455 3.87191 9.12087 3.68898C8.2472 3.50608 7.50332 3.44074 7.50332 3.44074C7.49013 3.44008 7.47693 3.44008 7.46375 3.44074C7.26349 3.44223 7.09622 3.59319 7.07352 3.79216ZM8.95795 4.46633C9.78006 4.63843 10.7192 4.95605 11.0914 5.29639C11.5124 5.68122 11.8129 6.37449 11.7439 6.89606C11.6787 7.38848 11.2571 7.98901 10.8439 8.12795C10.1623 8.35712 9.15403 7.96284 8.50023 7.42045C8.17735 7.1526 7.98273 6.62094 7.85476 6.07915C7.78634 5.78941 7.77643 5.21223 7.79812 4.73784C7.80936 4.49203 7.81846 4.44997 7.83226 4.29411C8.07407 4.32033 8.35091 4.33923 8.95795 4.46633Z" fill="black"/>
<path fill-rule="evenodd" clip-rule="evenodd" d="M14.3825 7.8393C14.3825 7.8393 13.2974 8.2576 12.7153 8.67706C12.1579 9.07885 11.4578 9.92996 11.4578 9.92996C11.3606 10.0373 11.3295 10.1889 11.3766 10.3258C11.4237 10.4626 11.5415 10.5631 11.6841 10.5879C11.8267 10.6127 11.9715 10.558 12.0621 10.4451C12.0621 10.4451 12.829 9.5748 13.18 9.32184C13.5556 9.05116 14.6805 8.5763 14.6805 8.5763C14.8604 8.50615 14.9638 8.31675 14.9255 8.12745C14.8872 7.93816 14.7184 7.80383 14.5253 7.80911C14.4763 7.81027 14.4279 7.82051 14.3825 7.8393Z" fill="black"/>
<path fill-rule="evenodd" clip-rule="evenodd" d="M13.5136 6.70285C13.0661 7.01801 12.5508 7.5173 12.5508 8.21872C12.5508 8.90313 13.0099 9.4684 13.5555 9.7602C14.1644 10.0858 14.9087 10.0536 15.5035 9.76775C16.0406 9.50974 16.4261 8.97308 16.7425 8.50091C17.0588 8.02875 17.2739 7.60488 17.2739 7.60488C17.3625 7.43116 17.3119 7.21884 17.1544 7.10376C17.1544 7.10376 16.8898 6.91093 16.5477 6.70964C16.2057 6.5084 15.8059 6.283 15.3747 6.23565C14.7323 6.16539 14.0507 6.32462 13.5136 6.70285ZM16.1451 7.39485C16.2803 7.47441 16.2913 7.48775 16.3848 7.54999C16.3019 7.70064 16.2616 7.7912 16.0823 8.05893C15.7952 8.48741 15.3861 8.94285 15.159 9.05192C14.7994 9.22465 14.2552 9.23311 13.9302 9.05946C13.6333 8.90103 13.3452 8.48832 13.3452 8.21872C13.3452 7.96596 13.6383 7.58749 13.9713 7.35295C14.3266 7.10273 14.8449 6.97702 15.2878 7.0256C15.4452 7.04268 15.8399 7.21533 16.1451 7.39485Z" fill="black"/>
<path fill-rule="evenodd" clip-rule="evenodd" d="M12.6607 12.02V18.4425C12.6607 18.734 12.4978 19.0092 12.2091 19.1662C11.9205 19.3231 11.5549 19.3231 11.2663 19.1662C10.9776 19.0092 10.8148 18.734 10.8148 18.4425V12.0684H9.89185V18.4425C9.89186 19.0825 10.2568 19.6675 10.8247 19.9765C11.3928 20.2853 12.0818 20.2853 12.6499 19.9765C13.2187 19.6675 13.5836 19.0825 13.5836 18.4425V11.9017H13.0437L12.6607 12.02Z" fill="black"/>
<path fill-rule="evenodd" clip-rule="evenodd" d="M10.3532 14.6705V15.3628C10.3532 15.4436 10.337 15.5197 10.3118 15.5917C10.3256 15.5923 10.3394 15.5923 10.3532 15.5917H13.0076C13.174 15.594 13.3288 15.5066 13.4127 15.3629C13.4966 15.2191 13.4966 15.0413 13.4127 14.8976C13.3288 14.7538 13.174 14.6664 13.0076 14.6687H10.3532V14.6705Z" fill="black"/>
<path d="M9.31055 11.6822C9.31055 11.4273 9.51715 11.2207 9.77202 11.2207H13.9253C14.1801 11.2207 14.3867 11.4273 14.3867 11.6822C14.3867 11.937 14.1801 12.1436 13.9253 12.1436H9.77202C9.51715 12.1436 9.31055 11.937 9.31055 11.6822Z" fill="black"/>
</svg>
