<svg width="24" height="24" viewBox="0 0 24 24" fill="none" xmlns="http://www.w3.org/2000/svg">
<path fill-rule="evenodd" clip-rule="evenodd" d="M0.933333 11.9998C0.933333 18.1012 5.89875 23.0667 12.0001 23.0667C18.1015 23.0667 23.0667 18.1012 23.0667 11.9998C23.0667 5.89857 18.1015 0.933333 12.0001 0.933333C5.89871 0.933333 0.933333 5.89859 0.933333 11.9998ZM0 11.9998C0 18.6167 5.38327 24 12.0001 24C18.6169 24 24 18.6167 24 11.9998C24 5.3831 18.6169 0 12.0001 0C5.38327 0 0 5.3831 0 11.9998Z" fill="black"/>
<path fill-rule="evenodd" clip-rule="evenodd" d="M12.2461 19.9289C11.6524 19.9289 11.0064 19.8934 10.3604 19.8045C9.50481 19.7867 8.8064 19.0756 8.8064 18.1867V11.3956C8.8064 10.5067 9.52227 9.77783 10.3953 9.77783H14.2889C15.162 9.77783 15.8778 10.5067 15.8778 11.3956V18.1867C15.8778 19.0578 15.1794 19.7867 14.3239 19.8045C14.1493 19.8401 13.3112 19.9289 12.2461 19.9289ZM10.3953 10.5956C9.95878 10.5956 9.59211 10.9512 9.59211 11.4134V18.2045C9.59211 18.6489 9.94132 19.0223 10.3953 19.0223C10.4127 19.0223 10.4302 19.0223 10.4477 19.0223C12.2635 19.2889 14.2191 19.0223 14.2366 19.0223C14.254 19.0223 14.2715 19.0223 14.2889 19.0223C14.7254 19.0223 15.0921 18.6667 15.0921 18.2045V11.4134C15.0921 10.9689 14.7429 10.5956 14.2889 10.5956H10.3953Z" fill="black"/>
<path fill-rule="evenodd" clip-rule="evenodd" d="M14.8302 10.5956H9.59213C9.38261 10.5956 9.20801 10.4178 9.20801 10.2045V8.87115C9.20801 8.65782 9.38261 8.48004 9.59213 8.48004H14.8302C15.0398 8.48004 15.2144 8.65782 15.2144 8.87115V10.2045C15.2318 10.4178 15.0572 10.5956 14.8302 10.5956ZM9.99372 9.7956H14.4461V9.26226H9.99372V9.7956Z" fill="black"/>
<path fill-rule="evenodd" clip-rule="evenodd" d="M14.1668 9.26225C13.9573 9.26225 13.7827 9.08447 13.7827 8.87114V7.84003H13.4335C13.2589 7.84003 13.1192 7.73336 13.0668 7.55558L12.2113 4.87114C12.1589 4.87114 12.1065 4.87114 12.0367 4.87114L11.3208 7.53781C11.2684 7.71558 11.1113 7.84003 10.9367 7.84003H10.6398V8.87114C10.6398 9.08447 10.4652 9.26225 10.2557 9.26225C10.0462 9.26225 9.87158 9.08447 9.87158 8.87114V7.43114C9.87158 7.21781 10.0462 7.04003 10.2557 7.04003H10.6573L11.3557 4.44447C11.3906 4.32003 11.4779 4.23114 11.5827 4.17781C12.2113 3.91114 12.6827 4.17781 12.7351 4.19559C12.8224 4.24892 12.8922 4.32003 12.9097 4.4267L13.7303 7.04003H14.1843C14.3938 7.04003 14.5684 7.21781 14.5684 7.43114V8.87114C14.5509 9.08447 14.3763 9.26225 14.1668 9.26225Z" fill="black"/>
<path fill-rule="evenodd" clip-rule="evenodd" d="M10.8143 18.1334C10.6048 18.1334 10.4302 17.9556 10.4302 17.7422V11.84C10.4302 11.6267 10.6048 11.4489 10.8143 11.4489C11.0238 11.4489 11.1984 11.6267 11.1984 11.84V17.7422C11.2159 17.9556 11.0413 18.1334 10.8143 18.1334Z" fill="black"/>
<path fill-rule="evenodd" clip-rule="evenodd" d="M11.9841 7.84002H10.919C10.7095 7.84002 10.5349 7.66224 10.5349 7.44891C10.5349 7.23558 10.7095 7.0578 10.919 7.0578H11.9841C12.1936 7.0578 12.3682 7.23558 12.3682 7.44891C12.3682 7.66224 12.1936 7.84002 11.9841 7.84002Z" fill="black"/>
</svg>
