<svg width="24" height="24" viewBox="0 0 24 24" fill="none" xmlns="http://www.w3.org/2000/svg">
<g clip-path="url(#clip0_32_507)">
<path fill-rule="evenodd" clip-rule="evenodd" d="M0.933333 12C0.933333 18.1 5.9 23.0667 12 23.0667C18.1 23.0667 23.0667 18.1 23.0667 12C23.0667 5.9 18.1 0.933333 12 0.933333C5.9 0.933333 0.933333 5.9 0.933333 12ZM0 12C0 18.62 5.38 24 12 24C18.62 24 24 18.6133 24 12C24 5.38 18.62 0 12 0C5.38 0 0 5.38 0 12Z" fill="black"/>
<path fill-rule="evenodd" clip-rule="evenodd" d="M14.72 8.62667C14.2866 7.78667 14.1466 7.1 14.1066 6.66C14.4533 6.54667 14.7066 6.20667 14.7066 5.8V5.34C14.7066 4.84667 14.3266 4.44 13.8666 4.44H10.52C10.06 4.44 9.67995 4.84667 9.67995 5.34V5.8C9.67995 6.20667 9.93328 6.54667 10.28 6.66C10.24 7.10667 10.1066 7.79334 9.66662 8.62667C9.53995 8.87333 9.40662 9.16667 9.27328 9.49333C8.89328 10.4467 8.69995 11.4733 8.69995 12.56V16.78C8.69995 18.4 9.93328 19.7133 11.44 19.7133H12.9333C14.4466 19.7133 15.6733 18.3933 15.6733 16.78V12.56C15.6733 11.48 15.4799 10.4467 15.0999 9.49333C14.9799 9.16667 14.8466 8.87333 14.72 8.62667ZM10.4133 5.34C10.4133 5.27334 10.4666 5.22 10.5266 5.22H13.8733C13.9333 5.22 13.9866 5.27334 13.9866 5.34V5.8C13.9866 5.86667 13.9333 5.92 13.8733 5.92H10.5266C10.4666 5.92 10.4133 5.86667 10.4133 5.8V5.34ZM14.9533 16.78C14.9533 17.9667 14.0466 18.94 12.94 18.94H11.4466C10.3333 18.94 9.43328 17.9733 9.43328 16.78V12.56C9.43328 11.5867 9.60662 10.6533 9.94662 9.8C10.0666 9.5 10.1866 9.23334 10.3066 9.00667C10.8 8.06667 10.9666 7.27334 11.0066 6.7H13.3733C13.42 7.27334 13.5866 8.06667 14.0733 9.00667C14.1933 9.23334 14.3133 9.5 14.4333 9.8C14.7733 10.6533 14.9466 11.58 14.9466 12.56V16.78H14.9533Z" fill="black"/>
<path fill-rule="evenodd" clip-rule="evenodd" d="M10.7066 9.51998C10.6732 9.56664 10.3932 9.99331 10.2866 10.48C10.2399 10.6866 10.3666 10.9 10.5599 10.9466C10.5866 10.9533 10.6132 10.9533 10.6399 10.9533C10.8066 10.9533 10.9532 10.8333 10.9932 10.6533C11.0666 10.32 11.2866 9.97998 11.2932 9.97331C11.4132 9.79998 11.3732 9.55331 11.2132 9.42664C11.0532 9.30664 10.8199 9.34664 10.7066 9.51998Z" fill="black"/>
<path fill-rule="evenodd" clip-rule="evenodd" d="M11.3333 8.45331C11.3333 8.45331 11.2933 8.51331 11.2267 8.61331C11.1133 8.79331 11.16 9.03331 11.3267 9.15331C11.3867 9.19998 11.46 9.21998 11.5267 9.21998C11.6467 9.21998 11.76 9.15998 11.8267 9.04664C11.8733 8.96664 11.9067 8.91998 11.9133 8.91998C12.0333 8.74664 12 8.50664 11.84 8.37331C11.68 8.24664 11.4533 8.27998 11.3333 8.45331Z" fill="black"/>
<path d="M10.8999 15.3266H12.9999C13.3466 15.3333 13.6599 15.14 13.7932 14.8533C13.8266 14.78 13.8532 14.6933 13.8532 14.6133L13.9866 13.16C14.0732 12.6066 13.6466 12.1 13.0466 12.0266L12.9132 12.0066C12.4732 11.9466 12.0666 12.2266 11.9932 12.62C11.9599 12.8133 12.0132 13.0066 12.1466 13.1733C12.2799 13.3333 12.4732 13.4466 12.6932 13.4733C12.7066 13.4733 12.7132 13.48 12.7332 13.48L12.5999 13.88C12.4732 13.7666 12.3132 13.6866 12.1332 13.6666C11.9666 13.64 11.7932 13.6733 11.6399 13.74C11.4799 13.6133 11.2732 13.54 11.0599 13.5333C10.5732 13.5066 10.1266 13.8066 10.0199 14.2466C9.97324 14.4333 9.99324 14.6266 10.0732 14.8C10.0999 14.8333 10.3266 15.3266 10.8999 15.3266ZM10.3332 14.3C10.3999 14.0133 10.6799 13.8133 10.9999 13.8133C11.0132 13.8133 11.0332 13.8133 11.0399 13.8133C11.2199 13.82 11.3866 13.8933 11.5066 14.02C11.5599 14.0733 11.6532 14.08 11.7132 14.04C11.8199 13.9666 11.9532 13.9333 12.0866 13.9466C12.2799 13.9733 12.4332 14.0933 12.4999 14.2666C12.5132 14.3133 12.5599 14.3533 12.6199 14.36H12.6266C12.7066 14.38 12.7866 14.3333 12.8066 14.2666L13.0866 13.3933L13.1466 13.2C13.1732 13.12 13.1266 13.04 13.0399 13.0133C12.9532 12.9933 12.8666 13.04 12.8399 13.1133L12.8132 13.2C12.7732 13.2 12.7066 13.1866 12.6999 13.1866C12.5732 13.16 12.4666 13.0933 12.3866 13C12.3066 12.9 12.2799 12.78 12.2999 12.6666C12.3399 12.4266 12.5932 12.2533 12.8599 12.2866L12.9932 12.3066C13.4266 12.3666 13.7266 12.7266 13.6666 13.1266C13.6666 13.1333 13.6666 13.1333 13.6666 13.1333L13.5332 14.5866C13.5266 14.64 13.5132 14.6866 13.4932 14.7333C13.4066 14.92 13.2132 15.04 12.9932 15.04H10.8932C10.5666 15.04 10.3999 14.7333 10.3866 14.72C10.3199 14.5933 10.2999 14.4466 10.3332 14.3Z" fill="black"/>
<mask id="mask0_32_507" style="mask-type:alpha" maskUnits="userSpaceOnUse" x="9" y="11" width="5" height="5">
<path d="M10.8999 15.3266H12.9999C13.3466 15.3333 13.6599 15.14 13.7932 14.8533C13.8266 14.78 13.8532 14.6933 13.8532 14.6133L13.9866 13.16C14.0732 12.6066 13.6466 12.1 13.0466 12.0266L12.9132 12.0066C12.4732 11.9466 12.0666 12.2266 11.9932 12.62C11.9599 12.8133 12.0132 13.0066 12.1466 13.1733C12.2799 13.3333 12.4732 13.4466 12.6932 13.4733C12.7066 13.4733 12.7132 13.48 12.7332 13.48L12.5999 13.88C12.4732 13.7666 12.3132 13.6866 12.1332 13.6666C11.9666 13.64 11.7932 13.6733 11.6399 13.74C11.4799 13.6133 11.2732 13.54 11.0599 13.5333C10.5732 13.5066 10.1266 13.8066 10.0199 14.2466C9.97324 14.4333 9.99324 14.6266 10.0732 14.8C10.0999 14.8333 10.3266 15.3266 10.8999 15.3266ZM10.3332 14.3C10.3999 14.0133 10.6799 13.8133 10.9999 13.8133C11.0132 13.8133 11.0332 13.8133 11.0399 13.8133C11.2199 13.82 11.3866 13.8933 11.5066 14.02C11.5599 14.0733 11.6532 14.08 11.7132 14.04C11.8199 13.9666 11.9532 13.9333 12.0866 13.9466C12.2799 13.9733 12.4332 14.0933 12.4999 14.2666C12.5132 14.3133 12.5599 14.3533 12.6199 14.36H12.6266C12.7066 14.38 12.7866 14.3333 12.8066 14.2666L13.0866 13.3933L13.1466 13.2C13.1732 13.12 13.1266 13.04 13.0399 13.0133C12.9532 12.9933 12.8666 13.04 12.8399 13.1133L12.8132 13.2C12.7732 13.2 12.7066 13.1866 12.6999 13.1866C12.5732 13.16 12.4666 13.0933 12.3866 13C12.3066 12.9 12.2799 12.78 12.2999 12.6666C12.3399 12.4266 12.5932 12.2533 12.8599 12.2866L12.9932 12.3066C13.4266 12.3666 13.7266 12.7266 13.6666 13.1266C13.6666 13.1333 13.6666 13.1333 13.6666 13.1333L13.5332 14.5866C13.5266 14.64 13.5132 14.6866 13.4932 14.7333C13.4066 14.92 13.2132 15.04 12.9932 15.04H10.8932C10.5666 15.04 10.3999 14.7333 10.3866 14.72C10.3199 14.5933 10.2999 14.4466 10.3332 14.3Z" fill="white"/>
</mask>
<g mask="url(#mask0_32_507)">
<path d="M12.9999 15.3267L13.0066 14.66H12.9999V15.3267ZM13.7932 14.8533L13.1932 14.5667V14.5733L13.7932 14.8533ZM13.8532 14.6133L13.1866 14.5533V14.56V14.5667L13.8532 14.6133ZM13.9866 13.1667L13.3332 13.0667V13.0867V13.1067L13.9866 13.1667ZM13.0466 12.0267L12.9532 12.6867H12.9599L13.0466 12.0267ZM12.9132 12.0067L13.0066 11.3467H12.9999L12.9132 12.0067ZM11.9932 12.62L12.6466 12.74L11.9932 12.62ZM12.6932 13.4733L12.6066 14.1333L12.6466 14.14H12.6866V13.4733H12.6932ZM12.7332 13.48L13.3666 13.6867L13.6532 12.8133H12.7332V13.48ZM12.6066 13.88L12.1599 14.3733L12.9199 15.0667L13.2399 14.0867L12.6066 13.88ZM12.1332 13.6667L12.0399 14.3267H12.0466L12.1332 13.6667ZM11.6466 13.7333L11.2399 14.26L11.5532 14.5L11.9132 14.34L11.6466 13.7333ZM11.0666 13.5267L11.0266 14.1933H11.0332H11.0399L11.0666 13.5267ZM10.0266 14.24L10.6732 14.4067V14.4L10.0266 14.24ZM10.0799 14.7933L9.46656 15.0667L9.47989 15.0933L9.49323 15.12L10.0799 14.7933ZM10.3332 14.3L10.9799 14.4667V14.46V14.4533L10.3332 14.3ZM11.0466 13.8133L11.0799 13.1467H11.0599H11.0399V13.8133H11.0466ZM11.5066 14.0133L11.0266 14.48L11.0332 14.4867L11.5066 14.0133ZM11.7199 14.0333L12.0932 14.5867H12.0999L11.7199 14.0333ZM12.0932 13.9467L12.1932 13.2867H12.1799H12.1666L12.0932 13.9467ZM12.5066 14.2667L13.1399 14.06L13.1332 14.0467L13.1266 14.0333L12.5066 14.2667ZM12.6266 14.36L12.5199 15.02L12.5732 15.0267H12.6266V14.36ZM12.6332 14.36L12.7932 13.7133L12.7132 13.6933H12.6332V14.36ZM12.8066 14.2667L12.1732 14.06V14.0667V14.0733L12.8066 14.2667ZM13.0932 13.3933L12.4599 13.1867L13.0932 13.3933ZM13.1532 13.2L13.7866 13.4067V13.4L13.1532 13.2ZM13.0466 13.02L13.2266 12.38L13.2066 12.3733L13.1866 12.3667L13.0466 13.02ZM12.8532 13.12L12.2199 12.9067L12.2132 12.92L12.2066 12.9333L12.8532 13.12ZM12.8266 13.2V13.8667H13.3199L13.4666 13.3933L12.8266 13.2ZM12.7132 13.1867L12.5866 13.84L12.6466 13.8533H12.7066V13.1867H12.7132ZM12.3999 13L11.8732 13.4133L11.8799 13.42L11.8866 13.4267L12.3999 13ZM12.3066 12.6733L12.9599 12.7933V12.7867L12.3066 12.6733ZM12.8666 12.2933L12.9599 11.6333H12.9532H12.9466L12.8666 12.2933ZM12.9999 12.3067L12.9066 12.9667H12.9132L12.9999 12.3067ZM13.6732 13.1267L13.0132 13.02L13.0066 13.0733V13.1267H13.6732ZM13.6732 13.1333L14.3399 13.1933V13.1667V13.1333H13.6732ZM13.5399 14.5933L14.2066 14.66V14.6533L13.5399 14.5933ZM13.4999 14.74L14.1066 15.0133V15.0067L13.4999 14.74ZM10.3932 14.7267L9.80656 15.0467L9.82656 15.0867L9.85323 15.12L10.3932 14.7267ZM10.8999 15.9933H12.9999V14.66H10.8999V15.9933ZM12.9866 15.9933C13.5732 16 14.1399 15.68 14.3932 15.1333L13.1866 14.5667C13.1732 14.6 13.1066 14.66 13.0066 14.66L12.9866 15.9933ZM14.3932 15.14C14.4666 14.9867 14.5066 14.82 14.5199 14.6533L13.1866 14.5667C13.1866 14.56 13.1866 14.56 13.1866 14.56L14.3932 15.14ZM14.5199 14.68L14.6532 13.2267L13.3266 13.1L13.1932 14.5533L14.5199 14.68ZM14.6466 13.2667C14.7932 12.2867 14.0466 11.4867 13.1332 11.3667L12.9666 12.6867C13.2532 12.72 13.3532 12.9333 13.3332 13.06L14.6466 13.2667ZM13.1399 11.3667L13.0066 11.3467L12.8199 12.6667L12.9532 12.6867L13.1399 11.3667ZM12.9999 11.3467C12.2599 11.2533 11.4866 11.7133 11.3399 12.5L12.6532 12.74C12.6532 12.74 12.6599 12.72 12.6932 12.6933C12.7266 12.6733 12.7732 12.6533 12.8332 12.6667L12.9999 11.3467ZM11.3399 12.5C11.2599 12.9133 11.3932 13.3 11.6266 13.5933L12.6666 12.7533C12.6532 12.74 12.6532 12.7267 12.6532 12.7267C12.6532 12.7267 12.6532 12.7267 12.6532 12.7333V12.74L11.3399 12.5ZM11.6266 13.5933C11.8732 13.8933 12.2266 14.0867 12.6066 14.1333L12.7799 12.8133C12.7199 12.8067 12.6799 12.78 12.6666 12.7533L11.6266 13.5933ZM12.6932 14.14C12.6466 14.14 12.6132 14.1333 12.5932 14.1333C12.5866 14.1333 12.5866 14.1333 12.5866 14.1333H12.5799H12.5866C12.5999 14.1333 12.6199 14.14 12.6466 14.14C12.6732 14.14 12.6999 14.1467 12.7332 14.1467V12.8133C12.7532 12.8133 12.7732 12.8133 12.7932 12.8133C12.8132 12.8133 12.8266 12.82 12.8266 12.82C12.8266 12.82 12.8132 12.82 12.8066 12.8133C12.7866 12.8133 12.7466 12.8067 12.6932 12.8067V14.14ZM12.0999 13.2733L11.9666 13.6733L13.2332 14.0867L13.3666 13.6867L12.0999 13.2733ZM13.0532 13.3867C12.8266 13.18 12.5332 13.0467 12.2199 13.0067L12.0466 14.3267C12.0999 14.3333 12.1332 14.3533 12.1532 14.3733L13.0532 13.3867ZM12.2266 13.0067C11.9266 12.9667 11.6266 13.0133 11.3732 13.1267L11.9066 14.3467C11.9532 14.3267 11.9999 14.32 12.0332 14.3267L12.2266 13.0067ZM12.0466 13.2067C11.7799 13 11.4399 12.88 11.0932 12.86L11.0332 14.1933C11.1132 14.2 11.1866 14.2267 11.2399 14.2667L12.0466 13.2067ZM11.1066 12.86C10.3466 12.8133 9.56656 13.2867 9.37989 14.0867L10.6799 14.3933C10.6999 14.3133 10.8199 14.18 11.0332 14.1933L11.1066 12.86ZM9.37989 14.0733C9.29323 14.4133 9.33323 14.76 9.46656 15.0667L10.6866 14.5267C10.6666 14.4733 10.6666 14.4333 10.6732 14.4067L9.37989 14.0733ZM9.49323 15.12C9.48656 15.1067 9.87989 16 10.8999 16V14.6667C10.8532 14.6667 10.8266 14.66 10.8132 14.6467C10.7932 14.64 10.7732 14.62 10.7532 14.6C10.7332 14.58 10.7132 14.5533 10.6999 14.5333C10.6799 14.5067 10.6932 14.52 10.6666 14.4733L9.49323 15.12ZM10.9799 14.4533C10.9799 14.4667 10.9732 14.4733 10.9666 14.48C10.9599 14.4867 10.9599 14.4867 10.9666 14.4867C10.9666 14.4867 10.9732 14.48 10.9799 14.48C10.9866 14.48 10.9932 14.4733 10.9999 14.4733V13.14C10.4132 13.14 9.83323 13.5133 9.67989 14.14L10.9799 14.4533ZM10.9999 14.48C11.0066 14.48 11.0066 14.48 10.9999 14.48C11.0066 14.48 11.0066 14.48 10.9999 14.48C11.0066 14.48 11.0066 14.48 10.9999 14.48C11.0066 14.48 11.0066 14.48 10.9999 14.48C11.0066 14.48 11.0066 14.48 10.9999 14.48C11.0066 14.48 11.0066 14.48 10.9999 14.48C11.0066 14.48 11.0066 14.48 10.9999 14.48C11.0066 14.48 11.0066 14.48 10.9999 14.48C11.0066 14.48 11.0066 14.48 10.9999 14.48C11.0066 14.48 11.0066 14.48 10.9999 14.48C11.0066 14.48 11.0066 14.48 10.9999 14.48C11.0066 14.48 11.0066 14.48 10.9999 14.48C11.0066 14.48 11.0066 14.48 10.9999 14.48C11.0066 14.48 11.0066 14.48 10.9999 14.48C11.0066 14.48 11.0066 14.48 10.9999 14.48C11.0066 14.48 11.0066 14.48 10.9999 14.48C11.0066 14.48 11.0066 14.48 10.9999 14.48C11.0066 14.48 11.0066 14.48 10.9999 14.48C11.0066 14.48 11.0066 14.48 10.9999 14.48C11.0066 14.48 11.0066 14.48 10.9999 14.48C11.0066 14.48 11.0066 14.48 10.9999 14.48C11.0066 14.48 11.0066 14.48 10.9999 14.48C11.0066 14.48 11.0066 14.48 10.9999 14.48C11.0066 14.48 11.0066 14.48 10.9999 14.48C11.0066 14.48 11.0066 14.48 10.9999 14.48C11.0066 14.48 11.0066 14.48 10.9999 14.48C11.0066 14.48 11.0066 14.48 10.9999 14.48C11.0066 14.48 11.0066 14.48 10.9999 14.48C11.0066 14.48 11.0066 14.48 10.9999 14.48C11.0066 14.48 11.0066 14.48 10.9999 14.48C11.0066 14.48 11.0066 14.48 10.9999 14.48C11.0066 14.48 11.0066 14.48 10.9999 14.48C11.0066 14.48 11.0066 14.48 10.9999 14.48C11.0066 14.48 11.0066 14.48 10.9999 14.48H11.0066V13.1467V14.48H10.9999ZM11.0066 14.48C11.0199 14.48 11.0266 14.48 11.0266 14.4867C11.0266 14.4867 11.0332 14.4867 11.0266 14.4867L11.9799 13.56C11.7332 13.3067 11.3999 13.1733 11.0732 13.1533L11.0066 14.48ZM11.0399 14.4867C11.3199 14.7667 11.7666 14.8067 12.0999 14.5867L11.3466 13.4867C11.4599 13.4067 11.5799 13.3933 11.6799 13.4C11.7732 13.4067 11.8866 13.4467 11.9866 13.5467L11.0399 14.4867ZM12.0999 14.58C12.0866 14.5933 12.0666 14.6 12.0532 14.6C12.0399 14.6067 12.0266 14.6 12.0266 14.6L12.1666 13.2733C11.8932 13.2467 11.5999 13.3 11.3399 13.48L12.0999 14.58ZM11.9932 14.6067C11.9866 14.6067 11.9599 14.6 11.9399 14.58C11.9132 14.56 11.8932 14.5333 11.8799 14.4933L13.1332 14.0333C12.9799 13.6067 12.5999 13.3467 12.1932 13.2867L11.9932 14.6067ZM11.8732 14.4733C11.9799 14.7933 12.2532 14.9733 12.5199 15.02L12.7399 13.7067C12.8866 13.7333 13.0732 13.84 13.1466 14.06L11.8732 14.4733ZM12.6266 15.0267L12.6332 13.6933H12.6266V15.0267ZM12.4732 15.0067C12.8599 15.1 13.3199 14.9 13.4466 14.4533L12.1666 14.08C12.2532 13.7733 12.5532 13.66 12.7866 13.7133L12.4732 15.0067ZM13.4466 14.4667L13.7266 13.5933L12.4599 13.18L12.1799 14.0533L13.4466 14.4667ZM13.7266 13.6L13.7866 13.4067L12.5199 12.9867L12.4599 13.18L13.7266 13.6ZM13.7866 13.4067C13.9399 12.9333 13.6466 12.4933 13.2332 12.3733L12.8666 13.6533C12.6199 13.58 12.4199 13.3 12.5199 12.9933L13.7866 13.4067ZM13.1999 12.3667C12.8399 12.2867 12.3799 12.4467 12.2199 12.9L13.4799 13.3333C13.3799 13.6333 13.0932 13.7133 12.8999 13.6667L13.1999 12.3667ZM12.2132 12.92L12.1866 13.0067L13.4599 13.3933L13.4866 13.3067L12.2132 12.92ZM12.8266 12.5333C12.8532 12.5333 12.8666 12.5333 12.8666 12.5333C12.8666 12.5333 12.8666 12.5333 12.8599 12.5333C12.8532 12.5333 12.8532 12.5333 12.8332 12.5267C12.8266 12.5267 12.8199 12.5267 12.8066 12.52C12.7999 12.52 12.7932 12.52 12.7799 12.5133C12.7732 12.5133 12.7666 12.5133 12.7532 12.5133C12.7466 12.5133 12.7266 12.5133 12.7132 12.5133V13.8467C12.6932 13.8467 12.6799 13.8467 12.6732 13.8467C12.6666 13.8467 12.6532 13.8467 12.6532 13.8467C12.6399 13.8467 12.6332 13.8467 12.6332 13.8467C12.6266 13.8467 12.6199 13.8467 12.6266 13.8467C12.6266 13.8467 12.6332 13.8467 12.6399 13.8467C12.6466 13.8467 12.6532 13.8467 12.6599 13.8533C12.6732 13.8533 12.6999 13.86 12.7266 13.86C12.7532 13.86 12.7932 13.8667 12.8332 13.8667V12.5333H12.8266ZM12.8332 12.5333C12.8666 12.54 12.8932 12.5533 12.9132 12.58L11.8866 13.4267C12.0599 13.64 12.3066 13.7933 12.5932 13.84L12.8332 12.5333ZM12.9199 12.5933C12.9466 12.6267 12.9799 12.7 12.9599 12.7933L11.6466 12.5533C11.5866 12.8733 11.6799 13.18 11.8666 13.42L12.9199 12.5933ZM12.9666 12.7867C12.9532 12.8667 12.9066 12.9133 12.8799 12.9333C12.8532 12.9533 12.8199 12.96 12.7866 12.96L12.9532 11.64C12.3799 11.5667 11.7666 11.9267 11.6532 12.5667L12.9666 12.7867ZM12.7732 12.9467L12.9066 12.9667L13.0999 11.6467L12.9666 11.6267L12.7732 12.9467ZM12.9132 12.9733C12.9666 12.98 12.9932 13.0067 13.0066 13.02C13.0132 13.0267 13.0132 13.0333 13.0132 13.0333L14.3332 13.24C14.4666 12.4133 13.8332 11.7533 13.0866 11.6533L12.9132 12.9733ZM13.0066 13.1267C13.0066 13.1333 13.0066 13.1333 13.0066 13.1267C13.0066 13.1333 13.0066 13.1333 13.0066 13.1267C13.0066 13.1333 13.0066 13.1333 13.0066 13.1267C13.0066 13.1333 13.0066 13.1333 13.0066 13.1267C13.0066 13.1333 13.0066 13.1333 13.0066 13.1267C13.0066 13.1333 13.0066 13.1333 13.0066 13.1267C13.0066 13.1333 13.0066 13.1333 13.0066 13.1267C13.0066 13.1333 13.0066 13.1333 13.0066 13.1267C13.0066 13.1333 13.0066 13.1333 13.0066 13.1267C13.0066 13.1333 13.0066 13.1333 13.0066 13.1267C13.0066 13.1333 13.0066 13.1333 13.0066 13.1267C13.0066 13.1333 13.0066 13.1333 13.0066 13.1267C13.0066 13.1333 13.0066 13.1333 13.0066 13.1267C13.0066 13.1333 13.0066 13.1333 13.0066 13.1267C13.0066 13.1333 13.0066 13.1333 13.0066 13.1267C13.0066 13.1333 13.0066 13.1333 13.0066 13.1267C13.0066 13.1333 13.0066 13.1333 13.0066 13.1267C13.0066 13.1333 13.0066 13.1333 13.0066 13.1267C13.0066 13.1333 13.0066 13.1333 13.0066 13.1267C13.0066 13.1333 13.0066 13.1333 13.0066 13.1267C13.0066 13.1333 13.0066 13.1333 13.0066 13.1267C13.0066 13.1333 13.0066 13.1333 13.0066 13.1267C13.0066 13.1333 13.0066 13.1333 13.0066 13.1267C13.0066 13.1333 13.0066 13.1333 13.0066 13.1267C13.0066 13.1333 13.0066 13.1333 13.0066 13.1267C13.0066 13.1333 13.0066 13.1333 13.0066 13.1267C13.0066 13.1333 13.0066 13.1333 13.0066 13.1267C13.0066 13.1333 13.0066 13.1333 13.0066 13.1267C13.0066 13.1333 13.0066 13.1333 13.0066 13.1267C13.0066 13.1333 13.0066 13.1333 13.0066 13.1267C13.0066 13.1333 13.0066 13.1333 13.0066 13.1267C13.0066 13.1333 13.0066 13.1333 13.0066 13.1267C13.0066 13.1333 13.0066 13.1333 13.0066 13.1267C13.0066 13.1333 13.0066 13.1333 13.0066 13.1333H14.3399H13.0066V13.1267ZM13.0066 13.08L12.8732 14.5333L14.1999 14.6533L14.3332 13.2L13.0066 13.08ZM12.8799 14.5267C12.8866 14.4867 12.8932 14.46 12.8932 14.4733L14.1132 15.0067C14.1532 14.92 14.1932 14.8067 14.2066 14.66L12.8799 14.5267ZM12.8932 14.4667C12.9132 14.4267 12.9399 14.4 12.9532 14.3933C12.9732 14.38 12.9866 14.38 12.9999 14.38V15.7133C13.4466 15.7133 13.9066 15.4667 14.1066 15.0133L12.8932 14.4667ZM12.9999 14.3733H10.8999V15.7067H12.9999V14.3733ZM10.8999 14.3733C10.9132 14.3733 10.9199 14.3733 10.9332 14.38C10.9466 14.38 10.9532 14.3867 10.9599 14.3867C10.9732 14.3933 10.9799 14.4 10.9732 14.3933C10.9732 14.3933 10.9666 14.3867 10.9599 14.38C10.9599 14.38 10.9599 14.3733 10.9532 14.3733C10.9532 14.3733 10.9532 14.3733 10.9532 14.3667C10.9532 14.3667 10.9532 14.36 10.9466 14.36C10.9466 14.36 10.9399 14.3533 10.9399 14.3467C10.9399 14.34 10.9332 14.3333 10.9199 14.32L9.84656 15.1067C9.77989 15.0133 10.1532 15.7 10.8932 15.7V14.3733H10.8999ZM10.9732 14.4067C10.9732 14.4067 10.9799 14.4133 10.9799 14.4267C10.9799 14.44 10.9799 14.4533 10.9799 14.4667L9.68656 14.1333C9.60656 14.4467 9.65323 14.7733 9.80656 15.04L10.9732 14.4067Z" fill="black"/>
</g>
</g>
<defs>
<clipPath id="clip0_32_507">
<rect width="24" height="24" fill="white"/>
</clipPath>
</defs>
</svg>
