<svg width="24" height="24" viewBox="0 0 24 24" fill="none" xmlns="http://www.w3.org/2000/svg">
<path fill-rule="evenodd" clip-rule="evenodd" d="M0.933333 11.9998C0.933333 18.1012 5.89875 23.0667 12.0001 23.0667C18.1015 23.0667 23.0667 18.1012 23.0667 11.9998C23.0667 5.89857 18.1015 0.933333 12.0001 0.933333C5.89871 0.933333 0.933333 5.89859 0.933333 11.9998ZM0 11.9998C0 18.6167 5.38327 24 12.0001 24C18.6169 24 24 18.6167 24 11.9998C24 5.3831 18.6169 0 12.0001 0C5.38327 0 0 5.3831 0 11.9998Z" fill="black"/>
<path fill-rule="evenodd" clip-rule="evenodd" d="M15.8208 17.7269C15.822 17.7269 15.8232 17.7269 15.8246 17.7269C16.6435 17.7353 17.5775 17.7991 18.2943 18.4519C18.3201 18.4765 18.3607 18.5071 18.4205 18.5071C18.5145 18.5071 18.5908 18.4319 18.5908 18.3395C18.5908 18.2783 18.5575 18.2375 18.5376 18.2189C18.426 18.1161 17.8508 17.4999 17.8031 15.7591C17.8027 15.7465 17.8031 15.7339 17.8041 15.7213C17.8088 15.6633 17.8132 15.6047 17.8132 15.5453C17.8132 14.8801 17.5115 14.2587 16.9854 13.8407C16.7458 13.6469 16.4776 13.5081 16.1858 13.4257C16.1744 13.4225 16.1631 13.4187 16.1519 13.4143C15.7193 13.2907 15.3996 13.1725 15.1528 12.9773C14.8278 12.7107 14.6738 12.3527 14.5076 11.7879C14.504 11.7787 14.5009 11.7691 14.4979 11.7591C14.369 11.3159 14.0935 10.9151 13.722 10.6311C13.4907 10.4515 13.2342 10.3219 12.9581 10.2439C12.9463 10.2407 12.935 10.2367 12.9238 10.2323C12.4906 10.1085 12.1704 9.99032 11.9233 9.79472C11.6003 9.52852 11.4467 9.17192 11.2813 8.61072C11.2771 8.60012 11.2732 8.58892 11.27 8.57792C11.1539 8.17812 10.9246 7.81972 10.6069 7.54132C10.1964 7.17592 9.66789 6.97552 9.11722 6.97552C9.04986 6.97552 8.98351 6.97992 8.91777 6.98572C8.906 6.98692 8.89505 6.98752 8.88247 6.98712C8.06276 6.97912 7.12841 6.91572 6.41136 6.26232C6.3856 6.23772 6.34461 6.20732 6.28476 6.20732C6.19122 6.20732 6.11493 6.28232 6.11493 6.37472C6.11493 6.43592 6.14821 6.47652 6.16789 6.49532C6.16809 6.49552 6.16829 6.49592 6.1687 6.49612C6.28597 6.60712 6.8551 7.23312 6.90238 8.95492C6.90278 8.96752 6.90238 8.98012 6.90157 8.99272C6.8967 9.05092 6.89223 9.10932 6.89223 9.16872C6.89223 9.83372 7.19394 10.4551 7.72006 10.8737C7.95968 11.0673 8.22832 11.2063 8.51968 11.2885C8.53145 11.2919 8.54281 11.2957 8.55397 11.3001C8.98615 11.4235 9.30551 11.5417 9.55305 11.7369C9.87789 12.0035 10.0317 12.3619 10.1981 12.9269C10.2015 12.9361 10.2048 12.9455 10.2074 12.9549C10.3362 13.3983 10.6122 13.7991 10.9841 14.0831C11.2152 14.2627 11.4715 14.3923 11.7472 14.4705C11.7586 14.4737 11.7695 14.4773 11.7803 14.4815C12.2153 14.6059 12.5365 14.7245 12.7834 14.9207C13.106 15.1867 13.2592 15.5429 13.4239 16.1035C13.4282 16.1143 13.4321 16.1253 13.4355 16.1365C13.5514 16.5359 13.7804 16.8941 14.098 17.1723C14.5088 17.5383 15.0372 17.7387 15.5881 17.7387C15.6558 17.7387 15.7228 17.7343 15.7889 17.7285C15.7995 17.7275 15.8102 17.7269 15.8208 17.7269ZM18.4205 19.2071C18.1898 19.2071 17.9715 19.1191 17.8055 18.9595C17.3358 18.5321 16.7018 18.4373 15.8346 18.4271C15.7532 18.4339 15.6712 18.4387 15.5881 18.4387C14.8609 18.4387 14.1635 18.1741 13.624 17.6937C13.2172 17.3373 12.9195 16.8779 12.7633 16.3651C12.7588 16.3539 12.7548 16.3423 12.7513 16.3305C12.5998 15.8091 12.4981 15.5981 12.3326 15.4617C12.1974 15.3543 11.984 15.2673 11.5504 15.1447C11.5384 15.1413 11.5266 15.1373 11.5155 15.1329C11.1643 15.0289 10.8386 14.8613 10.5466 14.6347C10.0672 14.2683 9.70765 13.7515 9.53377 13.1783C9.53012 13.1687 9.52667 13.1589 9.52383 13.1489C9.37165 12.6265 9.2696 12.4151 9.10403 12.2793C8.948 12.1563 8.67815 12.0633 8.32247 11.9627C8.3105 11.9593 8.29852 11.9553 8.28696 11.9507C7.91606 11.8409 7.57499 11.6615 7.27206 11.4169C6.58018 10.8663 6.18209 10.0463 6.18209 9.16872C6.18209 9.09692 6.18655 9.02612 6.19203 8.95552C6.148 7.48332 5.68174 7.00612 5.67687 7.00152C5.50055 6.83372 5.40479 6.61192 5.40479 6.37472C5.40479 5.89632 5.79963 5.50732 6.28476 5.50732C6.51545 5.50732 6.73397 5.59512 6.90015 5.75472C7.36986 6.18252 8.00432 6.27732 8.87232 6.28692C8.95307 6.28012 9.03464 6.27552 9.11722 6.27552C9.844 6.27552 10.5414 6.53992 11.0809 7.02012C11.4879 7.37672 11.7857 7.83632 11.942 8.34952C11.9466 8.36052 11.9505 8.37192 11.9539 8.38352C12.1059 8.90552 12.208 9.11692 12.3731 9.25312C12.5283 9.37572 12.7988 9.46892 13.1553 9.56972C13.1673 9.57312 13.1795 9.57712 13.191 9.58172C13.542 9.68592 13.8677 9.85313 14.1592 10.0795C14.6383 10.4459 14.9976 10.9625 15.1713 11.5353C15.1752 11.5451 15.1784 11.5549 15.1815 11.5651C15.3336 12.0875 15.4359 12.2991 15.6021 12.4353C15.7573 12.5579 16.0269 12.6509 16.3828 12.7515C16.395 12.7549 16.4066 12.7587 16.4179 12.7633C16.7892 12.8733 17.1307 13.0529 17.4334 13.2975C18.1253 13.8475 18.5234 14.6673 18.5234 15.5453C18.5234 15.6171 18.5189 15.6881 18.5135 15.7585C18.5577 17.2311 19.0237 17.7081 19.0284 17.7129C19.2045 17.8799 19.3009 18.1019 19.3009 18.3395C19.3009 18.8179 18.9061 19.2071 18.4205 19.2071Z" fill="black"/>
<path fill-rule="evenodd" clip-rule="evenodd" d="M15.5882 14.5503C15.0316 14.5503 14.5786 14.9965 14.5786 15.5453C14.5786 16.0939 15.0316 16.5403 15.5882 16.5403C16.1447 16.5403 16.5976 16.0939 16.5976 15.5453C16.5976 14.9965 16.1447 14.5503 15.5882 14.5503ZM15.5882 17.2403C14.6398 17.2403 13.8684 16.4799 13.8684 15.5453C13.8684 14.6107 14.6398 13.8503 15.5882 13.8503C16.5363 13.8503 17.3077 14.6107 17.3077 15.5453C17.3077 16.4799 16.5363 17.2403 15.5882 17.2403Z" fill="black"/>
<path fill-rule="evenodd" clip-rule="evenodd" d="M12.3606 11.3687C11.8038 11.3687 11.3508 11.8149 11.3508 12.3635C11.3508 12.9121 11.8038 13.3585 12.3606 13.3585C12.9169 13.3585 13.3696 12.9121 13.3696 12.3635C13.3696 11.8149 12.9169 11.3687 12.3606 11.3687ZM12.3606 14.0585C11.4122 14.0585 10.6406 13.2981 10.6406 12.3635C10.6406 11.4291 11.4122 10.6687 12.3606 10.6687C13.3087 10.6687 14.0798 11.4291 14.0798 12.3635C14.0798 13.2981 13.3087 14.0585 12.3606 14.0585Z" fill="black"/>
<path fill-rule="evenodd" clip-rule="evenodd" d="M9.13265 8.18694C8.5759 8.18694 8.12323 8.63314 8.12323 9.18174C8.12323 9.73034 8.5759 10.1767 9.13265 10.1767C9.6892 10.1767 10.1421 9.73034 10.1421 9.18174C10.1421 8.63314 9.6892 8.18694 9.13265 8.18694ZM9.13265 10.8767C8.18451 10.8767 7.41309 10.1163 7.41309 9.18174C7.41309 8.24714 8.18451 7.48694 9.13265 7.48694C10.0808 7.48694 10.8522 8.24714 10.8522 9.18174C10.8522 10.1163 10.0808 10.8767 9.13265 10.8767Z" fill="black"/>
</svg>
