<svg width="24" height="24" viewBox="0 0 24 24" fill="none" xmlns="http://www.w3.org/2000/svg">
<path fill-rule="evenodd" clip-rule="evenodd" d="M0.933333 11.9998C0.933333 18.1012 5.89875 23.0667 12.0001 23.0667C18.1015 23.0667 23.0667 18.1012 23.0667 11.9998C23.0667 5.89857 18.1015 0.933333 12.0001 0.933333C5.89871 0.933333 0.933333 5.89859 0.933333 11.9998ZM0 11.9998C0 18.6167 5.38327 24 12.0001 24C18.617 24 24 18.6167 24 11.9998C24 5.3831 18.617 0 12.0001 0C5.38327 0 0 5.3831 0 11.9998Z" fill="black"/>
<path d="M17.8001 17.7334L14.8667 10.1334V5.60002H15.2667C15.5334 5.60002 15.7334 5.40002 15.7334 5.13335C15.7334 5.00002 15.6667 4.86669 15.6001 4.80002C15.5334 4.73335 15.4001 4.66669 15.2667 4.66669H8.60007C8.46674 4.66669 8.33341 4.73335 8.26674 4.80002C8.20007 4.86669 8.13341 5.00002 8.13341 5.13335C8.13341 5.26669 8.20007 5.40002 8.26674 5.46669C8.33341 5.53335 8.46674 5.60002 8.60007 5.60002H8.93341V10.1334L6.06674 17.7334C6.00007 17.9334 6.00007 18.2 6.13341 18.4C6.20007 18.5334 6.26674 18.6 6.40007 18.6667C6.53341 18.7334 6.60007 18.8 6.80007 18.8H17.1334C17.4001 18.8 17.6667 18.6 17.7334 18.5334L17.8001 18.4667C17.9334 18.2 17.9334 17.9334 17.8001 17.7334ZM8.80007 12.8C8.86674 12.8 9.00007 12.8667 9.06674 12.9334V12.8667V12.9334V12.8667V12.9334C9.06674 12.9334 9.13341 12.9334 9.20007 13C9.40007 13.1334 9.66674 13.2667 10.2001 13.2667C10.7334 13.2667 11.0667 13.1334 11.2667 13V12.9334V13C11.3334 12.9334 11.4001 12.9334 11.5334 12.8667C11.6001 12.8667 11.7334 12.8 11.8667 12.8C12.0001 12.8 12.1334 12.8 12.2001 12.8667C12.2667 12.8667 12.3334 12.9334 12.4667 13L12.6001 13.0667C12.8667 13.2 13.1334 13.2667 13.5334 13.2667C14.0667 13.2667 14.4001 13.0667 14.5334 13V12.9334V13C14.6001 12.9334 14.6667 12.9334 14.7334 12.8667C14.8001 12.8667 14.8667 12.8 14.9334 12.8L16.9334 18H6.80007L8.80007 12.8ZM9.80007 10.2667V8.86669H11.2001C11.3334 8.86669 11.4667 8.80002 11.5334 8.73335C11.5334 8.66669 11.6001 8.53335 11.6001 8.40002C11.6001 8.26669 11.5334 8.13335 11.4667 8.06669C11.4001 8.00002 11.2667 7.93335 11.1334 7.93335H9.80007V7.13335H11.2001C11.3334 7.13335 11.4667 7.06669 11.5334 7.00002C11.5334 6.93335 11.6001 6.80002 11.6001 6.66669C11.6001 6.53335 11.5334 6.40002 11.4667 6.33335C11.4001 6.26669 11.2667 6.20002 11.1334 6.20002H9.80007V5.60002H14.0667V10.2C14.0667 10.2667 14.0667 10.2667 14.0667 10.3334L14.7334 12C14.4667 12.0667 14.2667 12.1334 14.1334 12.2667L14.2001 12.3334L14.1334 12.2667C14.0667 12.3334 14.0001 12.3334 13.8667 12.4C13.8001 12.4 13.6667 12.4667 13.5334 12.4667C13.2667 12.4667 13.1334 12.4 13.0001 12.3334L12.9334 12.2667C12.9334 12.2667 12.8667 12.2667 12.8001 12.2V12.2667V12.2C12.6667 12.1334 12.3334 12 11.8667 12C11.3334 12 11.0001 12.1334 10.8001 12.2667C10.7334 12.3334 10.6001 12.3334 10.5334 12.4C10.4667 12.4 10.3334 12.4667 10.2001 12.4667C10.0667 12.4667 9.93341 12.4667 9.86674 12.4C9.80007 12.4 9.73341 12.3334 9.60007 12.2667V12.3334V12.2667C9.46674 12.2 9.33341 12.1334 9.13341 12.0667L9.80007 10.4C9.73341 10.3334 9.80007 10.2667 9.80007 10.2667Z" fill="black"/>
<path d="M11.2668 12.8667L11.3335 12.9334L11.2668 12.8667Z" fill="black"/>
<path d="M9.1333 12.9334L9.19997 12.8667L9.1333 12.9334Z" fill="black"/>
</svg>
