<svg width="24" height="24" viewBox="0 0 24 24" fill="none" xmlns="http://www.w3.org/2000/svg">
<g clip-path="url(#clip0_84_106)">
<path fill-rule="evenodd" clip-rule="evenodd" d="M20.7132 3.93998L15.7332 8.91998L14.8132 8.51998L20.0599 3.27332L20.7132 3.93998Z" fill="black"/>
<path fill-rule="evenodd" clip-rule="evenodd" d="M7.69329 16.9667L3.94662 20.7134L3.28662 20.0534L7.31995 16.02L7.69329 16.9667Z" fill="black"/>
<path fill-rule="evenodd" clip-rule="evenodd" d="M0.933333 12C0.933333 18.1 5.9 23.0667 12 23.0667C18.1 23.0667 23.0667 18.1 23.0667 12C23.0667 5.9 18.1 0.933333 12 0.933333C5.9 0.933333 0.933333 5.9 0.933333 12ZM0 12C0 18.62 5.38 24 12 24C18.62 24 24 18.6133 24 12C24 5.38 18.62 0 12 0C5.38 0 0 5.38 0 12Z" fill="black"/>
<path d="M18.1801 11.4733C18.1801 9.09998 15.9134 7.36665 13.6201 7.99998C13.5201 7.65331 13.4334 7.32665 13.3601 7.02665H14.0534C14.3201 7.02665 14.5401 6.80665 14.5401 6.53998C14.5401 6.27331 14.3201 6.05331 14.0534 6.05331H13.3001L13.5001 4.22665C13.5334 3.93998 13.3068 3.68665 13.0134 3.68665H10.4201C10.1334 3.68665 9.90676 3.93998 9.93343 4.22665L10.1334 6.05331H9.3801C9.11343 6.05331 8.89343 6.27331 8.89343 6.53998C8.89343 6.80665 9.11343 7.02665 9.3801 7.02665H10.0734C9.56676 9.15331 8.25343 12.8 7.3801 14.16C5.7201 16.7333 7.4801 20.2333 10.5801 20.3C10.6534 20.3 10.4868 20.3 12.7601 20.3C15.7268 20.3 17.5201 17.18 16.3201 14.6266C17.4468 14 18.1801 12.7933 18.1801 11.4733ZM12.4734 4.65998L12.3201 6.05331H11.1134L10.9601 4.65998H12.4734ZM12.7601 19.3266C10.5201 19.3266 10.6601 19.3266 10.6068 19.3266C8.3001 19.2733 6.9401 16.6466 8.20677 14.6866C9.17343 13.1866 10.5868 9.23331 11.0801 7.02665H12.3668C12.8334 9.13331 14.2401 13.1333 15.2401 14.6866C16.5134 16.66 15.1334 19.3266 12.7601 19.3266ZM15.8334 13.78C15.2134 12.66 14.4534 10.68 13.9001 8.93331C15.5668 8.49331 17.2068 9.74664 17.2068 11.4733C17.2068 12.44 16.6668 13.3266 15.8334 13.78Z" fill="#020203"/>
<path d="M12.6332 14.2601C12.7142 14.2601 12.7799 14.1944 12.7799 14.1134C12.7799 14.0324 12.7142 13.9667 12.6332 13.9667C12.5522 13.9667 12.4866 14.0324 12.4866 14.1134C12.4866 14.1944 12.5522 14.2601 12.6332 14.2601Z" fill="#020203"/>
<path d="M10.2599 14.7C10.3409 14.7 10.4066 14.6343 10.4066 14.5533C10.4066 14.4723 10.3409 14.4067 10.2599 14.4067C10.1789 14.4067 10.1133 14.4723 10.1133 14.5533C10.1133 14.6343 10.1789 14.7 10.2599 14.7Z" fill="#020203"/>
<path d="M12.3332 16.3334C12.4142 16.3334 12.4799 16.2677 12.4799 16.1867C12.4799 16.1057 12.4142 16.04 12.3332 16.04C12.2522 16.04 12.1865 16.1057 12.1865 16.1867C12.1865 16.2677 12.2522 16.3334 12.3332 16.3334Z" fill="#020203"/>
<path d="M13.3732 13.22C12.8999 12.7467 12.2666 12.48 11.5932 12.48C10.9199 12.48 10.5866 12.94 10.1132 13.4134C9.63991 13.8867 9.07324 14.3267 9.07324 15C9.07324 15.6734 9.63324 15.7134 10.1132 16.1867C10.5866 16.66 11.1066 17.0867 11.7799 17.0867C12.4532 17.0867 12.9066 17.26 13.3799 16.78C13.8532 16.3067 13.7732 15.5667 13.7732 14.8934C13.7666 14.22 13.8532 13.6934 13.3732 13.22ZM9.81324 14.5534C9.81324 14.3067 10.0132 14.1067 10.2599 14.1067C10.5066 14.1067 10.7066 14.3067 10.7066 14.5534C10.7066 14.8 10.5066 15 10.2599 15C10.0132 15 9.81324 14.8 9.81324 14.5534ZM10.5532 16.1L10.3466 15.8934L10.5532 15.6867L10.7599 15.8934L10.5532 16.1ZM10.9599 13.8334L10.7532 13.6267L10.9599 13.42L11.1666 13.6267L10.9599 13.8334ZM12.3332 16.6334C12.0866 16.6334 11.8866 16.4334 11.8866 16.1867C11.8866 15.94 12.0866 15.74 12.3332 15.74C12.5799 15.74 12.7799 15.94 12.7799 16.1867C12.7799 16.4334 12.5799 16.6334 12.3332 16.6334ZM12.6332 14.5534C12.3866 14.5534 12.1866 14.3534 12.1866 14.1067C12.1866 13.86 12.3866 13.66 12.6332 13.66C12.8799 13.66 13.0799 13.86 13.0799 14.1067C13.0799 14.3534 12.8799 14.5534 12.6332 14.5534ZM13.1799 15.3134L12.9732 15.1067L13.1799 14.9L13.3866 15.1067L13.1799 15.3134Z" fill="#020203"/>
<path d="M11.8667 12.5934C11.9366 12.5934 11.9933 12.5366 11.9933 12.4667C11.9933 12.3967 11.9366 12.34 11.8667 12.34C11.7967 12.34 11.74 12.3967 11.74 12.4667C11.74 12.5366 11.7967 12.5934 11.8667 12.5934Z" fill="#020203"/>
<path d="M11.2199 12.6534C11.2899 12.6534 11.3466 12.5966 11.3466 12.5267C11.3466 12.4567 11.2899 12.4 11.2199 12.4C11.15 12.4 11.0933 12.4567 11.0933 12.5267C11.0933 12.5966 11.15 12.6534 11.2199 12.6534Z" fill="#020203"/>
<path d="M10.6066 13.02C10.6766 13.02 10.7333 12.9633 10.7333 12.8933C10.7333 12.8234 10.6766 12.7667 10.6066 12.7667C10.5367 12.7667 10.48 12.8234 10.48 12.8933C10.48 12.9633 10.5367 13.02 10.6066 13.02Z" fill="#020203"/>
<path d="M10.1132 13.5267C10.1832 13.5267 10.2399 13.47 10.2399 13.4C10.2399 13.3301 10.1832 13.2734 10.1132 13.2734C10.0433 13.2734 9.98657 13.3301 9.98657 13.4C9.98657 13.47 10.0433 13.5267 10.1132 13.5267Z" fill="#020203"/>
<path d="M9.6733 13.9934C9.74325 13.9934 9.79996 13.9367 9.79996 13.8667C9.79996 13.7968 9.74325 13.7401 9.6733 13.7401C9.60334 13.7401 9.54663 13.7968 9.54663 13.8667C9.54663 13.9367 9.60334 13.9934 9.6733 13.9934Z" fill="#020203"/>
<path d="M9.23995 14.56C9.3099 14.56 9.36662 14.5033 9.36662 14.4334C9.36662 14.3634 9.3099 14.3067 9.23995 14.3067C9.16999 14.3067 9.11328 14.3634 9.11328 14.4334C9.11328 14.5033 9.16999 14.56 9.23995 14.56Z" fill="#020203"/>
<path d="M9.08663 15.24C9.15658 15.24 9.21329 15.1833 9.21329 15.1134C9.21329 15.0434 9.15658 14.9867 9.08663 14.9867C9.01667 14.9867 8.95996 15.0434 8.95996 15.1134C8.95996 15.1833 9.01667 15.24 9.08663 15.24Z" fill="#020203"/>
<path d="M9.51339 15.8267C9.58334 15.8267 9.64005 15.77 9.64005 15.7C9.64005 15.6301 9.58334 15.5734 9.51339 15.5734C9.44343 15.5734 9.38672 15.6301 9.38672 15.7C9.38672 15.77 9.44343 15.8267 9.51339 15.8267Z" fill="#020203"/>
<path d="M10.0932 16.28C10.1632 16.28 10.2199 16.2233 10.2199 16.1533C10.2199 16.0834 10.1632 16.0267 10.0932 16.0267C10.0233 16.0267 9.96655 16.0834 9.96655 16.1533C9.96655 16.2233 10.0233 16.28 10.0932 16.28Z" fill="#020203"/>
<path d="M10.7067 16.7934C10.7767 16.7934 10.8334 16.7367 10.8334 16.6667C10.8334 16.5967 10.7767 16.54 10.7067 16.54C10.6368 16.54 10.5801 16.5967 10.5801 16.6667C10.5801 16.7367 10.6368 16.7934 10.7067 16.7934Z" fill="#020203"/>
<path d="M11.4267 17.16C11.4967 17.16 11.5534 17.1033 11.5534 17.0333C11.5534 16.9634 11.4967 16.9067 11.4267 16.9067C11.3568 16.9067 11.3 16.9634 11.3 17.0333C11.3 17.1033 11.3568 17.16 11.4267 17.16Z" fill="#020203"/>
<path d="M12.2734 17.22C12.3434 17.22 12.4001 17.1633 12.4001 17.0933C12.4001 17.0234 12.3434 16.9667 12.2734 16.9667C12.2034 16.9667 12.1467 17.0234 12.1467 17.0933C12.1467 17.1633 12.2034 17.22 12.2734 17.22Z" fill="#020203"/>
<path d="M12.9333 17.22C13.0033 17.22 13.06 17.1633 13.06 17.0933C13.06 17.0234 13.0033 16.9667 12.9333 16.9667C12.8634 16.9667 12.8066 17.0234 12.8066 17.0933C12.8066 17.1633 12.8634 17.22 12.9333 17.22Z" fill="#020203"/>
<path d="M13.4133 16.8867C13.4832 16.8867 13.54 16.83 13.54 16.76C13.54 16.6901 13.4832 16.6334 13.4133 16.6334C13.3433 16.6334 13.2866 16.6901 13.2866 16.76C13.2866 16.83 13.3433 16.8867 13.4133 16.8867Z" fill="#020203"/>
<path d="M13.6799 16.4134C13.7498 16.4134 13.8066 16.3567 13.8066 16.2867C13.8066 16.2167 13.7498 16.16 13.6799 16.16C13.6099 16.16 13.5532 16.2167 13.5532 16.2867C13.5532 16.3567 13.6099 16.4134 13.6799 16.4134Z" fill="#020203"/>
<path d="M13.7534 15.8067C13.8233 15.8067 13.88 15.75 13.88 15.68C13.88 15.6101 13.8233 15.5533 13.7534 15.5533C13.6834 15.5533 13.6267 15.6101 13.6267 15.68C13.6267 15.75 13.6834 15.8067 13.7534 15.8067Z" fill="#020203"/>
<path d="M13.7734 15.2067C13.8434 15.2067 13.9001 15.15 13.9001 15.08C13.9001 15.0101 13.8434 14.9534 13.7734 14.9534C13.7034 14.9534 13.6467 15.0101 13.6467 15.08C13.6467 15.15 13.7034 15.2067 13.7734 15.2067Z" fill="#020203"/>
<path d="M13.7734 14.5C13.8434 14.5 13.9001 14.4433 13.9001 14.3734C13.9001 14.3034 13.8434 14.2467 13.7734 14.2467C13.7034 14.2467 13.6467 14.3034 13.6467 14.3734C13.6467 14.4433 13.7034 14.5 13.7734 14.5Z" fill="#020203"/>
<path d="M13.6467 13.7734C13.7166 13.7734 13.7734 13.7166 13.7734 13.6467C13.7734 13.5767 13.7166 13.52 13.6467 13.52C13.5767 13.52 13.52 13.5767 13.52 13.6467C13.52 13.7166 13.5767 13.7734 13.6467 13.7734Z" fill="#020203"/>
<path d="M12.3532 12.72C12.4232 12.72 12.4799 12.6633 12.4799 12.5933C12.4799 12.5234 12.4232 12.4667 12.3532 12.4667C12.2833 12.4667 12.2266 12.5234 12.2266 12.5933C12.2266 12.6633 12.2833 12.72 12.3532 12.72Z" fill="#020203"/>
<path d="M12.8066 12.94C12.8766 12.94 12.9333 12.8833 12.9333 12.8134C12.9333 12.7434 12.8766 12.6867 12.8066 12.6867C12.7366 12.6867 12.6799 12.7434 12.6799 12.8134C12.6799 12.8833 12.7366 12.94 12.8066 12.94Z" fill="#020203"/>
<path d="M13.2199 13.24C13.2899 13.24 13.3466 13.1833 13.3466 13.1134C13.3466 13.0434 13.2899 12.9867 13.2199 12.9867C13.15 12.9867 13.0933 13.0434 13.0933 13.1134C13.0933 13.1833 13.15 13.24 13.2199 13.24Z" fill="#020203"/>
<path d="M7.93991 8.66665V8.65998C7.93324 8.63998 7.93324 8.61332 7.92657 8.59332L7.75324 7.62665L7.09324 8.35998C6.99991 8.44665 6.93324 8.56665 6.89324 8.70665C6.79324 9.05998 6.93991 9.41998 7.21991 9.49998C7.50657 9.57998 7.81324 9.35998 7.91991 8.99998C7.95324 8.88665 7.95324 8.77332 7.93991 8.66665Z" fill="black"/>
</g>
<defs>
<clipPath id="clip0_84_106">
<rect width="24" height="24" fill="white"/>
</clipPath>
</defs>
</svg>
