<svg width="24" height="24" viewBox="0 0 24 24" fill="none" xmlns="http://www.w3.org/2000/svg">
<path fill-rule="evenodd" clip-rule="evenodd" d="M6.99672 17.1033L3.66338 20.4366L3.00342 19.7766L6.33675 16.4433L6.99672 17.1033Z" fill="black"/>
<path fill-rule="evenodd" clip-rule="evenodd" d="M20.4365 3.66326L17.7698 6.32993L17.1099 5.66996L19.7765 3.0033L20.4365 3.66326Z" fill="black"/>
<path fill-rule="evenodd" clip-rule="evenodd" d="M0.933333 11.9998C0.933333 18.1012 5.89875 23.0667 12.0001 23.0667C18.1015 23.0667 23.0667 18.1012 23.0667 11.9998C23.0667 5.89857 18.1015 0.933333 12.0001 0.933333C5.89871 0.933333 0.933333 5.89859 0.933333 11.9998ZM0 11.9998C0 18.6167 5.38327 24 12.0001 24C18.6169 24 24 18.6167 24 11.9998C24 5.3831 18.6169 0 12.0001 0C5.38327 0 0 5.3831 0 11.9998Z" fill="black"/>
<path fill-rule="evenodd" clip-rule="evenodd" d="M13.431 17.0559C13.4635 17.1843 13.666 17.9053 14.2448 18.4331C14.548 18.7134 14.9419 18.8575 15.3516 18.8312C16.1747 18.7809 16.8036 18.0677 16.7537 17.2412C16.751 17.197 16.7451 17.1526 16.7386 17.1084C16.7092 16.915 16.825 16.7287 17.0112 16.6705C17.0363 16.6626 17.0596 16.6515 17.083 16.641L17.1341 16.6188C17.1535 16.6107 17.1738 16.6041 17.1943 16.5989C17.8129 16.4491 18.2336 15.878 18.195 15.2407C18.1792 14.9819 18.0887 14.7359 17.9334 14.5293C17.8517 14.4207 17.8311 14.278 17.879 14.1507C17.9266 14.0233 18.0361 13.9295 18.1686 13.9021C18.9551 13.7392 19.5109 13.0106 19.4619 12.2079C19.4242 11.5844 19.0258 11.0298 18.447 10.7941C18.3244 10.7443 18.2348 10.6362 18.2084 10.5062C18.1819 10.3761 18.2219 10.2416 18.3151 10.1473C18.5483 9.91168 18.6707 9.58815 18.6508 9.25964C18.6138 8.64882 18.1068 8.17055 17.4966 8.17055L17.4612 8.171C17.3146 8.1778 17.1736 8.09556 17.1022 7.96415C17.0309 7.83275 17.0395 7.67211 17.1243 7.54909C17.1243 7.54909 17.3289 7.23304 17.3018 6.78286C17.2611 6.12152 16.6936 5.61017 16.0261 5.64982C15.3633 5.6906 14.8568 6.26471 14.897 6.92967C14.9078 7.10797 14.8541 7.8724 14.3965 8.36018C14.1579 8.61461 13.8475 8.74897 13.4992 8.74897C12.8912 8.74897 12.4874 8.37876 12.2296 7.89573C11.9718 8.37876 11.5682 8.74897 10.9598 8.74897C10.6115 8.74897 10.3013 8.61461 10.0627 8.36018C9.6049 7.87217 9.55117 7.10797 9.56178 6.93012C9.58142 6.6075 9.47487 6.29711 9.26177 6.05536C9.04844 5.81362 8.75408 5.66953 8.43285 5.64982C7.76962 5.61244 7.19759 6.12152 7.15741 6.78286C7.13032 7.23077 7.33258 7.54637 7.33461 7.54932C7.41927 7.67234 7.42785 7.83275 7.35674 7.96415C7.28563 8.09556 7.14815 8.1744 6.99781 8.171L6.96214 8.17055C6.35219 8.17055 5.8454 8.64882 5.80838 9.25964C5.78851 9.58815 5.91086 9.91168 6.14405 10.1473C6.23706 10.2416 6.27724 10.3761 6.2506 10.5062C6.22419 10.6362 6.13457 10.7443 6.01222 10.7941C5.43319 11.0298 5.03476 11.5846 4.99706 12.2077C4.94808 13.0106 5.50408 13.7392 6.29033 13.9021C6.42307 13.9295 6.53255 14.0233 6.58019 14.1507C6.62782 14.278 6.6075 14.4207 6.52578 14.5293C6.37025 14.7361 6.27972 14.9822 6.26415 15.2404C6.22555 15.878 6.64633 16.4491 7.26486 16.5989C7.2854 16.6041 7.30549 16.6107 7.32513 16.6188L7.37615 16.641C7.39963 16.6515 7.42288 16.6626 7.44794 16.6705C7.63417 16.7287 7.74998 16.915 7.72063 17.1084C7.71409 17.1526 7.70822 17.197 7.70551 17.2419C7.65562 18.0677 8.28453 18.7809 9.10736 18.8312C9.51889 18.8575 9.91123 18.7134 10.2119 18.4352C10.7918 17.9064 10.995 17.1873 11.0282 17.0556C11.0706 16.5907 11.3682 15.7701 12.2294 15.7701C13.091 15.7701 13.3888 16.591 13.431 17.0559ZM9.12265 19.8147C9.07497 19.8147 9.02705 19.8135 8.97867 19.8105C7.7333 19.7343 6.77126 18.6893 6.77751 17.4513C5.85529 17.1462 5.24395 16.2551 5.3039 15.2674C5.31825 15.027 5.37219 14.793 5.4627 14.5735C4.54418 14.1569 3.94094 13.1981 4.0046 12.1573C4.05159 11.3811 4.46524 10.6749 5.0958 10.2469C4.90506 9.9117 4.8127 9.52511 4.83631 9.13435C4.88909 8.26429 5.49418 7.54967 6.29557 7.32641C6.24048 7.12475 6.20274 6.87686 6.21987 6.59482C6.28793 5.47177 7.25182 4.60149 8.38538 4.67049C8.93098 4.70394 9.43098 4.94858 9.79279 5.35909C10.1551 5.76961 10.3361 6.29698 10.3027 6.84434C10.297 6.94911 10.359 7.45093 10.5986 7.70509C10.6909 7.80313 10.7926 7.84704 10.9275 7.84704C11.7178 7.84704 11.824 6.15852 11.8247 6.14156C11.8338 5.92387 12.0122 5.75195 12.2294 5.75195C12.4465 5.75195 12.625 5.92364 12.6342 6.14132C12.6349 6.15782 12.746 7.84704 13.5314 7.84704C13.6666 7.84704 13.7683 7.80337 13.8606 7.70509C14.1002 7.45116 14.162 6.94934 14.1562 6.84387C14.0875 5.71478 14.9476 4.73972 16.0733 4.67049C17.2095 4.60125 18.1708 5.47177 18.2393 6.59459C18.2564 6.87686 18.2187 7.12475 18.1634 7.32664C18.965 7.54967 19.5699 8.26429 19.6226 9.13435C19.6465 9.52511 19.5541 9.9117 19.3634 10.2469C19.9939 10.6749 20.4076 11.3814 20.4544 12.1573C20.5183 13.1981 19.9152 14.1572 18.9965 14.5737C19.0868 14.7928 19.1407 15.0268 19.1553 15.2674C19.2152 16.2551 18.6037 17.1462 17.6817 17.4515C17.6875 18.6896 16.7257 19.7343 15.4803 19.8105C15.4321 19.8135 15.3842 19.8147 15.3365 19.8147C14.7481 19.8147 14.1845 19.5931 13.749 19.1905C12.9007 18.4168 12.6731 17.3695 12.6639 17.3254C12.6599 17.3065 12.6574 17.2875 12.656 17.2684C12.6541 17.2464 12.6053 16.673 12.2294 16.673C11.8537 16.673 11.8048 17.2464 11.803 17.2705C11.8016 17.288 11.799 17.3079 11.7953 17.3254C11.7861 17.3695 11.5585 18.4168 10.7076 19.1925C10.2747 19.5928 9.71108 19.8147 9.12265 19.8147Z" fill="black"/>
<path fill-rule="evenodd" clip-rule="evenodd" d="M15.8132 14.6264C15.625 14.6264 15.4565 14.4943 15.4169 14.3021C15.3717 14.0823 15.5125 13.8672 15.7317 13.8219C16.1234 13.7406 16.4002 13.3779 16.3759 12.9779C16.3569 12.6624 16.1632 12.3927 15.8699 12.2735C15.6625 12.1891 15.5625 11.9522 15.6465 11.744C15.7305 11.5359 15.9669 11.4357 16.174 11.5198C16.7507 11.7542 17.1472 12.3072 17.1845 12.9284C17.2335 13.7292 16.6794 14.4557 15.8953 14.6181C15.8678 14.6239 15.8403 14.6264 15.8132 14.6264Z" fill="black"/>
<path fill-rule="evenodd" clip-rule="evenodd" d="M8.43218 12.596C8.40509 12.596 8.37755 12.5932 8.35 12.5876C7.56597 12.4252 7.01181 11.6985 7.06088 10.8974C7.09815 10.2767 7.49468 9.72375 8.0713 9.48934C8.27824 9.40524 8.51458 9.50514 8.59884 9.7133C8.68287 9.92146 8.58287 10.1584 8.37546 10.243C8.08218 10.3622 7.88843 10.6319 7.86945 10.9469C7.84491 11.3472 8.12199 11.7101 8.51366 11.7912C8.73264 11.8365 8.87361 12.0516 8.82847 12.2714C8.78889 12.4638 8.62037 12.596 8.43218 12.596Z" fill="black"/>
<path fill-rule="evenodd" clip-rule="evenodd" d="M12.2293 16.5215C12.0057 16.5215 11.8242 16.3394 11.8242 16.115V6.15852C11.8242 5.93409 12.0057 5.75195 12.2293 5.75195C12.4532 5.75195 12.6344 5.93409 12.6344 6.15852V16.115C12.6344 16.3394 12.4532 16.5215 12.2293 16.5215Z" fill="black"/>
</svg>
