<svg width="24" height="24" viewBox="0 0 24 24" fill="none" xmlns="http://www.w3.org/2000/svg">
<path fill-rule="evenodd" clip-rule="evenodd" d="M0.933333 11.9998C0.933333 18.1012 5.89875 23.0667 12.0001 23.0667C18.1015 23.0667 23.0667 18.1012 23.0667 11.9998C23.0667 5.89857 18.1015 0.933333 12.0001 0.933333C5.89871 0.933333 0.933333 5.89859 0.933333 11.9998ZM0 11.9998C0 18.6167 5.38327 24 12.0001 24C18.6169 24 24 18.6167 24 11.9998C24 5.3831 18.6169 0 12.0001 0C5.38327 0 0 5.3831 0 11.9998Z" fill="black"/>
<path fill-rule="evenodd" clip-rule="evenodd" d="M11.9986 7.51373C11.9336 7.51373 11.8648 7.55741 11.8049 7.63659C11.3214 8.27483 10.5104 9.49946 10.5104 10.5333C10.5104 11.0307 10.7053 11.488 11.0891 11.8929C11.3309 12.148 11.6537 12.2883 11.9986 12.2883C12.3435 12.2883 12.6663 12.148 12.9078 11.8929C13.2919 11.488 13.4865 11.0307 13.4865 10.5333C13.4865 9.49946 12.6758 8.27483 12.1923 7.63687C12.1324 7.55741 12.0633 7.51373 11.9986 7.51373ZM11.9986 13.1353C11.4216 13.1353 10.8825 12.9017 10.4805 12.4776C9.94213 11.9098 9.66919 11.2558 9.66919 10.5333C9.66919 9.31489 10.4665 8.00629 11.1355 7.12318C11.3553 6.83294 11.6699 6.66669 11.9986 6.66669C12.3272 6.66669 12.6419 6.83294 12.8617 7.12318C13.5304 8.00629 14.328 9.31489 14.328 10.5333C14.328 11.2558 14.055 11.9098 13.5167 12.4776C13.1147 12.9017 12.5756 13.1353 11.9986 13.1353Z" fill="black"/>
<path fill-rule="evenodd" clip-rule="evenodd" d="M6.7143 12.9085C6.65831 12.9085 6.61184 12.9226 6.5788 12.9505C6.52897 12.9924 6.50406 13.0705 6.50882 13.1703C6.54577 13.9719 6.70674 15.4344 7.36712 16.2265C7.68458 16.6075 8.12577 16.832 8.67837 16.8938C9.02634 16.9329 9.36367 16.8312 9.62766 16.608C9.89192 16.3848 10.0495 16.0684 10.0719 15.7167C10.1075 15.1582 9.96471 14.6817 9.64697 14.3011C8.98687 13.509 7.58352 13.0953 6.80584 12.9192C6.77336 12.9119 6.74257 12.9085 6.7143 12.9085ZM8.8259 17.749C8.74612 17.749 8.66605 17.7445 8.58543 17.7354C7.81055 17.6489 7.18376 17.3243 6.72241 16.7709C5.94417 15.8373 5.71966 14.3191 5.66815 13.2097C5.65135 12.8454 5.78601 12.5145 6.03795 12.3018C6.28962 12.089 6.63759 12.013 6.99032 12.093C8.06698 12.3365 9.51344 12.8231 10.2917 13.7566C10.7527 14.3098 10.9616 14.9878 10.9118 15.7708C10.8745 16.3558 10.6108 16.8833 10.1685 17.257C9.78806 17.5782 9.3186 17.749 8.8259 17.749Z" fill="black"/>
<path fill-rule="evenodd" clip-rule="evenodd" d="M17.2825 12.9527C17.2545 12.9527 17.2234 12.9561 17.1912 12.9634C16.4136 13.1395 15.0102 13.5532 14.3501 14.3453C14.0324 14.726 13.8896 15.2025 13.9252 15.761C13.9473 16.1126 14.1052 16.4291 14.3694 16.6523C14.6337 16.8754 14.9721 16.9766 15.3187 16.938C15.8713 16.8763 16.3125 16.6517 16.63 16.2707C17.2901 15.4789 17.4513 14.0162 17.4883 13.2145C17.493 13.115 17.4681 13.0367 17.4183 12.9947C17.3855 12.9668 17.3385 12.9527 17.2825 12.9527ZM15.1709 17.7932C14.6785 17.7932 14.209 17.6224 13.8286 17.3012C13.3863 16.9276 13.1226 16.4001 13.0853 15.8151C13.0355 15.032 13.2443 14.354 13.7054 13.8009C14.4836 12.8673 15.9301 12.381 17.0068 12.1372C17.3598 12.0569 17.7075 12.133 17.9591 12.346C18.2111 12.5585 18.3457 12.8896 18.3289 13.2539C18.2774 14.3636 18.0523 15.8821 17.2744 16.8151C16.8133 17.3685 16.1865 17.6932 15.4114 17.7797C15.331 17.7887 15.2507 17.7932 15.1709 17.7932Z" fill="black"/>
</svg>
