<svg width="24" height="24" viewBox="0 0 24 24" fill="none" xmlns="http://www.w3.org/2000/svg">
<path fill-rule="evenodd" clip-rule="evenodd" d="M0.933333 11.9998C0.933333 18.1012 5.89875 23.0667 12.0001 23.0667C18.1015 23.0667 23.0667 18.1012 23.0667 11.9998C23.0667 5.89857 18.1015 0.933333 12.0001 0.933333C5.89871 0.933333 0.933333 5.89859 0.933333 11.9998ZM0 11.9998C0 18.6167 5.38327 24 12.0001 24C18.6169 24 24 18.6167 24 11.9998C24 5.3831 18.6169 0 12.0001 0C5.38327 0 0 5.3831 0 11.9998Z" fill="black"/>
<path fill-rule="evenodd" clip-rule="evenodd" d="M6.93335 7.33335C6.93335 7.11244 7.11244 6.93335 7.33335 6.93335H16.6667C16.8876 6.93335 17.0667 7.11244 17.0667 7.33335H16.6667C17.0667 7.33335 17.0667 7.33317 17.0667 7.33335L17.0667 7.33413L17.0667 7.33517L17.0667 7.33802L17.0666 7.34676C17.0665 7.3539 17.0663 7.36367 17.066 7.37589C17.0653 7.40032 17.064 7.43461 17.0614 7.47737C17.0563 7.56277 17.0463 7.68263 17.0264 7.82565C16.987 8.10961 16.9073 8.49524 16.7442 8.88645C16.5813 9.27729 16.328 9.69036 15.9321 10.0069C15.6137 10.2615 15.2173 10.4419 14.7333 10.506V15.494C15.2173 15.5581 15.6137 15.7386 15.9321 15.9932C16.328 16.3097 16.5813 16.7227 16.7442 17.1136C16.9073 17.5048 16.987 17.8904 17.0264 18.1744C17.0463 18.3174 17.0563 18.4373 17.0614 18.5227C17.064 18.5654 17.0653 18.5997 17.066 18.6241C17.0663 18.6364 17.0665 18.6461 17.0666 18.6533L17.0667 18.662L17.0667 18.6649L17.0667 18.6659C17.0667 18.6661 17.0667 18.6667 16.6667 18.6667H17.0667C17.0667 18.8876 16.8876 19.0667 16.6667 19.0667H7.33335C7.11244 19.0667 6.93335 18.8876 6.93335 18.6667H7.33335C6.93335 18.6667 6.93335 18.6669 6.93335 18.6667L6.93335 18.6659L6.93335 18.6649L6.93337 18.662L6.93346 18.6533C6.93355 18.6461 6.93373 18.6364 6.93407 18.6241C6.93475 18.5997 6.93607 18.5654 6.93861 18.5227C6.9437 18.4373 6.95374 18.3174 6.97362 18.1744C7.01308 17.8904 7.09272 17.5048 7.25582 17.1136C7.41876 16.7227 7.67205 16.3097 8.06794 15.9932C8.38636 15.7386 8.78278 15.5581 9.26668 15.494V10.506C8.78278 10.4419 8.38636 10.2615 8.06794 10.0069C7.67205 9.69036 7.41876 9.27729 7.25582 8.88645C7.09272 8.49524 7.01308 8.10961 6.97362 7.82565C6.95374 7.68263 6.9437 7.56277 6.93861 7.47737C6.93607 7.43461 6.93475 7.40032 6.93407 7.37589C6.93373 7.36367 6.93355 7.3539 6.93346 7.34676L6.93337 7.33802L6.93335 7.33517L6.93335 7.33413C6.93335 7.33395 6.93335 7.33335 7.33335 7.33335H6.93335ZM7.76852 7.73335C7.80273 7.97164 7.8688 8.27777 7.99421 8.5786C8.12293 8.88735 8.30715 9.17387 8.56751 9.38204C8.82162 9.58521 9.17008 9.7317 9.66668 9.7317C9.8876 9.7317 10.0667 9.91079 10.0667 10.1317V15.8683C10.0667 16.0892 9.8876 16.2683 9.66668 16.2683C9.17008 16.2683 8.82162 16.4148 8.56751 16.618C8.30715 16.8262 8.12293 17.1127 7.99421 17.4214C7.8688 17.7223 7.80273 18.0284 7.76852 18.2667H16.2315C16.1973 18.0284 16.1312 17.7223 16.0058 17.4214C15.8771 17.1127 15.6929 16.8262 15.4325 16.618C15.1784 16.4148 14.83 16.2683 14.3333 16.2683C14.1124 16.2683 13.9333 16.0892 13.9333 15.8683V10.1317C13.9333 9.91079 14.1124 9.7317 14.3333 9.7317C14.83 9.7317 15.1784 9.58521 15.4325 9.38204C15.6929 9.17387 15.8771 8.88735 16.0058 8.5786C16.1312 8.27777 16.1973 7.97164 16.2315 7.73335H7.76852Z" fill="black"/>
<path fill-rule="evenodd" clip-rule="evenodd" d="M16.6668 2.93335C16.8877 2.93335 17.0668 3.11244 17.0668 3.33335V4.76192C17.0668 4.98283 16.8877 5.16192 16.6668 5.16192H12.4001V7.33335C12.4001 7.55426 12.221 7.73335 12.0001 7.73335C11.7792 7.73335 11.6001 7.55426 11.6001 7.33335V4.76192C11.6001 4.54101 11.7792 4.36192 12.0001 4.36192H16.2668V3.33335C16.2668 3.11244 16.4458 2.93335 16.6668 2.93335Z" fill="black"/>
<path fill-rule="evenodd" clip-rule="evenodd" d="M5.33341 12C5.70163 12 6.00008 12.2984 6.00008 12.6666C6.00008 13.0347 5.70163 13.3333 5.33341 13.3333C4.96519 13.3333 4.66675 13.0347 4.66675 12.6666C4.66675 12.2984 4.96519 12 5.33341 12Z" fill="black"/>
<path fill-rule="evenodd" clip-rule="evenodd" d="M7.33341 10.6667C7.70163 10.6667 8.00008 10.9651 8.00008 11.3333C8.00008 11.7014 7.70163 12 7.33341 12C6.96519 12 6.66675 11.7014 6.66675 11.3333C6.66675 10.9651 6.96519 10.6667 7.33341 10.6667Z" fill="black"/>
<path fill-rule="evenodd" clip-rule="evenodd" d="M7.33341 13.3334C7.70163 13.3334 8.00008 13.6318 8.00008 13.9999C8.00008 14.3681 7.70163 14.6667 7.33341 14.6667C6.96519 14.6667 6.66675 14.3681 6.66675 13.9999C6.66675 13.6318 6.96519 13.3334 7.33341 13.3334Z" fill="black"/>
</svg>
