<svg width="24" height="24" viewBox="0 0 24 24" fill="none" xmlns="http://www.w3.org/2000/svg">
<path fill-rule="evenodd" clip-rule="evenodd" d="M0.933333 11.9998C0.933333 18.1012 5.89875 23.0667 12.0001 23.0667C18.1015 23.0667 23.0667 18.1012 23.0667 11.9998C23.0667 5.89857 18.1015 0.933333 12.0001 0.933333C5.89871 0.933333 0.933333 5.89859 0.933333 11.9998ZM0 11.9998C0 18.6167 5.38327 24 12.0001 24C18.6169 24 24 18.6167 24 11.9998C24 5.3831 18.6169 0 12.0001 0C5.38327 0 0 5.3831 0 11.9998Z" fill="black"/>
<path fill-rule="evenodd" clip-rule="evenodd" d="M12.2222 10.7134C12.4158 10.4613 12.5881 10.2137 12.7421 9.97288L12.2514 9.28017C12.1808 9.18058 12.2044 9.0425 12.3039 8.9719C12.4037 8.9013 12.5416 8.92489 12.6122 9.02448L12.9919 9.56043C13.2376 9.13193 13.4237 8.73292 13.5645 8.37977L13.1806 7.85758C13.1084 7.75913 13.1295 7.62089 13.2279 7.54849C13.3262 7.47642 13.4646 7.49722 13.537 7.59583L13.7459 7.88002C13.9493 7.25513 13.9891 6.86365 13.9899 6.85546C14.0011 6.73392 14.1085 6.64399 14.2301 6.65546C14.3516 6.66643 14.4412 6.77372 14.4304 6.8951C14.4269 6.9331 14.3807 7.39976 14.1351 8.1231L14.4038 8.11867C14.5278 8.11229 14.6266 8.214 14.6286 8.33603C14.6307 8.45823 14.5332 8.5588 14.4112 8.56077L13.9698 8.56797C13.835 8.90294 13.6609 9.27575 13.4374 9.6746L13.74 9.62677C13.8613 9.60793 13.9739 9.69 13.9929 9.81072C14.0119 9.93127 13.9296 10.0446 13.8089 10.0636L13.1423 10.1691C12.9749 10.433 12.786 10.7051 12.5727 10.983C12.5292 11.0397 12.4635 11.0695 12.3971 11.0695C12.3501 11.0695 12.3028 11.0546 12.2627 11.0238C12.1662 10.9491 12.1478 10.8104 12.2222 10.7134ZM19.2372 12.4859C19.1963 12.5124 18.9438 12.6524 18.6938 12.7449C18.7213 13.1089 18.5804 13.4427 18.291 13.6737C17.883 13.9994 17.2697 14.0688 16.6858 13.8816C16.6483 14.1253 16.5416 14.3391 16.3711 14.5C16.0333 14.8191 15.4871 14.895 14.8328 14.7147C14.6859 14.6741 14.539 14.6305 14.392 14.587C13.8375 14.4225 13.3126 14.2669 12.7767 14.2669C12.7459 14.2683 12.735 14.269 12.7239 14.2692C12.096 14.2768 11.5419 14.8688 11.1375 15.301C10.7879 15.6744 10.4439 16.0671 10.1112 16.447C9.51854 17.1239 8.90579 17.8238 8.22753 18.4535C7.83089 18.8217 7.60128 18.933 7.06867 18.9635C7.04912 18.9645 7.0294 18.9651 7.00985 18.9651C6.41877 18.9651 5.7664 18.4712 5.49657 18.2015C5.4853 18.1903 5.47614 18.1778 5.46698 18.1653C5.4543 18.1561 5.44179 18.1468 5.43035 18.1353C5.15154 17.8565 4.63355 17.1691 4.66842 16.5629C4.69925 16.0299 4.78937 15.7795 5.1573 15.383C5.78677 14.705 6.48652 14.0924 7.1632 13.5001C7.54346 13.1674 7.93657 12.8232 8.30996 12.4734C8.73988 12.0706 9.32814 11.5195 9.34153 10.8968C9.32444 10.6172 9.25945 10.3277 9.18266 10.0057C9.12437 9.76303 9.05127 9.51575 8.98082 9.27657C8.9463 9.15963 8.9116 9.0425 8.87832 8.92502C8.64231 8.08772 8.85841 7.64071 9.08121 7.41316C9.23304 7.25817 9.43241 7.16288 9.65944 7.13153C9.47486 6.54926 9.54337 5.95131 9.86568 5.56559C10.0881 5.29929 10.4057 5.17618 10.7528 5.21175C10.8381 4.97099 10.958 4.73762 10.9601 4.73392C11.2661 4.21611 11.8186 3.93924 12.4056 4.01128C12.9114 4.0731 13.3368 4.37251 13.5856 4.81547C13.6623 4.77408 13.7419 4.73656 13.8278 4.70856C14.2602 4.56766 14.7158 4.64287 15.1813 4.93189C16.1995 5.56401 16.1869 6.62252 15.9885 7.27965C16.2881 7.47057 16.4798 7.79553 16.4977 8.17085C16.5086 8.40034 16.4459 8.66612 16.2804 8.90865C16.444 8.86285 16.6152 8.85387 16.7887 8.88575C17.157 8.95268 17.4735 9.19538 17.648 9.52931C19.1313 9.36516 19.8737 10.2301 19.9952 10.8489C20.1194 11.4852 19.836 12.0971 19.2372 12.4859ZM18.9009 11.012C18.8226 10.614 18.2746 10.0572 17.1363 10.2589C16.9951 10.2841 16.8574 10.1973 16.8192 10.0585C16.7588 9.83889 16.5766 9.66559 16.3658 9.62726C16.1766 9.59254 15.9917 9.66887 15.8346 9.84135C15.8464 9.92685 15.8505 10.0192 15.8423 10.1198C15.8083 10.5447 15.3621 11.0877 14.7783 11.4184L14.709 11.6251C15.1061 11.4777 15.4784 11.3634 15.8164 11.2751L15.9563 10.776C15.9893 10.6585 16.1106 10.5893 16.2289 10.6227C16.3465 10.6556 16.4151 10.7776 16.3822 10.8952L16.3082 11.1585C17.1422 10.9814 17.6782 10.9725 17.7188 10.9722C17.7195 10.9722 17.7203 10.9722 17.7209 10.9722C17.842 10.9722 17.9406 11.0697 17.9419 11.191C17.9432 11.3131 17.8453 11.413 17.7232 11.4145C17.7139 11.4145 17.2128 11.4236 16.4233 11.5892L16.67 11.8828C16.7486 11.9761 16.7365 12.1157 16.643 12.1943C16.6015 12.2292 16.5509 12.2462 16.5008 12.2462C16.4377 12.2462 16.3752 12.2194 16.3314 12.1675L15.9406 11.7028C15.5799 11.7961 15.1786 11.9196 14.7496 12.0833L15.1626 12.5981C15.2389 12.6934 15.2237 12.8326 15.1285 12.909C15.0877 12.9417 15.0387 12.9576 14.9902 12.9576C14.9254 12.9576 14.8612 12.9293 14.8176 12.8749L14.3219 12.2569C14.1452 12.3326 13.965 12.4145 13.7819 12.5046C13.7506 12.52 13.7172 12.5272 13.6846 12.5272C13.6029 12.5272 13.5244 12.4818 13.4859 12.4035C13.432 12.2939 13.4774 12.1612 13.587 12.1075C13.7853 12.0102 13.9799 11.9216 14.1704 11.8402L14.2217 11.6872C14.0831 11.7475 13.9383 11.8087 13.7881 11.8715C13.2997 12.0756 12.7947 12.2867 12.5016 12.4934C11.968 12.8698 11.8617 12.9535 11.413 13.4022C11.394 13.4212 9.4979 15.3193 7.87138 17.0252C7.81667 17.0827 7.74329 17.1116 7.66974 17.1116C7.60078 17.1116 7.53166 17.086 7.47777 17.0346C7.36639 16.9284 7.36213 16.7522 7.46827 16.641C9.09414 14.9355 11.0003 13.0271 11.0191 13.0082C11.4933 12.5342 11.6293 12.4271 12.1804 12.0382C12.5233 11.7963 13.0569 11.5734 13.5731 11.3575C13.9247 11.2105 14.2571 11.0715 14.4869 10.9439C14.9789 10.6708 15.2721 10.2571 15.2869 10.0753C15.3144 9.73258 15.117 9.61432 15.0944 9.60187C14.9997 9.55011 14.9401 9.44659 14.9467 9.33881C14.9532 9.23103 15.0181 9.13505 15.1183 9.09524C15.4571 8.9606 15.6513 8.71605 15.6382 8.44119C15.6281 8.22957 15.4923 8.05545 15.2923 7.9973C15.2143 7.97469 15.1501 7.919 15.1165 7.84496C15.083 7.77093 15.0833 7.68608 15.1175 7.61237C15.1385 7.56667 15.6276 6.46578 14.6767 5.87545C14.3865 5.69527 14.1282 5.6458 13.8861 5.72361C13.3752 5.88855 13.0907 6.5675 13.0877 6.57438C13.0586 6.6453 13.0014 6.70116 12.9298 6.72868C12.8586 6.75619 12.7788 6.75325 12.7095 6.72016C12.426 6.58404 12.2265 6.59108 12.1166 6.74047C11.9452 6.97356 11.9822 7.49804 12.2867 7.82547C12.2869 7.82564 12.2872 7.82596 12.2874 7.82613C12.3921 7.93882 12.3857 8.11474 12.2731 8.21957C12.1639 8.32129 11.9947 8.31834 11.889 8.21515C11.8245 8.18075 11.6145 8.16912 11.5429 8.1896C11.4111 8.22957 11.3306 8.38698 11.2866 8.51179C11.1549 8.8846 11.2394 9.32522 11.3288 9.79155C11.4142 10.2368 11.5026 10.6974 11.4086 11.1465C11.2153 12.0692 10.4684 12.8274 9.86809 13.4364L9.75048 13.5558C9.30429 14.0107 7.17179 16.0957 7.08138 16.1843C6.97147 16.2917 6.79506 16.2898 6.6876 16.1799C6.58015 16.07 6.58212 15.8936 6.69203 15.7861C6.71414 15.7645 8.91085 13.6167 9.35294 13.166L9.47153 13.0456C10.0491 12.4593 10.7038 11.7948 10.8637 11.0323C10.9347 10.6924 10.8605 10.3056 10.7821 9.89622C10.6827 9.37747 10.5798 8.84135 10.7616 8.32621C10.8863 7.97338 11.1008 7.74177 11.3821 7.65643C11.4201 7.64497 11.4763 7.63498 11.5428 7.62908C11.4006 7.20156 11.4345 6.72835 11.6682 6.41058C11.8977 6.09821 12.2704 5.99666 12.6946 6.11934C12.7724 5.9829 12.889 5.80813 13.0427 5.64334C12.8823 5.29134 12.5757 5.13016 12.3218 5.0992C11.9945 5.0594 11.6972 5.20928 11.5252 5.50035C11.4948 5.55932 11.3611 5.89346 11.328 6.00452C11.3269 6.03335 11.3211 6.06251 11.3105 6.09101C11.2568 6.23433 11.0974 6.30722 10.9536 6.25481C10.7402 6.17635 10.5723 6.2078 10.4543 6.34899C10.2602 6.58109 10.2155 7.10312 10.5149 7.61286C10.5719 7.70999 10.5649 7.8317 10.4971 7.92162C10.4291 8.01138 10.3136 8.05152 10.205 8.02334C10.0755 7.98993 9.83697 7.95504 9.69544 8.09967C9.55015 8.24807 9.53165 8.56355 9.64467 8.96486C9.67497 9.07166 9.70642 9.17845 9.73803 9.28525C9.80584 9.51457 9.87579 9.75158 9.93344 9.99155C10.0093 10.3092 10.0787 10.6197 10.0961 10.9283C10.0964 10.9347 10.0966 10.9409 10.0964 10.9473C10.0866 11.7678 9.40912 12.4027 8.96064 12.8227C8.60651 13.1542 8.23731 13.4775 7.88039 13.79C7.26172 14.3316 6.62192 14.8916 6.05616 15.5011C5.67156 15.9152 5.4334 16.3119 5.41898 16.5622C5.40244 16.8483 5.68974 17.323 5.96525 17.5985C5.97573 17.609 5.98425 17.6206 5.99277 17.6323C6.00456 17.6408 6.01619 17.6495 6.02684 17.6601C6.30235 17.9356 6.77098 18.2249 7.0632 18.2066C7.31315 18.1923 7.70971 17.954 8.12412 17.5694C8.73378 17.0035 9.29414 16.3637 9.83582 15.7447C10.1482 15.3879 10.4712 15.0189 10.8027 14.6651C11.2168 14.2225 11.8401 13.5565 12.6464 13.5299C12.6569 13.5285 12.6674 13.5276 12.6779 13.5275C13.2777 13.515 13.8456 13.6849 14.3943 13.8477C14.5277 13.8873 14.6608 13.9268 14.7942 13.9637C15.2014 14.076 15.5295 14.0515 15.6943 13.896C15.8597 13.7398 15.8348 13.4864 15.8053 13.3493C15.7819 13.241 15.825 13.1291 15.9149 13.0644C16.0048 12.9996 16.1244 12.9945 16.2197 13.0512C16.7286 13.3539 17.2562 13.3034 17.5146 13.0972C17.6783 12.9663 17.7239 12.7842 17.6498 12.5558C17.6025 12.4097 17.6823 12.253 17.8281 12.2053C17.8528 12.1973 17.878 12.1927 17.9029 12.1917C17.9865 12.1701 18.2582 12.0777 18.4389 11.9604C18.804 11.7234 18.9722 11.3778 18.9009 11.012Z" fill="black"/>
</svg>
