<svg width="24" height="24" viewBox="0 0 24 24" fill="none" xmlns="http://www.w3.org/2000/svg">
<path fill-rule="evenodd" clip-rule="evenodd" d="M20.4367 3.66332L14.8016 9.29843L14.1416 8.63846L19.7767 3.00336L20.4367 3.66332Z" fill="black"/>
<path fill-rule="evenodd" clip-rule="evenodd" d="M9.39967 14.7003L3.66338 20.4366L3.00342 19.7766L8.7397 14.0403L9.39967 14.7003Z" fill="black"/>
<path fill-rule="evenodd" clip-rule="evenodd" d="M0.933334 11.9998C0.933334 18.1012 5.89875 23.0667 12.0001 23.0667C18.1015 23.0667 23.0667 18.1013 23.0667 11.9998C23.0667 5.89857 18.1015 0.933334 12.0001 0.933334C5.89872 0.933334 0.933334 5.8986 0.933334 11.9998ZM0 11.9998C0 18.6167 5.38328 24 12.0001 24C18.617 24 24 18.6167 24 11.9998C24 5.3831 18.617 0 12.0001 0C5.38328 0 0 5.3831 0 11.9998Z" fill="black"/>
<path fill-rule="evenodd" clip-rule="evenodd" d="M14.7177 8.62657C14.282 7.78973 14.1446 7.1023 14.1063 6.65665C14.4537 6.5463 14.7095 6.2053 14.7095 5.79798V5.33961C14.7095 4.84357 14.3326 4.44 13.8693 4.44H10.523C10.0597 4.44 9.68281 4.84357 9.68281 5.33961V5.79798C9.68281 6.2053 9.93857 6.5463 10.286 6.65665C10.2477 7.1023 10.1103 7.7897 9.67481 8.62638C9.54544 8.87468 9.41358 9.16561 9.28314 9.49098C8.9016 10.4425 8.70825 11.4738 8.70825 12.5566V16.7771C8.70825 18.3963 9.93835 19.7134 11.4505 19.7134H12.9418C14.4539 19.7134 15.684 18.3963 15.684 16.7771V12.5566C15.684 11.4738 15.4907 10.4425 15.1091 9.49098C14.9787 9.16561 14.8468 8.87468 14.7177 8.62657ZM10.4107 5.33961C10.4107 5.2734 10.4612 5.21936 10.523 5.21936H13.8693C13.9311 5.21936 13.9816 5.2734 13.9816 5.33961V5.79798C13.9816 5.86419 13.9311 5.91823 13.8693 5.91823H10.523C10.4612 5.91823 10.4107 5.86419 10.4107 5.79798V5.33961ZM14.9561 16.7771C14.9561 17.9663 14.0525 18.934 12.9418 18.934H11.4505C10.3398 18.934 9.43615 17.9663 9.43615 16.7771V12.5566C9.43615 11.5802 9.60977 10.6522 9.95204 9.79846C10.0727 9.49764 10.1932 9.23106 10.3105 9.00597C10.8016 8.06272 10.9695 7.27021 11.0135 6.69759H13.3788C13.4228 7.27021 13.5908 8.06277 14.082 9.00616C14.1991 9.23106 14.3196 9.49764 14.4402 9.79846C14.7825 10.6522 14.9561 11.5802 14.9561 12.5566V16.7771Z" fill="black"/>
<path fill-rule="evenodd" clip-rule="evenodd" d="M10.7049 9.52049C10.6729 9.56768 10.3894 9.99503 10.2848 10.4802C10.2396 10.6899 10.3617 10.8992 10.5576 10.9477C10.5851 10.9544 10.6126 10.9576 10.6398 10.9576C10.8055 10.9576 10.9553 10.8358 10.9942 10.6557C11.0662 10.3212 11.2892 9.98552 11.2942 9.9781C11.4118 9.804 11.3757 9.56064 11.2133 9.4343C11.0503 9.30815 10.8231 9.34677 10.7049 9.52049Z" fill="black"/>
<path fill-rule="evenodd" clip-rule="evenodd" d="M11.3329 8.45245C11.3329 8.45245 11.2923 8.51086 11.2293 8.61095C11.1171 8.78942 11.1612 9.03164 11.3279 9.15189C11.3903 9.1968 11.461 9.2183 11.5308 9.2183C11.6479 9.2183 11.7627 9.15798 11.8331 9.04629C11.8827 8.96733 11.9152 8.91995 11.9177 8.91653C12.0371 8.74376 12.003 8.50002 11.8418 8.37197C11.6806 8.2441 11.453 8.27987 11.3329 8.45245Z" fill="black"/>
</svg>
