<svg width="24" height="24" viewBox="0 0 24 24" fill="none" xmlns="http://www.w3.org/2000/svg">
<path fill-rule="evenodd" clip-rule="evenodd" d="M0.933333 11.9998C0.933333 18.1012 5.89875 23.0667 12.0001 23.0667C18.1015 23.0667 23.0667 18.1012 23.0667 11.9998C23.0667 5.89857 18.1015 0.933333 12.0001 0.933333C5.89871 0.933333 0.933333 5.89859 0.933333 11.9998ZM0 11.9998C0 18.6167 5.38327 24 12.0001 24C18.6169 24 24 18.6167 24 11.9998C24 5.3831 18.6169 0 12.0001 0C5.38327 0 0 5.3831 0 11.9998Z" fill="black"/>
<path fill-rule="evenodd" clip-rule="evenodd" d="M9.68902 4.69336H9.65399C8.50763 4.70258 7.43367 5.14917 6.62985 5.95082C5.82582 6.75226 5.38846 7.81281 5.39785 8.93705C5.40832 10.2297 6.0398 11.4614 7.09177 12.2482C7.11227 12.267 7.13426 12.2848 7.15733 12.3014C9.39346 13.9034 9.50344 14.0676 10.0954 16.695C10.0961 16.6988 10.0975 16.7041 10.0988 16.7095C10.0993 16.7118 10.0999 16.7147 10.1005 16.7172C10.1027 16.7275 10.105 16.7371 10.1076 16.7474C10.5452 18.649 12.3008 20.0267 14.2918 20.0267H14.3281C15.474 20.0173 16.548 19.5709 17.3518 18.7694C18.1554 17.9678 18.5927 16.9074 18.5833 15.7832C18.5727 14.4698 17.9563 13.2675 16.8892 12.471C16.8685 12.4526 16.8469 12.435 16.8239 12.4187C14.5875 10.8162 14.4778 10.6518 13.8858 8.02522L13.8815 8.00595C13.879 7.99359 13.876 7.98144 13.873 7.9695C13.4339 6.06959 11.6791 4.69336 9.68902 4.69336ZM9.71758 5.51257C11.3884 5.51257 12.7892 6.6634 13.1344 8.20563H13.1349C13.1353 8.20811 13.1361 8.21101 13.1365 8.21328C13.1382 8.22073 13.1399 8.22797 13.1416 8.23521C13.7657 11.0046 13.9789 11.319 16.3286 13.0026L16.3252 13.0051C17.1878 13.6236 17.7543 14.6176 17.7634 15.7467C17.7794 17.6425 16.2257 19.192 14.2929 19.2075C14.2828 19.2075 14.2731 19.2075 14.2632 19.2075C12.5924 19.2075 11.1918 18.0562 10.8468 16.5144H10.8463C10.8459 16.5119 10.8455 16.5093 10.8447 16.5068C10.8434 16.4995 10.8413 16.4923 10.8398 16.4853C10.2157 13.7154 10.0027 13.401 7.65263 11.7173L7.656 11.715C6.79383 11.0962 6.22692 10.1022 6.21785 8.97333C6.20182 7.07797 7.75597 5.52809 9.6889 5.51257C9.69839 5.51257 9.70788 5.51257 9.71758 5.51257Z" fill="black"/>
<path fill-rule="evenodd" clip-rule="evenodd" d="M7.7774 9.50005C7.71687 9.50005 7.65613 9.49364 7.59581 9.48102C7.39651 9.43944 7.26933 9.24705 7.31193 9.05135C7.35454 8.85565 7.55089 8.7309 7.74998 8.77311C7.793 8.78221 7.82654 8.76649 7.84257 8.75614C7.85838 8.74621 7.88665 8.72263 7.89593 8.68022C7.90563 8.63554 7.8877 8.60161 7.8761 8.58527C7.75926 8.42142 7.79996 8.19573 7.96721 8.08133C8.13425 7.96672 8.36434 8.00644 8.48097 8.17049C8.61764 8.36205 8.66741 8.60306 8.61785 8.83124C8.56976 9.05197 8.43689 9.24126 8.24392 9.36393C8.10261 9.45371 7.94169 9.50005 7.7774 9.50005Z" fill="black"/>
<path fill-rule="evenodd" clip-rule="evenodd" d="M9.26351 7.84508C9.2032 7.84508 9.14246 7.83887 9.08214 7.82625C8.88283 7.78446 8.75566 7.59207 8.79826 7.39658C8.84086 7.20088 9.037 7.07655 9.23631 7.11813C9.27975 7.12744 9.31287 7.11151 9.32868 7.10137C9.34471 7.09124 9.37297 7.06786 9.38225 7.02524C9.39195 6.98056 9.37403 6.94663 9.36243 6.9305C9.24559 6.76666 9.28629 6.54096 9.45354 6.42635C9.62057 6.31174 9.85067 6.35167 9.9673 6.51572C10.104 6.70728 10.1537 6.94808 10.1042 7.17647C10.0561 7.3972 9.92322 7.58628 9.73024 7.70896C9.58894 7.79874 9.42802 7.84508 9.26351 7.84508Z" fill="black"/>
<path fill-rule="evenodd" clip-rule="evenodd" d="M10.1548 9.63986C10.0945 9.63986 10.0337 9.63366 9.97319 9.62104C9.77388 9.57925 9.64692 9.38686 9.68931 9.19136C9.73213 8.99566 9.92784 8.87133 10.1276 8.91291C10.1708 8.92202 10.2041 8.9065 10.2199 8.89616C10.236 8.88602 10.2642 8.86264 10.2733 8.82024C10.283 8.77555 10.2651 8.74162 10.2537 8.72528C10.1368 8.56144 10.1776 8.33574 10.3446 8.22134C10.5118 8.10673 10.7417 8.14645 10.8586 8.3105C10.995 8.50207 11.045 8.74307 10.9952 8.97125C10.9474 9.19198 10.8145 9.38107 10.6213 9.50395C10.4802 9.59352 10.3191 9.63986 10.1548 9.63986Z" fill="black"/>
</svg>
