<svg width="24" height="24" viewBox="0 0 24 24" fill="none" xmlns="http://www.w3.org/2000/svg">
<path fill-rule="evenodd" clip-rule="evenodd" d="M0.933334 11.9998C0.933334 18.1012 5.89875 23.0667 12.0001 23.0667C18.1015 23.0667 23.0667 18.1013 23.0667 11.9998C23.0667 5.89857 18.1015 0.933334 12.0001 0.933334C5.89872 0.933334 0.933334 5.8986 0.933334 11.9998ZM0 11.9998C0 18.6167 5.38328 24 12.0001 24C18.617 24 24 18.6167 24 11.9998C24 5.3831 18.617 0 12.0001 0C5.38328 0 0 5.3831 0 11.9998Z" fill="black"/>
<mask id="path-2-outside-1_1942_470" maskUnits="userSpaceOnUse" x="3" y="4" width="18" height="16" fill="black">
<rect fill="white" x="3" y="4" width="18" height="16"/>
<path d="M18.4053 11.3494L18.2182 11.3454V11.3455C18.1126 11.3536 18.0065 11.3423 17.905 11.3121C17.9025 11.2999 17.9035 11.2437 18.0212 11.0376C18.2114 10.7099 18.4011 10.3818 18.5838 10.0565V10.0563C18.6652 9.92586 18.6893 9.76764 18.6503 9.61899C18.6003 9.45239 18.4866 9.31224 18.3338 9.22906C18.1789 9.13248 17.9924 9.10056 17.8142 9.14005C17.66 9.1856 17.5316 9.29313 17.4598 9.43702C17.3032 9.72536 17.1388 10.0082 16.9741 10.2906C16.8214 10.5516 16.6687 10.8147 16.5236 11.0801L16.5238 11.0802C16.4883 11.1702 16.4239 11.2458 16.3407 11.2951C16.2574 11.3444 16.1602 11.3644 16.0642 11.3521C15.5647 11.3445 15.0651 11.346 14.5644 11.3466C14.1921 11.3466 13.8192 11.3485 13.4438 11.3466C13.1974 11.3466 13.158 11.3096 13.1567 11.307C13.1554 11.3044 13.1422 11.2506 13.258 11.0437C13.7056 10.2482 14.1452 9.47186 14.611 8.71646L14.6111 8.71634C14.6894 8.61056 14.8076 8.54112 14.938 8.52423C15.3486 8.50279 15.7653 8.50466 16.1646 8.5057H16.7825H16.7826C16.9977 8.50186 17.2025 8.41332 17.3526 8.25907C17.4673 8.15026 17.5333 7.99973 17.5352 7.84152C17.5137 7.66397 17.4265 7.50098 17.2911 7.38425C17.1556 7.26751 16.9815 7.20553 16.8027 7.21054C16.6417 7.21054 16.4809 7.21206 16.3201 7.21369C16.1593 7.2152 16.0002 7.21683 15.8402 7.21683C15.7349 7.2258 15.6288 7.21567 15.5271 7.18678C15.5245 7.17454 15.525 7.11862 15.6411 6.91276L15.6933 6.81618C15.8535 6.5255 16.0046 6.25067 16.1797 5.97643C16.267 5.84956 16.298 5.6924 16.2654 5.54189C16.2126 5.36317 16.0941 5.21101 15.9337 5.11608C15.7866 5.01239 15.6026 4.97593 15.4271 5.01577C15.2659 5.06156 15.133 5.17619 15.0639 5.32893C14.9026 5.65151 14.7113 5.96154 14.5245 6.2642C14.4003 6.4774 14.3481 6.49465 14.3464 6.49593C14.341 6.49465 14.2917 6.47822 14.1739 6.27748C14.0794 6.11438 13.9878 5.95126 13.8967 5.78842C13.8056 5.62555 13.7141 5.45987 13.6164 5.29446L13.6165 5.29458C13.5161 5.15419 13.3636 5.05994 13.1933 5.0328C13.0452 4.99319 12.8877 5.01182 12.753 5.08499C12.3997 5.33186 12.3094 5.65363 12.5038 5.96891C12.853 6.51694 13.1745 7.07591 13.4595 7.6328C13.519 7.78111 13.5196 7.94656 13.4613 8.0952C13.1184 8.73271 12.7478 9.36997 12.389 9.98595L12.128 10.434C12.0158 10.6234 11.9641 10.6302 11.9636 10.6302C11.9631 10.6302 11.9114 10.6255 11.79 10.4151L11.7031 10.2664C11.2856 9.55289 10.8541 8.81484 10.4565 8.07423V8.07435C10.3985 7.93979 10.3991 7.78705 10.458 7.65296C10.6645 7.24952 10.8988 6.85201 11.1258 6.4679C11.2146 6.31738 11.3035 6.16673 11.3918 6.01376C11.4774 5.83376 11.4869 5.62672 11.4179 5.43963C11.3768 5.29039 11.2761 5.16456 11.1395 5.09175C10.9852 5.0017 10.7992 4.98375 10.6306 5.04271C10.462 5.10166 10.3277 5.23156 10.2632 5.39816C10.1338 5.66355 9.98821 5.92069 9.82709 6.168L9.70628 6.36291C9.64546 6.46729 9.59898 6.49339 9.58337 6.4949C9.56636 6.4949 9.51813 6.46694 9.45289 6.36291C9.25017 6.01667 9.04757 5.66399 8.85266 5.31904C8.78392 5.1804 8.66125 5.07601 8.5134 5.03046C8.33003 4.9891 8.13779 5.02056 7.97715 5.11807C7.81964 5.20615 7.70244 5.35177 7.65013 5.52443C7.6182 5.66878 7.64733 5.81988 7.73075 5.94198C7.95676 6.29871 8.15948 6.66744 8.32736 6.98015C8.40565 7.12916 8.3926 7.17145 8.39307 7.17145C8.39353 7.17145 8.36045 7.20489 8.18429 7.20827C7.99952 7.21118 7.81289 7.21118 7.62636 7.21118L7.62741 7.21106C7.43844 7.21106 7.24923 7.21106 7.06423 7.21444C6.89507 7.23599 6.73675 7.30962 6.61137 7.42531C6.48601 7.54088 6.39968 7.69268 6.36462 7.85962C6.35134 8.03332 6.4132 8.20436 6.53448 8.32936C6.67522 8.46625 6.86872 8.53464 7.06423 8.51646C7.71664 8.48303 8.38105 8.49899 8.95052 8.51646C9.08241 8.52252 9.20648 8.58019 9.29631 8.67689C9.82394 9.53808 10.3172 10.4147 10.6881 11.0812C10.7872 11.2588 10.771 11.3059 10.771 11.3059C10.771 11.3059 10.7371 11.3453 10.5197 11.3453C10.1374 11.3484 9.75405 11.3474 9.3696 11.3453C8.85292 11.3453 8.33624 11.3429 7.82024 11.3507C7.65084 11.3679 7.49088 11.27 7.42879 11.1114C7.17562 10.6453 6.90265 10.1814 6.63891 9.73253L6.52357 9.53657C6.43922 9.38057 6.30058 9.26104 6.134 9.20044C5.9674 9.13998 5.78424 9.14277 5.61952 9.20825C5.48647 9.28724 5.39106 9.41667 5.35471 9.56707C5.29494 9.77608 5.31964 10.0003 5.42356 10.1913C5.50814 10.3445 5.59447 10.4946 5.68092 10.6444C5.76724 10.7942 5.85521 10.9466 5.94188 11.1019V11.1018C5.98371 11.1639 6.01307 11.2334 6.02856 11.3067C6.02495 11.3101 5.98918 11.3395 5.79812 11.3461C5.61544 11.3492 5.43637 11.3492 5.25707 11.3492H5.2545C5.07183 11.3492 4.89207 11.3492 4.71345 11.3526C4.5352 11.3592 4.36534 11.4294 4.23441 11.5505C4.10347 11.6717 4.02039 11.8356 4 12.0128C4.02004 12.1837 4.10136 12.3415 4.22881 12.4569C4.35638 12.5724 4.52135 12.6376 4.69342 12.6408C4.8182 12.6408 4.94344 12.6393 5.06928 12.6379C5.31486 12.635 5.56932 12.6322 5.8143 12.6408C5.98183 12.6473 6.01084 12.6797 6.01107 12.6797C6.01131 12.6797 6.02622 12.7228 5.94117 12.8788C5.75616 13.2105 5.56532 13.5531 5.36135 13.882L5.36123 13.8819C5.26628 14.0264 5.23611 14.2039 5.27805 14.3717C5.31987 14.5393 5.42997 14.6819 5.58178 14.7648C5.70935 14.8447 5.8643 14.8679 6.00971 14.829C6.20415 14.7891 6.37426 14.6727 6.48177 14.5059L6.71455 14.1092C6.93952 13.7274 7.1717 13.3326 7.38701 12.9323H7.38712C7.42499 12.8312 7.49664 12.7462 7.58984 12.6917C7.68304 12.6372 7.79221 12.6164 7.89891 12.633C8.19274 12.6515 8.49284 12.6471 8.78283 12.6435C8.90784 12.6416 9.03285 12.6399 9.15785 12.6399L9.59752 12.6383C9.89111 12.6368 10.1878 12.6354 10.4848 12.6399C10.7283 12.6435 10.7719 12.6764 10.7758 12.6798C10.7784 12.6884 10.7857 12.7406 10.6746 12.9408L10.4214 13.3844C10.0681 14.0057 9.70272 14.6483 9.32224 15.2668V15.2666C9.23253 15.3833 9.10054 15.46 8.9548 15.4801C8.47015 15.5049 7.97431 15.5026 7.49339 15.5007L7.06722 15.4994C6.89643 15.5132 6.73566 15.5855 6.61191 15.7041C6.48831 15.8227 6.40943 15.9805 6.38869 16.1504C6.41269 16.321 6.49646 16.4775 6.6252 16.5919C6.75381 16.7063 6.91902 16.7712 7.09121 16.775C7.46333 16.7683 7.83578 16.762 8.21465 16.762C8.34513 16.762 8.39103 16.7914 8.39732 16.803C8.40361 16.8145 8.40571 16.8646 8.34257 16.9737C8.24657 17.1456 8.14894 17.3176 8.05154 17.4893C7.95415 17.661 7.86048 17.8265 7.766 17.9958C7.69726 18.1503 7.68281 18.3236 7.72499 18.4874C7.76728 18.6512 7.86362 18.7959 7.99854 18.8979C8.15454 18.9705 8.33222 18.9818 8.49613 18.9294C8.66005 18.8771 8.79823 18.7649 8.88326 18.6153C8.96889 18.4692 9.05312 18.3228 9.13747 18.1767C9.22671 18.0216 9.31595 17.8669 9.40647 17.7124C9.52647 17.5102 9.5803 17.5081 9.58076 17.5081C9.58123 17.5081 9.63447 17.5138 9.74492 17.7059L9.85559 17.8922C10.0069 18.1464 10.1637 18.4091 10.3045 18.6751C10.3737 18.8223 10.5021 18.9334 10.6578 18.9804C10.7061 18.9937 10.7558 19.0002 10.8058 19C10.9636 18.9941 11.1156 18.9399 11.2415 18.8448C11.3675 18.7497 11.4614 18.6184 11.5104 18.4684C11.54 18.3199 11.5073 18.1657 11.4199 18.042C11.2435 17.7591 11.0764 17.4622 10.9152 17.1751C10.7769 16.929 10.638 16.6822 10.4909 16.4391H10.4908C10.4234 16.3536 10.3858 16.2484 10.3835 16.1396C10.3812 16.0308 10.4143 15.9241 10.4781 15.8358C10.7581 15.3786 11.029 14.9015 11.2913 14.4404C11.4497 14.162 11.6078 13.8835 11.7694 13.6068C11.9024 13.3751 11.9596 13.372 11.962 13.372C11.9643 13.372 12.0202 13.3743 12.1524 13.6011C12.3202 13.8882 12.4852 14.1789 12.6504 14.4693C12.9113 14.9296 13.1832 15.4062 13.4623 15.8667L13.4622 15.8669C13.5168 15.9455 13.545 16.0395 13.5428 16.1353C13.5406 16.231 13.5081 16.3237 13.4499 16.3997C13.1874 16.8299 12.9311 17.2744 12.6837 17.7046L12.5511 17.9344C12.4602 18.0852 12.4287 18.2643 12.4625 18.437C12.4961 18.6098 12.5929 18.7638 12.7338 18.8693C12.8678 18.9478 13.0279 18.9686 13.1774 18.9272C13.3888 18.8735 13.5702 18.7381 13.6819 18.5509L13.7587 18.4147C13.9012 18.1615 14.0489 17.8997 14.2023 17.6505C14.2743 17.532 14.3218 17.5059 14.3341 17.5059C14.3341 17.5059 14.3827 17.5075 14.4768 17.6581L14.546 17.7698C14.7161 18.0468 14.8922 18.3332 15.034 18.6226H15.0339C15.1007 18.7764 15.2282 18.8955 15.3862 18.9514C15.5748 19.0027 15.776 18.976 15.9447 18.8773C16.0742 18.8043 16.1683 18.6818 16.2057 18.538C16.2606 18.3535 16.2399 18.1546 16.1483 17.9854C16.0718 17.8486 15.9942 17.7134 15.9165 17.5777C15.808 17.3885 15.6989 17.1985 15.5932 17.0057C15.5131 16.8559 15.5285 16.8144 15.5285 16.8139C15.5285 16.8134 15.5575 16.7787 15.7309 16.7719C16.0746 16.7599 16.481 16.7508 16.8826 16.7719H16.8827C17.0714 16.7927 17.2595 16.7269 17.3939 16.5928C17.5113 16.4685 17.5668 16.2979 17.545 16.1283C17.5318 15.9604 17.4574 15.8033 17.3358 15.6867C17.2141 15.5702 17.0538 15.5025 16.8855 15.4967C16.7078 15.4967 16.5308 15.498 16.3541 15.4996C15.8951 15.503 15.4209 15.5074 14.9535 15.4837H14.9536C14.8235 15.4686 14.7041 15.4041 14.6203 15.3033C14.2335 14.6726 13.8614 14.0176 13.5015 13.384L13.2481 12.9382C13.1326 12.732 13.1495 12.6819 13.1498 12.6812C13.15 12.6804 13.1853 12.6418 13.4108 12.6418C14.29 12.6358 15.2003 12.6286 16.1065 12.6549C16.2501 12.6732 16.3803 12.7483 16.4679 12.8637C16.8297 13.43 17.1582 14.0241 17.4335 14.5339C17.5142 14.6834 17.654 14.7921 17.8189 14.8333C17.9838 14.8745 18.1584 14.8444 18.2999 14.7504C18.4578 14.6728 18.5765 14.5336 18.6283 14.3655C18.6729 14.2017 18.6443 14.0265 18.55 13.8853C18.3498 13.5562 18.1585 13.2143 17.9698 12.8751C17.8873 12.7263 17.8993 12.6838 17.8991 12.6838C17.8988 12.6838 17.9298 12.6499 18.1024 12.6433C18.321 12.636 18.5416 12.6376 18.7616 12.6381C18.9301 12.6381 19.0979 12.6396 19.2642 12.6368H19.2643C19.4401 12.6268 19.6051 12.5482 19.7235 12.4179C19.845 12.3011 19.9147 12.1406 19.9171 11.9722C19.9187 11.7907 19.8461 11.6165 19.7163 11.4896C19.5888 11.3808 19.4221 11.3297 19.2557 11.3484C18.977 11.3617 18.6995 11.356 18.4054 11.3495L18.4053 11.3494ZM19.542 11.6803V11.6804C19.6174 11.7608 19.6585 11.8674 19.6569 11.9776C19.6515 12.0753 19.6085 12.1671 19.5369 12.2339C19.4627 12.309 19.3659 12.358 19.2612 12.3732C19.0963 12.3758 18.9298 12.3753 18.7633 12.3745C18.541 12.3745 18.3163 12.3724 18.0939 12.3798H18.094C17.9334 12.3623 17.7749 12.4273 17.6727 12.5525C17.6186 12.7071 17.6468 12.8786 17.7474 13.0078C17.9332 13.3408 18.125 13.6851 18.3278 14.0188C18.3838 14.0978 18.4028 14.1972 18.38 14.2913C18.3476 14.3907 18.2756 14.4724 18.1812 14.517C18.1 14.5775 17.9966 14.5998 17.8977 14.5785C17.7988 14.5572 17.714 14.4942 17.6649 14.4056C17.3891 13.8944 17.0574 13.2947 16.6897 12.7192C16.555 12.5307 16.3441 12.411 16.1132 12.392C15.2056 12.3659 14.2932 12.3724 13.4125 12.3789C13.2217 12.3789 13.0147 12.3987 12.9282 12.547C12.8415 12.6952 12.9225 12.8837 13.0242 13.065L13.2778 13.5107C13.6387 14.1465 14.0116 14.8033 14.4018 15.4396C14.5306 15.614 14.7284 15.7244 14.9444 15.7425C15.4191 15.7665 15.8967 15.7623 16.3591 15.7584C16.5352 15.7584 16.7116 15.7559 16.8852 15.7559C16.9901 15.7618 17.0891 15.8061 17.1635 15.8802C17.238 15.9543 17.2827 16.0531 17.2892 16.1579C17.3008 16.2502 17.271 16.3429 17.2078 16.4111C17.126 16.4888 17.0134 16.525 16.9016 16.5095C16.488 16.4884 16.0749 16.4975 15.7247 16.5095C15.5648 16.4931 15.4072 16.5582 15.3055 16.6828C15.2489 16.832 15.2719 16.9998 15.3666 17.1283C15.4741 17.324 15.5837 17.5155 15.693 17.706C15.7713 17.8412 15.8475 17.9756 15.9239 18.112L15.924 18.1121C15.9809 18.2201 15.9932 18.3461 15.9585 18.4631C15.9405 18.5391 15.893 18.6048 15.8264 18.6457C15.7191 18.7091 15.5918 18.7297 15.4699 18.7034C15.3797 18.6681 15.3077 18.5974 15.2708 18.5077C15.1237 18.2067 14.9444 17.915 14.7706 17.6332L14.7014 17.5202C14.627 17.4017 14.5085 17.2449 14.336 17.2449H14.3342C14.1636 17.2449 14.0511 17.3996 13.982 17.5143C13.8254 17.7668 13.6761 18.031 13.532 18.2865L13.4561 18.4211C13.3807 18.5472 13.2589 18.6388 13.1168 18.676C13.0353 18.7004 12.9474 18.691 12.8728 18.6499C12.7905 18.5797 12.736 18.4823 12.7189 18.3755C12.7021 18.2685 12.7237 18.159 12.7802 18.0667L12.9122 17.8369C13.1591 17.4081 13.4141 16.9647 13.6756 16.537V16.5369C13.7585 16.4202 13.8042 16.281 13.8064 16.1378C13.8087 15.9946 13.7676 15.8541 13.6884 15.7347C13.411 15.2759 13.1403 14.8012 12.8794 14.3424C12.7139 14.0512 12.5485 13.7605 12.3799 13.4716C12.2755 13.2942 12.1463 13.113 11.9642 13.113C11.7816 13.113 11.6511 13.2982 11.5467 13.4784C11.3851 13.7549 11.2265 14.0342 11.0675 14.3135C10.8066 14.7727 10.5365 15.2477 10.2585 15.7026C10.17 15.8318 10.1237 15.9853 10.1262 16.1419C10.1285 16.2984 10.1794 16.4504 10.2718 16.5769C10.4172 16.817 10.5542 17.0612 10.6914 17.305C10.8543 17.5947 11.0226 17.8943 11.2035 18.1835V18.1833C11.2529 18.2492 11.2733 18.3324 11.2599 18.4136C11.2208 18.5225 11.1436 18.6135 11.0425 18.6695C10.9508 18.7318 10.8377 18.754 10.7293 18.7309C10.6431 18.7026 10.5731 18.6389 10.537 18.5558C10.3926 18.2837 10.2345 18.0179 10.0813 17.7607L9.97193 17.578C9.88478 17.4261 9.76315 17.2518 9.58408 17.2507H9.58222C9.4035 17.2507 9.27535 17.4282 9.1832 17.5837C9.09104 17.7392 9.00238 17.8945 8.91256 18.0501C8.82879 18.1955 8.74503 18.3413 8.65916 18.4874H8.65928C8.60732 18.5765 8.52519 18.6443 8.42779 18.6785C8.3304 18.7127 8.22403 18.7111 8.12769 18.6739C8.05243 18.6069 7.99954 18.5185 7.97601 18.4205C7.95247 18.3227 7.95935 18.2198 7.99593 18.1259C8.0896 17.9578 8.1849 17.79 8.27985 17.6217C8.37771 17.4495 8.47557 17.2769 8.57087 17.1065V17.1066C8.66629 16.984 8.68702 16.819 8.62516 16.6765C8.57856 16.6138 8.516 16.5648 8.44388 16.5346C8.37188 16.5043 8.29301 16.4941 8.21565 16.5048C7.83515 16.5048 7.46142 16.5111 7.08989 16.5178C6.98597 16.5143 6.88636 16.4762 6.80667 16.4096C6.72698 16.3428 6.67188 16.2515 6.65009 16.1499C6.67036 16.0495 6.72174 15.9579 6.79712 15.8885C6.8725 15.819 6.96791 15.7752 7.06973 15.7635L7.49125 15.7648C7.97554 15.7666 8.47558 15.769 8.96677 15.7439C9.19861 15.7199 9.40901 15.597 9.5437 15.4066C9.92677 14.7843 10.2935 14.1397 10.6484 13.5165L10.902 13.0709C11.0192 12.8575 11.0813 12.6879 11.002 12.5513C10.9226 12.4148 10.7389 12.3836 10.4884 12.3798C10.1904 12.3754 9.8926 12.3767 9.59588 12.3783L9.15772 12.3798C9.03143 12.3798 8.90514 12.3817 8.7791 12.3835C8.49413 12.3874 8.19996 12.3918 7.9179 12.3738V12.3739C7.76098 12.3534 7.6017 12.3849 7.46436 12.4635C7.327 12.5421 7.21936 12.6638 7.15773 12.8095C6.94453 13.2065 6.71409 13.599 6.48972 13.9786L6.25636 14.3753C6.18483 14.4783 6.07625 14.5495 5.95334 14.5742C5.87866 14.5959 5.79839 14.5872 5.73 14.5502C5.6347 14.5045 5.56387 14.4199 5.53568 14.3181C5.50748 14.2163 5.52484 14.1073 5.58309 14.0191C5.79035 13.6853 5.98292 13.3406 6.16945 13.0047V13.0048C6.26731 12.8747 6.29317 12.7041 6.23807 12.5509C6.13788 12.4274 5.98211 12.363 5.82389 12.3797C5.57178 12.3711 5.31454 12.374 5.06709 12.3768C4.94231 12.3781 4.81812 12.3797 4.69753 12.3797H4.69765C4.59431 12.3761 4.49516 12.338 4.41606 12.2715C4.33695 12.205 4.28231 12.1139 4.26099 12.0128C4.2829 11.9058 4.33905 11.8088 4.42107 11.7366C4.50309 11.6645 4.60642 11.6211 4.71536 11.613C4.89384 11.6091 5.07209 11.6091 5.25268 11.6091C5.43035 11.6192 5.61803 11.6091 5.80572 11.6059C5.99341 11.6028 6.17713 11.5744 6.25461 11.4363C6.33209 11.2982 6.25962 11.1328 6.17061 10.9735C6.08161 10.8144 5.99656 10.6654 5.90965 10.5129C5.82274 10.3605 5.7385 10.2157 5.65369 10.0623L5.65357 10.0624C5.58379 9.9319 5.5676 9.7794 5.60814 9.63727C5.6262 9.55536 5.67525 9.48372 5.74515 9.43735C5.85 9.40531 5.96266 9.41102 6.0638 9.45342C6.16492 9.49572 6.24799 9.57214 6.29867 9.6693L6.41377 9.86584C6.67684 10.3126 6.94877 10.7748 7.1996 11.2367H7.19948C7.25342 11.3555 7.3422 11.4551 7.45404 11.5223C7.566 11.5894 7.69567 11.6209 7.82581 11.6125C8.33912 11.6049 8.85408 11.6064 9.36948 11.607C9.75416 11.607 10.1385 11.6091 10.5209 11.607C10.7072 11.607 10.9094 11.5872 10.9963 11.4392C11.0555 11.2745 11.025 11.091 10.9157 10.9543C10.5438 10.286 10.049 9.40705 9.52033 8.54377C9.38623 8.36867 9.18047 8.26323 8.95995 8.25671C8.38397 8.239 7.71429 8.22304 7.05093 8.25671H7.05104C6.93034 8.26999 6.80977 8.23003 6.72088 8.14731C6.65191 8.07601 6.61696 7.97838 6.62488 7.87935C6.65436 7.77811 6.71121 7.68701 6.78915 7.61606C6.86698 7.54499 6.96297 7.49676 7.06643 7.47672C7.25143 7.47357 7.43855 7.47334 7.6254 7.47334L7.6275 7.47322C7.81624 7.47322 8.00544 7.47322 8.19301 7.47031V7.47043C8.35367 7.49047 8.51374 7.4286 8.61918 7.30569C8.67626 7.15622 8.65413 6.988 8.56022 6.85844C8.38931 6.54063 8.18369 6.16666 7.95347 5.80303C7.9078 5.7407 7.89067 5.66195 7.90617 5.58622C7.94228 5.48335 8.01498 5.39737 8.11028 5.34459C8.2092 5.28156 8.32849 5.25908 8.44349 5.28191C8.52481 5.30859 8.5911 5.36812 8.62616 5.44606C8.82294 5.79337 9.02599 6.14754 9.2308 6.49727C9.33705 6.67004 9.45961 6.76266 9.58649 6.75591H9.58661C9.66175 6.74694 9.73329 6.71828 9.79375 6.67284C9.85433 6.6274 9.90175 6.5667 9.93134 6.49704L10.0496 6.30632L10.0495 6.30621C10.2164 6.04966 10.3673 5.78299 10.5013 5.50771C10.5399 5.42289 10.6578 5.16344 11.0371 5.33109V5.33097C11.1045 5.37594 11.1529 5.44445 11.1727 5.52308C11.2179 5.64017 11.2157 5.7703 11.1665 5.88587C11.0796 6.03616 10.9912 6.18597 10.9024 6.33581C10.6738 6.72365 10.4371 7.1242 10.2285 7.53184V7.53173C10.1282 7.74295 10.1282 7.98808 10.2285 8.19929C10.628 8.94283 11.0611 9.68284 11.4793 10.3984L11.5654 10.5459C11.6628 10.716 11.7862 10.8902 11.9632 10.8914H11.9655C12.1387 10.8914 12.2591 10.7275 12.3548 10.5663L12.6158 10.1176C12.9757 9.49969 13.3465 8.86079 13.6944 8.2155H13.6945C13.791 7.99204 13.791 7.73854 13.6945 7.51509C13.4051 6.94982 13.0794 6.38279 12.7268 5.82999C12.6515 5.70836 12.5873 5.5208 12.9045 5.2992C12.9797 5.26856 13.0631 5.26437 13.1409 5.28743C13.2393 5.30153 13.3292 5.35151 13.393 5.42759C13.4877 5.59069 13.5791 5.75381 13.6704 5.91689C13.7617 6.07997 13.8531 6.2452 13.9499 6.40981C14.0556 6.59062 14.177 6.75744 14.346 6.75744C14.5076 6.75744 14.6247 6.6131 14.7494 6.39943C14.9374 6.09465 15.132 5.77916 15.2975 5.44772H15.2976C15.3337 5.36197 15.4055 5.29638 15.4941 5.26807C15.5989 5.24827 15.7072 5.27262 15.7934 5.33541C15.8972 5.3932 15.9754 5.48815 16.0121 5.60116C16.0285 5.68306 16.0103 5.76811 15.9618 5.83603C15.7827 6.11633 15.6295 6.39476 15.4659 6.6894L15.4137 6.7847C15.2858 7.01177 15.2222 7.17907 15.3005 7.31293C15.3788 7.44678 15.5594 7.47685 15.8418 7.47685C16.0025 7.47685 16.1633 7.47533 16.3243 7.47347C16.4853 7.4716 16.644 7.47056 16.8042 7.47056L16.8041 7.47044C16.9144 7.46776 17.0222 7.50411 17.1084 7.57296C17.1946 7.64182 17.2538 7.73886 17.2757 7.84698C17.2709 7.93447 17.232 8.01672 17.1673 8.07591C17.0659 8.17971 16.9279 8.23983 16.7827 8.24367C16.5776 8.24554 16.3725 8.24495 16.1674 8.24367C15.7624 8.24367 15.343 8.24076 14.9259 8.26243C14.7086 8.28352 14.512 8.3999 14.3888 8.58C13.9222 9.33681 13.4801 10.1166 13.0318 10.9148C12.9289 11.0975 12.8457 11.2888 12.9324 11.4368C13.0191 11.5847 13.2313 11.6064 13.4455 11.6064C13.8208 11.6095 14.1945 11.6085 14.5677 11.6064C15.0664 11.6064 15.5648 11.6041 16.0617 11.6119V11.612C16.2052 11.6235 16.3489 11.5904 16.473 11.5174C16.597 11.4445 16.6957 11.3348 16.7552 11.2038C16.899 10.9409 17.0503 10.6818 17.202 10.4209C17.368 10.1359 17.5343 9.85093 17.6909 9.56154C17.7293 9.48092 17.7989 9.41941 17.8835 9.39086C17.9951 9.37199 18.1097 9.39494 18.2055 9.45529C18.2974 9.5048 18.3667 9.58775 18.3989 9.68701C18.4191 9.7688 18.4042 9.85536 18.3576 9.92561C18.1749 10.252 17.9855 10.578 17.7955 10.9066C17.665 11.1341 17.6 11.302 17.677 11.4366C17.754 11.5712 17.9333 11.602 18.2141 11.6057L18.3997 11.6097C18.6842 11.6154 18.9801 11.6223 19.2724 11.6055H19.2723C19.369 11.5915 19.4672 11.6187 19.5429 11.6804L19.542 11.6803Z"/>
</mask>
<path d="M18.4053 11.3494L18.2182 11.3454V11.3455C18.1126 11.3536 18.0065 11.3423 17.905 11.3121C17.9025 11.2999 17.9035 11.2437 18.0212 11.0376C18.2114 10.7099 18.4011 10.3818 18.5838 10.0565V10.0563C18.6652 9.92586 18.6893 9.76764 18.6503 9.61899C18.6003 9.45239 18.4866 9.31224 18.3338 9.22906C18.1789 9.13248 17.9924 9.10056 17.8142 9.14005C17.66 9.1856 17.5316 9.29313 17.4598 9.43702C17.3032 9.72536 17.1388 10.0082 16.9741 10.2906C16.8214 10.5516 16.6687 10.8147 16.5236 11.0801L16.5238 11.0802C16.4883 11.1702 16.4239 11.2458 16.3407 11.2951C16.2574 11.3444 16.1602 11.3644 16.0642 11.3521C15.5647 11.3445 15.0651 11.346 14.5644 11.3466C14.1921 11.3466 13.8192 11.3485 13.4438 11.3466C13.1974 11.3466 13.158 11.3096 13.1567 11.307C13.1554 11.3044 13.1422 11.2506 13.258 11.0437C13.7056 10.2482 14.1452 9.47186 14.611 8.71646L14.6111 8.71634C14.6894 8.61056 14.8076 8.54112 14.938 8.52423C15.3486 8.50279 15.7653 8.50466 16.1646 8.5057H16.7825H16.7826C16.9977 8.50186 17.2025 8.41332 17.3526 8.25907C17.4673 8.15026 17.5333 7.99973 17.5352 7.84152C17.5137 7.66397 17.4265 7.50098 17.2911 7.38425C17.1556 7.26751 16.9815 7.20553 16.8027 7.21054C16.6417 7.21054 16.4809 7.21206 16.3201 7.21369C16.1593 7.2152 16.0002 7.21683 15.8402 7.21683C15.7349 7.2258 15.6288 7.21567 15.5271 7.18678C15.5245 7.17454 15.525 7.11862 15.6411 6.91276L15.6933 6.81618C15.8535 6.5255 16.0046 6.25067 16.1797 5.97643C16.267 5.84956 16.298 5.6924 16.2654 5.54189C16.2126 5.36317 16.0941 5.21101 15.9337 5.11608C15.7866 5.01239 15.6026 4.97593 15.4271 5.01577C15.2659 5.06156 15.133 5.17619 15.0639 5.32893C14.9026 5.65151 14.7113 5.96154 14.5245 6.2642C14.4003 6.4774 14.3481 6.49465 14.3464 6.49593C14.341 6.49465 14.2917 6.47822 14.1739 6.27748C14.0794 6.11438 13.9878 5.95126 13.8967 5.78842C13.8056 5.62555 13.7141 5.45987 13.6164 5.29446L13.6165 5.29458C13.5161 5.15419 13.3636 5.05994 13.1933 5.0328C13.0452 4.99319 12.8877 5.01182 12.753 5.08499C12.3997 5.33186 12.3094 5.65363 12.5038 5.96891C12.853 6.51694 13.1745 7.07591 13.4595 7.6328C13.519 7.78111 13.5196 7.94656 13.4613 8.0952C13.1184 8.73271 12.7478 9.36997 12.389 9.98595L12.128 10.434C12.0158 10.6234 11.9641 10.6302 11.9636 10.6302C11.9631 10.6302 11.9114 10.6255 11.79 10.4151L11.7031 10.2664C11.2856 9.55289 10.8541 8.81484 10.4565 8.07423V8.07435C10.3985 7.93979 10.3991 7.78705 10.458 7.65296C10.6645 7.24952 10.8988 6.85201 11.1258 6.4679C11.2146 6.31738 11.3035 6.16673 11.3918 6.01376C11.4774 5.83376 11.4869 5.62672 11.4179 5.43963C11.3768 5.29039 11.2761 5.16456 11.1395 5.09175C10.9852 5.0017 10.7992 4.98375 10.6306 5.04271C10.462 5.10166 10.3277 5.23156 10.2632 5.39816C10.1338 5.66355 9.98821 5.92069 9.82709 6.168L9.70628 6.36291C9.64546 6.46729 9.59898 6.49339 9.58337 6.4949C9.56636 6.4949 9.51813 6.46694 9.45289 6.36291C9.25017 6.01667 9.04757 5.66399 8.85266 5.31904C8.78392 5.1804 8.66125 5.07601 8.5134 5.03046C8.33003 4.9891 8.13779 5.02056 7.97715 5.11807C7.81964 5.20615 7.70244 5.35177 7.65013 5.52443C7.6182 5.66878 7.64733 5.81988 7.73075 5.94198C7.95676 6.29871 8.15948 6.66744 8.32736 6.98015C8.40565 7.12916 8.3926 7.17145 8.39307 7.17145C8.39353 7.17145 8.36045 7.20489 8.18429 7.20827C7.99952 7.21118 7.81289 7.21118 7.62636 7.21118L7.62741 7.21106C7.43844 7.21106 7.24923 7.21106 7.06423 7.21444C6.89507 7.23599 6.73675 7.30962 6.61137 7.42531C6.48601 7.54088 6.39968 7.69268 6.36462 7.85962C6.35134 8.03332 6.4132 8.20436 6.53448 8.32936C6.67522 8.46625 6.86872 8.53464 7.06423 8.51646C7.71664 8.48303 8.38105 8.49899 8.95052 8.51646C9.08241 8.52252 9.20648 8.58019 9.29631 8.67689C9.82394 9.53808 10.3172 10.4147 10.6881 11.0812C10.7872 11.2588 10.771 11.3059 10.771 11.3059C10.771 11.3059 10.7371 11.3453 10.5197 11.3453C10.1374 11.3484 9.75405 11.3474 9.3696 11.3453C8.85292 11.3453 8.33624 11.3429 7.82024 11.3507C7.65084 11.3679 7.49088 11.27 7.42879 11.1114C7.17562 10.6453 6.90265 10.1814 6.63891 9.73253L6.52357 9.53657C6.43922 9.38057 6.30058 9.26104 6.134 9.20044C5.9674 9.13998 5.78424 9.14277 5.61952 9.20825C5.48647 9.28724 5.39106 9.41667 5.35471 9.56707C5.29494 9.77608 5.31964 10.0003 5.42356 10.1913C5.50814 10.3445 5.59447 10.4946 5.68092 10.6444C5.76724 10.7942 5.85521 10.9466 5.94188 11.1019V11.1018C5.98371 11.1639 6.01307 11.2334 6.02856 11.3067C6.02495 11.3101 5.98918 11.3395 5.79812 11.3461C5.61544 11.3492 5.43637 11.3492 5.25707 11.3492H5.2545C5.07183 11.3492 4.89207 11.3492 4.71345 11.3526C4.5352 11.3592 4.36534 11.4294 4.23441 11.5505C4.10347 11.6717 4.02039 11.8356 4 12.0128C4.02004 12.1837 4.10136 12.3415 4.22881 12.4569C4.35638 12.5724 4.52135 12.6376 4.69342 12.6408C4.8182 12.6408 4.94344 12.6393 5.06928 12.6379C5.31486 12.635 5.56932 12.6322 5.8143 12.6408C5.98183 12.6473 6.01084 12.6797 6.01107 12.6797C6.01131 12.6797 6.02622 12.7228 5.94117 12.8788C5.75616 13.2105 5.56532 13.5531 5.36135 13.882L5.36123 13.8819C5.26628 14.0264 5.23611 14.2039 5.27805 14.3717C5.31987 14.5393 5.42997 14.6819 5.58178 14.7648C5.70935 14.8447 5.8643 14.8679 6.00971 14.829C6.20415 14.7891 6.37426 14.6727 6.48177 14.5059L6.71455 14.1092C6.93952 13.7274 7.1717 13.3326 7.38701 12.9323H7.38712C7.42499 12.8312 7.49664 12.7462 7.58984 12.6917C7.68304 12.6372 7.79221 12.6164 7.89891 12.633C8.19274 12.6515 8.49284 12.6471 8.78283 12.6435C8.90784 12.6416 9.03285 12.6399 9.15785 12.6399L9.59752 12.6383C9.89111 12.6368 10.1878 12.6354 10.4848 12.6399C10.7283 12.6435 10.7719 12.6764 10.7758 12.6798C10.7784 12.6884 10.7857 12.7406 10.6746 12.9408L10.4214 13.3844C10.0681 14.0057 9.70272 14.6483 9.32224 15.2668V15.2666C9.23253 15.3833 9.10054 15.46 8.9548 15.4801C8.47015 15.5049 7.97431 15.5026 7.49339 15.5007L7.06722 15.4994C6.89643 15.5132 6.73566 15.5855 6.61191 15.7041C6.48831 15.8227 6.40943 15.9805 6.38869 16.1504C6.41269 16.321 6.49646 16.4775 6.6252 16.5919C6.75381 16.7063 6.91902 16.7712 7.09121 16.775C7.46333 16.7683 7.83578 16.762 8.21465 16.762C8.34513 16.762 8.39103 16.7914 8.39732 16.803C8.40361 16.8145 8.40571 16.8646 8.34257 16.9737C8.24657 17.1456 8.14894 17.3176 8.05154 17.4893C7.95415 17.661 7.86048 17.8265 7.766 17.9958C7.69726 18.1503 7.68281 18.3236 7.72499 18.4874C7.76728 18.6512 7.86362 18.7959 7.99854 18.8979C8.15454 18.9705 8.33222 18.9818 8.49613 18.9294C8.66005 18.8771 8.79823 18.7649 8.88326 18.6153C8.96889 18.4692 9.05312 18.3228 9.13747 18.1767C9.22671 18.0216 9.31595 17.8669 9.40647 17.7124C9.52647 17.5102 9.5803 17.5081 9.58076 17.5081C9.58123 17.5081 9.63447 17.5138 9.74492 17.7059L9.85559 17.8922C10.0069 18.1464 10.1637 18.4091 10.3045 18.6751C10.3737 18.8223 10.5021 18.9334 10.6578 18.9804C10.7061 18.9937 10.7558 19.0002 10.8058 19C10.9636 18.9941 11.1156 18.9399 11.2415 18.8448C11.3675 18.7497 11.4614 18.6184 11.5104 18.4684C11.54 18.3199 11.5073 18.1657 11.4199 18.042C11.2435 17.7591 11.0764 17.4622 10.9152 17.1751C10.7769 16.929 10.638 16.6822 10.4909 16.4391H10.4908C10.4234 16.3536 10.3858 16.2484 10.3835 16.1396C10.3812 16.0308 10.4143 15.9241 10.4781 15.8358C10.7581 15.3786 11.029 14.9015 11.2913 14.4404C11.4497 14.162 11.6078 13.8835 11.7694 13.6068C11.9024 13.3751 11.9596 13.372 11.962 13.372C11.9643 13.372 12.0202 13.3743 12.1524 13.6011C12.3202 13.8882 12.4852 14.1789 12.6504 14.4693C12.9113 14.9296 13.1832 15.4062 13.4623 15.8667L13.4622 15.8669C13.5168 15.9455 13.545 16.0395 13.5428 16.1353C13.5406 16.231 13.5081 16.3237 13.4499 16.3997C13.1874 16.8299 12.9311 17.2744 12.6837 17.7046L12.5511 17.9344C12.4602 18.0852 12.4287 18.2643 12.4625 18.437C12.4961 18.6098 12.5929 18.7638 12.7338 18.8693C12.8678 18.9478 13.0279 18.9686 13.1774 18.9272C13.3888 18.8735 13.5702 18.7381 13.6819 18.5509L13.7587 18.4147C13.9012 18.1615 14.0489 17.8997 14.2023 17.6505C14.2743 17.532 14.3218 17.5059 14.3341 17.5059C14.3341 17.5059 14.3827 17.5075 14.4768 17.6581L14.546 17.7698C14.7161 18.0468 14.8922 18.3332 15.034 18.6226H15.0339C15.1007 18.7764 15.2282 18.8955 15.3862 18.9514C15.5748 19.0027 15.776 18.976 15.9447 18.8773C16.0742 18.8043 16.1683 18.6818 16.2057 18.538C16.2606 18.3535 16.2399 18.1546 16.1483 17.9854C16.0718 17.8486 15.9942 17.7134 15.9165 17.5777C15.808 17.3885 15.6989 17.1985 15.5932 17.0057C15.5131 16.8559 15.5285 16.8144 15.5285 16.8139C15.5285 16.8134 15.5575 16.7787 15.7309 16.7719C16.0746 16.7599 16.481 16.7508 16.8826 16.7719H16.8827C17.0714 16.7927 17.2595 16.7269 17.3939 16.5928C17.5113 16.4685 17.5668 16.2979 17.545 16.1283C17.5318 15.9604 17.4574 15.8033 17.3358 15.6867C17.2141 15.5702 17.0538 15.5025 16.8855 15.4967C16.7078 15.4967 16.5308 15.498 16.3541 15.4996C15.8951 15.503 15.4209 15.5074 14.9535 15.4837H14.9536C14.8235 15.4686 14.7041 15.4041 14.6203 15.3033C14.2335 14.6726 13.8614 14.0176 13.5015 13.384L13.2481 12.9382C13.1326 12.732 13.1495 12.6819 13.1498 12.6812C13.15 12.6804 13.1853 12.6418 13.4108 12.6418C14.29 12.6358 15.2003 12.6286 16.1065 12.6549C16.2501 12.6732 16.3803 12.7483 16.4679 12.8637C16.8297 13.43 17.1582 14.0241 17.4335 14.5339C17.5142 14.6834 17.654 14.7921 17.8189 14.8333C17.9838 14.8745 18.1584 14.8444 18.2999 14.7504C18.4578 14.6728 18.5765 14.5336 18.6283 14.3655C18.6729 14.2017 18.6443 14.0265 18.55 13.8853C18.3498 13.5562 18.1585 13.2143 17.9698 12.8751C17.8873 12.7263 17.8993 12.6838 17.8991 12.6838C17.8988 12.6838 17.9298 12.6499 18.1024 12.6433C18.321 12.636 18.5416 12.6376 18.7616 12.6381C18.9301 12.6381 19.0979 12.6396 19.2642 12.6368H19.2643C19.4401 12.6268 19.6051 12.5482 19.7235 12.4179C19.845 12.3011 19.9147 12.1406 19.9171 11.9722C19.9187 11.7907 19.8461 11.6165 19.7163 11.4896C19.5888 11.3808 19.4221 11.3297 19.2557 11.3484C18.977 11.3617 18.6995 11.356 18.4054 11.3495L18.4053 11.3494ZM19.542 11.6803V11.6804C19.6174 11.7608 19.6585 11.8674 19.6569 11.9776C19.6515 12.0753 19.6085 12.1671 19.5369 12.2339C19.4627 12.309 19.3659 12.358 19.2612 12.3732C19.0963 12.3758 18.9298 12.3753 18.7633 12.3745C18.541 12.3745 18.3163 12.3724 18.0939 12.3798H18.094C17.9334 12.3623 17.7749 12.4273 17.6727 12.5525C17.6186 12.7071 17.6468 12.8786 17.7474 13.0078C17.9332 13.3408 18.125 13.6851 18.3278 14.0188C18.3838 14.0978 18.4028 14.1972 18.38 14.2913C18.3476 14.3907 18.2756 14.4724 18.1812 14.517C18.1 14.5775 17.9966 14.5998 17.8977 14.5785C17.7988 14.5572 17.714 14.4942 17.6649 14.4056C17.3891 13.8944 17.0574 13.2947 16.6897 12.7192C16.555 12.5307 16.3441 12.411 16.1132 12.392C15.2056 12.3659 14.2932 12.3724 13.4125 12.3789C13.2217 12.3789 13.0147 12.3987 12.9282 12.547C12.8415 12.6952 12.9225 12.8837 13.0242 13.065L13.2778 13.5107C13.6387 14.1465 14.0116 14.8033 14.4018 15.4396C14.5306 15.614 14.7284 15.7244 14.9444 15.7425C15.4191 15.7665 15.8967 15.7623 16.3591 15.7584C16.5352 15.7584 16.7116 15.7559 16.8852 15.7559C16.9901 15.7618 17.0891 15.8061 17.1635 15.8802C17.238 15.9543 17.2827 16.0531 17.2892 16.1579C17.3008 16.2502 17.271 16.3429 17.2078 16.4111C17.126 16.4888 17.0134 16.525 16.9016 16.5095C16.488 16.4884 16.0749 16.4975 15.7247 16.5095C15.5648 16.4931 15.4072 16.5582 15.3055 16.6828C15.2489 16.832 15.2719 16.9998 15.3666 17.1283C15.4741 17.324 15.5837 17.5155 15.693 17.706C15.7713 17.8412 15.8475 17.9756 15.9239 18.112L15.924 18.1121C15.9809 18.2201 15.9932 18.3461 15.9585 18.4631C15.9405 18.5391 15.893 18.6048 15.8264 18.6457C15.7191 18.7091 15.5918 18.7297 15.4699 18.7034C15.3797 18.6681 15.3077 18.5974 15.2708 18.5077C15.1237 18.2067 14.9444 17.915 14.7706 17.6332L14.7014 17.5202C14.627 17.4017 14.5085 17.2449 14.336 17.2449H14.3342C14.1636 17.2449 14.0511 17.3996 13.982 17.5143C13.8254 17.7668 13.6761 18.031 13.532 18.2865L13.4561 18.4211C13.3807 18.5472 13.2589 18.6388 13.1168 18.676C13.0353 18.7004 12.9474 18.691 12.8728 18.6499C12.7905 18.5797 12.736 18.4823 12.7189 18.3755C12.7021 18.2685 12.7237 18.159 12.7802 18.0667L12.9122 17.8369C13.1591 17.4081 13.4141 16.9647 13.6756 16.537V16.5369C13.7585 16.4202 13.8042 16.281 13.8064 16.1378C13.8087 15.9946 13.7676 15.8541 13.6884 15.7347C13.411 15.2759 13.1403 14.8012 12.8794 14.3424C12.7139 14.0512 12.5485 13.7605 12.3799 13.4716C12.2755 13.2942 12.1463 13.113 11.9642 13.113C11.7816 13.113 11.6511 13.2982 11.5467 13.4784C11.3851 13.7549 11.2265 14.0342 11.0675 14.3135C10.8066 14.7727 10.5365 15.2477 10.2585 15.7026C10.17 15.8318 10.1237 15.9853 10.1262 16.1419C10.1285 16.2984 10.1794 16.4504 10.2718 16.5769C10.4172 16.817 10.5542 17.0612 10.6914 17.305C10.8543 17.5947 11.0226 17.8943 11.2035 18.1835V18.1833C11.2529 18.2492 11.2733 18.3324 11.2599 18.4136C11.2208 18.5225 11.1436 18.6135 11.0425 18.6695C10.9508 18.7318 10.8377 18.754 10.7293 18.7309C10.6431 18.7026 10.5731 18.6389 10.537 18.5558C10.3926 18.2837 10.2345 18.0179 10.0813 17.7607L9.97193 17.578C9.88478 17.4261 9.76315 17.2518 9.58408 17.2507H9.58222C9.4035 17.2507 9.27535 17.4282 9.1832 17.5837C9.09104 17.7392 9.00238 17.8945 8.91256 18.0501C8.82879 18.1955 8.74503 18.3413 8.65916 18.4874H8.65928C8.60732 18.5765 8.52519 18.6443 8.42779 18.6785C8.3304 18.7127 8.22403 18.7111 8.12769 18.6739C8.05243 18.6069 7.99954 18.5185 7.97601 18.4205C7.95247 18.3227 7.95935 18.2198 7.99593 18.1259C8.0896 17.9578 8.1849 17.79 8.27985 17.6217C8.37771 17.4495 8.47557 17.2769 8.57087 17.1065V17.1066C8.66629 16.984 8.68702 16.819 8.62516 16.6765C8.57856 16.6138 8.516 16.5648 8.44388 16.5346C8.37188 16.5043 8.29301 16.4941 8.21565 16.5048C7.83515 16.5048 7.46142 16.5111 7.08989 16.5178C6.98597 16.5143 6.88636 16.4762 6.80667 16.4096C6.72698 16.3428 6.67188 16.2515 6.65009 16.1499C6.67036 16.0495 6.72174 15.9579 6.79712 15.8885C6.8725 15.819 6.96791 15.7752 7.06973 15.7635L7.49125 15.7648C7.97554 15.7666 8.47558 15.769 8.96677 15.7439C9.19861 15.7199 9.40901 15.597 9.5437 15.4066C9.92677 14.7843 10.2935 14.1397 10.6484 13.5165L10.902 13.0709C11.0192 12.8575 11.0813 12.6879 11.002 12.5513C10.9226 12.4148 10.7389 12.3836 10.4884 12.3798C10.1904 12.3754 9.8926 12.3767 9.59588 12.3783L9.15772 12.3798C9.03143 12.3798 8.90514 12.3817 8.7791 12.3835C8.49413 12.3874 8.19996 12.3918 7.9179 12.3738V12.3739C7.76098 12.3534 7.6017 12.3849 7.46436 12.4635C7.327 12.5421 7.21936 12.6638 7.15773 12.8095C6.94453 13.2065 6.71409 13.599 6.48972 13.9786L6.25636 14.3753C6.18483 14.4783 6.07625 14.5495 5.95334 14.5742C5.87866 14.5959 5.79839 14.5872 5.73 14.5502C5.6347 14.5045 5.56387 14.4199 5.53568 14.3181C5.50748 14.2163 5.52484 14.1073 5.58309 14.0191C5.79035 13.6853 5.98292 13.3406 6.16945 13.0047V13.0048C6.26731 12.8747 6.29317 12.7041 6.23807 12.5509C6.13788 12.4274 5.98211 12.363 5.82389 12.3797C5.57178 12.3711 5.31454 12.374 5.06709 12.3768C4.94231 12.3781 4.81812 12.3797 4.69753 12.3797H4.69765C4.59431 12.3761 4.49516 12.338 4.41606 12.2715C4.33695 12.205 4.28231 12.1139 4.26099 12.0128C4.2829 11.9058 4.33905 11.8088 4.42107 11.7366C4.50309 11.6645 4.60642 11.6211 4.71536 11.613C4.89384 11.6091 5.07209 11.6091 5.25268 11.6091C5.43035 11.6192 5.61803 11.6091 5.80572 11.6059C5.99341 11.6028 6.17713 11.5744 6.25461 11.4363C6.33209 11.2982 6.25962 11.1328 6.17061 10.9735C6.08161 10.8144 5.99656 10.6654 5.90965 10.5129C5.82274 10.3605 5.7385 10.2157 5.65369 10.0623L5.65357 10.0624C5.58379 9.9319 5.5676 9.7794 5.60814 9.63727C5.6262 9.55536 5.67525 9.48372 5.74515 9.43735C5.85 9.40531 5.96266 9.41102 6.0638 9.45342C6.16492 9.49572 6.24799 9.57214 6.29867 9.6693L6.41377 9.86584C6.67684 10.3126 6.94877 10.7748 7.1996 11.2367H7.19948C7.25342 11.3555 7.3422 11.4551 7.45404 11.5223C7.566 11.5894 7.69567 11.6209 7.82581 11.6125C8.33912 11.6049 8.85408 11.6064 9.36948 11.607C9.75416 11.607 10.1385 11.6091 10.5209 11.607C10.7072 11.607 10.9094 11.5872 10.9963 11.4392C11.0555 11.2745 11.025 11.091 10.9157 10.9543C10.5438 10.286 10.049 9.40705 9.52033 8.54377C9.38623 8.36867 9.18047 8.26323 8.95995 8.25671C8.38397 8.239 7.71429 8.22304 7.05093 8.25671H7.05104C6.93034 8.26999 6.80977 8.23003 6.72088 8.14731C6.65191 8.07601 6.61696 7.97838 6.62488 7.87935C6.65436 7.77811 6.71121 7.68701 6.78915 7.61606C6.86698 7.54499 6.96297 7.49676 7.06643 7.47672C7.25143 7.47357 7.43855 7.47334 7.6254 7.47334L7.6275 7.47322C7.81624 7.47322 8.00544 7.47322 8.19301 7.47031V7.47043C8.35367 7.49047 8.51374 7.4286 8.61918 7.30569C8.67626 7.15622 8.65413 6.988 8.56022 6.85844C8.38931 6.54063 8.18369 6.16666 7.95347 5.80303C7.9078 5.7407 7.89067 5.66195 7.90617 5.58622C7.94228 5.48335 8.01498 5.39737 8.11028 5.34459C8.2092 5.28156 8.32849 5.25908 8.44349 5.28191C8.52481 5.30859 8.5911 5.36812 8.62616 5.44606C8.82294 5.79337 9.02599 6.14754 9.2308 6.49727C9.33705 6.67004 9.45961 6.76266 9.58649 6.75591H9.58661C9.66175 6.74694 9.73329 6.71828 9.79375 6.67284C9.85433 6.6274 9.90175 6.5667 9.93134 6.49704L10.0496 6.30632L10.0495 6.30621C10.2164 6.04966 10.3673 5.78299 10.5013 5.50771C10.5399 5.42289 10.6578 5.16344 11.0371 5.33109V5.33097C11.1045 5.37594 11.1529 5.44445 11.1727 5.52308C11.2179 5.64017 11.2157 5.7703 11.1665 5.88587C11.0796 6.03616 10.9912 6.18597 10.9024 6.33581C10.6738 6.72365 10.4371 7.1242 10.2285 7.53184V7.53173C10.1282 7.74295 10.1282 7.98808 10.2285 8.19929C10.628 8.94283 11.0611 9.68284 11.4793 10.3984L11.5654 10.5459C11.6628 10.716 11.7862 10.8902 11.9632 10.8914H11.9655C12.1387 10.8914 12.2591 10.7275 12.3548 10.5663L12.6158 10.1176C12.9757 9.49969 13.3465 8.86079 13.6944 8.2155H13.6945C13.791 7.99204 13.791 7.73854 13.6945 7.51509C13.4051 6.94982 13.0794 6.38279 12.7268 5.82999C12.6515 5.70836 12.5873 5.5208 12.9045 5.2992C12.9797 5.26856 13.0631 5.26437 13.1409 5.28743C13.2393 5.30153 13.3292 5.35151 13.393 5.42759C13.4877 5.59069 13.5791 5.75381 13.6704 5.91689C13.7617 6.07997 13.8531 6.2452 13.9499 6.40981C14.0556 6.59062 14.177 6.75744 14.346 6.75744C14.5076 6.75744 14.6247 6.6131 14.7494 6.39943C14.9374 6.09465 15.132 5.77916 15.2975 5.44772H15.2976C15.3337 5.36197 15.4055 5.29638 15.4941 5.26807C15.5989 5.24827 15.7072 5.27262 15.7934 5.33541C15.8972 5.3932 15.9754 5.48815 16.0121 5.60116C16.0285 5.68306 16.0103 5.76811 15.9618 5.83603C15.7827 6.11633 15.6295 6.39476 15.4659 6.6894L15.4137 6.7847C15.2858 7.01177 15.2222 7.17907 15.3005 7.31293C15.3788 7.44678 15.5594 7.47685 15.8418 7.47685C16.0025 7.47685 16.1633 7.47533 16.3243 7.47347C16.4853 7.4716 16.644 7.47056 16.8042 7.47056L16.8041 7.47044C16.9144 7.46776 17.0222 7.50411 17.1084 7.57296C17.1946 7.64182 17.2538 7.73886 17.2757 7.84698C17.2709 7.93447 17.232 8.01672 17.1673 8.07591C17.0659 8.17971 16.9279 8.23983 16.7827 8.24367C16.5776 8.24554 16.3725 8.24495 16.1674 8.24367C15.7624 8.24367 15.343 8.24076 14.9259 8.26243C14.7086 8.28352 14.512 8.3999 14.3888 8.58C13.9222 9.33681 13.4801 10.1166 13.0318 10.9148C12.9289 11.0975 12.8457 11.2888 12.9324 11.4368C13.0191 11.5847 13.2313 11.6064 13.4455 11.6064C13.8208 11.6095 14.1945 11.6085 14.5677 11.6064C15.0664 11.6064 15.5648 11.6041 16.0617 11.6119V11.612C16.2052 11.6235 16.3489 11.5904 16.473 11.5174C16.597 11.4445 16.6957 11.3348 16.7552 11.2038C16.899 10.9409 17.0503 10.6818 17.202 10.4209C17.368 10.1359 17.5343 9.85093 17.6909 9.56154C17.7293 9.48092 17.7989 9.41941 17.8835 9.39086C17.9951 9.37199 18.1097 9.39494 18.2055 9.45529C18.2974 9.5048 18.3667 9.58775 18.3989 9.68701C18.4191 9.7688 18.4042 9.85536 18.3576 9.92561C18.1749 10.252 17.9855 10.578 17.7955 10.9066C17.665 11.1341 17.6 11.302 17.677 11.4366C17.754 11.5712 17.9333 11.602 18.2141 11.6057L18.3997 11.6097C18.6842 11.6154 18.9801 11.6223 19.2724 11.6055H19.2723C19.369 11.5915 19.4672 11.6187 19.5429 11.6804L19.542 11.6803Z" fill="black"/>
<path d="M18.4053 11.3494L18.2182 11.3454V11.3455C18.1126 11.3536 18.0065 11.3423 17.905 11.3121C17.9025 11.2999 17.9035 11.2437 18.0212 11.0376C18.2114 10.7099 18.4011 10.3818 18.5838 10.0565V10.0563C18.6652 9.92586 18.6893 9.76764 18.6503 9.61899C18.6003 9.45239 18.4866 9.31224 18.3338 9.22906C18.1789 9.13248 17.9924 9.10056 17.8142 9.14005C17.66 9.1856 17.5316 9.29313 17.4598 9.43702C17.3032 9.72536 17.1388 10.0082 16.9741 10.2906C16.8214 10.5516 16.6687 10.8147 16.5236 11.0801L16.5238 11.0802C16.4883 11.1702 16.4239 11.2458 16.3407 11.2951C16.2574 11.3444 16.1602 11.3644 16.0642 11.3521C15.5647 11.3445 15.0651 11.346 14.5644 11.3466C14.1921 11.3466 13.8192 11.3485 13.4438 11.3466C13.1974 11.3466 13.158 11.3096 13.1567 11.307C13.1554 11.3044 13.1422 11.2506 13.258 11.0437C13.7056 10.2482 14.1452 9.47186 14.611 8.71646L14.6111 8.71634C14.6894 8.61056 14.8076 8.54112 14.938 8.52423C15.3486 8.50279 15.7653 8.50466 16.1646 8.5057H16.7825H16.7826C16.9977 8.50186 17.2025 8.41332 17.3526 8.25907C17.4673 8.15026 17.5333 7.99973 17.5352 7.84152C17.5137 7.66397 17.4265 7.50098 17.2911 7.38425C17.1556 7.26751 16.9815 7.20553 16.8027 7.21054C16.6417 7.21054 16.4809 7.21206 16.3201 7.21369C16.1593 7.2152 16.0002 7.21683 15.8402 7.21683C15.7349 7.2258 15.6288 7.21567 15.5271 7.18678C15.5245 7.17454 15.525 7.11862 15.6411 6.91276L15.6933 6.81618C15.8535 6.5255 16.0046 6.25067 16.1797 5.97643C16.267 5.84956 16.298 5.6924 16.2654 5.54189C16.2126 5.36317 16.0941 5.21101 15.9337 5.11608C15.7866 5.01239 15.6026 4.97593 15.4271 5.01577C15.2659 5.06156 15.133 5.17619 15.0639 5.32893C14.9026 5.65151 14.7113 5.96154 14.5245 6.2642C14.4003 6.4774 14.3481 6.49465 14.3464 6.49593C14.341 6.49465 14.2917 6.47822 14.1739 6.27748C14.0794 6.11438 13.9878 5.95126 13.8967 5.78842C13.8056 5.62555 13.7141 5.45987 13.6164 5.29446L13.6165 5.29458C13.5161 5.15419 13.3636 5.05994 13.1933 5.0328C13.0452 4.99319 12.8877 5.01182 12.753 5.08499C12.3997 5.33186 12.3094 5.65363 12.5038 5.96891C12.853 6.51694 13.1745 7.07591 13.4595 7.6328C13.519 7.78111 13.5196 7.94656 13.4613 8.0952C13.1184 8.73271 12.7478 9.36997 12.389 9.98595L12.128 10.434C12.0158 10.6234 11.9641 10.6302 11.9636 10.6302C11.9631 10.6302 11.9114 10.6255 11.79 10.4151L11.7031 10.2664C11.2856 9.55289 10.8541 8.81484 10.4565 8.07423V8.07435C10.3985 7.93979 10.3991 7.78705 10.458 7.65296C10.6645 7.24952 10.8988 6.85201 11.1258 6.4679C11.2146 6.31738 11.3035 6.16673 11.3918 6.01376C11.4774 5.83376 11.4869 5.62672 11.4179 5.43963C11.3768 5.29039 11.2761 5.16456 11.1395 5.09175C10.9852 5.0017 10.7992 4.98375 10.6306 5.04271C10.462 5.10166 10.3277 5.23156 10.2632 5.39816C10.1338 5.66355 9.98821 5.92069 9.82709 6.168L9.70628 6.36291C9.64546 6.46729 9.59898 6.49339 9.58337 6.4949C9.56636 6.4949 9.51813 6.46694 9.45289 6.36291C9.25017 6.01667 9.04757 5.66399 8.85266 5.31904C8.78392 5.1804 8.66125 5.07601 8.5134 5.03046C8.33003 4.9891 8.13779 5.02056 7.97715 5.11807C7.81964 5.20615 7.70244 5.35177 7.65013 5.52443C7.6182 5.66878 7.64733 5.81988 7.73075 5.94198C7.95676 6.29871 8.15948 6.66744 8.32736 6.98015C8.40565 7.12916 8.3926 7.17145 8.39307 7.17145C8.39353 7.17145 8.36045 7.20489 8.18429 7.20827C7.99952 7.21118 7.81289 7.21118 7.62636 7.21118L7.62741 7.21106C7.43844 7.21106 7.24923 7.21106 7.06423 7.21444C6.89507 7.23599 6.73675 7.30962 6.61137 7.42531C6.48601 7.54088 6.39968 7.69268 6.36462 7.85962C6.35134 8.03332 6.4132 8.20436 6.53448 8.32936C6.67522 8.46625 6.86872 8.53464 7.06423 8.51646C7.71664 8.48303 8.38105 8.49899 8.95052 8.51646C9.08241 8.52252 9.20648 8.58019 9.29631 8.67689C9.82394 9.53808 10.3172 10.4147 10.6881 11.0812C10.7872 11.2588 10.771 11.3059 10.771 11.3059C10.771 11.3059 10.7371 11.3453 10.5197 11.3453C10.1374 11.3484 9.75405 11.3474 9.3696 11.3453C8.85292 11.3453 8.33624 11.3429 7.82024 11.3507C7.65084 11.3679 7.49088 11.27 7.42879 11.1114C7.17562 10.6453 6.90265 10.1814 6.63891 9.73253L6.52357 9.53657C6.43922 9.38057 6.30058 9.26104 6.134 9.20044C5.9674 9.13998 5.78424 9.14277 5.61952 9.20825C5.48647 9.28724 5.39106 9.41667 5.35471 9.56707C5.29494 9.77608 5.31964 10.0003 5.42356 10.1913C5.50814 10.3445 5.59447 10.4946 5.68092 10.6444C5.76724 10.7942 5.85521 10.9466 5.94188 11.1019V11.1018C5.98371 11.1639 6.01307 11.2334 6.02856 11.3067C6.02495 11.3101 5.98918 11.3395 5.79812 11.3461C5.61544 11.3492 5.43637 11.3492 5.25707 11.3492H5.2545C5.07183 11.3492 4.89207 11.3492 4.71345 11.3526C4.5352 11.3592 4.36534 11.4294 4.23441 11.5505C4.10347 11.6717 4.02039 11.8356 4 12.0128C4.02004 12.1837 4.10136 12.3415 4.22881 12.4569C4.35638 12.5724 4.52135 12.6376 4.69342 12.6408C4.8182 12.6408 4.94344 12.6393 5.06928 12.6379C5.31486 12.635 5.56932 12.6322 5.8143 12.6408C5.98183 12.6473 6.01084 12.6797 6.01107 12.6797C6.01131 12.6797 6.02622 12.7228 5.94117 12.8788C5.75616 13.2105 5.56532 13.5531 5.36135 13.882L5.36123 13.8819C5.26628 14.0264 5.23611 14.2039 5.27805 14.3717C5.31987 14.5393 5.42997 14.6819 5.58178 14.7648C5.70935 14.8447 5.8643 14.8679 6.00971 14.829C6.20415 14.7891 6.37426 14.6727 6.48177 14.5059L6.71455 14.1092C6.93952 13.7274 7.1717 13.3326 7.38701 12.9323H7.38712C7.42499 12.8312 7.49664 12.7462 7.58984 12.6917C7.68304 12.6372 7.79221 12.6164 7.89891 12.633C8.19274 12.6515 8.49284 12.6471 8.78283 12.6435C8.90784 12.6416 9.03285 12.6399 9.15785 12.6399L9.59752 12.6383C9.89111 12.6368 10.1878 12.6354 10.4848 12.6399C10.7283 12.6435 10.7719 12.6764 10.7758 12.6798C10.7784 12.6884 10.7857 12.7406 10.6746 12.9408L10.4214 13.3844C10.0681 14.0057 9.70272 14.6483 9.32224 15.2668V15.2666C9.23253 15.3833 9.10054 15.46 8.9548 15.4801C8.47015 15.5049 7.97431 15.5026 7.49339 15.5007L7.06722 15.4994C6.89643 15.5132 6.73566 15.5855 6.61191 15.7041C6.48831 15.8227 6.40943 15.9805 6.38869 16.1504C6.41269 16.321 6.49646 16.4775 6.6252 16.5919C6.75381 16.7063 6.91902 16.7712 7.09121 16.775C7.46333 16.7683 7.83578 16.762 8.21465 16.762C8.34513 16.762 8.39103 16.7914 8.39732 16.803C8.40361 16.8145 8.40571 16.8646 8.34257 16.9737C8.24657 17.1456 8.14894 17.3176 8.05154 17.4893C7.95415 17.661 7.86048 17.8265 7.766 17.9958C7.69726 18.1503 7.68281 18.3236 7.72499 18.4874C7.76728 18.6512 7.86362 18.7959 7.99854 18.8979C8.15454 18.9705 8.33222 18.9818 8.49613 18.9294C8.66005 18.8771 8.79823 18.7649 8.88326 18.6153C8.96889 18.4692 9.05312 18.3228 9.13747 18.1767C9.22671 18.0216 9.31595 17.8669 9.40647 17.7124C9.52647 17.5102 9.5803 17.5081 9.58076 17.5081C9.58123 17.5081 9.63447 17.5138 9.74492 17.7059L9.85559 17.8922C10.0069 18.1464 10.1637 18.4091 10.3045 18.6751C10.3737 18.8223 10.5021 18.9334 10.6578 18.9804C10.7061 18.9937 10.7558 19.0002 10.8058 19C10.9636 18.9941 11.1156 18.9399 11.2415 18.8448C11.3675 18.7497 11.4614 18.6184 11.5104 18.4684C11.54 18.3199 11.5073 18.1657 11.4199 18.042C11.2435 17.7591 11.0764 17.4622 10.9152 17.1751C10.7769 16.929 10.638 16.6822 10.4909 16.4391H10.4908C10.4234 16.3536 10.3858 16.2484 10.3835 16.1396C10.3812 16.0308 10.4143 15.9241 10.4781 15.8358C10.7581 15.3786 11.029 14.9015 11.2913 14.4404C11.4497 14.162 11.6078 13.8835 11.7694 13.6068C11.9024 13.3751 11.9596 13.372 11.962 13.372C11.9643 13.372 12.0202 13.3743 12.1524 13.6011C12.3202 13.8882 12.4852 14.1789 12.6504 14.4693C12.9113 14.9296 13.1832 15.4062 13.4623 15.8667L13.4622 15.8669C13.5168 15.9455 13.545 16.0395 13.5428 16.1353C13.5406 16.231 13.5081 16.3237 13.4499 16.3997C13.1874 16.8299 12.9311 17.2744 12.6837 17.7046L12.5511 17.9344C12.4602 18.0852 12.4287 18.2643 12.4625 18.437C12.4961 18.6098 12.5929 18.7638 12.7338 18.8693C12.8678 18.9478 13.0279 18.9686 13.1774 18.9272C13.3888 18.8735 13.5702 18.7381 13.6819 18.5509L13.7587 18.4147C13.9012 18.1615 14.0489 17.8997 14.2023 17.6505C14.2743 17.532 14.3218 17.5059 14.3341 17.5059C14.3341 17.5059 14.3827 17.5075 14.4768 17.6581L14.546 17.7698C14.7161 18.0468 14.8922 18.3332 15.034 18.6226H15.0339C15.1007 18.7764 15.2282 18.8955 15.3862 18.9514C15.5748 19.0027 15.776 18.976 15.9447 18.8773C16.0742 18.8043 16.1683 18.6818 16.2057 18.538C16.2606 18.3535 16.2399 18.1546 16.1483 17.9854C16.0718 17.8486 15.9942 17.7134 15.9165 17.5777C15.808 17.3885 15.6989 17.1985 15.5932 17.0057C15.5131 16.8559 15.5285 16.8144 15.5285 16.8139C15.5285 16.8134 15.5575 16.7787 15.7309 16.7719C16.0746 16.7599 16.481 16.7508 16.8826 16.7719H16.8827C17.0714 16.7927 17.2595 16.7269 17.3939 16.5928C17.5113 16.4685 17.5668 16.2979 17.545 16.1283C17.5318 15.9604 17.4574 15.8033 17.3358 15.6867C17.2141 15.5702 17.0538 15.5025 16.8855 15.4967C16.7078 15.4967 16.5308 15.498 16.3541 15.4996C15.8951 15.503 15.4209 15.5074 14.9535 15.4837H14.9536C14.8235 15.4686 14.7041 15.4041 14.6203 15.3033C14.2335 14.6726 13.8614 14.0176 13.5015 13.384L13.2481 12.9382C13.1326 12.732 13.1495 12.6819 13.1498 12.6812C13.15 12.6804 13.1853 12.6418 13.4108 12.6418C14.29 12.6358 15.2003 12.6286 16.1065 12.6549C16.2501 12.6732 16.3803 12.7483 16.4679 12.8637C16.8297 13.43 17.1582 14.0241 17.4335 14.5339C17.5142 14.6834 17.654 14.7921 17.8189 14.8333C17.9838 14.8745 18.1584 14.8444 18.2999 14.7504C18.4578 14.6728 18.5765 14.5336 18.6283 14.3655C18.6729 14.2017 18.6443 14.0265 18.55 13.8853C18.3498 13.5562 18.1585 13.2143 17.9698 12.8751C17.8873 12.7263 17.8993 12.6838 17.8991 12.6838C17.8988 12.6838 17.9298 12.6499 18.1024 12.6433C18.321 12.636 18.5416 12.6376 18.7616 12.6381C18.9301 12.6381 19.0979 12.6396 19.2642 12.6368H19.2643C19.4401 12.6268 19.6051 12.5482 19.7235 12.4179C19.845 12.3011 19.9147 12.1406 19.9171 11.9722C19.9187 11.7907 19.8461 11.6165 19.7163 11.4896C19.5888 11.3808 19.4221 11.3297 19.2557 11.3484C18.977 11.3617 18.6995 11.356 18.4054 11.3495L18.4053 11.3494ZM19.542 11.6803V11.6804C19.6174 11.7608 19.6585 11.8674 19.6569 11.9776C19.6515 12.0753 19.6085 12.1671 19.5369 12.2339C19.4627 12.309 19.3659 12.358 19.2612 12.3732C19.0963 12.3758 18.9298 12.3753 18.7633 12.3745C18.541 12.3745 18.3163 12.3724 18.0939 12.3798H18.094C17.9334 12.3623 17.7749 12.4273 17.6727 12.5525C17.6186 12.7071 17.6468 12.8786 17.7474 13.0078C17.9332 13.3408 18.125 13.6851 18.3278 14.0188C18.3838 14.0978 18.4028 14.1972 18.38 14.2913C18.3476 14.3907 18.2756 14.4724 18.1812 14.517C18.1 14.5775 17.9966 14.5998 17.8977 14.5785C17.7988 14.5572 17.714 14.4942 17.6649 14.4056C17.3891 13.8944 17.0574 13.2947 16.6897 12.7192C16.555 12.5307 16.3441 12.411 16.1132 12.392C15.2056 12.3659 14.2932 12.3724 13.4125 12.3789C13.2217 12.3789 13.0147 12.3987 12.9282 12.547C12.8415 12.6952 12.9225 12.8837 13.0242 13.065L13.2778 13.5107C13.6387 14.1465 14.0116 14.8033 14.4018 15.4396C14.5306 15.614 14.7284 15.7244 14.9444 15.7425C15.4191 15.7665 15.8967 15.7623 16.3591 15.7584C16.5352 15.7584 16.7116 15.7559 16.8852 15.7559C16.9901 15.7618 17.0891 15.8061 17.1635 15.8802C17.238 15.9543 17.2827 16.0531 17.2892 16.1579C17.3008 16.2502 17.271 16.3429 17.2078 16.4111C17.126 16.4888 17.0134 16.525 16.9016 16.5095C16.488 16.4884 16.0749 16.4975 15.7247 16.5095C15.5648 16.4931 15.4072 16.5582 15.3055 16.6828C15.2489 16.832 15.2719 16.9998 15.3666 17.1283C15.4741 17.324 15.5837 17.5155 15.693 17.706C15.7713 17.8412 15.8475 17.9756 15.9239 18.112L15.924 18.1121C15.9809 18.2201 15.9932 18.3461 15.9585 18.4631C15.9405 18.5391 15.893 18.6048 15.8264 18.6457C15.7191 18.7091 15.5918 18.7297 15.4699 18.7034C15.3797 18.6681 15.3077 18.5974 15.2708 18.5077C15.1237 18.2067 14.9444 17.915 14.7706 17.6332L14.7014 17.5202C14.627 17.4017 14.5085 17.2449 14.336 17.2449H14.3342C14.1636 17.2449 14.0511 17.3996 13.982 17.5143C13.8254 17.7668 13.6761 18.031 13.532 18.2865L13.4561 18.4211C13.3807 18.5472 13.2589 18.6388 13.1168 18.676C13.0353 18.7004 12.9474 18.691 12.8728 18.6499C12.7905 18.5797 12.736 18.4823 12.7189 18.3755C12.7021 18.2685 12.7237 18.159 12.7802 18.0667L12.9122 17.8369C13.1591 17.4081 13.4141 16.9647 13.6756 16.537V16.5369C13.7585 16.4202 13.8042 16.281 13.8064 16.1378C13.8087 15.9946 13.7676 15.8541 13.6884 15.7347C13.411 15.2759 13.1403 14.8012 12.8794 14.3424C12.7139 14.0512 12.5485 13.7605 12.3799 13.4716C12.2755 13.2942 12.1463 13.113 11.9642 13.113C11.7816 13.113 11.6511 13.2982 11.5467 13.4784C11.3851 13.7549 11.2265 14.0342 11.0675 14.3135C10.8066 14.7727 10.5365 15.2477 10.2585 15.7026C10.17 15.8318 10.1237 15.9853 10.1262 16.1419C10.1285 16.2984 10.1794 16.4504 10.2718 16.5769C10.4172 16.817 10.5542 17.0612 10.6914 17.305C10.8543 17.5947 11.0226 17.8943 11.2035 18.1835V18.1833C11.2529 18.2492 11.2733 18.3324 11.2599 18.4136C11.2208 18.5225 11.1436 18.6135 11.0425 18.6695C10.9508 18.7318 10.8377 18.754 10.7293 18.7309C10.6431 18.7026 10.5731 18.6389 10.537 18.5558C10.3926 18.2837 10.2345 18.0179 10.0813 17.7607L9.97193 17.578C9.88478 17.4261 9.76315 17.2518 9.58408 17.2507H9.58222C9.4035 17.2507 9.27535 17.4282 9.1832 17.5837C9.09104 17.7392 9.00238 17.8945 8.91256 18.0501C8.82879 18.1955 8.74503 18.3413 8.65916 18.4874H8.65928C8.60732 18.5765 8.52519 18.6443 8.42779 18.6785C8.3304 18.7127 8.22403 18.7111 8.12769 18.6739C8.05243 18.6069 7.99954 18.5185 7.97601 18.4205C7.95247 18.3227 7.95935 18.2198 7.99593 18.1259C8.0896 17.9578 8.1849 17.79 8.27985 17.6217C8.37771 17.4495 8.47557 17.2769 8.57087 17.1065V17.1066C8.66629 16.984 8.68702 16.819 8.62516 16.6765C8.57856 16.6138 8.516 16.5648 8.44388 16.5346C8.37188 16.5043 8.29301 16.4941 8.21565 16.5048C7.83515 16.5048 7.46142 16.5111 7.08989 16.5178C6.98597 16.5143 6.88636 16.4762 6.80667 16.4096C6.72698 16.3428 6.67188 16.2515 6.65009 16.1499C6.67036 16.0495 6.72174 15.9579 6.79712 15.8885C6.8725 15.819 6.96791 15.7752 7.06973 15.7635L7.49125 15.7648C7.97554 15.7666 8.47558 15.769 8.96677 15.7439C9.19861 15.7199 9.40901 15.597 9.5437 15.4066C9.92677 14.7843 10.2935 14.1397 10.6484 13.5165L10.902 13.0709C11.0192 12.8575 11.0813 12.6879 11.002 12.5513C10.9226 12.4148 10.7389 12.3836 10.4884 12.3798C10.1904 12.3754 9.8926 12.3767 9.59588 12.3783L9.15772 12.3798C9.03143 12.3798 8.90514 12.3817 8.7791 12.3835C8.49413 12.3874 8.19996 12.3918 7.9179 12.3738V12.3739C7.76098 12.3534 7.6017 12.3849 7.46436 12.4635C7.327 12.5421 7.21936 12.6638 7.15773 12.8095C6.94453 13.2065 6.71409 13.599 6.48972 13.9786L6.25636 14.3753C6.18483 14.4783 6.07625 14.5495 5.95334 14.5742C5.87866 14.5959 5.79839 14.5872 5.73 14.5502C5.6347 14.5045 5.56387 14.4199 5.53568 14.3181C5.50748 14.2163 5.52484 14.1073 5.58309 14.0191C5.79035 13.6853 5.98292 13.3406 6.16945 13.0047V13.0048C6.26731 12.8747 6.29317 12.7041 6.23807 12.5509C6.13788 12.4274 5.98211 12.363 5.82389 12.3797C5.57178 12.3711 5.31454 12.374 5.06709 12.3768C4.94231 12.3781 4.81812 12.3797 4.69753 12.3797H4.69765C4.59431 12.3761 4.49516 12.338 4.41606 12.2715C4.33695 12.205 4.28231 12.1139 4.26099 12.0128C4.2829 11.9058 4.33905 11.8088 4.42107 11.7366C4.50309 11.6645 4.60642 11.6211 4.71536 11.613C4.89384 11.6091 5.07209 11.6091 5.25268 11.6091C5.43035 11.6192 5.61803 11.6091 5.80572 11.6059C5.99341 11.6028 6.17713 11.5744 6.25461 11.4363C6.33209 11.2982 6.25962 11.1328 6.17061 10.9735C6.08161 10.8144 5.99656 10.6654 5.90965 10.5129C5.82274 10.3605 5.7385 10.2157 5.65369 10.0623L5.65357 10.0624C5.58379 9.9319 5.5676 9.7794 5.60814 9.63727C5.6262 9.55536 5.67525 9.48372 5.74515 9.43735C5.85 9.40531 5.96266 9.41102 6.0638 9.45342C6.16492 9.49572 6.24799 9.57214 6.29867 9.6693L6.41377 9.86584C6.67684 10.3126 6.94877 10.7748 7.1996 11.2367H7.19948C7.25342 11.3555 7.3422 11.4551 7.45404 11.5223C7.566 11.5894 7.69567 11.6209 7.82581 11.6125C8.33912 11.6049 8.85408 11.6064 9.36948 11.607C9.75416 11.607 10.1385 11.6091 10.5209 11.607C10.7072 11.607 10.9094 11.5872 10.9963 11.4392C11.0555 11.2745 11.025 11.091 10.9157 10.9543C10.5438 10.286 10.049 9.40705 9.52033 8.54377C9.38623 8.36867 9.18047 8.26323 8.95995 8.25671C8.38397 8.239 7.71429 8.22304 7.05093 8.25671H7.05104C6.93034 8.26999 6.80977 8.23003 6.72088 8.14731C6.65191 8.07601 6.61696 7.97838 6.62488 7.87935C6.65436 7.77811 6.71121 7.68701 6.78915 7.61606C6.86698 7.54499 6.96297 7.49676 7.06643 7.47672C7.25143 7.47357 7.43855 7.47334 7.6254 7.47334L7.6275 7.47322C7.81624 7.47322 8.00544 7.47322 8.19301 7.47031V7.47043C8.35367 7.49047 8.51374 7.4286 8.61918 7.30569C8.67626 7.15622 8.65413 6.988 8.56022 6.85844C8.38931 6.54063 8.18369 6.16666 7.95347 5.80303C7.9078 5.7407 7.89067 5.66195 7.90617 5.58622C7.94228 5.48335 8.01498 5.39737 8.11028 5.34459C8.2092 5.28156 8.32849 5.25908 8.44349 5.28191C8.52481 5.30859 8.5911 5.36812 8.62616 5.44606C8.82294 5.79337 9.02599 6.14754 9.2308 6.49727C9.33705 6.67004 9.45961 6.76266 9.58649 6.75591H9.58661C9.66175 6.74694 9.73329 6.71828 9.79375 6.67284C9.85433 6.6274 9.90175 6.5667 9.93134 6.49704L10.0496 6.30632L10.0495 6.30621C10.2164 6.04966 10.3673 5.78299 10.5013 5.50771C10.5399 5.42289 10.6578 5.16344 11.0371 5.33109V5.33097C11.1045 5.37594 11.1529 5.44445 11.1727 5.52308C11.2179 5.64017 11.2157 5.7703 11.1665 5.88587C11.0796 6.03616 10.9912 6.18597 10.9024 6.33581C10.6738 6.72365 10.4371 7.1242 10.2285 7.53184V7.53173C10.1282 7.74295 10.1282 7.98808 10.2285 8.19929C10.628 8.94283 11.0611 9.68284 11.4793 10.3984L11.5654 10.5459C11.6628 10.716 11.7862 10.8902 11.9632 10.8914H11.9655C12.1387 10.8914 12.2591 10.7275 12.3548 10.5663L12.6158 10.1176C12.9757 9.49969 13.3465 8.86079 13.6944 8.2155H13.6945C13.791 7.99204 13.791 7.73854 13.6945 7.51509C13.4051 6.94982 13.0794 6.38279 12.7268 5.82999C12.6515 5.70836 12.5873 5.5208 12.9045 5.2992C12.9797 5.26856 13.0631 5.26437 13.1409 5.28743C13.2393 5.30153 13.3292 5.35151 13.393 5.42759C13.4877 5.59069 13.5791 5.75381 13.6704 5.91689C13.7617 6.07997 13.8531 6.2452 13.9499 6.40981C14.0556 6.59062 14.177 6.75744 14.346 6.75744C14.5076 6.75744 14.6247 6.6131 14.7494 6.39943C14.9374 6.09465 15.132 5.77916 15.2975 5.44772H15.2976C15.3337 5.36197 15.4055 5.29638 15.4941 5.26807C15.5989 5.24827 15.7072 5.27262 15.7934 5.33541C15.8972 5.3932 15.9754 5.48815 16.0121 5.60116C16.0285 5.68306 16.0103 5.76811 15.9618 5.83603C15.7827 6.11633 15.6295 6.39476 15.4659 6.6894L15.4137 6.7847C15.2858 7.01177 15.2222 7.17907 15.3005 7.31293C15.3788 7.44678 15.5594 7.47685 15.8418 7.47685C16.0025 7.47685 16.1633 7.47533 16.3243 7.47347C16.4853 7.4716 16.644 7.47056 16.8042 7.47056L16.8041 7.47044C16.9144 7.46776 17.0222 7.50411 17.1084 7.57296C17.1946 7.64182 17.2538 7.73886 17.2757 7.84698C17.2709 7.93447 17.232 8.01672 17.1673 8.07591C17.0659 8.17971 16.9279 8.23983 16.7827 8.24367C16.5776 8.24554 16.3725 8.24495 16.1674 8.24367C15.7624 8.24367 15.343 8.24076 14.9259 8.26243C14.7086 8.28352 14.512 8.3999 14.3888 8.58C13.9222 9.33681 13.4801 10.1166 13.0318 10.9148C12.9289 11.0975 12.8457 11.2888 12.9324 11.4368C13.0191 11.5847 13.2313 11.6064 13.4455 11.6064C13.8208 11.6095 14.1945 11.6085 14.5677 11.6064C15.0664 11.6064 15.5648 11.6041 16.0617 11.6119V11.612C16.2052 11.6235 16.3489 11.5904 16.473 11.5174C16.597 11.4445 16.6957 11.3348 16.7552 11.2038C16.899 10.9409 17.0503 10.6818 17.202 10.4209C17.368 10.1359 17.5343 9.85093 17.6909 9.56154C17.7293 9.48092 17.7989 9.41941 17.8835 9.39086C17.9951 9.37199 18.1097 9.39494 18.2055 9.45529C18.2974 9.5048 18.3667 9.58775 18.3989 9.68701C18.4191 9.7688 18.4042 9.85536 18.3576 9.92561C18.1749 10.252 17.9855 10.578 17.7955 10.9066C17.665 11.1341 17.6 11.302 17.677 11.4366C17.754 11.5712 17.9333 11.602 18.2141 11.6057L18.3997 11.6097C18.6842 11.6154 18.9801 11.6223 19.2724 11.6055H19.2723C19.369 11.5915 19.4672 11.6187 19.5429 11.6804L19.542 11.6803Z" stroke="black" stroke-width="0.4" mask="url(#path-2-outside-1_1942_470)"/>
</svg>
