<svg width="24" height="24" viewBox="0 0 24 24" fill="none" xmlns="http://www.w3.org/2000/svg">
<path fill-rule="evenodd" clip-rule="evenodd" d="M0.933334 11.9998C0.933334 18.1012 5.89875 23.0667 12.0001 23.0667C18.1015 23.0667 23.0667 18.1013 23.0667 11.9998C23.0667 5.89857 18.1015 0.933334 12.0001 0.933334C5.89872 0.933334 0.933334 5.8986 0.933334 11.9998ZM0 11.9998C0 18.6167 5.38328 24 12.0001 24C18.617 24 24 18.6167 24 11.9998C24 5.3831 18.617 0 12.0001 0C5.38328 0 0 5.3831 0 11.9998Z" fill="black"/>
<path fill-rule="evenodd" clip-rule="evenodd" d="M10.6719 7.64618C9.33839 6.31272 7.17642 6.31272 5.84296 7.64618C4.50949 8.97964 4.50949 11.1416 5.84296 12.4751L11.8559 18.488L17.8688 12.4751C19.2023 11.1416 19.2023 8.97964 17.8688 7.64618C16.5354 6.31272 14.3734 6.31272 13.0399 7.64618C12.6482 8.03791 12.3721 8.50022 12.2106 8.99177C12.1602 9.145 12.0172 9.24858 11.8559 9.24858C11.6946 9.24858 11.5516 9.145 11.5012 8.99177C11.3397 8.50022 11.0636 8.03791 10.6719 7.64618ZM5.31498 7.11821C6.94004 5.49315 9.57477 5.49315 11.1998 7.11821C11.4601 7.37848 11.6788 7.66492 11.8559 7.96913C12.0329 7.66492 12.2517 7.37848 12.512 7.11821C14.137 5.49315 16.7717 5.49315 18.3968 7.11821C20.0219 8.74326 20.0219 11.378 18.3968 13.0031L12.1199 19.28C11.9741 19.4258 11.7377 19.4258 11.5919 19.28L5.31498 13.0031C3.68993 11.378 3.68993 8.74326 5.31498 7.11821Z" fill="black"/>
<path fill-rule="evenodd" clip-rule="evenodd" d="M5.61133 10.0606C5.61133 8.59923 6.79601 7.41455 8.25739 7.41455C8.46358 7.41455 8.63072 7.5817 8.63072 7.78788C8.63072 7.99407 8.46358 8.16122 8.25739 8.16122C7.20838 8.16122 6.358 9.01161 6.358 10.0606C6.358 10.2668 6.19085 10.4339 5.98466 10.4339C5.77848 10.4339 5.61133 10.2668 5.61133 10.0606Z" fill="black"/>
</svg>
