<svg width="24" height="24" viewBox="0 0 24 24" fill="none" xmlns="http://www.w3.org/2000/svg">
<path fill-rule="evenodd" clip-rule="evenodd" d="M0.933334 11.9998C0.933334 18.1012 5.89875 23.0667 12.0001 23.0667C18.1015 23.0667 23.0667 18.1013 23.0667 11.9998C23.0667 5.89857 18.1015 0.933334 12.0001 0.933334C5.89872 0.933334 0.933334 5.8986 0.933334 11.9998ZM0 11.9998C0 18.6167 5.38328 24 12.0001 24C18.617 24 24 18.6167 24 11.9998C24 5.3831 18.617 0 12.0001 0C5.38328 0 0 5.3831 0 11.9998Z" fill="black"/>
<path fill-rule="evenodd" clip-rule="evenodd" d="M8.91964 6.16614C8.53169 6.16614 8.22998 6.50329 8.22998 6.89262V18.3132C8.22998 18.7026 8.53167 19.0397 8.91964 19.0397H15.3564C15.7444 19.0397 16.0461 18.7026 16.0461 18.3132V9.09451C16.0463 8.99124 15.9776 8.90051 15.8782 8.87267C15.5797 8.7894 15.3577 8.49106 15.3564 8.13543C15.3564 8.1351 15.3564 8.13543 15.3564 8.13543C15.357 8.04692 15.3718 7.95956 15.3995 7.87681C15.4292 7.78845 15.4026 7.69091 15.3322 7.62986C15.0609 7.39414 14.8977 7.03193 14.8966 6.64655C14.8966 6.64628 14.8966 6.64655 14.8966 6.64655C14.8974 6.57611 14.904 6.50577 14.9155 6.43644C14.9266 6.36971 14.9078 6.30149 14.864 6.24993C14.8202 6.19836 14.756 6.16869 14.6883 6.1688L8.91964 6.16614ZM9.09182 6.94553H14.3156C14.3155 6.95075 14.3139 6.95641 14.3139 6.96163C14.3149 7.39924 14.4992 7.80273 14.7924 8.10823C14.7728 8.19496 14.7495 8.28147 14.7491 8.37085C14.7497 8.81956 15.0223 9.18767 15.4018 9.37719V18.005C15.4018 18.1573 15.2992 18.2574 15.1842 18.2574H9.09182C8.97686 18.2574 8.87424 18.1572 8.87424 18.005V7.19536C8.87424 7.04314 8.97683 6.94292 9.09182 6.94292L9.09182 6.94553Z" fill="black"/>
<path fill-rule="evenodd" clip-rule="evenodd" d="M11.0213 7.08304C10.8745 7.08502 10.7571 7.18893 10.7588 7.31547V12.83C10.7575 12.9128 10.808 12.9899 10.891 13.0317C10.9741 13.0735 11.0768 13.0735 11.1599 13.0317C11.2429 12.9899 11.2935 12.9128 11.2921 12.83V7.31547C11.2929 7.25345 11.2646 7.19376 11.2136 7.14999C11.1626 7.10622 11.0933 7.08207 11.0213 7.08304Z" fill="black"/>
<path fill-rule="evenodd" clip-rule="evenodd" d="M13.3201 7.08304C13.1733 7.08502 13.0559 7.18894 13.0576 7.31549V13.29C13.0563 13.3728 13.1068 13.4499 13.1899 13.4917C13.2729 13.5335 13.3756 13.5335 13.4587 13.4917C13.5418 13.4499 13.5923 13.3728 13.5909 13.29V7.31549C13.5918 7.25346 13.5635 7.19377 13.5125 7.15C13.4615 7.10622 13.3921 7.08207 13.3201 7.08304V7.08304Z" fill="black"/>
<path fill-rule="evenodd" clip-rule="evenodd" d="M9.3794 8.92477C9.29649 8.92341 9.21938 8.97393 9.17759 9.05699C9.13579 9.14005 9.13579 9.24277 9.17759 9.32583C9.21938 9.40889 9.29649 9.45941 9.3794 9.45805H14.6668C14.7497 9.45941 14.8268 9.40889 14.8686 9.32583C14.9104 9.24277 14.9104 9.14005 14.8686 9.05699C14.8268 8.97393 14.7497 8.92341 14.6668 8.92477H9.3794Z" fill="black"/>
<path fill-rule="evenodd" clip-rule="evenodd" d="M9.3794 11.2236C9.29649 11.2222 9.21938 11.2728 9.17759 11.3558C9.13579 11.4389 9.13579 11.5416 9.17759 11.6247C9.21938 11.7077 9.29649 11.7582 9.3794 11.7569H14.6668C14.7497 11.7582 14.8268 11.7077 14.8686 11.6247C14.9104 11.5416 14.9104 11.4389 14.8686 11.3558C14.8268 11.2728 14.7497 11.2222 14.6668 11.2236H9.3794Z" fill="black"/>
<path fill-rule="evenodd" clip-rule="evenodd" d="M8.49575 12.3766L8.4248 13.0271L15.8162 14.2759L15.8871 13.6255L8.49575 12.3766Z" fill="black"/>
<path fill-rule="evenodd" clip-rule="evenodd" d="M16.5453 9.38449C16.4359 9.38138 16.3395 9.45571 16.3146 9.56229C16.3146 9.56229 16.2973 9.63098 16.2885 9.71498C16.2797 9.79875 16.2471 9.90045 16.3469 10.0499C16.4635 10.2241 16.6155 10.2444 16.7312 10.2708C16.8469 10.297 16.9467 10.3039 16.9467 10.3039C17.0737 10.3124 17.1835 10.2163 17.1919 10.0893C17.2003 9.96236 17.1042 9.8526 16.9773 9.84417C16.9773 9.84417 16.9081 9.83957 16.8336 9.82256C16.759 9.80555 16.6998 9.7496 16.7294 9.79406C16.775 9.86197 16.7415 9.81107 16.7465 9.76371C16.7515 9.7164 16.7618 9.67392 16.7618 9.67392C16.7798 9.60588 16.7657 9.53333 16.7235 9.47698C16.6813 9.42062 16.6157 9.38666 16.5453 9.38477V9.38449Z" fill="black"/>
<path fill-rule="evenodd" clip-rule="evenodd" d="M17.42 10.5349C17.3307 10.5374 17.2509 10.5914 17.2154 10.6734C17.1798 10.7553 17.1948 10.8504 17.2539 10.9174C17.2539 10.9174 17.3069 10.9791 17.3554 11.0557C17.4038 11.1324 17.4164 11.2335 17.4236 11.1877C17.4357 11.1113 17.4258 11.1684 17.3877 11.1992C17.3496 11.2305 17.3114 11.254 17.3114 11.254C17.2406 11.296 17.1977 11.3726 17.1987 11.4549C17.1997 11.5372 17.2446 11.6126 17.3163 11.6529C17.3881 11.6931 17.4759 11.6921 17.5466 11.65C17.5466 11.65 17.6107 11.6123 17.6795 11.5557C17.7484 11.4994 17.8492 11.4421 17.878 11.2594C17.9118 11.0457 17.8135 10.9191 17.7442 10.8095C17.6749 10.6998 17.6032 10.6164 17.6032 10.6164C17.5578 10.5626 17.4904 10.5325 17.42 10.5347L17.42 10.5349Z" fill="black"/>
<path fill-rule="evenodd" clip-rule="evenodd" d="M16.7357 11.6838C16.7967 11.6838 16.8552 11.6595 16.8983 11.6164C16.9414 11.5733 16.9656 11.5149 16.9656 11.4539C16.9656 11.3929 16.9414 11.3344 16.8983 11.2913C16.8552 11.2482 16.7967 11.224 16.7357 11.224C16.6748 11.224 16.6163 11.2482 16.5732 11.2913C16.5301 11.3344 16.5059 11.3929 16.5059 11.4539C16.5059 11.5149 16.5301 11.5733 16.5732 11.6164C16.6163 11.6595 16.6748 11.6838 16.7357 11.6838Z" fill="black"/>
</svg>
