<svg width="24" height="24" viewBox="0 0 24 24" fill="none" xmlns="http://www.w3.org/2000/svg">
<path fill-rule="evenodd" clip-rule="evenodd" d="M0.84 11.9998C0.84 18.1528 5.8472 23.16 12.0001 23.16C18.153 23.16 23.16 18.1528 23.16 11.9998C23.16 5.84702 18.153 0.84 12.0001 0.84C5.84717 0.84 0.84 5.84704 0.84 11.9998ZM0 11.9998C0 18.6167 5.38327 24 12.0001 24C18.617 24 24 18.6167 24 11.9998C24 5.3831 18.617 0 12.0001 0C5.38327 0 0 5.3831 0 11.9998Z" fill="black"/>
<path fill-rule="evenodd" clip-rule="evenodd" d="M11.8107 4.48412C11.496 4.80815 10.8087 5.62193 10.7878 6.56656C10.7665 7.51651 11.4159 8.35717 11.7161 8.6936C12.032 8.37016 12.7183 7.55963 12.7399 6.61028C12.7609 5.66594 12.1114 4.82292 11.8107 4.48412ZM11.709 9.67604C11.5385 9.67604 11.3769 9.61165 11.254 9.49468C11.1825 9.42704 9.86385 8.15542 9.8999 6.54677C9.93506 4.96441 11.2366 3.79086 11.3849 3.66237C11.644 3.43965 12.0249 3.44851 12.2722 3.68127C12.4155 3.81744 13.6626 5.04712 13.6278 6.63007C13.5911 8.24817 12.2001 9.46485 12.1407 9.51565C12.0216 9.61874 11.868 9.67604 11.709 9.67604Z" fill="black"/>
<path fill-rule="evenodd" clip-rule="evenodd" d="M7.45615 15.4511C7.45644 15.4511 7.45674 15.4514 7.45674 15.4514L7.45615 15.4511ZM7.71852 15.4735C7.75043 16.0209 7.91352 17.3389 8.73403 18.2291C9.67212 19.247 10.69 19.4083 11.3102 19.3862C11.2833 18.6158 10.9609 15.8215 7.71852 15.4735ZM12.1986 19.6157C12.1986 19.6189 12.1986 19.621 12.1986 19.6216C12.1986 19.6195 12.1986 19.6177 12.1986 19.6157ZM11.2088 20.2756C10.4055 20.2756 9.18847 20.0322 8.08107 18.8308C6.77925 17.4186 6.82269 15.2165 6.82328 15.1944C6.82919 15.0178 6.9063 14.8506 7.03512 14.733C7.16513 14.6149 7.33857 14.5546 7.51348 14.5652C10.0181 14.7247 11.1631 16.0903 11.6825 17.208C12.1718 18.2613 12.2016 19.2807 12.1998 19.5519C12.2613 19.7099 12.2563 19.8496 12.1886 19.9766C12.1475 20.0537 12.0468 20.1884 11.834 20.2245C11.6786 20.2507 11.4647 20.2756 11.2088 20.2756Z" fill="black"/>
<path fill-rule="evenodd" clip-rule="evenodd" d="M16.0713 15.4511L16.0707 15.4514C16.071 15.4511 16.071 15.4511 16.0713 15.4511ZM12.2172 19.3861C12.8377 19.408 13.8553 19.2467 14.7934 18.2291C15.6027 17.3513 15.772 16.0256 15.8071 15.4738C12.5682 15.8221 12.2444 18.6111 12.2172 19.3861ZM12.3186 20.2755C12.0627 20.2755 11.8488 20.2507 11.6937 20.2247C11.4807 20.1884 11.3799 20.0537 11.3388 19.9766C11.2706 19.8481 11.2661 19.706 11.3261 19.5542C11.2833 18.1901 12.0308 14.8192 16.0134 14.5652C16.1883 14.5525 16.3632 14.6151 16.4926 14.7336C16.6208 14.8497 16.6983 15.0169 16.7039 15.1914C16.7048 15.2151 16.7535 17.4127 15.4464 18.8308C14.339 20.0321 13.122 20.2755 12.3186 20.2755Z" fill="black"/>
<path fill-rule="evenodd" clip-rule="evenodd" d="M8.06663 11.9059C8.06663 11.9059 8.06663 11.9059 8.06693 11.9059C8.06663 11.9059 8.06663 11.9059 8.06634 11.9059H8.06663ZM11.702 15.4195C11.7017 15.4195 11.7011 15.4195 11.7008 15.4198C11.7011 15.4195 11.7017 15.4195 11.702 15.4195ZM10.9829 15.4322L11.094 15.4331C11.1619 15.434 11.2346 15.4375 11.3256 15.4351C11.3108 14.7312 11.0582 12.3407 8.33107 11.9381C8.35264 12.4406 8.4791 13.5716 9.1563 14.3393C9.84089 15.1149 10.7873 15.3834 10.9829 15.4322ZM12.209 15.6918C12.209 15.6936 12.2087 15.6954 12.2087 15.6971C12.209 15.6954 12.209 15.6936 12.209 15.6918ZM11.3286 16.323C11.2438 16.323 11.1601 16.3219 11.0824 16.321L10.8425 16.3109C10.7864 16.2994 9.4568 16.0218 8.49033 14.9265C7.33093 13.612 7.44055 11.6472 7.44173 11.6274C7.45178 11.4549 7.53392 11.2894 7.66688 11.1754C7.80043 11.0614 7.97711 11.0059 8.14996 11.0221H8.15025C11.6873 11.358 12.2803 14.4093 12.2129 15.6369C12.2442 15.7279 12.2847 15.895 12.1819 16.0681C12.1375 16.1423 12.0324 16.2708 11.8223 16.2991C11.6831 16.3183 11.5035 16.323 11.3286 16.323Z" fill="black"/>
<path fill-rule="evenodd" clip-rule="evenodd" d="M15.4612 11.9059C15.4609 11.9059 15.4609 11.9059 15.4606 11.9059C15.4609 11.9059 15.4609 11.9059 15.4612 11.9059ZM11.8246 15.4194C11.8249 15.4194 11.8255 15.4194 11.8258 15.4194C11.8255 15.4194 11.8249 15.4194 11.8246 15.4194ZM12.2028 15.4351C12.2799 15.431 12.3656 15.4339 12.4336 15.433L12.545 15.4321C12.7376 15.384 13.6858 15.1161 14.3712 14.3392C15.0467 13.5736 15.1743 12.4414 15.1965 11.9381C12.477 12.3395 12.2185 14.7176 12.2028 15.4351ZM11.3188 15.6962C11.3191 15.6971 11.3191 15.698 11.3191 15.6992C11.3191 15.698 11.3191 15.6971 11.3188 15.6962ZM12.1996 16.323C12.0244 16.323 11.8444 16.3183 11.7044 16.2991C11.4955 16.2707 11.39 16.1422 11.346 16.0681C11.239 15.8885 11.2866 15.7154 11.315 15.6357C11.2485 14.4045 11.843 11.3576 15.3773 11.0221C15.5507 11.0064 15.7268 11.0614 15.8598 11.1748C15.9916 11.2868 16.0743 11.451 16.0861 11.625C16.0876 11.6492 16.1892 13.6209 15.0372 14.9264C14.0708 16.0217 12.7412 16.2994 12.685 16.3109L12.5976 16.3195L12.4448 16.3209C12.3677 16.3218 12.2844 16.323 12.1996 16.323Z" fill="black"/>
<path fill-rule="evenodd" clip-rule="evenodd" d="M8.90758 7.97137C8.90758 7.97137 8.90758 7.97167 8.90758 7.97226C8.90758 7.97196 8.90758 7.97167 8.90758 7.97137ZM8.87774 8.22658C8.83608 8.72519 8.82692 9.84409 9.4601 10.5976C10.0894 11.3464 10.694 11.7292 11.305 11.765C11.3576 11.0897 11.3328 8.88321 8.87774 8.22658ZM11.5106 11.7661C11.5103 11.7661 11.5097 11.7661 11.5091 11.7661C11.5097 11.7661 11.5103 11.7661 11.5106 11.7661ZM11.3995 12.6555H11.3989C10.4774 12.6555 9.62082 12.169 8.78022 11.1686C7.68523 9.86595 8.01792 7.90225 8.0327 7.81924C8.06165 7.64881 8.16241 7.49285 8.30836 7.39449C8.45048 7.29701 8.63219 7.26097 8.80445 7.29701C12.1677 8.0012 12.3547 11.0995 12.155 12.1292C12.0971 12.426 11.8359 12.6461 11.5342 12.6538C11.4896 12.6549 11.4447 12.6555 11.3995 12.6555Z" fill="black"/>
<path fill-rule="evenodd" clip-rule="evenodd" d="M14.6205 7.97406C14.6205 7.97406 14.6205 7.97406 14.6205 7.97436C14.6205 7.97406 14.6205 7.97406 14.6205 7.97406ZM14.65 8.2266C12.2021 8.88117 12.1702 11.0756 12.2231 11.7647C12.8341 11.7289 13.4386 11.3461 14.0677 10.5976C14.7012 9.84352 14.6917 8.72314 14.65 8.2266ZM12.0151 11.7662C12.0157 11.7662 12.0163 11.7662 12.0166 11.7662C12.0163 11.7662 12.0157 11.7662 12.0151 11.7662ZM12.1286 12.6556C12.0831 12.6556 12.0378 12.655 11.9915 12.6535C11.6916 12.6461 11.4307 12.426 11.3728 12.1301C11.1698 11.101 11.3494 8.00359 14.7233 7.29704C14.8956 7.261 15.0773 7.29704 15.2221 7.39658C15.3645 7.49258 15.4649 7.64765 15.4951 7.82016C15.5095 7.90227 15.8422 9.86568 14.7475 11.1686C13.907 12.1691 13.0504 12.6556 12.1286 12.6556Z" fill="black"/>
</svg>
