<svg width="24" height="24" viewBox="0 0 24 24" fill="none" xmlns="http://www.w3.org/2000/svg">
<path fill-rule="evenodd" clip-rule="evenodd" d="M0.933334 11.9998C0.933334 18.1012 5.89875 23.0667 12.0001 23.0667C18.1015 23.0667 23.0667 18.1013 23.0667 11.9998C23.0667 5.89857 18.1015 0.933334 12.0001 0.933334C5.89872 0.933334 0.933334 5.8986 0.933334 11.9998ZM0 11.9998C0 18.6167 5.38328 24 12.0001 24C18.617 24 24 18.6167 24 11.9998C24 5.3831 18.617 0 12.0001 0C5.38328 0 0 5.3831 0 11.9998Z" fill="black"/>
<path d="M12.6574 15.8694C13.7194 15.6039 14.4611 14.654 14.4611 13.5594C14.4611 13.3653 14.3037 13.2078 14.1095 13.2078C13.9153 13.2078 13.7579 13.3653 13.7579 13.5594C13.7579 14.3308 13.2353 15.0002 12.4868 15.1873C12.2985 15.2344 12.184 15.4253 12.231 15.6136C12.2779 15.8012 12.4682 15.9167 12.6574 15.8694Z" fill="black"/>
<path d="M12.7031 6.70312H13.4062C13.6004 6.70312 13.7578 6.54575 13.7578 6.35156C13.7578 6.15738 13.6004 6 13.4062 6H12.7031C12.1216 6 11.6484 6.47314 11.6484 7.05469V7.41476C9.27228 7.53149 7.42969 8.87604 7.42969 11.2734C7.42969 11.4676 7.58707 11.625 7.78125 11.625H8.13281V13.5593C8.13281 15.3006 9.31265 16.8116 11.0019 17.234C11.0773 17.2528 11.1462 17.2918 11.2011 17.3468L11.7514 17.897C11.8174 17.963 11.9067 18 12 18C12.0933 18 12.1826 17.963 12.2486 17.897L12.7988 17.3468C12.8538 17.2917 12.9227 17.2527 12.9981 17.2339C14.6873 16.8116 15.8672 15.3006 15.8672 13.5593V11.625H16.2188C16.4129 11.625 16.5703 11.4676 16.5703 11.2734C16.5703 8.87567 14.7274 7.53149 12.3516 7.41476V7.05469C12.3516 6.86087 12.5093 6.70312 12.7031 6.70312ZM15.1641 13.5593C15.1641 14.9773 14.2033 16.2079 12.8276 16.5518C12.6286 16.6016 12.4468 16.7045 12.3017 16.8495L12 17.1512L11.6983 16.8495C11.5532 16.7045 11.3714 16.6015 11.1725 16.5518C9.79669 16.2079 8.83594 14.9773 8.83594 13.5593V11.625H15.1641V13.5593ZM15.8513 10.9219H8.14865C8.34 8.85635 10.2276 8.10938 12 8.10938C13.7724 8.10938 15.66 8.85635 15.8513 10.9219Z" fill="black"/>
</svg>
