<svg width="24" height="24" viewBox="0 0 24 24" fill="none" xmlns="http://www.w3.org/2000/svg">
<path fill-rule="evenodd" clip-rule="evenodd" d="M7.68982 16.4102L3.66338 20.4366L3.00342 19.7767L7.02986 15.7502L7.68982 16.4102Z" fill="black"/>
<path fill-rule="evenodd" clip-rule="evenodd" d="M20.4366 3.66326L15.4957 8.60424L14.8357 7.94427L19.7767 3.0033L20.4366 3.66326Z" fill="black"/>
<path fill-rule="evenodd" clip-rule="evenodd" d="M0.933333 11.9998C0.933333 18.1012 5.89875 23.0667 12.0001 23.0667C18.1015 23.0667 23.0667 18.1012 23.0667 11.9998C23.0667 5.89857 18.1015 0.933333 12.0001 0.933333C5.89871 0.933333 0.933333 5.89859 0.933333 11.9998ZM0 11.9998C0 18.6167 5.38327 24 12.0001 24C18.6169 24 24 18.6167 24 11.9998C24 5.3831 18.6169 0 12.0001 0C5.38327 0 0 5.3831 0 11.9998Z" fill="black"/>
<path fill-rule="evenodd" clip-rule="evenodd" d="M11.8107 4.48412C11.496 4.80815 10.8088 5.62193 10.7878 6.56656C10.7665 7.51651 11.416 8.35716 11.7162 8.6936C12.032 8.37016 12.7184 7.55963 12.7399 6.61028C12.7609 5.66594 12.1115 4.82292 11.8107 4.48412ZM11.7091 9.67604C11.5386 9.67604 11.377 9.61165 11.2541 9.49468C11.1826 9.42704 9.8639 8.15542 9.89994 6.54677C9.9351 4.96441 11.2366 3.79086 11.3849 3.66237C11.6441 3.43965 12.0249 3.44851 12.2722 3.68127C12.4155 3.81744 13.6627 5.04712 13.6278 6.63007C13.5912 8.24817 12.2001 9.46485 12.1407 9.51565C12.0217 9.61874 11.868 9.67604 11.7091 9.67604Z" fill="black"/>
<path fill-rule="evenodd" clip-rule="evenodd" d="M7.71853 15.4735C7.75044 16.0208 7.91354 17.3388 8.73404 18.2291C9.67214 19.247 10.69 19.4083 11.3102 19.3861C11.2833 18.6158 10.961 15.8215 7.71853 15.4735ZM12.1987 19.6156C12.1987 19.6189 12.1987 19.621 12.1987 19.6215C12.1987 19.6195 12.1987 19.6177 12.1987 19.6156ZM11.2088 20.2755C10.4055 20.2755 9.18847 20.0321 8.08107 18.8308C6.77925 17.4186 6.82269 15.2165 6.82328 15.1944C6.82919 15.0177 6.9063 14.8505 7.03512 14.733C7.16513 14.6148 7.33857 14.5546 7.51348 14.5652C10.0181 14.7247 11.1631 16.0903 11.6825 17.208C12.1718 18.2613 12.2016 19.2807 12.1998 19.5518C12.2613 19.7099 12.2563 19.8496 12.1886 19.9766C12.1475 20.0537 12.0468 20.1884 11.8341 20.2244C11.6786 20.2507 11.4647 20.2755 11.2088 20.2755Z" fill="black"/>
<path fill-rule="evenodd" clip-rule="evenodd" d="M16.0713 15.4511C16.071 15.4511 16.0716 15.4508 16.0713 15.4511V15.4511ZM12.2173 19.3861C12.8377 19.408 13.8553 19.2467 14.7934 18.2291C15.6027 17.3512 15.772 16.0256 15.8072 15.4738C12.5683 15.8221 12.2445 18.611 12.2173 19.3861ZM12.3186 20.2755C12.0627 20.2755 11.8488 20.2507 11.6937 20.2247C11.4807 20.1884 11.3799 20.0537 11.3389 19.9766C11.2706 19.8481 11.2662 19.706 11.3261 19.5542C11.2833 18.1901 12.0308 14.8192 16.0134 14.5652C16.1883 14.5525 16.3632 14.6151 16.4926 14.7336C16.6209 14.8497 16.6983 15.0168 16.7039 15.1914C16.7048 15.215 16.7535 17.4127 15.4464 18.8308C14.339 20.0321 13.122 20.2755 12.3186 20.2755Z" fill="black"/>
<path fill-rule="evenodd" clip-rule="evenodd" d="M8.06659 11.9059C8.06629 11.9059 8.06688 11.9059 8.06659 11.9059V11.9059ZM10.9828 15.4321L11.0939 15.433C11.1619 15.4339 11.2346 15.4375 11.3256 15.4351C11.3108 14.7312 11.0582 12.3407 8.33103 11.9381C8.3526 12.4405 8.47906 13.5715 9.15626 14.3392C9.84085 15.1149 10.7872 15.3834 10.9828 15.4321ZM11.3285 16.323C11.2437 16.323 11.1601 16.3218 11.0824 16.321L10.8425 16.3109C10.7863 16.2994 9.45675 16.0217 8.49028 14.9265C7.33088 13.612 7.4405 11.6471 7.44168 11.6273C7.45173 11.4548 7.53387 11.2894 7.66683 11.1754C7.80038 11.0614 7.97706 11.0059 8.14991 11.0221C11.6869 11.3579 12.2802 14.4092 12.2128 15.6368C12.2442 15.7278 12.2846 15.895 12.1818 16.0681C12.1375 16.1422 12.0323 16.2707 11.8222 16.2991C11.6831 16.3183 11.5034 16.323 11.3285 16.323Z" fill="black"/>
<path fill-rule="evenodd" clip-rule="evenodd" d="M12.2028 15.4351C12.2799 15.431 12.3656 15.4339 12.4335 15.433L12.5449 15.4321C12.7376 15.384 13.6857 15.1161 14.3712 14.3392C15.0466 13.5736 15.1743 12.4414 15.1964 11.9381C12.477 12.3395 12.2184 14.7176 12.2028 15.4351ZM12.1995 16.323C12.0243 16.323 11.8444 16.3183 11.7043 16.2991C11.4955 16.2707 11.39 16.1422 11.3459 16.0681C11.239 15.8885 11.2866 15.7154 11.3149 15.6357C11.2484 14.4045 11.8429 11.3577 15.3773 11.0221C15.5507 11.0064 15.7268 11.0614 15.8597 11.1748C15.9915 11.2868 16.0743 11.451 16.0861 11.625C16.0876 11.6492 16.1892 13.6209 15.0372 14.9265C14.0707 16.0217 12.7411 16.2994 12.685 16.3109L12.5975 16.3195L12.4448 16.321C12.3677 16.3218 12.2843 16.323 12.1995 16.323Z" fill="black"/>
<path fill-rule="evenodd" clip-rule="evenodd" d="M8.87764 8.2266C8.83598 8.72521 8.82682 9.84412 9.46 10.5976C10.0893 11.3464 10.6939 11.7292 11.3049 11.765C11.3575 11.0897 11.3326 8.88324 8.87764 8.2266ZM11.3994 12.6556C10.4779 12.6556 9.62073 12.1691 8.78013 11.1686C7.68514 9.86597 8.01784 7.90228 8.03261 7.81927C8.06157 7.64884 8.16232 7.49288 8.30828 7.39451C8.4504 7.29704 8.63211 7.261 8.80436 7.29704C12.1676 8.00123 12.3547 11.0995 12.1549 12.1292C12.097 12.426 11.8358 12.6461 11.5342 12.6538C11.4895 12.655 11.4446 12.6556 11.3994 12.6556Z" fill="black"/>
<path fill-rule="evenodd" clip-rule="evenodd" d="M14.6501 8.2266C12.2022 8.88117 12.1703 11.0756 12.2232 11.7647C12.8342 11.7289 13.4387 11.3461 14.0678 10.5976C14.7012 9.84352 14.6918 8.72314 14.6501 8.2266ZM12.1286 12.6556C12.0831 12.6556 12.0379 12.655 11.9915 12.6535C11.6916 12.6461 11.4307 12.426 11.3728 12.1301C11.1698 11.101 11.3495 8.00359 14.7234 7.29704C14.8956 7.261 15.0774 7.29704 15.2221 7.39658C15.3646 7.49258 15.465 7.64766 15.4951 7.82016C15.5096 7.90228 15.8423 9.86568 14.7476 11.1686C13.907 12.1691 13.0505 12.6556 12.1286 12.6556Z" fill="black"/>
</svg>
