<svg width="24" height="24" viewBox="0 0 24 24" fill="none" xmlns="http://www.w3.org/2000/svg">
<path fill-rule="evenodd" clip-rule="evenodd" d="M20.4366 3.66332L16.4366 7.66332L15.7766 7.00336L19.7766 3.00336L20.4366 3.66332Z" fill="black"/>
<path fill-rule="evenodd" clip-rule="evenodd" d="M11.6634 12.4366L3.66338 20.4366L3.00342 19.7767L11.0034 11.7767L11.6634 12.4366Z" fill="black"/>
<path fill-rule="evenodd" clip-rule="evenodd" d="M0.933333 11.9998C0.933333 18.1012 5.89875 23.0667 12.0001 23.0667C18.1015 23.0667 23.0667 18.1012 23.0667 11.9998C23.0667 5.89857 18.1015 0.933333 12.0001 0.933333C5.89871 0.933333 0.933333 5.89859 0.933333 11.9998ZM0 11.9998C0 18.6167 5.38327 24 12.0001 24C18.6169 24 24 18.6167 24 11.9998C24 5.3831 18.6169 0 12.0001 0C5.38327 0 0 5.3831 0 11.9998Z" fill="black"/>
<path fill-rule="evenodd" clip-rule="evenodd" d="M8.51635 5.41522C8.29158 5.41522 8.10938 5.59743 8.10938 5.8222V8.58899C8.10938 10.7352 9.73822 12.5087 11.8295 12.7514V18.3157H10.3151C10.0903 18.3157 9.90812 18.4979 9.90812 18.7227V19.2925H14.732V18.7227C14.732 18.4979 14.5498 18.3157 14.325 18.3157H12.8106V12.7514C14.9019 12.5087 16.5308 10.7351 16.5308 8.58899V5.8222C16.5308 5.59743 16.3485 5.41522 16.1238 5.41522H8.51635ZM15.7457 6.22885V7.29204C15.5417 7.14829 15.2792 7.03499 14.9233 7.03499C14.2615 7.03499 13.9162 7.42276 13.6877 7.67948C13.4796 7.91341 13.4097 7.97266 13.2535 7.97266C13.0977 7.97266 13.028 7.91341 12.82 7.67964C12.5917 7.42292 12.2464 7.03499 11.5848 7.03499C10.9232 7.03499 10.5779 7.42292 10.3496 7.67948C10.1417 7.91325 10.0718 7.9725 9.9158 7.9725C9.76001 7.9725 9.69011 7.91325 9.48215 7.67948C9.34097 7.52092 9.15492 7.31287 8.87776 7.17645V6.22869H15.7457V6.22885ZM12.3158 11.8886C10.451 11.8886 8.93128 10.404 8.87776 8.56018C9.10248 8.79014 9.41994 9.01906 9.91331 9.01906C10.5767 9.01906 10.9229 8.60548 11.1518 8.33196C11.3603 8.08273 11.4304 8.01956 11.5868 8.01956C11.743 8.01956 11.813 8.08273 12.0215 8.33196C12.2504 8.60565 12.5965 9.01906 13.2598 9.01906C13.9234 9.01906 14.2696 8.60565 14.4987 8.33196C14.7073 8.08256 14.7774 8.01938 14.934 8.01938C15.0905 8.01938 15.1606 8.08256 15.3693 8.33196C15.4674 8.44893 15.5891 8.59056 15.7457 8.71534C15.6144 10.4866 14.1282 11.8886 12.3158 11.8886Z" fill="black"/>
</svg>
