<svg width="24" height="24" viewBox="0 0 24 24" fill="none" xmlns="http://www.w3.org/2000/svg">
<path fill-rule="evenodd" clip-rule="evenodd" d="M0.933333 11.9998C0.933333 18.1012 5.89875 23.0667 12.0001 23.0667C18.1015 23.0667 23.0667 18.1012 23.0667 11.9998C23.0667 5.89857 18.1015 0.933333 12.0001 0.933333C5.89871 0.933333 0.933333 5.89859 0.933333 11.9998ZM0 11.9998C0 18.6167 5.38327 24 12.0001 24C18.6169 24 24 18.6167 24 11.9998C24 5.3831 18.6169 0 12.0001 0C5.38327 0 0 5.3831 0 11.9998Z" fill="black"/>
<path fill-rule="evenodd" clip-rule="evenodd" d="M15.416 17.2196C15.4172 17.2196 15.4184 17.2196 15.4199 17.2196C16.2388 17.228 17.1727 17.2918 17.8895 17.9446C17.9153 17.9692 17.9559 17.9998 18.0157 17.9998C18.1097 17.9998 18.186 17.9246 18.186 17.8322C18.186 17.771 18.1527 17.7302 18.1328 17.7116C18.0212 17.6088 17.446 16.9926 17.3983 15.2518C17.3979 15.2392 17.3983 15.2266 17.3993 15.214C17.404 15.156 17.4085 15.0974 17.4085 15.038C17.4085 14.3728 17.1068 13.7514 16.5806 13.3334C16.341 13.1396 16.0728 13.0008 15.781 12.9184C15.7697 12.9152 15.7583 12.9114 15.7471 12.907C15.3145 12.7834 14.9948 12.6652 14.7481 12.47C14.423 12.2034 14.269 11.8454 14.1028 11.2806C14.0992 11.2714 14.0961 11.2618 14.0931 11.2518C13.9643 10.8086 13.6887 10.4078 13.3172 10.1238C13.0859 9.9442 12.8294 9.8146 12.5533 9.7366C12.5415 9.7334 12.5302 9.7294 12.519 9.725C12.0858 9.6012 11.7657 9.483 11.5185 9.2874C11.1955 9.0212 11.0419 8.6646 10.8765 8.1034C10.8723 8.0928 10.8684 8.0816 10.8652 8.0706C10.7491 7.6708 10.5199 7.3124 10.2021 7.034C9.79165 6.6686 9.2631 6.4682 8.71243 6.4682C8.64507 6.4682 8.57872 6.4726 8.51298 6.4784C8.50122 6.4796 8.49026 6.4802 8.47768 6.4798C7.65797 6.4718 6.72362 6.4084 6.00658 5.755C5.98081 5.7304 5.93983 5.7 5.87997 5.7C5.78643 5.7 5.71014 5.775 5.71014 5.8674C5.71014 5.9286 5.74342 5.9692 5.7631 5.988C5.7633 5.9882 5.76351 5.9886 5.76391 5.9888C5.88119 6.0998 6.45032 6.7258 6.49759 8.4476C6.498 8.4602 6.49759 8.4728 6.49678 8.4854C6.49191 8.5436 6.48745 8.602 6.48745 8.6614C6.48745 9.3264 6.78916 9.9478 7.31527 10.3664C7.5549 10.56 7.82354 10.699 8.1149 10.7812C8.12667 10.7846 8.13803 10.7884 8.14919 10.7928C8.58136 10.9162 8.90072 11.0344 9.14826 11.2296C9.4731 11.4962 9.6269 11.8546 9.79327 12.4196C9.79672 12.4288 9.79997 12.4382 9.80261 12.4476C9.93145 12.891 10.2074 13.2918 10.5793 13.5758C10.8104 13.7554 11.0667 13.885 11.3424 13.9632C11.3538 13.9664 11.3647 13.97 11.3755 13.9742C11.8105 14.0986 12.1317 14.2172 12.3786 14.4134C12.7012 14.6794 12.8544 15.0356 13.0192 15.5962C13.0234 15.607 13.0273 15.618 13.0307 15.6292C13.1466 16.0286 13.3757 16.3868 13.6932 16.665C14.1041 17.031 14.6324 17.2314 15.1833 17.2314C15.251 17.2314 15.318 17.227 15.3841 17.2212C15.3947 17.2202 15.4054 17.2196 15.416 17.2196ZM18.0157 18.6998C17.785 18.6998 17.5667 18.6118 17.4008 18.4522C16.931 18.0248 16.297 17.93 15.4298 17.9198C15.3484 17.9266 15.2665 17.9314 15.1833 17.9314C14.4561 17.9314 13.7587 17.6668 13.2192 17.1864C12.8124 16.83 12.5148 16.3706 12.3585 15.8578C12.3541 15.8466 12.35 15.835 12.3465 15.8232C12.195 15.3018 12.0933 15.0908 11.9278 14.9544C11.7926 14.847 11.5792 14.76 11.1456 14.6374C11.1336 14.634 11.1219 14.63 11.1107 14.6256C10.7595 14.5216 10.4338 14.354 10.1419 14.1274C9.66241 13.761 9.30287 13.2442 9.12898 12.671C9.12533 12.6614 9.12188 12.6516 9.11904 12.6416C8.96687 12.1192 8.86481 11.9078 8.69925 11.772C8.54322 11.649 8.27336 11.556 7.91768 11.4554C7.90571 11.452 7.89374 11.448 7.88217 11.4434C7.51128 11.3336 7.1702 11.1542 6.86728 10.9096C6.17539 10.359 5.7773 9.539 5.7773 8.6614C5.7773 8.5896 5.78177 8.5188 5.78725 8.4482C5.74322 6.976 5.27696 6.4988 5.27209 6.4942C5.09577 6.3264 5 6.1046 5 5.8674C5 5.389 5.39484 5 5.87997 5C6.11067 5 6.32919 5.0878 6.49536 5.2474C6.96507 5.6752 7.59954 5.77 8.46754 5.7796C8.54829 5.7728 8.62985 5.7682 8.71243 5.7682C9.43922 5.7682 10.1366 6.0326 10.6761 6.5128C11.0831 6.8694 11.381 7.329 11.5372 7.8422C11.5419 7.8532 11.5457 7.8646 11.5492 7.8762C11.7011 8.3982 11.8032 8.6096 11.9683 8.7458C12.1236 8.8684 12.394 8.9616 12.7505 9.0624C12.7625 9.0658 12.7747 9.0698 12.7862 9.0744C13.1372 9.1786 13.4629 9.3458 13.7545 9.5722C14.2335 9.9386 14.5928 10.4552 14.7665 11.028C14.7704 11.0378 14.7736 11.0476 14.7767 11.0578C14.9288 11.5802 15.0311 11.7918 15.1973 11.928C15.3525 12.0506 15.6221 12.1436 15.978 12.2442C15.9902 12.2476 16.0018 12.2514 16.0131 12.256C16.3844 12.366 16.7259 12.5456 17.0286 12.7902C17.7205 13.3402 18.1186 14.16 18.1186 15.038C18.1186 15.1098 18.1141 15.1808 18.1087 15.2512C18.1529 16.7238 18.619 17.2008 18.6236 17.2056C18.7997 17.3726 18.8961 17.5946 18.8961 17.8322C18.8961 18.3106 18.5013 18.6998 18.0157 18.6998Z" fill="black"/>
<path fill-rule="evenodd" clip-rule="evenodd" d="M9.15306 10.7999C9.12491 10.7999 9.09694 10.7992 9.06918 10.7978L9.0666 10.7976C8.85988 10.7866 8.66455 10.7363 8.48659 10.6541C8.1263 10.5151 7.8097 10.299 7.54921 10.0726C7.27188 9.83159 7.04392 9.56655 6.87883 9.3378C6.82203 9.2656 6.77074 9.18863 6.72558 9.10762C6.7181 9.09528 6.7109 9.08318 6.70397 9.07132L6.70544 9.07046C6.57411 8.82105 6.5 8.53564 6.5 8.2353C6.5 7.29441 7.22737 6.5 8.16266 6.5C8.81442 6.5 9.36522 6.88577 9.63926 7.43806C10.3198 7.65627 10.8 8.3205 10.8 9.08121C10.8 10.0129 10.0797 10.7999 9.15306 10.7999ZM7.18408 8.2353C7.18408 7.63724 7.63923 7.18408 8.16266 7.18408C8.38695 7.18408 8.59871 7.26729 8.76748 7.40945C8.97243 7.72884 9.7739 8.3079 9.82243 8.33776C10.0017 8.52315 10.1159 8.78394 10.1159 9.08121C10.1159 9.67011 9.66781 10.1158 9.15306 10.1158C9.14232 10.1158 9.13161 10.1157 9.12093 10.1153C9.00118 10.1005 8.88324 10.0708 8.768 10.029C8.70271 9.99828 8.64089 9.95996 8.58366 9.91495C8.12813 9.75423 7.67629 9.24842 7.50732 9.0156C7.47948 8.98875 7.45303 8.96017 7.42816 8.93001C7.38081 8.86403 7.34061 8.80285 7.30819 8.74907C7.22952 8.59877 7.18408 8.42427 7.18408 8.2353Z" fill="black"/>
<path fill-rule="evenodd" clip-rule="evenodd" d="M12.5477 14.0015C12.5195 14.0015 12.4915 14.0008 12.4638 13.9994L12.4612 13.9992C12.2545 13.9882 12.0591 13.9379 11.8812 13.8557C11.5209 13.7167 11.2043 13.5006 10.9438 13.2742C10.6665 13.0332 10.4385 12.7682 10.2734 12.5394C10.2166 12.4672 10.1653 12.3902 10.1202 12.3092C10.1127 12.2969 10.1055 12.2848 10.0986 12.2729L10.1 12.2721C9.96871 12.0227 9.8946 11.7372 9.8946 11.4369C9.8946 10.496 10.622 9.70161 11.5573 9.70161C12.209 9.70161 12.7598 10.0874 13.0339 10.6397C13.7144 10.8579 14.1946 11.5221 14.1946 12.2828C14.1946 13.2145 13.4743 14.0015 12.5477 14.0015ZM10.5787 11.4369C10.5787 10.8388 11.0338 10.3857 11.5573 10.3857C11.7815 10.3857 11.9933 10.4689 12.1621 10.6111C12.367 10.9304 13.1685 11.5095 13.217 11.5394C13.3963 11.7248 13.5105 11.9855 13.5105 12.2828C13.5105 12.8717 13.0624 13.3175 12.5477 13.3175C12.5369 13.3175 12.5262 13.3173 12.5155 13.3169C12.3958 13.3021 12.2778 13.2724 12.1626 13.2306C12.0973 13.1999 12.0355 13.1616 11.9783 13.1166C11.5227 12.9558 11.0709 12.45 10.9019 12.2172C10.8741 12.1904 10.8476 12.1618 10.8228 12.1316C10.7754 12.0656 10.7352 12.0045 10.7028 11.9507C10.6241 11.8004 10.5787 11.6259 10.5787 11.4369Z" fill="black"/>
<path fill-rule="evenodd" clip-rule="evenodd" d="M15.7585 17.2456C15.7304 17.2456 15.7024 17.2449 15.6746 17.2435L15.6721 17.2433C15.4653 17.2323 15.27 17.182 15.0921 17.0998C14.7318 16.9608 14.4152 16.7447 14.1547 16.5183C13.8774 16.2773 13.6494 16.0123 13.4843 15.7835C13.4275 15.7113 13.3762 15.6343 13.3311 15.5533C13.3236 15.541 13.3164 15.5289 13.3094 15.517L13.3109 15.5162C13.1796 15.2667 13.1055 14.9813 13.1055 14.681C13.1055 13.7401 13.8328 12.9457 14.7681 12.9457C15.4199 12.9457 15.9707 13.3315 16.2447 13.8838C16.9253 14.102 17.4055 14.7662 17.4055 15.5269C17.4055 16.4586 16.6851 17.2456 15.7585 17.2456ZM13.7895 14.681C13.7895 14.0829 14.2447 13.6298 14.7681 13.6298C14.9924 13.6298 15.2042 13.713 15.373 13.8551C15.5779 14.1745 16.3794 14.7536 16.4279 14.7835C16.6072 14.9688 16.7214 15.2296 16.7214 15.5269C16.7214 16.1158 16.2733 16.5615 15.7585 16.5615C15.7478 16.5615 15.7371 16.5614 15.7264 16.561C15.6066 16.5462 15.4887 16.5165 15.3735 16.4747C15.3082 16.444 15.2464 16.4057 15.1891 16.3606C14.7336 16.1999 14.2818 15.6941 14.1128 15.4613C14.0849 15.4344 14.0585 15.4059 14.0336 15.3757C13.9863 15.3097 13.9461 15.2486 13.9137 15.1948C13.835 15.0445 13.7895 14.87 13.7895 14.681Z" fill="black"/>
</svg>
