<svg width="24" height="24" viewBox="0 0 24 24" fill="none" xmlns="http://www.w3.org/2000/svg">
<path fill-rule="evenodd" clip-rule="evenodd" d="M0.933334 11.9998C0.933334 18.1012 5.89875 23.0667 12.0001 23.0667C18.1015 23.0667 23.0667 18.1013 23.0667 11.9998C23.0667 5.89857 18.1015 0.933334 12.0001 0.933334C5.89872 0.933334 0.933334 5.8986 0.933334 11.9998ZM0 11.9998C0 18.6167 5.38328 24 12.0001 24C18.617 24 24 18.6167 24 11.9998C24 5.3831 18.617 0 12.0001 0C5.38328 0 0 5.3831 0 11.9998Z" fill="black"/>
<path fill-rule="evenodd" clip-rule="evenodd" d="M20.4367 3.66332L15.5057 8.5944L14.8457 7.93443L19.7768 3.00336L20.4367 3.66332Z" fill="black"/>
<path fill-rule="evenodd" clip-rule="evenodd" d="M10.3301 13.77L3.66338 20.4366L3.00342 19.7767L9.67009 13.11L10.3301 13.77Z" fill="black"/>
<path fill-rule="evenodd" clip-rule="evenodd" d="M8.52084 18.2802L11.0159 11.7804L11.7159 12.0492L9.22092 18.5489C9.18405 18.645 9.11256 18.7158 9.02295 18.7561C8.93304 18.7957 8.83257 18.8015 8.73652 18.7646C8.64047 18.7277 8.56964 18.6562 8.52933 18.5666C8.48971 18.4767 8.48397 18.3762 8.52084 18.2802ZM10.3687 10.3269C10.4056 10.2308 10.4771 10.16 10.5667 10.1197C10.6566 10.0801 10.7571 10.0743 10.8531 10.1112L12.9538 10.9176C13.0499 10.9545 13.1207 11.026 13.161 11.1156C13.2006 11.2055 13.2064 11.306 13.1695 11.402C13.1326 11.4981 13.061 11.5694 12.9717 11.6095C12.8818 11.6492 12.7812 11.6546 12.6851 11.6177L10.5844 10.8113C10.4883 10.7744 10.4175 10.7029 10.3772 10.6133C10.3376 10.5234 10.3318 10.4229 10.3687 10.3269L10.0187 10.1925L10.3687 10.3269ZM10.2059 8.65764C10.243 8.56193 10.3143 8.49076 10.4039 8.45046C10.4938 8.41084 10.5944 8.40544 10.6903 8.44197L14.1917 9.78603C14.2874 9.82305 14.3586 9.8944 14.3989 9.984C14.4384 10.0736 14.4439 10.1745 14.4071 10.2706C14.37 10.3663 14.2987 10.4375 14.2091 10.4778C14.1195 10.5172 14.0187 10.5231 13.9227 10.4863L13.2226 10.2175L13.2224 10.2172L10.4218 9.14239C10.3257 9.10552 10.2547 9.03368 10.2146 8.94442C10.175 8.85451 10.1692 8.75403 10.2059 8.65764L9.85589 8.52327L10.2059 8.65764ZM10.7437 7.25733C10.7812 7.15979 10.8527 7.08896 10.9413 7.04912C11.0301 7.00996 11.1303 7.00437 11.2282 7.04166L14.7291 8.38552C14.8267 8.42331 14.8974 8.49446 14.9373 8.58304C14.9764 8.67192 14.982 8.77205 14.9447 8.86993C14.9071 8.96796 14.8358 9.0383 14.7472 9.07814C14.6583 9.11731 14.5583 9.12324 14.4603 9.0856L10.9594 7.74174C10.8617 7.70395 10.7911 7.6328 10.7512 7.54422C10.712 7.45534 10.7061 7.35536 10.7437 7.25733ZM11.9813 6.1259C12.0191 6.02822 12.0902 5.95754 12.1788 5.91769C12.268 5.87838 12.3682 5.87279 12.4657 5.91023L14.5663 6.71629L14.5664 6.71663C14.664 6.75407 14.7347 6.82522 14.7747 6.91414C14.8138 7.00302 14.8194 7.10316 14.7821 7.20104C14.7443 7.29873 14.673 7.36906 14.5846 7.40925C14.4956 7.44807 14.3956 7.454 14.2977 7.41671L12.197 6.61031C12.1008 6.5731 12.0288 6.50004 11.9842 6.40168C11.9491 6.32289 11.9436 6.22477 11.9813 6.1259ZM17.1317 12.7153C17.3528 12.8661 17.5179 13.0709 17.6225 13.3051C17.8202 13.7499 17.7938 14.2908 17.4993 14.7265C17.3457 14.9541 17.1333 15.1325 16.8845 15.2432C16.4165 15.4504 15.8946 15.4048 15.4712 15.1204C15.2432 14.967 15.0665 14.751 14.9563 14.5033C14.8469 14.2576 14.8045 13.9826 14.8408 13.7111L15.2788 11.6422L17.1317 12.7153ZM7.84417 18.8717C7.96021 19.1332 8.17864 19.3537 8.46778 19.4647C8.75692 19.5757 9.06677 19.558 9.32801 19.4413C9.58989 19.3251 9.81036 19.1067 9.921 18.8177L12.416 12.3179C12.7052 12.4289 13.015 12.4112 13.2766 12.2944C13.5381 12.1783 13.7586 11.9599 13.8696 11.6707C13.9228 11.533 13.9446 11.3902 13.9422 11.2501C14.1408 11.2704 14.3386 11.2415 14.5141 11.1629C14.5535 11.1454 14.5897 11.1215 14.627 11.0992L14.1031 13.5753L14.0985 13.6011C14.0407 14.0189 14.1056 14.4366 14.2711 14.8083C14.4364 15.1797 14.7028 15.5069 15.0518 15.7423C15.6855 16.1707 16.4904 16.2405 17.1896 15.9283C17.5668 15.7604 17.8898 15.4893 18.1214 15.1457C18.5658 14.4852 18.6065 13.6711 18.3074 13.0002C18.1485 12.6424 17.891 12.3223 17.5466 12.0898L17.5245 12.0762L15.2069 10.7338C15.1534 10.7031 15.094 10.6868 15.0342 10.6843C15.0604 10.6373 15.0874 10.5908 15.1075 10.5392C15.2109 10.2698 15.1987 9.98424 15.1027 9.73468C15.3415 9.61359 15.5416 9.40835 15.645 9.13901L15.6448 9.13867C15.7559 8.84987 15.7393 8.53956 15.6224 8.27799C15.5445 8.10209 15.4166 7.94846 15.2553 7.83061C15.3506 7.72828 15.4294 7.60741 15.4822 7.46977C15.5933 7.18097 15.5767 6.87067 15.4598 6.60909C15.3435 6.34686 15.124 6.12685 14.835 6.01621L12.7348 5.21C12.446 5.09886 12.1357 5.11551 11.8738 5.23253C11.6119 5.34872 11.3919 5.56818 11.2812 5.85717C11.2286 5.99348 11.2046 6.13593 11.2063 6.27719C11.0086 6.25725 10.8115 6.28552 10.6362 6.36396C10.374 6.4803 10.1543 6.6996 10.0433 6.98875L10.0437 6.98859C9.93994 7.25808 9.95128 7.54448 10.0477 7.79423C9.80927 7.91516 9.60924 8.11957 9.50585 8.38891C9.39486 8.67805 9.41254 8.9879 9.52942 9.24947C9.60732 9.42537 9.7349 9.57915 9.89615 9.697C9.80057 9.79949 9.7213 9.92016 9.66862 10.0581C9.55763 10.3473 9.5753 10.6571 9.69168 10.9185C9.80821 11.1803 10.0266 11.4007 10.3156 11.5114L7.82061 18.0111C7.70962 18.3003 7.7273 18.6101 7.84417 18.8717Z" fill="black"/>
</svg>
