<svg width="24" height="24" viewBox="0 0 24 24" fill="none" xmlns="http://www.w3.org/2000/svg">
<path fill-rule="evenodd" clip-rule="evenodd" d="M0.933333 11.9998C0.933333 18.1012 5.89874 23.0667 12.0001 23.0667C18.1014 23.0667 23.0667 18.1012 23.0667 11.9998C23.0667 5.89857 18.1015 0.933333 12.0001 0.933333C5.89871 0.933333 0.933333 5.89859 0.933333 11.9998ZM0 11.9998C0 18.6167 5.38327 24 12.0001 24C18.6169 24 24 18.6167 24 11.9998C24 5.3831 18.6169 0 12.0001 0C5.38327 0 0 5.3831 0 11.9998Z" fill="black"/>
<path d="M19.2667 8.26667C18.6667 7.60001 17.9334 7.46667 17.5334 7.46667C16.5334 7.46667 15.1334 8.13334 14.4667 9.46667C14.0667 10.2667 13 11.0667 12.3334 11.6C12.0667 11.8 11.8667 11.9333 11.7334 12.0667C10.0667 13.3333 9.40004 15.1333 10 16.9333C10.5334 18.6 12.1334 19.8 13.8 19.8C17 19.8 19.1334 15.9333 19.8 12.0667C20.0667 10.3333 19.8667 9.06667 19.2667 8.26667ZM18.9334 11.9333C18.2667 15.4667 16.4667 19 13.7334 19C12.4 19 11.1334 18.0667 10.7334 16.6667C10.2667 15.2 10.8 13.7333 12.2667 12.6667C12.2667 12.6667 12.2667 12.6667 12.3334 12.6C12.4 12.5333 12.6 12.3333 12.8667 12.2C13.6 11.6 14.8 10.7333 15.2667 9.80001C15.7334 8.80001 16.8 8.26667 17.6 8.26667C17.8667 8.26667 18.3334 8.33334 18.7334 8.73334C19.1334 9.40001 19.2 10.4667 18.9334 11.9333Z" fill="black"/>
<path d="M15.1333 11.9333C14 11.9333 13.0667 12.8667 13.0667 14C13.0667 15.1333 14 16 15.1333 16C16.2667 16 17.2 15.0667 17.2 13.9333C17.2 12.8 16.2667 11.9333 15.1333 11.9333ZM15.1333 15.2C14.4667 15.2 13.8667 14.6667 13.8667 13.9333C13.8667 13.2 14.4 12.6667 15.1333 12.6667C15.8667 12.6667 16.4 13.2 16.4 13.9333C16.4 14.6667 15.8 15.2 15.1333 15.2Z" fill="black"/>
<path d="M11.4667 9.26667V9.2C11.8001 8.06667 12.3334 6.93333 13.8667 6.4C14.0001 6.33333 14.1334 6.2 14.1334 6.06667C14.1334 5.93333 14.0667 5.8 14.0001 5.66667L11.7334 4.06667C11.7334 4 11.6001 4 11.4667 4C9.26675 4.73333 8.73341 6.46667 8.46675 7.33333V7.4C8.26675 8.13333 8.06675 8.73333 6.66675 9.6C4.86675 10.6667 4.66675 12.9333 4.66675 13C4.66675 13.1333 4.73341 13.2667 4.86675 13.3333L7.13341 14.9333C7.20008 15 7.26675 15 7.33341 15C7.40008 15 7.46675 15 7.53341 14.9333C7.66675 14.8667 7.73341 14.7333 7.73341 14.6C7.73341 14.6 7.86675 12.6667 9.33341 11.8C11.0667 10.8667 11.2667 10.0667 11.4667 9.26667ZM7.06675 10.2667C8.80008 9.26667 9.00008 8.46667 9.26675 7.66667V7.6C9.60008 6.46667 10.0667 5.4 11.5334 4.86667L11.9334 5.13333C10.2667 5.93333 9.86675 7.4 9.60008 8.13333V8.2C9.40008 8.86667 9.26675 9.46667 7.80008 10.3333C6.53341 11.0667 6.13341 12.4 5.93341 13.1333L5.46675 12.8C5.60008 12.3333 5.93341 10.9333 7.06675 10.2667ZM8.93341 11.2C7.73341 11.9333 7.26675 13.2 7.06675 13.9333L6.66675 13.6667C6.73341 13.2667 7.00008 11.8 8.20008 11.0667C9.86675 10.0667 10.1334 9.26667 10.3334 8.46667V8.4C10.7334 7.26667 11.2001 6.2 12.6667 5.66667L13.0001 5.86667C11.4001 6.66667 11.0001 8.13333 10.7334 8.86667V8.93333C10.5334 9.73333 10.3334 10.3333 8.93341 11.2Z" fill="black"/>
</svg>
