<svg width="24" height="24" viewBox="0 0 24 24" fill="none" xmlns="http://www.w3.org/2000/svg">
<path fill-rule="evenodd" clip-rule="evenodd" d="M0.933333 11.9998C0.933333 18.1012 5.89875 23.0667 12.0001 23.0667C18.1015 23.0667 23.0667 18.1012 23.0667 11.9998C23.0667 5.89857 18.1015 0.933333 12.0001 0.933333C5.89871 0.933333 0.933333 5.89859 0.933333 11.9998ZM0 11.9998C0 18.6167 5.38327 24 12.0001 24C18.6169 24 24 18.6167 24 11.9998C24 5.3831 18.6169 0 12.0001 0C5.38327 0 0 5.3831 0 11.9998Z" fill="black"/>
<path d="M16.5999 8.19998C15.9999 7.73331 15.3333 7.53331 14.5999 7.53331C13.8666 7.53331 13.1333 7.66665 12.5333 7.79998C12.3333 7.86665 12.1333 7.86665 11.9999 7.86665C11.9999 7.73331 11.9333 7.59998 11.9333 7.46665L12.8666 7.33331C14.1999 7.13331 15.1999 6.13331 15.3999 4.79998C15.3999 4.79998 15.5333 3.73331 15.5333 3.66665L15.4666 3.33331L13.9333 3.53331C12.5999 3.73331 11.5999 4.73331 11.3999 6.06665V6.46665C11.0666 5.99998 10.6666 5.53331 10.1333 5.26665C9.99992 5.13331 9.79992 5.19998 9.73325 5.39998C9.66658 5.53331 9.73325 5.73331 9.86659 5.86665C10.5999 6.26665 11.0666 7.06665 11.2666 7.93331C11.1999 7.93331 11.0666 7.93331 10.9999 7.86665C10.3333 7.73331 9.59992 7.53331 8.93325 7.59998C8.19992 7.59998 7.53325 7.79998 6.93325 8.26665C5.79992 9.06665 5.33325 10.6666 5.33325 13.2C5.33325 15.0666 6.39992 17.2666 7.93325 18.4666C8.93325 19.2666 9.99992 19.6 11.0666 19.3333C11.5333 19.2 11.9999 19.2 12.3999 19.3333C12.5999 19.4 12.8666 19.4 13.0666 19.4C13.8666 19.4 14.7333 19.0666 15.5333 18.4666C17.0666 17.2666 18.1333 15.0666 18.1333 13.2C18.1333 10.6666 17.6666 9.06665 16.5999 8.19998ZM12.6666 6.73331L14.5999 4.73331V4.79998C14.4666 5.79998 13.6666 6.59998 12.6666 6.73331ZM14.1999 4.19998L12.0666 6.33331V6.19998C12.1999 5.19998 12.9999 4.39998 13.9999 4.26665L14.1999 4.19998ZM10.9333 18.7333C9.86658 18.9333 8.93325 18.4 8.33325 17.9333L8.39992 17.8666C7.06659 16.8 6.06659 14.8 6.06659 13.1333C6.06659 12 6.13325 11 6.39992 10.2666C6.59992 9.53331 6.93325 8.99998 7.33325 8.66665C8.06659 8.06665 9.13325 7.99998 10.8666 8.46665C10.9999 8.53331 11.1999 8.59998 11.3333 8.59998C11.3333 8.73331 11.3333 8.86665 11.3333 8.93331C11.3333 8.99998 11.3999 9.13331 11.4666 9.13331C11.2666 9.13331 11.0666 9.06665 10.9333 8.86665C10.7999 8.73331 10.5999 8.73331 10.4666 8.86665C10.3333 8.99998 10.3333 9.19998 10.4666 9.33331C10.7999 9.66665 11.1999 9.86665 11.6666 9.86665C12.1333 9.86665 12.5999 9.66665 12.8666 9.33331C12.9999 9.19998 12.9999 8.99998 12.8666 8.86665C12.7333 8.73331 12.5333 8.73331 12.3999 8.86665C12.2666 8.99998 12.0666 9.06665 11.9333 9.13331C11.9999 9.06665 11.9999 8.99998 11.9999 8.86665C11.9999 8.73331 11.9999 8.66665 11.9999 8.53331C12.1999 8.53331 12.3999 8.46665 12.5999 8.46665C14.3333 8.06665 15.3999 8.13331 16.1333 8.66665C16.5333 8.99998 16.8666 9.53331 17.0666 10.2666C17.2666 11 17.3999 11.9333 17.3999 13.1333H17.3333C17.3333 14.8 16.3333 16.8 14.9999 17.8666C14.3999 18.3333 13.4666 18.8666 12.3999 18.6C12.1333 18.5333 11.8666 18.5333 11.5999 18.5333C11.4666 18.6 11.1999 18.6 10.9333 18.7333Z" fill="black"/>
<path d="M9.13317 8.79999C7.73317 8.79999 6.6665 9.99999 6.6665 11.5333C6.6665 11.7333 6.79984 11.8667 6.99984 11.8667C7.19984 11.8667 7.33317 11.7333 7.33317 11.5333C7.33317 10.4 8.13317 9.46665 9.13317 9.46665C9.33317 9.46665 9.4665 9.33332 9.4665 9.13332C9.4665 8.93332 9.33317 8.79999 9.13317 8.79999Z" fill="black"/>
</svg>
