<svg width="24" height="24" viewBox="0 0 24 24" fill="none" xmlns="http://www.w3.org/2000/svg">
<g clip-path="url(#clip0_32_284)">
<path fill-rule="evenodd" clip-rule="evenodd" d="M0.933333 11.9998C0.933333 18.1012 5.89874 23.0667 12.0001 23.0667C18.1014 23.0667 23.0667 18.1012 23.0667 11.9998C23.0667 5.89857 18.1015 0.933333 12.0001 0.933333C5.89871 0.933333 0.933333 5.89859 0.933333 11.9998ZM0 11.9998C0 18.6167 5.38327 24 12.0001 24C18.6169 24 24 18.6167 24 11.9998C24 5.3831 18.6169 0 12.0001 0C5.38327 0 0 5.3831 0 11.9998Z" fill="black"/>
<mask id="mask0_32_284" style="mask-type:luminance" maskUnits="userSpaceOnUse" x="5" y="6" width="15" height="8">
<path fill-rule="evenodd" clip-rule="evenodd" d="M19.3206 13.331H5.33569V6.01941H12.3281H19.3206V13.331Z" fill="white"/>
</mask>
<g mask="url(#mask0_32_284)">
<path fill-rule="evenodd" clip-rule="evenodd" d="M8.69299 6.01941C8.57829 6.14711 8.46367 6.29239 8.33078 6.4179C8.19135 6.54956 8.14601 6.67783 8.2162 6.87054C8.33965 7.20944 8.35665 7.56605 8.35369 7.92769C8.34417 9.07288 8.34041 10.2183 8.35631 11.3633C8.36057 11.6713 8.23358 11.8686 7.99075 11.9989C7.52517 12.2489 7.02623 12.3136 6.51782 12.1699C6.03836 12.0344 5.74828 11.5724 5.78784 10.9815C5.80934 10.6594 5.90277 10.3423 5.96338 10.0228C5.98095 9.93026 5.99701 9.83742 6.01378 9.74466C5.95204 9.7614 5.91906 9.78406 5.90342 9.8155C5.56491 10.4958 5.29845 11.1967 5.33726 11.9769C5.36929 12.6211 5.75771 13.1443 6.35766 13.276C6.65333 13.3409 6.97735 13.3503 7.27725 13.3063C8.27026 13.1603 9.11646 12.107 9.06787 11.2008C9.01686 10.2503 9.06342 9.29472 9.05235 8.3415C9.04786 7.9533 9.06312 7.5778 9.25912 7.2296C9.28465 7.18422 9.28765 7.10129 9.26361 7.05598C9.0826 6.71469 8.89223 6.37844 8.69299 6.01941ZM17.7388 11.637C17.391 11.7092 17.0798 11.7844 16.7648 11.8366C16.3203 11.9101 15.8727 11.9736 15.4287 11.8278C14.439 11.5026 13.841 10.7828 13.5669 9.81009C13.3669 9.10021 13.2653 8.36116 13.1365 7.63213C13.0731 7.27276 13.0475 6.90663 12.9994 6.49861C12.8949 6.65937 12.8234 6.78745 12.7342 6.90144C12.6405 7.02135 12.6314 7.14552 12.6394 7.29299C12.6702 7.86756 12.7044 8.44309 12.7008 9.01801C12.6965 9.70769 12.5863 10.3827 12.2527 10.9985C12.1459 11.1959 12.008 11.376 11.8843 11.5641C11.849 11.4967 11.853 11.4529 11.8595 11.4094C11.9422 10.8572 11.9971 10.303 11.8985 9.74797C11.7257 8.77663 11.1821 8.02993 10.4687 7.39128C10.4034 7.33284 10.3218 7.29191 10.2449 7.24803C10.1142 7.17347 9.9953 7.20507 9.94957 7.34317C9.85819 7.61927 9.74577 7.89977 9.72344 8.18497C9.68947 8.6194 10.1142 9.10551 10.5368 9.17286C10.7772 9.21117 11.0091 9.27214 11.1401 9.48907C11.2902 9.73748 11.4662 9.99427 11.5229 10.27C11.6054 10.6714 11.588 11.0932 11.6198 11.5057C11.6377 11.738 11.5275 11.8837 11.3476 12.0119C10.7712 12.4225 10.1347 12.6972 9.4614 12.8947C9.39608 12.9138 9.33216 12.9378 9.21837 12.9762C11.711 13.6043 13.061 11.935 13.1109 9.81873C13.1392 9.93134 13.1542 9.99803 13.1729 10.0636C13.2985 10.5048 13.3855 10.9621 13.5586 11.3834C14.0249 12.5182 15.2549 13.2149 16.4047 12.9943C17.2486 12.8323 18.079 12.5936 18.9528 12.6175C19.0817 12.276 19.2066 11.9451 19.3207 11.643C19.0452 11.4278 18.7835 11.2461 18.5486 11.0341C18.275 10.7871 18.0265 10.5121 17.7642 10.2523C17.4593 9.95027 17.1343 9.67494 16.7219 9.53296C16.0077 9.28712 15.1486 9.77738 15.0007 10.516C15.1823 10.4537 15.3599 10.3877 15.5405 10.3318C15.8225 10.2444 16.1045 10.2431 16.3754 10.3721C16.9432 10.6426 17.3458 11.0955 17.7388 11.637Z" fill="black"/>
<path fill-rule="evenodd" clip-rule="evenodd" d="M17.7387 11.637C17.3457 11.0955 16.9431 10.6425 16.3753 10.3721C16.1044 10.243 15.8224 10.2444 15.5404 10.3317C15.3598 10.3877 15.1821 10.4536 15.0006 10.516C15.1484 9.77736 16.0076 9.2871 16.7218 9.53294C17.1342 9.67493 17.4592 9.95025 17.7641 10.2523C18.0264 10.5121 18.2749 10.7871 18.5485 11.0341C18.7834 11.2461 19.0451 11.4278 19.3205 11.6429C19.2065 11.9451 19.0816 12.276 18.9527 12.6175C18.0788 12.5936 17.2485 12.8323 16.4046 12.9943C15.2548 13.2149 14.0248 12.5182 13.5585 11.3834C13.3854 10.9621 13.2984 10.5047 13.1728 10.0636C13.154 9.99801 13.1391 9.93132 13.1108 9.81871C13.0609 11.935 11.7109 13.6043 9.21826 12.9762C9.33205 12.9378 9.39596 12.9138 9.46128 12.8946C10.1345 12.6972 10.7711 12.4225 11.3475 12.0118C11.5274 11.8837 11.6376 11.738 11.6197 11.5057C11.5879 11.0931 11.6053 10.6713 11.5227 10.27C11.4661 9.99425 11.2901 9.73747 11.14 9.48906C11.009 9.27213 10.7771 9.21116 10.5367 9.17284C10.1141 9.1055 9.68935 8.61939 9.72333 8.18495C9.74566 7.89976 9.85808 7.61925 9.94946 7.34316C9.99519 7.20505 10.1141 7.17345 10.2448 7.24802C10.3217 7.2919 10.4033 7.33283 10.4686 7.39127C11.182 8.02992 11.7256 8.77661 11.8984 9.74795C11.997 10.3029 11.9421 10.8572 11.8594 11.4094C11.8529 11.4529 11.8489 11.4967 11.8842 11.564C12.0079 11.376 12.1457 11.1958 12.2526 10.9985C12.5862 10.3826 12.6964 9.70768 12.7007 9.018C12.7043 8.44308 12.6701 7.86755 12.6392 7.29298C12.6313 7.1455 12.6403 7.02134 12.7341 6.90143C12.8233 6.78744 12.8948 6.65935 12.9993 6.4986C13.0474 6.90661 13.073 7.27274 13.1364 7.63211C13.2652 8.36115 13.3668 9.1002 13.5668 9.81007C13.8409 10.7828 14.4389 11.5025 15.4286 11.8277C15.8726 11.9736 16.3202 11.9101 16.7647 11.8366C17.0797 11.7844 17.3909 11.7092 17.7387 11.637Z" fill="black"/>
<path fill-rule="evenodd" clip-rule="evenodd" d="M8.69299 6.01941C8.89223 6.37844 9.0826 6.71469 9.26361 7.05598C9.28765 7.10129 9.28465 7.18422 9.25912 7.2296C9.06312 7.5778 9.04786 7.9533 9.05235 8.3415C9.06342 9.29472 9.01686 10.2503 9.06787 11.2008C9.11646 12.107 8.27026 13.1603 7.27725 13.3063C6.97735 13.3503 6.65333 13.3409 6.35766 13.276C5.75771 13.1443 5.36929 12.6211 5.33726 11.9769C5.29845 11.1967 5.56491 10.4958 5.90342 9.8155C5.91906 9.78406 5.95204 9.7614 6.01378 9.74466C5.99701 9.83742 5.98095 9.93026 5.96338 10.0228C5.90277 10.3423 5.80934 10.6594 5.78784 10.9815C5.74828 11.5724 6.03836 12.0344 6.51782 12.1699C7.02623 12.3136 7.52517 12.2489 7.99075 11.9989C8.23358 11.8686 8.36057 11.6713 8.35631 11.3633C8.34041 10.2183 8.34417 9.07288 8.35368 7.92769C8.35665 7.56605 8.33965 7.20944 8.2162 6.87054C8.14601 6.67783 8.19135 6.54956 8.33078 6.4179C8.46367 6.29239 8.57829 6.14711 8.69299 6.01941Z" fill="black"/>
</g>
<path d="M7.76553 18.6667H7.20614V17.584H6.55939V18.6667H6V16.0109H6.55939V16.9955H7.20614V16.0109H7.76553V18.6667Z" fill="black"/>
<path d="M10.1174 18.6667L10.0159 18.1689H9.34662L9.24235 18.6667H8.63083L9.30294 16H10.0455L10.7261 18.6667H10.1174ZM9.90038 17.5804L9.81161 17.1444C9.79094 17.0475 9.76558 16.9222 9.73552 16.7684C9.7064 16.6146 9.68714 16.5044 9.67775 16.4378C9.66929 16.4995 9.65238 16.6013 9.62702 16.743C9.6026 16.8847 9.54765 17.1638 9.46216 17.5804H9.90038Z" fill="black"/>
<path d="M11.5914 18.6667V16.0109H12.1479V18.0872H12.9412V18.6667H11.5914Z" fill="black"/>
<path d="M15.1761 18.6667L15.0747 18.1689H14.4054L14.3011 18.6667H13.6896L14.3617 16H15.1043L15.7848 18.6667H15.1761ZM14.9591 17.5804L14.8704 17.1444C14.8497 17.0475 14.8243 16.9222 14.7943 16.7684C14.7652 16.6146 14.7459 16.5044 14.7365 16.4378C14.7281 16.4995 14.7111 16.6013 14.6858 16.743C14.6614 16.8847 14.6064 17.1638 14.5209 17.5804H14.9591Z" fill="black"/>
<path d="M16.6501 18.6667V16.0109H17.2067V18.0872H18V18.6667H16.6501Z" fill="black"/>
</g>
<defs>
<clipPath id="clip0_32_284">
<rect width="24" height="24" fill="white"/>
</clipPath>
</defs>
</svg>
