<svg width="24" height="24" viewBox="0 0 24 24" fill="none" xmlns="http://www.w3.org/2000/svg">
<path fill-rule="evenodd" clip-rule="evenodd" d="M0.933333 11.9998C0.933333 18.1012 5.89875 23.0667 12.0001 23.0667C18.1015 23.0667 23.0667 18.1012 23.0667 11.9998C23.0667 5.89857 18.1015 0.933333 12.0001 0.933333C5.89871 0.933333 0.933333 5.89859 0.933333 11.9998ZM0 11.9998C0 18.6167 5.38327 24 12.0001 24C18.617 24 24 18.6167 24 11.9998C24 5.3831 18.617 0 12.0001 0C5.38327 0 0 5.3831 0 11.9998Z" fill="black"/>
<mask id="mask0_32_459" style="mask-type:luminance" maskUnits="userSpaceOnUse" x="5" y="3" width="13" height="18">
<path fill-rule="evenodd" clip-rule="evenodd" d="M5.16675 3.83313H17.9981V20.5877H5.16675V3.83313Z" fill="white"/>
</mask>
<g mask="url(#mask0_32_459)">
<path fill-rule="evenodd" clip-rule="evenodd" d="M15.9562 16.615C14.6269 17.899 12.3062 18.637 10.2515 17.741C11.0775 17.4537 11.8435 16.961 12.4762 16.3357C12.9242 15.907 13.2922 15.3917 13.5822 14.8283C13.8615 14.2483 14.0182 13.657 14.1329 13.0437C14.2275 12.4297 14.2575 11.8043 14.2002 11.1863C14.1375 10.573 14.0295 9.98701 13.9415 9.40968C13.8722 8.84301 13.7862 8.23435 13.9195 7.72301C13.9342 7.66168 13.9562 7.60101 13.9829 7.54168C13.9975 7.56768 14.0129 7.59101 14.0269 7.62101C14.3862 8.40235 14.9475 9.04701 15.4909 9.67101C15.9755 10.2277 16.4342 10.7543 16.7575 11.3677C17.7355 13.223 17.4362 15.1843 15.9562 16.615ZM5.99351 13.5363C5.61151 12.1257 5.92284 10.721 6.89284 9.47501C7.60617 8.55901 8.65617 7.93968 9.7735 7.77634C10.1622 7.71901 10.5528 7.71634 10.9668 7.71368C11.2975 7.71234 11.6282 7.70968 11.9582 7.67968C12.2262 7.65568 12.5055 7.56834 12.7748 7.48434C13.2995 7.32101 13.5915 7.26101 13.7835 7.34768C13.7242 7.43168 13.6608 7.51101 13.6155 7.60768C13.3682 8.23501 13.4035 8.85301 13.4262 9.46168C13.5188 10.6803 13.7002 11.805 13.4755 12.9337C13.3028 14.0717 12.8608 15.115 12.0968 15.9803C11.5202 16.6357 10.8295 17.2137 10.0342 17.6363C9.95351 17.5963 9.87284 17.559 9.79284 17.5137L9.61617 17.823L9.74884 17.4917C7.89017 16.7463 6.45151 15.231 5.99351 13.5363ZM17.3468 11.0563C16.9875 10.3749 16.4821 9.79428 15.9935 9.23295C15.4615 8.62295 14.9608 8.04561 14.6408 7.35828C15.0748 6.00495 16.0481 5.05695 17.2448 4.34095C16.0988 4.60028 15.3495 5.05295 14.8175 5.55495C15.0508 4.88161 15.4255 4.31695 15.8888 3.83295C14.9335 4.18695 14.4161 4.75361 14.1135 5.36228C14.0115 4.93695 13.8121 4.47095 13.4355 3.95628C13.7528 4.93361 13.6988 5.72695 13.2681 6.67495C13.0228 6.71228 12.7821 6.78361 12.5768 6.84761C12.3295 6.92495 12.0955 6.99761 11.8981 7.01561C11.5868 7.04361 11.2748 7.04561 10.9621 7.04695C10.5435 7.05028 10.1108 7.05295 9.67747 7.11628C8.3908 7.30495 7.18413 8.01561 6.3668 9.06561C5.26347 10.4836 4.91147 12.0889 5.34947 13.7103C5.8268 15.4763 7.25013 17.0536 9.10347 17.9256C8.7968 18.5509 8.35813 19.1076 7.54147 19.5163C8.62213 19.3076 9.15413 18.9923 9.44547 18.6696C9.47013 19.0709 9.6888 19.6503 10.4215 20.5876C10.0115 19.7076 10.0248 19.0423 10.1868 18.4336C10.8361 18.6856 11.5228 18.8129 12.2141 18.8129C13.7255 18.8129 15.2521 18.2223 16.4195 17.0943C18.1248 15.4463 18.4715 13.1889 17.3468 11.0563Z" fill="black"/>
</g>
<path fill-rule="evenodd" clip-rule="evenodd" d="M8.79356 13.3709C8.58422 13.0575 8.38822 12.7495 8.31556 12.4375C8.23356 12.1349 8.27356 11.8095 8.40222 11.5135C8.66222 10.9022 9.24222 10.4715 9.93889 10.2109C10.6569 9.95418 11.3769 9.64552 12.1349 9.45618C11.3336 9.37352 10.5542 9.54552 9.77889 9.71818C8.99556 9.88952 8.15489 10.4062 7.79022 11.2515C7.61756 11.6702 7.56356 12.1642 7.70889 12.6122C7.85956 13.0502 8.11422 13.3982 8.38556 13.6929C8.90956 14.2995 9.54689 14.7355 9.80956 15.4888C9.83022 15.0875 9.65956 14.6868 9.45756 14.3428C9.25022 13.9955 9.00956 13.6809 8.79356 13.3709Z" fill="black"/>
<path fill-rule="evenodd" clip-rule="evenodd" d="M11.6144 10.1678C11.5171 10.4564 11.4804 10.7564 11.4651 11.0424C11.4344 11.6238 11.4544 12.1211 11.2891 12.5978C11.1471 13.0838 10.8957 13.5551 10.6357 14.0344L9.80908 15.4884C10.2897 15.1724 10.7037 14.7704 11.0644 14.3251C11.4271 13.8818 11.7404 13.3744 11.9264 12.7911C12.0111 12.5011 12.0611 12.1824 12.0584 11.8811C12.0484 11.5811 12.0237 11.2978 11.9851 11.0271C11.9224 10.4864 11.8664 9.97642 12.1351 9.45642C11.8937 9.61709 11.7197 9.88242 11.6144 10.1678Z" fill="black"/>
<path fill-rule="evenodd" clip-rule="evenodd" d="M10.3512 12.1117C10.2632 12.3484 10.1279 12.6011 10.0319 12.8964C10.0166 12.8211 9.99791 12.7504 9.97858 12.6831C9.89791 12.3997 9.85991 12.2404 9.90324 12.0531C9.93324 11.8611 10.0132 11.7017 10.1679 11.5404C10.2739 11.4311 10.4219 11.3237 10.5779 11.2091C10.5686 11.2491 10.5566 11.2924 10.5499 11.3291C10.4899 11.6557 10.4619 11.8704 10.3512 12.1117ZM11.0952 11.8377C11.0992 11.6584 11.0952 11.499 11.0699 11.349C11.0425 11.0464 10.9559 10.805 11.0839 10.493C10.8505 10.565 10.7192 10.7837 10.6392 11.0064C10.3925 10.9744 10.1425 10.9904 9.88721 11.1044C9.56654 11.2364 9.30854 11.577 9.24721 11.9364C9.21921 12.1184 9.22788 12.3084 9.28321 12.4877C9.34788 12.6577 9.42121 12.7937 9.50921 12.9077C9.66588 13.1504 9.86054 13.2797 9.89121 13.5904C9.90854 13.5757 9.91388 13.551 9.92854 13.5344C9.93454 13.6724 9.95788 13.8084 10.0192 13.931C10.1499 13.6204 10.3079 13.407 10.4799 13.1684C10.6525 12.935 10.8325 12.6797 10.9692 12.361C11.0285 12.1984 11.0785 12.023 11.0952 11.8377Z" fill="black"/>
<path fill-rule="evenodd" clip-rule="evenodd" d="M9.39678 16.391C8.96145 15.3523 7.96878 14.655 7.43011 13.8003C6.86745 12.959 6.97345 11.8163 7.40411 10.9157C7.61611 10.4623 7.96278 10.1017 8.38411 9.82967C8.80611 9.55167 9.31944 9.39433 9.84144 9.24033C10.7721 8.98567 11.8148 8.78033 12.6708 8.23967C12.5581 9.01967 12.5828 9.81233 12.5868 10.577C12.5874 11.3877 12.5701 12.1837 12.3654 12.9223C12.1761 13.6597 11.7921 14.3477 11.2874 14.9417C10.7788 15.533 10.1428 16.0257 9.39678 16.391ZM13.0094 13.0943C13.2321 12.239 13.2128 11.367 13.1054 10.5437C13.0074 9.75299 12.8441 8.99366 12.7081 8.21366C12.7954 8.15766 12.8828 8.10099 12.9661 8.03766C12.8761 8.07766 12.7854 8.11099 12.6954 8.14499C12.6928 8.12966 12.6894 8.11633 12.6874 8.10099C12.6848 8.11766 12.6841 8.13366 12.6814 8.15099C11.7354 8.50433 10.7348 8.53899 9.72345 8.73433C9.16612 8.83366 8.59278 8.98833 8.05878 9.28899C7.53478 9.59633 7.07612 10.0683 6.80612 10.6217C6.54478 11.1743 6.40945 11.773 6.41812 12.3817C6.42212 12.9823 6.62478 13.631 7.00545 14.097C7.74145 15.0537 8.77745 15.5123 9.42078 16.441C9.41412 16.4243 9.40478 16.409 9.39745 16.3923C11.0688 16.181 12.5574 14.797 13.0094 13.0943Z" fill="black"/>
</svg>
