<svg width="24" height="24" viewBox="0 0 24 24" fill="none" xmlns="http://www.w3.org/2000/svg">
<path fill-rule="evenodd" clip-rule="evenodd" d="M0.933333 11.9998C0.933333 18.1012 5.89874 23.0667 12.0001 23.0667C18.1014 23.0667 23.0667 18.1012 23.0667 11.9998C23.0667 5.89857 18.1015 0.933333 12.0001 0.933333C5.89871 0.933333 0.933333 5.89859 0.933333 11.9998ZM0 11.9998C0 18.6167 5.38327 24 12.0001 24C18.6169 24 24 18.6167 24 11.9998C24 5.3831 18.6169 0 12.0001 0C5.38327 0 0 5.3831 0 11.9998Z" fill="black"/>
<path fill-rule="evenodd" clip-rule="evenodd" d="M12.2308 18.8197C11.3485 18.8197 10.504 18.5138 9.83043 17.9526C9.65557 17.9785 9.48071 17.9914 9.30982 17.9914C7.54034 17.9924 6.4256 16.6832 6.10568 15.386C5.72516 13.8435 6.39083 12.3665 7.80263 11.6255C8.61335 11.0991 10.5905 9.82176 11.4419 8.00707L11.5562 7.76471H12.9064L13.0197 8.00707C13.8711 9.82176 15.8482 11.0991 16.6927 11.6444C18.0708 12.3665 18.7374 13.8435 18.3559 15.386C18.036 16.6822 16.9213 17.9914 15.1518 17.9914C14.9819 17.9914 14.807 17.9785 14.6312 17.9526C13.9585 18.5138 13.114 18.8197 12.2308 18.8197ZM10.0868 17.0448L10.2457 17.1938C11.3257 18.199 13.1349 18.2 14.2159 17.1938L14.3758 17.0448L14.5884 17.0875C16.192 17.4143 17.261 16.2959 17.5362 15.1834C17.7628 14.2666 17.5482 13.0459 16.2665 12.3725C15.3664 11.7934 13.3783 10.5091 12.3759 8.60799H12.0857C11.0833 10.5091 9.0972 11.7924 8.22886 12.3546C6.91342 13.0459 6.69981 14.2676 6.92634 15.1844C7.19956 16.2959 8.26562 17.4143 9.87315 17.0875L10.0868 17.0448Z" fill="black"/>
<path fill-rule="evenodd" clip-rule="evenodd" d="M14.7683 17.5891C14.0838 18.2734 13.1568 18.6598 12.1881 18.6668H12.1653V18.0122C12.9104 18.0122 13.7559 17.6199 14.2775 17.0984C14.8428 16.5332 15.1528 15.7843 15.1528 14.9857C15.5214 16.4001 15.3029 17.0547 14.7683 17.5891Z" fill="black"/>
<path fill-rule="evenodd" clip-rule="evenodd" d="M9.68933 17.6198C8.04404 16.2541 8.66202 13.3488 10.1801 12.9048C9.01472 14.0689 9.2174 16.1816 10.3818 17.3467L9.68933 17.6198Z" fill="black"/>
<path fill-rule="evenodd" clip-rule="evenodd" d="M12.6669 8.18683C13.0057 10.0025 13.4926 11.6801 14.4563 13.0916C12.2556 11.406 12.1145 9.48403 11.9119 8.18683H12.6669Z" fill="black"/>
<path fill-rule="evenodd" clip-rule="evenodd" d="M11.7867 8.5116C11.5602 9.70252 11.1966 10.8041 10.3928 11.7298C12.1106 10.7524 12.4633 10.0392 12.4623 8.5116H11.7867Z" fill="black"/>
<path fill-rule="evenodd" clip-rule="evenodd" d="M12.9392 8.38448C12.818 6.96411 13.3813 5.74537 14.2347 4.66669C12.2864 5.95495 12.1622 7.42399 11.9834 8.41626L12.9392 8.38448Z" fill="black"/>
<path fill-rule="evenodd" clip-rule="evenodd" d="M11.4915 8.16097C11.579 7.125 11.3673 6.38104 10.7444 5.59338C12.1671 6.53401 12.2575 7.60673 12.3887 8.33082L11.4915 8.16097Z" fill="black"/>
<path fill-rule="evenodd" clip-rule="evenodd" d="M12.9272 8.38448C12.2894 6.96411 12.4096 5.74537 12.8696 4.66669C11.3912 5.95495 11.8006 7.42399 11.9834 8.41626L12.9272 8.38448Z" fill="black"/>
</svg>
