<svg width="24" height="24" viewBox="0 0 24 24" fill="none" xmlns="http://www.w3.org/2000/svg">
<path fill-rule="evenodd" clip-rule="evenodd" d="M0.933333 11.9998C0.933333 18.1012 5.89875 23.0667 12.0001 23.0667C18.1015 23.0667 23.0667 18.1012 23.0667 11.9998C23.0667 5.89857 18.1015 0.933333 12.0001 0.933333C5.89871 0.933333 0.933333 5.89859 0.933333 11.9998ZM0 11.9998C0 18.6167 5.38327 24 12.0001 24C18.6169 24 24 18.6167 24 11.9998C24 5.3831 18.6169 0 12.0001 0C5.38327 0 0 5.3831 0 11.9998Z" fill="black"/>
<path d="M15.3673 12.6645C15.2458 12.6645 15.1243 12.6037 15.0636 12.6037C14.9421 12.543 14.8206 12.543 14.7599 12.4822C14.6991 12.4822 14.6991 12.4215 14.6384 12.3607V12.3C14.5776 12.1785 14.4561 12.1177 14.3346 12.1177C13.7879 12.057 13.3627 12.2392 12.9374 12.4822C12.5122 12.786 12.2085 13.2112 11.9655 13.8187C11.844 14.1224 11.601 14.4261 11.2973 14.5476C10.9935 14.6691 10.7505 14.6084 10.5683 14.4261C10.386 14.2439 10.2038 14.1224 10.0216 14.0616C9.83932 14.0009 9.59633 14.0009 9.41409 14.1224C9.11035 14.2439 8.68512 14.6084 8.32064 15.4588V15.5196C8.0169 15.6411 7.95615 15.9448 7.95615 16.3701C7.89541 16.9775 8.0169 17.4635 8.25989 17.8887C8.38139 18.1317 8.56363 18.314 8.74587 18.4355C8.80662 18.4962 8.92811 18.557 9.04961 18.6785C9.41409 18.9214 10.0216 19.2859 10.7505 19.4074C10.872 19.4074 11.0543 19.4074 11.1758 19.4074C12.1477 19.4074 13.1197 18.9822 14.0309 18.1317C14.7599 17.4635 15.3066 16.613 15.6711 15.6411C15.8533 15.1551 15.9748 14.7299 16.0356 14.3654C16.0963 13.8187 16.0356 13.3934 15.9141 13.0289C15.7926 12.8467 15.5496 12.7252 15.3673 12.6645ZM14.2131 12.786C14.2739 12.8467 14.3346 12.9074 14.3346 12.9074L14.3954 12.9682L14.4561 13.0289C14.5776 13.0289 14.6991 13.0897 14.7599 13.0897H14.8206C14.9421 13.0897 15.0029 13.0897 15.0636 13.1504C15.1243 13.1504 15.1851 13.2112 15.1851 13.2112C15.2458 13.2719 15.2458 13.3327 15.3066 13.3934C15.4281 13.6972 15.4888 14.0616 15.4281 14.4869C15.3673 14.8514 15.3066 15.2158 15.1243 15.6411C14.8206 16.4915 14.2739 17.2813 13.6664 17.8887C12.7552 18.7392 11.7832 19.1037 10.8113 18.9822C9.83932 18.8607 9.23185 18.314 9.04961 18.1317C9.04961 18.1317 8.74587 17.828 8.62438 17.6457C8.44213 17.2813 8.38139 16.9168 8.38139 16.4308C8.38139 16.0663 8.50288 15.8233 8.50288 15.7626C8.74587 15.2158 8.98886 14.8514 9.2926 14.7299C9.41409 14.6691 9.53559 14.6691 9.65708 14.7299C9.77858 14.7906 9.90007 14.8514 10.0216 14.9729C10.3253 15.2766 10.7505 15.3373 11.2365 15.1551C11.7225 14.9729 12.087 14.5476 12.2692 14.0616C12.4515 13.5757 12.6945 13.2112 12.9982 13.0289C13.3019 12.786 13.6057 12.7252 14.0309 12.7252C14.0916 12.6037 14.1524 12.7252 14.2131 12.786Z" fill="black"/>
<path d="M12.5122 14.3047C12.4514 14.3047 12.4514 14.3047 12.3907 14.3654C12.33 14.3654 12.33 14.4262 12.33 14.4869C12.2692 14.9729 12.0262 15.3981 11.5402 15.6411C11.4795 15.6411 11.4795 15.7019 11.4795 15.7019C11.4795 15.7626 11.4795 15.7626 11.4795 15.8234C11.5402 15.8841 11.5402 15.8841 11.601 15.8841H11.6617C12.2085 15.5804 12.5729 15.0944 12.5729 14.4869C12.5729 14.4262 12.5729 14.3654 12.5122 14.3654C12.5729 14.3047 12.5729 14.3047 12.5122 14.3047Z" fill="black"/>
<path d="M11.1757 15.7018C10.9935 15.7626 10.8113 15.7018 10.629 15.7018C10.5683 15.7018 10.5683 15.7018 10.5075 15.7018C10.4468 15.7018 10.4468 15.7626 10.4468 15.8233C10.4468 15.8841 10.5075 16.0056 10.5683 16.0056C10.6898 16.0663 10.872 16.0663 10.9935 16.0663C11.115 16.0663 11.1757 16.0663 11.2972 16.0663C11.358 16.0663 11.358 16.0663 11.4187 16.0056C11.4187 15.9448 11.4187 15.9448 11.4187 15.8841C11.4187 15.8233 11.4187 15.8233 11.358 15.8233C11.2365 15.7018 11.2365 15.7018 11.1757 15.7018Z" fill="black"/>
<path d="M7.95617 14.3046C7.89543 14.0617 8.07767 13.8187 8.32066 13.6972C8.6244 13.5149 8.98888 13.5149 9.29262 13.6364C9.90009 13.8187 10.4468 13.8794 10.9328 13.6972C11.4188 13.5757 11.844 13.2719 12.087 12.8467C12.2085 12.6645 12.1477 12.543 12.1477 12.4215V12.3607C12.1477 12.3 12.087 12.2392 12.1477 12.1785C12.1477 12.057 12.2085 11.9962 12.2692 11.8748C12.33 11.7533 12.33 11.6925 12.3907 11.571C12.4515 11.3888 12.5122 11.1458 12.3907 10.9028C12.2085 10.5383 11.9048 10.2346 11.4188 9.99159C11.0543 9.80934 10.6898 9.6271 10.2038 9.44486C9.23187 9.08038 8.19916 9.01963 7.16646 9.20187C5.76927 9.44486 4.79731 10.0523 4.18984 11.0243C3.82535 11.6925 3.70386 12.3607 3.70386 12.786C3.70386 12.9075 3.70386 13.0897 3.70386 13.1504V13.2112C3.70386 13.4542 3.7646 13.6364 3.82535 13.8794C4.06834 14.4261 4.43283 14.7906 4.91881 15.1551C5.28329 15.3981 5.64777 15.5196 5.64777 15.5196H5.70852C6.07301 15.6411 6.37674 15.6411 6.61973 15.6411C7.04496 15.6411 7.28795 15.5196 7.4702 15.4589C7.65244 15.3374 7.83468 15.2159 7.89543 14.9729C7.95617 14.7906 7.95617 14.5476 7.95617 14.3046ZM7.3487 14.3654C7.3487 14.5476 7.3487 14.6691 7.3487 14.7906C7.28795 14.9121 7.22721 14.9729 7.10571 15.0336C6.86272 15.1551 6.37674 15.1551 5.83002 15.0336C5.76927 15.0336 5.52628 14.9121 5.22254 14.7299C4.97955 14.5476 4.61507 14.2439 4.43283 13.7579C4.31133 13.5757 4.31133 13.3934 4.31133 13.1504V13.0897C4.31133 12.8467 4.25058 11.9962 4.73656 11.2065C5.22254 10.3561 6.13375 9.80934 7.3487 9.6271C8.19916 9.50561 9.17112 9.56635 10.0216 9.87009C10.3861 9.99159 10.7506 10.1738 11.0543 10.3561C11.4188 10.5991 11.7225 10.842 11.844 11.085C11.9048 11.1458 11.9048 11.2673 11.9048 11.328C11.9048 11.3888 11.9048 11.4495 11.9048 11.5103C11.9048 11.571 11.844 11.6318 11.7833 11.7533L11.7225 11.814C11.6618 11.8748 11.601 11.9962 11.5403 12.057C11.5403 12.1177 11.5403 12.1177 11.5403 12.1785V12.2392C11.5403 12.3 11.5403 12.3607 11.5403 12.4215C11.5403 12.4822 11.5403 12.543 11.5403 12.6037V12.6645C11.2973 12.9682 11.0543 13.2112 10.6898 13.3327C10.3253 13.4542 9.90009 13.3934 9.41411 13.2719C8.92813 13.0897 8.32066 13.1504 7.89543 13.3934C7.53094 13.5757 7.28795 13.9402 7.3487 14.3654Z" fill="black"/>
<path d="M7.77405 12.7252C8.26003 12.543 8.80676 12.6037 9.17125 12.8467H9.23199C9.23199 12.8467 9.23199 12.8467 9.29274 12.8467C9.35349 12.8467 9.35349 12.7859 9.41423 12.7859V12.7252C9.41423 12.6645 9.41423 12.6037 9.35349 12.6037C8.86751 12.3 8.26003 12.2392 7.65256 12.4822C7.59181 12.543 7.53107 12.6037 7.59181 12.6645C7.59181 12.7252 7.65256 12.7252 7.65256 12.7252C7.71331 12.7859 7.77405 12.7859 7.77405 12.7252Z" fill="black"/>
<path d="M7.34875 12.7252C7.288 12.7252 7.288 12.7252 7.22725 12.786C7.04501 12.9682 6.92351 13.1505 6.80202 13.3934C6.74127 13.4542 6.80202 13.5757 6.86277 13.5757H6.92351H6.98426C7.04501 13.5757 7.04501 13.5149 7.04501 13.5149C7.10576 13.3327 7.22725 13.1505 7.34875 13.029C7.40949 13.029 7.40949 12.9682 7.40949 12.9075C7.40949 12.8467 7.40949 12.8467 7.34875 12.786C7.40949 12.7252 7.40949 12.7252 7.34875 12.7252Z" fill="black"/>
<path d="M20.0449 10.2346C19.9842 9.8701 19.8627 9.38413 19.6804 8.95889C19.3159 7.98694 18.7085 7.13647 17.9188 6.529C16.8253 5.61779 15.7318 5.19256 14.5776 5.3748C13.7879 5.49629 13.2412 5.86078 12.8767 6.16451C12.7552 6.22526 12.6945 6.34676 12.6337 6.4075C12.4515 6.58975 12.33 6.77199 12.2085 7.01498V7.07573C12.0263 7.50096 11.9048 8.04768 11.9655 8.59441C12.0263 9.01964 12.1478 9.38413 12.1478 9.38413V9.44487C12.573 10.2953 12.9982 10.6598 13.302 10.7813C13.5449 10.8421 13.7272 10.8421 13.9094 10.7813C14.0917 10.7206 14.2739 10.5991 14.4562 10.4168C14.6384 10.2346 14.8814 10.1738 15.1851 10.2953C15.4889 10.4168 15.7318 10.6598 15.9141 11.0243C16.1571 11.6318 16.5216 12.057 16.886 12.3607C17.2505 12.6037 17.615 12.7252 18.0402 12.7252C18.101 12.7252 18.2225 12.7252 18.2832 12.7252C18.4655 12.7252 18.5262 12.6037 18.587 12.4822V12.4215C18.6477 12.3607 18.6477 12.3 18.7085 12.3C18.83 12.2393 18.8907 12.2393 19.0122 12.1785H19.073C19.1944 12.1178 19.2552 12.1178 19.3767 12.057C19.5589 11.9963 19.8019 11.8748 19.8627 11.6318C20.0449 11.2065 20.1057 10.7206 20.0449 10.2346ZM12.9982 6.77199C13.1805 6.58975 13.7879 6.04302 14.6991 5.92152C15.6711 5.73928 16.6431 6.10377 17.5543 6.89348C18.2225 7.50096 18.7692 8.22993 19.1337 9.08039C19.3159 9.50562 19.4374 9.8701 19.4982 10.1738C19.5589 10.5991 19.5589 10.9636 19.4374 11.2673C19.3767 11.3888 19.3767 11.4495 19.3159 11.4495C19.2552 11.5103 19.2552 11.5103 19.1944 11.5103C19.1337 11.5103 19.073 11.571 18.9515 11.571H18.8907C18.83 11.571 18.7085 11.6318 18.587 11.6318C18.5262 11.6318 18.5262 11.6318 18.5262 11.6925L18.4655 11.7533C18.4047 11.814 18.4047 11.814 18.344 11.8748C18.2832 11.9355 18.2832 11.9355 18.2225 11.9963C18.2225 11.9963 18.2225 11.9963 18.1617 12.057C17.7973 12.1178 17.4328 11.9963 17.129 11.814C16.8253 11.6318 16.5823 11.2673 16.4001 10.7813C16.2178 10.2953 15.7926 9.8701 15.3066 9.68786C15.1244 9.62712 14.9421 9.56637 14.8206 9.56637C14.5169 9.56637 14.2739 9.68786 14.0917 9.8701C13.9702 9.9916 13.8487 10.0523 13.7272 10.1131C13.6057 10.1738 13.4842 10.1738 13.3627 10.1131C13.059 9.9916 12.816 9.68786 12.5122 9.14114C12.4515 9.01964 12.3907 8.77665 12.3907 8.47291C12.33 7.98694 12.3907 7.5617 12.573 7.25797C12.6945 7.13647 12.816 7.01498 12.9375 6.83274L12.9982 6.77199Z" fill="black"/>
<path d="M16.3392 10.3561C16.3392 10.4168 16.3392 10.4168 16.4 10.4776C16.4 10.4776 16.4607 10.4776 16.5215 10.4776C16.5215 10.4776 16.5822 10.4776 16.5822 10.4168C16.643 10.3561 16.643 10.3561 16.643 10.2953C16.5822 9.74859 16.2177 9.20187 15.671 8.95888C15.6103 8.89813 15.4888 8.95888 15.4888 9.01963C15.4888 9.08037 15.4888 9.08037 15.4888 9.14112C15.4888 9.20187 15.5495 9.20187 15.5495 9.20187C15.9747 9.44486 16.2785 9.87009 16.3392 10.3561Z" fill="black"/>
<path d="M14.517 9.14113C14.517 9.14113 14.5777 9.14113 14.517 9.14113C14.7599 9.08038 14.9422 9.08038 15.1244 9.08038C15.1852 9.08038 15.1852 9.08038 15.2459 9.01963C15.2459 9.01963 15.3067 8.95889 15.3067 8.89814C15.3067 8.83739 15.3067 8.83739 15.3067 8.77664C15.3067 8.7159 15.2459 8.7159 15.1852 8.7159C14.9422 8.65515 14.6992 8.7159 14.4562 8.77664C14.3955 8.77664 14.3347 8.89814 14.3347 8.95889C14.3347 9.01963 14.3955 9.01963 14.3955 9.01963C14.4562 9.14113 14.517 9.14113 14.517 9.14113Z" fill="black"/>
</svg>
