<svg width="24" height="24" viewBox="0 0 24 24" fill="none" xmlns="http://www.w3.org/2000/svg">
<g clip-path="url(#clip0_32_487)">
<path fill-rule="evenodd" clip-rule="evenodd" d="M12.0016 0.866316C5.85204 0.866316 0.866386 5.85092 0.866095 12C0.865804 18.1491 5.85099 23.1337 12.0006 23.1337C18.1501 23.1337 23.1358 18.1491 23.1361 12C23.1364 5.85092 18.1512 0.866316 12.0016 0.866316ZM-0.000568096 12C-0.00025435 5.37269 5.37321 0 12.0017 0C18.6301 0 24.0031 5.37269 24.0028 12C24.0024 18.6273 18.629 24 12.0005 24C5.37208 24 -0.000881841 18.6273 -0.000568096 12Z" fill="black"/>
<path d="M16.3432 13.8367C15.6924 13.757 14.922 13.6972 14.0786 13.6573C15.5197 12.9399 17.3127 12.0299 17.7178 11.7575C18.6011 11.1597 18.8335 9.95737 18.2358 9.07389C17.8772 8.54248 17.2795 8.22363 16.6354 8.22363C16.6088 8.22363 16.5756 8.22363 16.549 8.22363C16.5092 7.57265 16.1439 6.95488 15.5264 6.62939C15.2474 6.48325 14.9353 6.40354 14.6232 6.40354C14.2712 6.40354 13.9326 6.50318 13.6404 6.67589C13.3017 6.1179 12.6841 5.74591 11.9868 5.74591C11.2895 5.74591 10.6719 6.1179 10.3332 6.67589C10.041 6.50318 9.70233 6.40354 9.35037 6.40354C9.03825 6.40354 8.72613 6.48325 8.44721 6.62939C7.82962 6.95488 7.46437 7.57265 7.42452 8.22363C7.39796 8.22363 7.36476 8.22363 7.33819 8.22363C6.69403 8.22363 6.09636 8.54248 5.73775 9.07389C5.14007 9.95737 5.37914 11.1597 6.26238 11.7575C6.66747 12.0299 8.46049 12.9399 9.90156 13.6573C9.06481 13.6972 8.29447 13.757 7.63703 13.8367C5.9901 14.0426 5.41235 14.315 5.41235 14.8796C5.41235 16.8724 8.30776 18.4268 12.0001 18.4268C15.6924 18.4268 18.5878 16.8658 18.5878 14.8796C18.5745 14.315 17.9901 14.0426 16.3432 13.8367ZM16.6154 9.2466C16.9276 9.2466 17.2131 9.40603 17.3924 9.67838C17.678 10.1301 17.5651 10.7412 17.1401 11.0468C16.7948 11.2925 15.108 12.196 13.6071 12.9931L16.217 9.34624C16.3432 9.27982 16.476 9.2466 16.6154 9.2466ZM14.6232 7.42651C14.7693 7.42651 14.9154 7.46636 15.0482 7.53943C15.4599 7.77857 15.6392 8.32327 15.4599 8.78826L12.9763 12.362L13.8794 7.83171C14.0521 7.58593 14.331 7.42651 14.6232 7.42651ZM11.9868 6.76888C12.4516 6.76888 12.8368 7.1608 12.8899 7.67893L11.9868 12.3687L11.0836 7.67893C11.1368 7.16744 11.5219 6.76888 11.9868 6.76888ZM8.95192 7.54608C9.09137 7.46636 9.24411 7.43315 9.39685 7.43315C9.70233 7.43315 9.99453 7.59258 10.1738 7.845L11.1235 12.3753L8.52026 8.7949C8.33432 8.32327 8.51362 7.78521 8.95192 7.54608ZM6.59442 9.67838C6.77372 9.40603 7.07256 9.2466 7.39132 9.2466C7.53742 9.2466 7.67688 9.27982 7.80305 9.3396L10.4992 12.9864C8.94528 12.1893 7.20538 11.2859 6.85341 11.0401C6.40847 10.7412 6.29558 10.1301 6.59442 9.67838ZM11.9868 14.2353C13.979 14.2353 15.4666 14.4412 16.4229 14.687C15.4599 14.9261 13.9724 15.1387 11.9868 15.1387C10.0012 15.1387 8.51362 14.9327 7.5507 14.687C8.51362 14.4412 10.0012 14.2353 11.9868 14.2353ZM16.051 16.4008C14.9752 17.0517 13.5275 17.4105 11.9868 17.4105C10.4461 17.4105 8.9984 17.0517 7.92259 16.4008C7.47101 16.1284 7.10576 15.8096 6.85341 15.4774C7.0792 15.5306 7.33819 15.5771 7.63039 15.6169C8.79918 15.7963 10.3465 15.8893 11.9868 15.8893C13.6271 15.8893 15.1744 15.7896 16.3432 15.6169C16.6354 15.5704 16.8944 15.5239 17.1202 15.4774C16.8678 15.8096 16.5092 16.1218 16.051 16.4008Z" fill="black"/>
</g>
<defs>
<clipPath id="clip0_32_487">
<rect width="24" height="24" fill="white"/>
</clipPath>
</defs>
</svg>
