<svg width="24" height="24" viewBox="0 0 24 24" fill="none" xmlns="http://www.w3.org/2000/svg">
<g clip-path="url(#clip0_32_495)">
<path fill-rule="evenodd" clip-rule="evenodd" d="M11.8132 0.863309C5.66261 0.863309 0.676541 5.84938 0.676541 12C0.676541 18.1506 5.66261 23.1367 11.8132 23.1367C17.9639 23.1367 22.9499 18.1506 22.9499 12C22.9499 5.84938 17.9639 0.863309 11.8132 0.863309ZM-0.186768 12C-0.186768 5.37258 5.18581 0 11.8132 0C18.4406 0 23.8132 5.37258 23.8132 12C23.8132 18.6274 18.4406 24 11.8132 24C5.18581 24 -0.186768 18.6274 -0.186768 12Z" fill="black"/>
<path d="M20.9385 10.5552C20.7659 10.4622 20.5534 10.522 20.4604 10.6947L18.8334 13.644C18.6342 13.4713 18.4084 13.3185 18.1693 13.2056L18.8998 10.7478C18.9529 10.5618 18.8467 10.3626 18.6607 10.3094C18.4748 10.2563 18.2756 10.3626 18.2224 10.5485L17.4986 12.9731C17.2861 12.9266 17.0603 12.9001 16.8279 12.9001H15.8782C16.0774 12.3354 16.1903 11.7309 16.1903 11.0932C16.1903 8.11733 13.7664 5.69275 10.7913 5.69275C7.81624 5.69275 5.39233 8.11733 5.39233 11.0932C5.39233 11.8173 5.53843 12.5148 5.79742 13.1458L4.33644 13.737C3.68563 14.0027 3.33367 14.6471 3.47313 15.3379C3.60594 16.0288 4.17042 16.4937 4.87434 16.4937H19.3447C19.6369 16.4937 19.8694 16.2546 19.8694 15.969V15.9424C19.8694 15.2914 19.6635 14.6936 19.3182 14.1954L21.0647 11.0335C21.171 10.8674 21.1046 10.6482 20.9385 10.5552ZM10.798 6.53637C13.3149 6.53637 15.3602 8.58231 15.3602 11.0999C15.3602 13.6175 13.3149 15.6634 10.798 15.6634C8.2811 15.6634 6.24236 13.6108 6.24236 11.0932C6.24236 8.57567 8.28774 6.53637 10.798 6.53637ZM4.88763 15.4442C4.60207 15.4442 4.53566 15.2117 4.51574 15.1386C4.50246 15.0656 4.47589 14.8264 4.74153 14.7201L6.30212 14.0825C6.65409 14.6072 7.09238 15.0656 7.59709 15.4442H4.88763ZM13.5539 15.5837C14.1516 15.1386 14.6629 14.5873 15.0614 13.9562H16.6552C17.6646 13.9562 18.5146 14.6471 18.7603 15.5837H13.5539Z" fill="black"/>
<path d="M10.7979 13.85C12.3187 13.85 13.5539 12.6144 13.5539 11.0933C13.5539 9.57209 12.3187 8.33655 10.7979 8.33655C9.27719 8.33655 8.04199 9.57209 8.04199 11.0933C8.04199 12.6144 9.28383 13.85 10.7979 13.85ZM10.7979 9.39273C11.7343 9.39273 12.498 10.1566 12.498 11.0933C12.498 12.0299 11.7343 12.7938 10.7979 12.7938C9.86158 12.7938 9.09789 12.0299 9.09789 11.0933C9.09789 10.1566 9.86158 9.39273 10.7979 9.39273Z" fill="black"/>
</g>
<defs>
<clipPath id="clip0_32_495">
<rect width="24" height="24" fill="white"/>
</clipPath>
</defs>
</svg>
