<svg width="24" height="24" viewBox="0 0 24 24" fill="none" xmlns="http://www.w3.org/2000/svg">
<path fill-rule="evenodd" clip-rule="evenodd" d="M0.933334 11.9998C0.933334 18.1012 5.89875 23.0667 12.0001 23.0667C18.1015 23.0667 23.0667 18.1013 23.0667 11.9998C23.0667 5.89857 18.1015 0.933334 12.0001 0.933334C5.89872 0.933334 0.933334 5.8986 0.933334 11.9998ZM0 11.9998C0 18.6167 5.38328 24 12.0001 24C18.617 24 24 18.6167 24 11.9998C24 5.3831 18.617 0 12.0001 0C5.38328 0 0 5.3831 0 11.9998Z" fill="black"/>
<path fill-rule="evenodd" clip-rule="evenodd" d="M11.9743 5.36526C11.0317 6.95888 8.23528 11.8956 8.23528 14.3654C8.23528 16.6282 9.91303 18.4694 11.9751 18.4694C14.0373 18.4694 15.7151 16.6282 15.7151 14.3654C15.7151 11.9245 12.9162 6.96474 11.9743 5.36526ZM11.9751 19.481C9.41564 19.481 7.33325 17.232 7.33325 14.4679C7.33325 11.1815 11.481 4.46022 11.6575 4.17566C11.7255 4.06656 11.8456 4 11.9751 4C11.9753 4 11.9753 4 11.9755 4C12.1054 4.00021 12.2257 4.06698 12.2935 4.1765C12.4698 4.46254 16.6171 11.2196 16.6171 14.4679C16.6171 17.232 14.5347 19.481 11.9751 19.481Z" fill="black"/>
<path fill-rule="evenodd" clip-rule="evenodd" d="M12.0723 17.6744C10.3781 17.6744 9 16.1914 9 14.3686C9 14.1649 9.16675 14 9.37269 14C9.57842 14 9.74538 14.1649 9.74538 14.3686C9.74538 15.7851 10.7891 16.9372 12.0723 16.9372C12.2782 16.9372 12.4449 17.1023 12.4449 17.3058C12.4449 17.5095 12.2782 17.6744 12.0723 17.6744Z" fill="black"/>
</svg>
