<svg width="24" height="24" viewBox="0 0 24 24" fill="none" xmlns="http://www.w3.org/2000/svg">
<path fill-rule="evenodd" clip-rule="evenodd" d="M4.05219 20.825L3.49194 20.265L20.2653 3.4917L20.8253 4.05196L4.05219 20.825Z" fill="black"/>
<path fill-rule="evenodd" clip-rule="evenodd" d="M20.2651 3.3031L21.0137 4.05196L4.14633 20.9193L4.05205 20.825L3.95779 20.9193L3.30322 20.265L20.2651 3.3031ZM4.05203 20.6365L20.6366 4.05192L20.2651 3.68026L3.68038 20.265L4.05203 20.6365Z" fill="black"/>
<path fill-rule="evenodd" clip-rule="evenodd" d="M0.933333 11.9998C0.933333 18.1012 5.89875 23.0667 12.0001 23.0667C18.1015 23.0667 23.0667 18.1012 23.0667 11.9998C23.0667 5.89857 18.1015 0.933333 12.0001 0.933333C5.89871 0.933333 0.933333 5.89859 0.933333 11.9998ZM0 11.9998C0 18.6167 5.38327 24 12.0001 24C18.6169 24 24 18.6167 24 11.9998C24 5.3831 18.6169 0 12.0001 0C5.38327 0 0 5.3831 0 11.9998Z" fill="black"/>
<path d="M16.5511 17.363C14.8903 17.363 13.0615 16.2947 11.8027 14.4418L12.2598 14.1312C13.8126 16.4166 16.2745 17.4119 17.9861 16.4456L18.258 16.927C17.7365 17.2179 17.1483 17.3682 16.5511 17.363Z" fill="black"/>
<path d="M11.1169 9.04409L10.5791 8.91559C10.6812 8.40178 10.8904 7.91524 11.193 7.48763C11.4956 7.06003 11.8849 6.70095 12.3355 6.43378L12.6074 6.91489C12.2236 7.14541 11.8925 7.45411 11.6357 7.82094C11.3789 8.18776 11.2021 8.6045 11.1169 9.04409Z" fill="black"/>
<path d="M18.1221 16.9626C18.0807 16.9624 18.04 16.9529 18.0027 16.935C17.9657 16.9173 14.2978 15.118 15.0274 11.6245C15.6652 8.55578 12.487 6.98838 12.3513 6.92316C12.3057 6.90132 12.267 6.86739 12.2393 6.82507C12.2117 6.78275 12.1962 6.73366 12.1945 6.68313C12.1928 6.63261 12.205 6.58259 12.2298 6.53853C12.2546 6.49446 12.2909 6.45803 12.335 6.43321C14.4603 5.23389 17.5191 6.61062 19.1531 9.50308C20.0941 11.1705 20.3994 13.085 19.9697 14.6248C19.8529 15.1034 19.6412 15.5538 19.3471 15.9492C19.053 16.3445 18.6826 16.6768 18.2578 16.9264C18.2164 16.95 18.1697 16.9624 18.1221 16.9626ZM13.0736 6.70568C14.0533 7.33657 16.1319 9.02694 15.5684 11.7381C14.9934 14.4913 17.4973 16.0363 18.1124 16.3701C18.7762 15.9276 19.2496 15.252 19.4389 14.4769C19.8299 13.0753 19.5436 11.3178 18.6731 9.77527C17.3077 7.36089 14.8986 6.08032 13.0736 6.70568Z" fill="black"/>
<path d="M18.4643 15.0061C18.4178 15.0061 18.3721 14.9943 18.3314 14.9719C18.2907 14.9495 18.2563 14.9173 18.2314 14.8781C18.2065 14.8389 18.1918 14.794 18.1888 14.7477C18.1858 14.7013 18.1945 14.655 18.2142 14.6129C18.2788 14.4734 18.3318 14.3288 18.3728 14.1807C18.5648 13.4043 18.5482 12.5909 18.3247 11.8229C18.306 11.7521 18.3162 11.6767 18.353 11.6133C18.3899 11.55 18.4505 11.5038 18.5213 11.4851C18.5922 11.4664 18.6676 11.4766 18.731 11.5135C18.7943 11.5503 18.8404 11.6109 18.8591 11.6817C19.1078 12.5447 19.1237 13.458 18.9053 14.3291C18.8562 14.5065 18.7925 14.6797 18.7149 14.8467C18.6926 14.8943 18.6572 14.9347 18.6128 14.9629C18.5684 14.9912 18.5169 15.0062 18.4643 15.0061Z" fill="black"/>
<path d="M4.69802 16.8678C3.19169 15.3582 3.6308 12.4657 5.67571 10.4189C7.72063 8.37202 10.6142 7.9343 12.1238 9.44036L11.7331 9.83165C10.4398 8.53976 7.89804 8.97997 6.06729 10.8105C4.23653 12.6409 3.79798 15.1833 5.08932 16.4771L4.69802 16.8678Z" fill="black"/>
<path d="M7.03897 17.7637C6.60891 17.7773 6.18044 17.7051 5.77858 17.5513C5.37672 17.3976 5.0095 17.1653 4.69837 16.8681C4.667 16.8366 4.64366 16.798 4.63029 16.7556C4.61692 16.7132 4.61392 16.6682 4.62155 16.6244C4.6279 16.589 5.28117 13.0872 8.39303 12.8788C11.078 12.6992 11.6519 9.61996 11.6572 9.58873C11.6659 9.5389 11.6882 9.49242 11.7216 9.45438C11.7549 9.41633 11.7981 9.38818 11.8463 9.37298C11.8946 9.35779 11.9461 9.35614 11.9953 9.36821C12.0444 9.38028 12.0893 9.40561 12.125 9.44144C13.6313 10.9511 13.1922 13.8435 11.1473 15.8904C9.92119 17.1149 8.39276 17.7637 7.03897 17.7637ZM5.19744 16.5785C6.52055 17.7427 8.97445 17.2796 10.7557 15.4988C12.4138 13.8408 12.9294 11.6024 12.0545 10.2323C11.7293 11.2338 10.7834 13.2721 8.42979 13.4304C6.0762 13.5888 5.34721 15.9672 5.19744 16.5785Z" fill="black"/>
</svg>
