<svg width="24" height="24" viewBox="0 0 24 24" fill="none" xmlns="http://www.w3.org/2000/svg">
<path fill-rule="evenodd" clip-rule="evenodd" d="M0.933334 11.9998C0.933334 18.1012 5.89875 23.0667 12.0001 23.0667C18.1015 23.0667 23.0667 18.1013 23.0667 11.9998C23.0667 5.89857 18.1015 0.933334 12.0001 0.933334C5.89872 0.933334 0.933334 5.8986 0.933334 11.9998ZM0 11.9998C0 18.6167 5.38328 24 12.0001 24C18.617 24 24 18.6167 24 11.9998C24 5.3831 18.617 0 12.0001 0C5.38328 0 0 5.3831 0 11.9998Z" fill="black"/>
<path d="M14.4968 13.9302V6.45542C14.4968 5.66883 14.1264 4.96863 13.5495 4.51963C13.1345 4.1944 12.6106 4 12.0414 4C11.472 4 10.9482 4.1944 10.5321 4.51963C9.95639 4.96908 9.58598 5.66883 9.58598 6.45542V13.867C8.62252 14.5972 8 15.7543 8 17.0551C8 19.2652 9.79112 21.0557 12.0002 21.0557C14.2088 21.0557 16 19.2651 16 17.0551C16.0006 15.7914 15.4138 14.6636 14.4967 13.9302H14.4968ZM12.0386 20.0914C10.368 20.0914 9.0141 18.7378 9.0141 17.0678C9.0141 16.4072 9.22601 15.7955 9.58614 15.2986C9.8369 14.9511 10.1593 14.6602 10.5322 14.4459V6.28468C10.63 5.54123 11.2652 4.96757 12.0349 4.96757C12.8718 4.96757 13.5494 5.6463 13.5494 6.48348V14.4496C13.9237 14.6659 14.2465 14.9595 14.4967 15.308C14.8524 15.8041 15.0624 16.4111 15.0624 17.068C15.0625 18.7377 13.7074 20.0914 12.0386 20.0914L12.0386 20.0914Z" fill="black"/>
<path d="M14.0123 17.0629C14.0123 18.156 13.126 19.0418 12.0334 19.0418C10.9403 19.0418 10.054 18.156 10.054 17.0629C10.054 16.1326 10.6962 15.3532 11.5609 15.1413V13.5236H12.5064V15.1413C13.3707 15.3535 14.0124 16.1325 14.0124 17.0629H14.0123Z" fill="black"/>
</svg>
