<svg width="24" height="24" viewBox="0 0 24 24" fill="none" xmlns="http://www.w3.org/2000/svg">
<path fill-rule="evenodd" clip-rule="evenodd" d="M0.933333 11.9998C0.933333 18.1012 5.89875 23.0667 12.0001 23.0667C18.1015 23.0667 23.0667 18.1012 23.0667 11.9998C23.0667 5.89857 18.1015 0.933333 12.0001 0.933333C5.89871 0.933333 0.933333 5.89859 0.933333 11.9998ZM0 11.9998C0 18.6167 5.38327 24 12.0001 24C18.6169 24 24 18.6167 24 11.9998C24 5.3831 18.6169 0 12.0001 0C5.38327 0 0 5.3831 0 11.9998Z" fill="black"/>
<path fill-rule="evenodd" clip-rule="evenodd" d="M8.89988 17.9175C8.46047 17.6499 8.39938 17.1169 8.47581 16.6086C8.56018 16.0478 8.76595 15.5245 9.07111 15.0572C9.33318 14.6559 9.31492 14.2973 9.15809 13.8587C8.75155 12.7216 8.39442 11.5664 8.02498 10.4159C7.93983 10.1507 7.86204 9.87928 7.81967 9.60456C7.7027 8.84576 8.1155 8.32651 8.87671 8.28633C9.37247 8.26018 9.87058 8.26859 10.3674 8.2777C10.5856 8.28172 10.7052 8.24403 10.7015 7.97906C10.6964 7.6055 10.6257 7.23545 10.9938 6.91325C11.1219 6.80122 10.9749 6.34979 10.9331 6.05639C10.7248 4.59347 10.7476 4.8164 11.9882 4.80719C12.43 4.80396 12.8721 4.81683 13.3135 4.80365C13.6813 4.79263 13.814 4.95966 13.7643 5.31845C13.7054 5.74335 13.7067 6.10118 13.5968 6.59375C13.487 7.08631 13.7645 7.08631 13.9044 7.08631C14.1131 7.08631 14.478 7.18028 14.284 7.59868C13.4098 9.48354 13.8985 11.3123 14.6056 13.1084C14.9107 13.8833 15.3294 14.6125 15.7014 15.3599C15.9184 15.7958 16.0878 16.2471 16.1376 16.735C16.1788 17.1393 16.0708 17.6995 15.7827 17.9922C15.2694 18.5136 14.9509 18.7911 14.41 19.1569C12.9736 19.1569 11.5373 19.1569 10.101 19.1569C9.67445 18.7732 9.42282 18.2359 8.89988 17.9175ZM9.7474 13.7049C9.29777 12.2825 8.88309 11.0317 8.51062 9.7681C8.31236 9.09538 8.45568 8.93904 9.15293 8.913C9.26302 8.90892 9.37342 8.91194 9.48372 8.91178C10.7351 8.90998 10.7272 8.90982 10.6977 10.1612C10.6693 11.3698 10.3091 12.4793 9.7474 13.7049ZM13.6234 7.6252C13.1012 8.83851 13.2496 10.0614 13.395 11.2807C13.4242 11.5258 13.336 11.5643 13.1321 11.5613C12.5799 11.5531 12.0274 11.5516 11.4753 11.5619C11.2618 11.5658 11.1692 11.5066 11.2145 11.2752C11.4244 10.2014 11.2952 9.11476 11.3164 8.03417C11.3223 7.72981 11.3844 7.60498 11.7105 7.618C12.333 7.64288 12.9572 7.6252 13.6234 7.6252ZM13.0708 5.33788C13.093 6.46473 12.981 7.00124 12.2866 7.0005C11.6428 6.99981 11.4876 6.3868 11.5345 5.33788M12.3123 17.7422C11.5959 17.7423 10.8794 17.7476 10.163 17.741C9.2614 17.7327 8.90422 17.229 9.17036 16.3515C9.32787 15.8322 9.60319 15.3691 9.85186 14.8937C10.247 14.1382 10.6382 13.3798 10.8754 12.5553C10.9566 12.2731 11.0965 12.1877 11.3809 12.1984C12.0046 12.2218 12.6299 12.2129 13.2542 12.2018C13.4753 12.1978 13.6244 12.2273 13.6981 12.4822C14.0202 13.5963 14.6113 14.5866 15.1207 15.615C15.2678 15.9119 15.4001 16.2255 15.4779 16.5468C15.6497 17.2565 15.2991 17.717 14.5716 17.7374C13.8191 17.7587 13.0654 17.7422 12.3123 17.7422ZM14.2262 18.6255C12.9373 18.6255 11.6622 18.6313 10.3733 18.6313C10.3732 18.6075 10.3731 18.4288 10.373 18.405C11.6571 18.405 12.9413 18.405 14.2255 18.405L14.2262 18.6255Z" fill="black"/>
<path fill-rule="evenodd" clip-rule="evenodd" d="M9.7114 17.6114C9.40619 17.5388 9.31714 17.3113 9.43146 17.0524C9.97048 15.8313 10.5299 14.6195 11.0856 13.406C11.1811 13.1974 11.3427 13.0657 11.5723 13.1738C11.8125 13.287 11.7865 13.5208 11.7015 13.712C11.1679 14.913 10.6216 16.1083 10.0777 17.3047C10.0068 17.4607 9.89853 17.579 9.7114 17.6114Z" fill="black"/>
</svg>
