<svg width="24" height="24" viewBox="0 0 24 24" fill="none" xmlns="http://www.w3.org/2000/svg">
<path fill-rule="evenodd" clip-rule="evenodd" d="M0.933334 11.9998C0.933334 18.1012 5.89875 23.0667 12.0001 23.0667C18.1015 23.0667 23.0667 18.1013 23.0667 11.9998C23.0667 5.89857 18.1015 0.933334 12.0001 0.933334C5.89872 0.933334 0.933334 5.8986 0.933334 11.9998ZM0 11.9998C0 18.6167 5.38328 24 12.0001 24C18.617 24 24 18.6167 24 11.9998C24 5.3831 18.617 0 12.0001 0C5.38328 0 0 5.3831 0 11.9998Z" fill="black"/>
<g clip-path="url(#clip0_246_55)">
<path d="M12.0249 12.1533C12.0232 12.2935 12.1355 12.4086 12.2757 12.4103C12.2768 12.4103 12.2778 12.4103 12.2789 12.4103C12.4176 12.4103 12.531 12.2987 12.5327 12.1595C12.5444 11.2 12.166 10.3679 11.3417 9.54097C11.2427 9.44164 11.0819 9.44139 10.9826 9.54041C10.8833 9.63937 10.883 9.80014 10.982 9.89946C11.7134 10.6332 12.035 11.3283 12.0249 12.1533Z" fill="black"/>
<path d="M16.9813 9.22041C16.4688 8.86714 15.7896 8.78001 14.9625 8.96141C14.3461 9.09658 13.6514 9.38506 12.9409 9.79898C12.9075 9.74591 12.8732 9.69336 12.8374 9.64159C12.2077 8.72864 10.9459 7.66072 9.69757 6.98425C8.14283 6.14164 6.8292 5.99268 5.99849 6.5647C5.16831 7.13699 4.83975 8.41747 5.07336 10.1703C5.26091 11.5774 5.80929 13.1369 6.4379 14.0506C7.0889 14.9973 8.08799 15.6556 9.17904 15.8569C9.22779 15.8659 9.27654 15.8737 9.32523 15.8809C9.55315 16.8008 10.0906 17.5889 10.8529 18.1146C11.4876 18.5518 12.2269 18.7774 12.9954 18.7774C13.2869 18.7774 13.5828 18.745 13.8786 18.6793C14.9477 18.4418 15.8897 17.7976 16.5311 16.8654C17.1733 15.9317 17.7334 14.3384 17.9251 12.9007C18.1636 11.1109 17.8284 9.80382 16.9813 9.22041ZM9.27118 15.3576C8.31167 15.1805 7.43151 14.5993 6.85629 13.7629C6.26886 12.909 5.75465 11.4383 5.5767 10.1032C5.48865 9.44249 5.48697 8.85541 5.56593 8.36482C5.63017 8.84848 5.76163 9.35888 5.9061 9.81908C6.29407 11.0579 6.93309 12.4226 7.53408 13.2957C7.58331 13.3672 7.6627 13.4057 7.74344 13.4057C7.79307 13.4057 7.84322 13.3912 7.88717 13.3609C8.00266 13.2814 8.03186 13.1233 7.95234 13.0078C7.38657 12.1858 6.75897 10.8434 6.3906 9.66718C5.97409 8.34029 5.91747 7.3464 6.23347 7.02823C6.36112 7.09256 6.79507 7.3834 7.91619 8.67817C8.69733 9.5803 9.56605 10.6912 10.1294 11.5082C10.1786 11.5796 10.2579 11.618 10.3386 11.618C10.3883 11.618 10.4385 11.6034 10.4825 11.573C10.5979 11.4934 10.627 11.3354 10.5474 11.2199C9.93282 10.3286 8.96496 9.09938 8.13905 8.16132C7.67387 7.633 7.28001 7.22461 6.96833 6.94749C6.89922 6.88605 6.8326 6.82933 6.76829 6.77825C6.90486 6.74742 7.05252 6.73201 7.21021 6.73201C7.82961 6.73201 8.60253 6.96836 9.45561 7.43067C10.6399 8.07248 11.831 9.07683 12.4195 9.92996C12.996 10.7649 13.2255 11.7941 13.0492 12.7537C12.89 13.6204 12.4191 14.3635 11.7227 14.8477C11.6443 14.8492 11.3496 14.7346 10.7812 14.1796C10.2681 13.6785 9.68769 12.97 9.14698 12.1845C8.83637 11.7332 8.4636 11.1457 8.09736 10.5303C8.02566 10.4098 7.86982 10.3703 7.74933 10.442C7.62883 10.5137 7.58927 10.6695 7.661 10.79C8.03277 11.4147 8.41193 12.0122 8.72869 12.4724C9.48051 13.5646 10.452 14.704 11.1718 15.1541C10.7723 15.3265 10.3394 15.4152 9.89497 15.4151C9.68886 15.4151 9.48008 15.3961 9.27118 15.3576ZM17.4217 12.8336C17.2397 14.1992 16.7137 15.7039 16.1127 16.5777C15.5444 17.4036 14.7119 17.974 13.7684 18.1836C12.8321 18.3916 11.899 18.2186 11.141 17.6965C10.5273 17.2732 10.0815 16.6514 9.86298 15.9227C9.874 15.9228 9.88504 15.9231 9.89603 15.9231C10.0828 15.9231 10.2679 15.9094 10.4501 15.8825C10.6401 16.4325 10.9883 16.8927 11.4675 17.2228C11.9221 17.5361 12.4386 17.6962 12.9839 17.6962C13.159 17.6962 13.3371 17.6797 13.5169 17.6464C14.3638 17.4899 15.1372 16.9815 15.6386 16.2516C15.8702 15.9154 16.0867 15.4866 16.2819 14.9772C16.3321 14.8462 16.2666 14.6994 16.1357 14.6492C16.0048 14.5991 15.8579 14.6645 15.8078 14.7954C15.6269 15.2674 15.4293 15.6605 15.2202 15.9639C14.8007 16.5745 14.1295 17.0169 13.4247 17.1471C12.82 17.2588 12.2428 17.1404 11.7556 16.8046C11.3837 16.5485 11.1091 16.1947 10.9506 15.7724C11.3221 15.6636 11.6758 15.497 11.9997 15.2738L11.9996 15.2738C12.814 14.7128 13.3642 13.8504 13.5488 12.8454C13.6424 12.3358 13.6356 11.8094 13.5354 11.2969C14.108 10.9401 14.6447 10.6914 15.1329 10.5573C15.6068 10.4266 15.9062 10.4198 16.075 10.5361C16.2438 10.6524 16.3442 10.9343 16.3909 11.4234C16.4253 11.7836 16.413 12.1971 16.3544 12.6522C16.3365 12.7913 16.4347 12.9186 16.5738 12.9365C16.5848 12.9379 16.5958 12.9386 16.6066 12.9386C16.7324 12.9386 16.8416 12.8451 16.8581 12.7171C16.9215 12.2245 16.9344 11.7729 16.8964 11.3751C16.8334 10.7163 16.6689 10.3286 16.3631 10.1179C16.0572 9.90723 15.6361 9.89177 14.9982 10.0677C14.5025 10.2038 13.9668 10.4443 13.4022 10.7832C13.3425 10.5996 13.2702 10.4193 13.1861 10.2437C14.6759 9.37244 15.9767 9.14459 16.6933 9.63852C17.3651 10.1013 17.6306 11.2659 17.4217 12.8336Z" fill="black"/>
<path d="M16.3896 13.5435C16.2494 13.5435 16.1357 13.6579 16.1357 13.7981C16.1357 13.9383 16.2494 14.052 16.3896 14.052C16.5299 14.052 16.6435 13.9383 16.6435 13.7981V13.7966C16.6435 13.6564 16.5299 13.5435 16.3896 13.5435Z" fill="black"/>
</g>
<defs>
<clipPath id="clip0_246_55">
<rect width="13" height="13" fill="white" transform="translate(5 6)"/>
</clipPath>
</defs>
</svg>
