<svg width="24" height="24" viewBox="0 0 24 24" fill="none" xmlns="http://www.w3.org/2000/svg">
<path fill-rule="evenodd" clip-rule="evenodd" d="M0.933333 11.9998C0.933333 18.1012 5.89875 23.0667 12.0001 23.0667C18.1015 23.0667 23.0667 18.1012 23.0667 11.9998C23.0667 5.89857 18.1015 0.933333 12.0001 0.933333C5.89871 0.933333 0.933333 5.89859 0.933333 11.9998ZM0 11.9998C0 18.6167 5.38327 24 12.0001 24C18.6169 24 24 18.6167 24 11.9998C24 5.3831 18.6169 0 12.0001 0C5.38327 0 0 5.3831 0 11.9998Z" fill="black"/>
<path fill-rule="evenodd" clip-rule="evenodd" d="M20.4367 3.66332L3.66338 20.4366L3.00342 19.7767L19.7767 3.00336L20.4367 3.66332Z" fill="black"/>
<path fill-rule="evenodd" clip-rule="evenodd" d="M9.49343 14.2609C9.46698 14.2609 9.44053 14.2579 9.41448 14.2519L5.62594 13.3853C5.48448 13.3527 5.37789 13.2374 5.35765 13.0953L4.67019 8.2658C4.64995 8.1235 4.72028 7.98339 4.84711 7.91353L8.24694 6.04345C8.32288 6.00177 8.41164 5.98967 8.4962 6.00892L12.2847 6.87579C12.426 6.90814 12.5328 7.02344 12.553 7.16574L13.1283 11.2084L12.4338 11.3052L11.8922 7.49875L8.46955 6.71563L5.39832 8.40512L6.01826 12.7621L9.44093 13.545L11.207 12.5734L11.5476 13.1807L9.66354 14.2172C9.61124 14.2458 9.55253 14.2609 9.49343 14.2609Z" fill="black"/>
<path fill-rule="evenodd" clip-rule="evenodd" d="M8.34798 9.68654L4.83035 8.86375L4.83008 8.20288L8.75429 9.06616C8.901 9.09837 9.01139 9.2132 9.03235 9.35491L9.74369 14.1642L9.02446 14.0956L8.34798 9.68654Z" fill="black"/>
<path fill-rule="evenodd" clip-rule="evenodd" d="M8.97515 9.85506L8.61548 9.17978L12.2047 7.10144L12.5642 7.7765L8.97515 9.85506Z" fill="black"/>
<path fill-rule="evenodd" clip-rule="evenodd" d="M11.0711 16.0989L14.1466 17.9486L17.7105 17.327L18.5705 12.9738L15.4948 11.1239L11.9311 11.7453L11.0711 16.0989ZM14.0739 18.6667C14.0069 18.6667 13.9409 18.6487 13.8832 18.6139L10.4785 16.5663C10.3515 16.49 10.2862 16.3456 10.3143 16.2033L11.2677 11.3778C11.2958 11.2357 11.4114 11.1249 11.5587 11.0991L15.5035 10.4114C15.5917 10.396 15.6824 10.4126 15.7584 10.4586L19.1629 12.5064C19.2897 12.5827 19.3552 12.7271 19.3271 12.8692L18.3739 17.6943C18.346 17.8366 18.2304 17.9474 18.0831 17.9732L14.1379 18.6611C14.1166 18.6649 14.0953 18.6667 14.0739 18.6667Z" fill="black"/>
<path fill-rule="evenodd" clip-rule="evenodd" d="M13.7183 18.4794L14.623 13.9955L11.436 12.0953L11.8166 11.5073L15.2144 13.5331C15.3412 13.6084 15.4064 13.7513 15.3783 13.8921L14.427 18.5565" fill="black"/>
<path fill-rule="evenodd" clip-rule="evenodd" d="M14.5386 13.4899L18.6452 12.6087L18.7693 13.1599L14.9448 14.0406L14.5386 13.4899Z" fill="black"/>
</svg>
