<svg width="24" height="24" viewBox="0 0 24 24" fill="none" xmlns="http://www.w3.org/2000/svg">
<path fill-rule="evenodd" clip-rule="evenodd" d="M0.933334 11.9998C0.933334 18.1012 5.89875 23.0667 12.0001 23.0667C18.1015 23.0667 23.0667 18.1013 23.0667 11.9998C23.0667 5.89857 18.1015 0.933334 12.0001 0.933334C5.89872 0.933334 0.933334 5.8986 0.933334 11.9998ZM0 11.9998C0 18.6167 5.38328 24 12.0001 24C18.617 24 24 18.6167 24 11.9998C24 5.3831 18.617 0 12.0001 0C5.38328 0 0 5.3831 0 11.9998Z" fill="black"/>
<path fill-rule="evenodd" clip-rule="evenodd" d="M9.2439 8.21215C9.2439 6.40695 10.7252 4.95203 12.5419 4.95203C14.3586 4.95203 15.8399 6.40695 15.8399 8.21215C15.8399 10.0173 14.3586 11.4723 12.5419 11.4723C10.7252 11.4723 9.2439 10.0173 9.2439 8.21215ZM12.5419 5.71469C11.137 5.71469 10.0066 6.83753 10.0066 8.21215C10.0066 9.58677 11.137 10.7096 12.5419 10.7096C13.9468 10.7096 15.0772 9.58677 15.0772 8.21215C15.0772 6.83753 13.9468 5.71469 12.5419 5.71469Z" fill="black"/>
<path fill-rule="evenodd" clip-rule="evenodd" d="M11.6359 7.58683C11.636 7.58675 11.6361 7.58667 11.4055 7.40531C11.175 7.22396 11.175 7.22387 11.1751 7.22378L11.1753 7.22358L11.1756 7.22315L11.1764 7.22212L11.1786 7.21937L11.1853 7.21127C11.1906 7.20475 11.198 7.19603 11.2073 7.1854C11.2259 7.16417 11.2522 7.13524 11.2861 7.10109C11.3535 7.03299 11.4519 6.94294 11.5786 6.85157C11.8305 6.66986 12.2066 6.47446 12.6808 6.45114L12.7096 7.03709C12.3832 7.05314 12.1145 7.18834 11.9218 7.32738C11.8261 7.3964 11.7521 7.46426 11.7028 7.51399C11.6783 7.53875 11.6602 7.5587 11.6489 7.57163C11.6433 7.57809 11.6393 7.58276 11.6372 7.58537L11.6353 7.58768C11.6352 7.5878 11.6352 7.58777 11.6353 7.58761L11.6356 7.58725L11.6358 7.58699L11.6359 7.58683Z" fill="black"/>
<path fill-rule="evenodd" clip-rule="evenodd" d="M4.4021 14.2001C4.4021 12.3949 5.88338 10.9399 7.7001 10.9399C9.51682 10.9399 10.9981 12.3949 10.9981 14.2001C10.9981 16.0053 9.51682 17.4602 7.7001 17.4602C5.88338 17.4602 4.4021 16.0053 4.4021 14.2001ZM7.7001 11.7026C6.29516 11.7026 5.16477 12.8254 5.16477 14.2001C5.16477 15.5747 6.29516 16.6975 7.7001 16.6975C9.10504 16.6975 10.2354 15.5747 10.2354 14.2001C10.2354 12.8254 9.10504 11.7026 7.7001 11.7026Z" fill="black"/>
<path fill-rule="evenodd" clip-rule="evenodd" d="M7.57031 12.7358C7.57035 12.7358 7.5704 12.7358 7.70022 12.4728C7.83003 12.2097 7.83009 12.2097 7.83015 12.2098L7.8317 12.2106L7.83505 12.2122L7.84658 12.2181C7.85633 12.223 7.87015 12.2302 7.88746 12.2393C7.92204 12.2576 7.97074 12.284 8.02887 12.3175C8.14453 12.3841 8.3005 12.4802 8.45808 12.5969C8.61392 12.7122 8.78135 12.855 8.91247 13.0168C9.04014 13.1743 9.16022 13.3829 9.16022 13.6243H8.57355C8.57355 13.5778 8.54779 13.4985 8.45671 13.3862C8.36908 13.2781 8.24485 13.1689 8.10902 13.0684C7.97493 12.9691 7.83924 12.8853 7.73614 12.8259C7.6849 12.7964 7.64245 12.7734 7.61323 12.7579C7.59864 12.7502 7.58739 12.7444 7.58006 12.7407L7.57207 12.7366L7.57031 12.7358Z" fill="black"/>
<path fill-rule="evenodd" clip-rule="evenodd" d="M12.2188 15.1213C12.2188 13.3161 13.7 11.8611 15.5168 11.8611C17.3335 11.8611 18.8148 13.3161 18.8148 15.1213C18.8148 16.9265 17.3335 18.3814 15.5168 18.3814C13.7 18.3814 12.2188 16.9265 12.2188 15.1213ZM15.5168 12.6238C14.1118 12.6238 12.9814 13.7466 12.9814 15.1213C12.9814 16.4959 14.1118 17.6187 15.5168 17.6187C16.9217 17.6187 18.0521 16.4959 18.0521 15.1213C18.0521 13.7466 16.9217 12.6238 15.5168 12.6238Z" fill="black"/>
<path fill-rule="evenodd" clip-rule="evenodd" d="M14.3507 14.828C14.3505 14.828 14.3502 14.828 14.3502 15.1213C14.3502 15.4146 14.3499 15.4146 14.3496 15.4146L14.349 15.4146L14.3478 15.4146L14.3451 15.4146L14.339 15.4144C14.3346 15.4143 14.3295 15.4141 14.3238 15.4137C14.3125 15.4129 14.2984 15.4115 14.2822 15.4091C14.2502 15.4042 14.2077 15.3948 14.1604 15.3761C14.0631 15.3377 13.9453 15.259 13.8697 15.1099C13.7964 14.9651 13.7807 14.7887 13.8148 14.5867C13.8488 14.3853 13.935 14.1402 14.0885 13.8372L14.6118 14.1023C14.4737 14.3751 14.414 14.5618 14.3933 14.6843C14.3831 14.7446 14.3831 14.7853 14.3857 14.8106C14.3881 14.8351 14.393 14.8445 14.3931 14.8448L14.3931 14.8448C14.3931 14.8448 14.3931 14.8448 14.3931 14.8448C14.3931 14.8448 14.3926 14.8438 14.3913 14.8422C14.3898 14.8404 14.388 14.8384 14.3858 14.8366C14.3815 14.833 14.3778 14.8312 14.3759 14.8305C14.3742 14.8298 14.3726 14.8294 14.3703 14.829C14.3689 14.8288 14.3668 14.8286 14.3637 14.8284L14.358 14.8281L14.3544 14.828L14.3524 14.828L14.3513 14.828L14.3507 14.828Z" fill="black"/>
</svg>
