<svg width="24" height="24" viewBox="0 0 24 24" fill="none" xmlns="http://www.w3.org/2000/svg">
<path fill-rule="evenodd" clip-rule="evenodd" d="M0.933334 11.9998C0.933334 18.1012 5.89875 23.0667 12.0001 23.0667C18.1015 23.0667 23.0667 18.1013 23.0667 11.9998C23.0667 5.89857 18.1015 0.933334 12.0001 0.933334C5.89872 0.933334 0.933334 5.8986 0.933334 11.9998ZM0 11.9998C0 18.6167 5.38328 24 12.0001 24C18.617 24 24 18.6167 24 11.9998C24 5.3831 18.617 0 12.0001 0C5.38328 0 0 5.3831 0 11.9998Z" fill="black"/>
<path fill-rule="evenodd" clip-rule="evenodd" d="M20.4366 3.66332L16 8.09992L14.78 8L19.7767 3.00336L20.4366 3.66332Z" fill="black"/>
<path fill-rule="evenodd" clip-rule="evenodd" d="M9.5 14.6L3.66338 20.4366L3.00342 19.7766L8.28007 14.5L9.5 14.6Z" fill="black"/>
<g clip-path="url(#clip0_246_210)">
<path d="M12.0249 11.1533C12.0232 11.2935 12.1355 11.4086 12.2757 11.4103C12.2768 11.4103 12.2778 11.4103 12.2789 11.4103C12.4176 11.4103 12.531 11.2987 12.5327 11.1595C12.5444 10.2 12.166 9.36792 11.3417 8.54097C11.2427 8.44164 11.0819 8.44139 10.9826 8.54041C10.8833 8.63937 10.883 8.80014 10.982 8.89946C11.7134 9.63316 12.035 10.3283 12.0249 11.1533Z" fill="black"/>
<path d="M16.9813 8.22041C16.4688 7.86714 15.7896 7.78001 14.9625 7.96141C14.3461 8.09658 13.6514 8.38506 12.9409 8.79898C12.9075 8.74591 12.8732 8.69336 12.8374 8.64159C12.2077 7.72864 10.9459 6.66072 9.69757 5.98425C8.14283 5.14164 6.8292 4.99268 5.99849 5.5647C5.16831 6.13699 4.83975 7.41747 5.07336 9.17029C5.26091 10.5774 5.80929 12.1369 6.4379 13.0506C7.0889 13.9973 8.08799 14.6556 9.17904 14.8569C9.22779 14.8659 9.27654 14.8737 9.32523 14.8809C9.55315 15.8008 10.0906 16.5889 10.8529 17.1146C11.4876 17.5518 12.2269 17.7774 12.9954 17.7774C13.2869 17.7774 13.5828 17.745 13.8786 17.6793C14.9477 17.4418 15.8897 16.7976 16.5311 15.8654C17.1733 14.9317 17.7334 13.3384 17.9251 11.9007C18.1636 10.1109 17.8284 8.80382 16.9813 8.22041ZM9.27118 14.3576C8.31167 14.1805 7.43151 13.5993 6.85629 12.7629C6.26886 11.909 5.75465 10.4383 5.5767 9.10319C5.48865 8.44249 5.48697 7.85541 5.56593 7.36482C5.63017 7.84848 5.76163 8.35888 5.9061 8.81908C6.29407 10.0579 6.93309 11.4226 7.53408 12.2957C7.58331 12.3672 7.6627 12.4057 7.74344 12.4057C7.79307 12.4057 7.84322 12.3912 7.88717 12.3609C8.00266 12.2814 8.03186 12.1233 7.95234 12.0078C7.38657 11.1858 6.75897 9.84341 6.3906 8.66718C5.97409 7.34029 5.91747 6.3464 6.23347 6.02823C6.36112 6.09256 6.79507 6.3834 7.91619 7.67817C8.69733 8.5803 9.56605 9.69115 10.1294 10.5082C10.1786 10.5796 10.2579 10.618 10.3386 10.618C10.3883 10.618 10.4385 10.6034 10.4825 10.573C10.5979 10.4934 10.627 10.3354 10.5474 10.2199C9.93282 9.32857 8.96496 8.09938 8.13905 7.16132C7.67387 6.633 7.28001 6.22461 6.96833 5.94749C6.89922 5.88605 6.8326 5.82933 6.76829 5.77825C6.90486 5.74742 7.05252 5.73201 7.21021 5.73201C7.82961 5.73201 8.60253 5.96836 9.45561 6.43067C10.6399 7.07248 11.831 8.07683 12.4195 8.92996C12.996 9.76488 13.2255 10.7941 13.0492 11.7537C12.89 12.6204 12.4191 13.3635 11.7227 13.8477C11.6443 13.8492 11.3496 13.7346 10.7812 13.1796C10.2681 12.6785 9.68769 11.97 9.14698 11.1845C8.83637 10.7332 8.4636 10.1457 8.09736 9.53031C8.02566 9.40984 7.86982 9.37026 7.74933 9.44198C7.62883 9.51371 7.58927 9.66952 7.661 9.79002C8.03277 10.4147 8.41193 11.0122 8.72869 11.4724C9.48051 12.5646 10.452 13.704 11.1718 14.1541C10.7723 14.3265 10.3394 14.4152 9.89497 14.4151C9.68886 14.4151 9.48008 14.3961 9.27118 14.3576ZM17.4217 11.8336C17.2397 13.1992 16.7137 14.7039 16.1127 15.5777C15.5444 16.4036 14.7119 16.974 13.7684 17.1836C12.8321 17.3916 11.899 17.2186 11.141 16.6965C10.5273 16.2732 10.0815 15.6514 9.86298 14.9227C9.874 14.9228 9.88504 14.9231 9.89603 14.9231C10.0828 14.9231 10.2679 14.9094 10.4501 14.8825C10.6401 15.4325 10.9883 15.8927 11.4675 16.2228C11.9221 16.5361 12.4386 16.6962 12.9839 16.6962C13.159 16.6962 13.3371 16.6797 13.5169 16.6464C14.3638 16.4899 15.1372 15.9815 15.6386 15.2516C15.8702 14.9154 16.0867 14.4866 16.2819 13.9772C16.3321 13.8462 16.2666 13.6994 16.1357 13.6492C16.0048 13.5991 15.8579 13.6645 15.8078 13.7954C15.6269 14.2674 15.4293 14.6605 15.2202 14.9639C14.8007 15.5745 14.1295 16.0169 13.4247 16.1471C12.82 16.2588 12.2428 16.1404 11.7556 15.8046C11.3837 15.5485 11.1091 15.1947 10.9506 14.7724C11.3221 14.6636 11.6758 14.497 11.9997 14.2738L11.9996 14.2738C12.814 13.7128 13.3642 12.8504 13.5488 11.8454C13.6424 11.3358 13.6356 10.8094 13.5354 10.2969C14.108 9.94007 14.6447 9.69135 15.1329 9.5573C15.6068 9.4266 15.9062 9.41984 16.075 9.53612C16.2438 9.65236 16.3442 9.93433 16.3909 10.4234C16.4253 10.7836 16.413 11.1971 16.3544 11.6522C16.3365 11.7913 16.4347 11.9186 16.5738 11.9365C16.5848 11.9379 16.5958 11.9386 16.6066 11.9386C16.7324 11.9386 16.8416 11.8451 16.8581 11.7171C16.9215 11.2245 16.9344 10.7729 16.8964 10.3751C16.8334 9.71631 16.6689 9.32859 16.3631 9.11791C16.0572 8.90723 15.6361 8.89177 14.9982 9.06767C14.5025 9.20378 13.9668 9.44427 13.4022 9.78319C13.3425 9.59957 13.2702 9.41931 13.1861 9.24372C14.6759 8.37244 15.9767 8.14459 16.6933 8.63852C17.3651 9.10131 17.6306 10.2659 17.4217 11.8336Z" fill="black"/>
<path d="M16.3896 12.5435C16.2494 12.5435 16.1357 12.6579 16.1357 12.7981C16.1357 12.9383 16.2494 13.052 16.3896 13.052C16.5299 13.052 16.6435 12.9383 16.6435 12.7981V12.7966C16.6435 12.6564 16.5299 12.5435 16.3896 12.5435Z" fill="black"/>
</g>
<defs>
<clipPath id="clip0_246_210">
<rect width="13" height="13" fill="white" transform="translate(5 5)"/>
</clipPath>
</defs>
</svg>
