<svg width="24" height="24" viewBox="0 0 24 24" fill="none" xmlns="http://www.w3.org/2000/svg">
<path fill-rule="evenodd" clip-rule="evenodd" d="M0.933333 11.9998C0.933333 18.1012 5.89874 23.0667 12.0001 23.0667C18.1014 23.0667 23.0667 18.1012 23.0667 11.9998C23.0667 5.89857 18.1015 0.933333 12.0001 0.933333C5.89871 0.933333 0.933333 5.89859 0.933333 11.9998ZM0 11.9998C0 18.6167 5.38327 24 12.0001 24C18.6169 24 24 18.6167 24 11.9998C24 5.3831 18.6169 0 12.0001 0C5.38327 0 0 5.3831 0 11.9998Z" fill="black"/>
<path fill-rule="evenodd" clip-rule="evenodd" d="M17.1163 4.02245C16.6667 3.94983 16.2446 4.05354 15.8606 4.33176C14.8812 5.04162 14.4148 6.76907 14.2507 7.53453C14.0821 7.50684 13.9142 7.49005 13.7508 7.48687L13.6788 7.48619C11.8774 7.48619 10.7366 8.82966 10.4661 11.2695C10.1983 13.6814 8.9826 15.7891 7.21362 16.9079L7.15235 16.9465C6.75998 17.1939 6.27138 17.5016 6.07757 18.0592C5.88491 18.6127 6.0601 19.2227 6.50354 19.5429C6.8124 19.7655 7.18934 19.8738 7.65638 19.8738C7.93279 19.8738 8.20194 19.8366 8.45179 19.7964C9.05817 19.6981 9.66046 19.545 10.2419 19.3403C11.6577 18.8424 12.8469 18.1207 13.7762 17.1957C15.3207 15.6577 16.9392 12.922 16.8428 10.5503C16.8262 10.1404 16.7532 9.74286 16.6263 9.36864C16.351 8.55847 15.7122 8.02585 14.9951 7.74013C15.1589 6.9488 15.5906 5.48052 16.3138 4.95629C16.5283 4.80084 16.75 4.74433 16.993 4.78382C17.2029 4.81673 17.4015 4.67512 17.4358 4.46475C17.4694 4.2546 17.3266 4.05649 17.1163 4.02245ZM15.8956 9.61668C15.9988 9.92077 16.0581 10.2455 16.0717 10.5814C16.1586 12.7205 14.6606 15.2261 13.2318 16.6488C12.3846 17.4921 11.2926 18.1527 9.98589 18.6122C9.44737 18.8015 8.88978 18.9436 8.32902 19.0343C8.11116 19.0693 7.87878 19.1017 7.6566 19.1017C7.35727 19.1017 7.12784 19.0412 6.95514 18.9168C6.76883 18.7822 6.73932 18.5049 6.8065 18.3122C6.91157 18.01 7.22837 17.8105 7.56379 17.599L7.6262 17.5595C9.59147 16.3165 10.9397 13.9968 11.2329 11.3541C11.4608 9.29919 12.2839 8.25732 13.6788 8.25732L13.7358 8.25778C14.5866 8.2748 15.5844 8.70121 15.8956 9.61668ZM12.7352 15.4869C13.825 14.3565 15.0741 12.42 15.0076 10.6826C15.0012 10.5135 15.1328 10.3712 15.3019 10.3647C15.4682 10.3613 15.6135 10.4899 15.6198 10.659C15.6936 12.5871 14.4059 14.6368 13.1762 15.9121C13.116 15.9746 13.0359 16.0059 12.9556 16.0059C12.8791 16.0059 12.8024 15.9775 12.743 15.9201C12.6213 15.8025 12.6177 15.6085 12.7352 15.4869Z" fill="black"/>
</svg>
