<svg width="24" height="24" viewBox="0 0 24 24" fill="none" xmlns="http://www.w3.org/2000/svg">
<path fill-rule="evenodd" clip-rule="evenodd" d="M0.933333 11.9998C0.933333 18.1012 5.89875 23.0667 12.0001 23.0667C18.1015 23.0667 23.0667 18.1012 23.0667 11.9998C23.0667 5.89857 18.1015 0.933333 12.0001 0.933333C5.89871 0.933333 0.933333 5.89859 0.933333 11.9998ZM0 11.9998C0 18.6167 5.38327 24 12.0001 24C18.6169 24 24 18.6167 24 11.9998C24 5.3831 18.6169 0 12.0001 0C5.38327 0 0 5.3831 0 11.9998Z" fill="black"/>
<path fill-rule="evenodd" clip-rule="evenodd" d="M19.1665 7.9333C19.0999 7.8333 18.9999 7.7333 18.8999 7.69997C18.7665 7.66663 16.1332 7.0333 15.1665 8.66663C14.2332 8.06663 13.0999 7.66663 11.8332 7.66663C10.5999 7.66663 9.46653 8.06663 8.49987 8.66663C8.29987 8.29997 7.99987 8.06663 7.59986 7.89997C6.49987 7.4333 5.09987 8.0333 5.0332 8.0333C4.8332 8.09997 4.7332 8.3333 4.79987 8.5333C4.79987 8.59997 5.16653 9.79997 6.1332 11.4C6.1332 11.4333 6.16653 11.4333 6.16653 11.4333C5.96653 11.9333 5.86653 12.4333 5.86653 12.9333C5.86653 15.6 8.49987 17.7 11.8332 17.7C15.1665 17.7 17.7999 15.6666 17.7999 12.9666C17.7999 12.4666 17.6999 11.9666 17.4999 11.4666L17.5332 11.4333C18.4999 9.86663 19.1332 8.36663 19.1665 8.29997C19.2332 8.16663 19.2332 8.06663 19.1665 7.9333ZM5.7332 8.7333C6.16653 8.59997 6.8332 8.49997 7.29987 8.69997C7.5332 8.79997 7.69987 8.96663 7.8332 9.19997C7.3332 9.59997 6.9332 10.1 6.59987 10.6C6.16653 9.79997 5.86653 9.1333 5.7332 8.7333ZM11.8332 16.9333C8.96653 16.9333 6.69987 15.2 6.69987 13C6.69987 11 8.99987 8.56663 11.8332 8.56663C14.6665 8.56663 16.9665 11 16.9665 13C16.9665 15.2 14.6999 16.9333 11.8332 16.9333ZM17.0665 10.6C16.7332 10.1 16.3332 9.59997 15.8332 9.19997C16.2665 8.36663 17.4999 8.36663 18.1999 8.4333C17.9665 8.9333 17.5665 9.76663 17.0665 10.6Z" fill="black"/>
<path fill-rule="evenodd" clip-rule="evenodd" d="M11.8331 11.6C10.2997 11.6 9.06641 12.6666 9.06641 13.9666C9.06641 15.2666 10.2997 16.3333 11.8331 16.3333C13.3664 16.3333 14.5997 15.2666 14.5997 13.9666C14.5997 12.6666 13.3664 11.6 11.8331 11.6ZM11.8331 15.5333C10.7664 15.5333 9.89974 14.8333 9.89974 14C9.89974 13.1666 10.7664 12.4666 11.8331 12.4666C12.8997 12.4666 13.7664 13.1666 13.7664 14C13.7664 14.8333 12.8997 15.5333 11.8331 15.5333Z" fill="black"/>
<path fill-rule="evenodd" clip-rule="evenodd" d="M11.1 13.4C10.8666 13.4 10.7 13.6 10.7 13.8V14.1333C10.7 14.3666 10.9 14.5333 11.1 14.5333C11.3333 14.5333 11.4999 14.3333 11.4999 14.1333V13.8C11.4999 13.6 11.3333 13.4 11.1 13.4Z" fill="black"/>
<path fill-rule="evenodd" clip-rule="evenodd" d="M12.5665 13.4C12.3332 13.4 12.1665 13.6 12.1665 13.8V14.1333C12.1665 14.3666 12.3665 14.5333 12.5665 14.5333C12.7998 14.5333 12.9665 14.3333 12.9665 14.1333V13.8C12.9998 13.6 12.7998 13.4 12.5665 13.4Z" fill="black"/>
</svg>
