<svg width="24" height="24" viewBox="0 0 24 24" fill="none" xmlns="http://www.w3.org/2000/svg">
<path fill-rule="evenodd" clip-rule="evenodd" d="M0.933334 11.9998C0.933334 18.1012 5.89875 23.0667 12.0001 23.0667C18.1015 23.0667 23.0667 18.1013 23.0667 11.9998C23.0667 5.89857 18.1015 0.933334 12.0001 0.933334C5.89872 0.933334 0.933334 5.8986 0.933334 11.9998ZM0 11.9998C0 18.6167 5.38328 24 12.0001 24C18.617 24 24 18.6167 24 11.9998C24 5.3831 18.617 0 12.0001 0C5.38328 0 0 5.3831 0 11.9998Z" fill="black"/>
<path fill-rule="evenodd" clip-rule="evenodd" d="M15.1468 10.0923C15.7778 9.9915 16.2647 9.50178 16.365 8.86721L16.5978 8.01969L15.7553 8.25383C15.1243 8.35464 14.6374 8.84436 14.5369 9.47894L14.4351 9.8504H14.4348L6.06868 18.2646C5.97711 18.3567 5.97711 18.5056 6.06868 18.5977C6.11436 18.6436 6.17431 18.6667 6.23427 18.6667C6.29423 18.6667 6.35419 18.6436 6.39986 18.5977L14.7461 10.2037L15.1468 10.0923ZM14.9979 9.56326C15.063 9.12302 15.401 8.78288 15.8387 8.71763L15.9263 8.69502L15.9038 8.78288C15.8387 9.22313 15.5007 9.56326 15.063 9.62851L14.9754 9.65112L14.9979 9.56326ZM13.6188 10.4824L14.05 9.71802C14.4252 9.19792 14.4255 8.50516 14.05 7.9853L13.6188 7.22046L13.1876 7.9853C12.8122 8.50516 12.8122 9.19792 13.1876 9.71802L13.6188 10.4824ZM13.5729 8.25359L13.6191 8.17539L13.665 8.25359C13.9285 8.61116 13.9285 9.09192 13.665 9.44973L13.6191 9.5277L13.5731 9.44973C13.3094 9.09169 13.3094 8.61092 13.5729 8.25359ZM14.8979 10.571L14.1376 11.0046L14.8979 11.4383C15.1564 11.6272 15.4579 11.7214 15.7593 11.7214C16.0607 11.7214 16.3622 11.6272 16.6207 11.4383L17.3812 11.0046L16.6207 10.571C16.1041 10.1931 15.4152 10.1931 14.8979 10.571ZM16.354 11.0508C15.9984 11.3158 15.5204 11.3158 15.1649 11.0508L15.0871 11.0046L15.1649 10.9584C15.5209 10.693 15.9987 10.693 16.354 10.9584L16.4317 11.0046L16.354 11.0508ZM12.1283 11.9817L12.5595 11.2168C12.9349 10.6967 12.9349 10.0045 12.5595 9.48435L12.1283 8.71951L11.6971 9.48435C11.3219 10.0045 11.3219 10.6967 11.6971 11.2168L12.1283 11.9817ZM12.0824 9.75265L12.1283 9.67444L12.1744 9.75265C12.4379 10.1102 12.4379 10.591 12.1744 10.9483L12.1283 11.0265L12.0824 10.9483C11.8189 10.591 11.8189 10.1102 12.0824 9.75265ZM13.4076 12.0698L12.6473 12.5034L13.4076 12.9371C13.6661 13.126 13.9676 13.2202 14.2692 13.2202C14.5707 13.2202 14.8721 13.126 15.1309 12.9371L15.8909 12.5034L15.1309 12.0698C14.6133 11.6924 13.9247 11.6924 13.4076 12.0698ZM14.8637 12.5496C14.5077 12.8151 14.0299 12.8146 13.6743 12.5496L13.5966 12.5034L13.6743 12.4573C14.0301 12.1925 14.5081 12.1923 14.8637 12.4573L14.9414 12.5034L14.8637 12.5496ZM10.6377 13.4807L11.0689 12.7159C11.4441 12.196 11.4441 11.5035 11.0689 10.9832L10.6377 10.2188L10.2065 10.9832C9.8311 11.5033 9.8311 12.196 10.2065 12.7159L10.6377 13.4807ZM10.5918 11.2512L10.6377 11.1733L10.6836 11.2512C10.9471 11.6093 10.9471 12.09 10.6836 12.4474L10.6377 12.5256L10.5916 12.4474C10.3281 12.09 10.3281 11.6093 10.5918 11.2512ZM11.917 13.5688L11.1568 14.0025L11.917 14.4361C12.1756 14.6248 12.477 14.7193 12.7785 14.7193C13.0799 14.7193 13.3813 14.6248 13.6399 14.4361L14.4002 14.0025L13.6399 13.5688C13.1228 13.1917 12.4342 13.1917 11.917 13.5688ZM13.3731 14.0487C13.0176 14.3137 12.5398 14.3139 12.1838 14.0487L12.106 14.0025L12.1838 13.9563C12.5396 13.6913 13.0176 13.6913 13.3731 13.9563L13.4509 14.0025L13.3731 14.0487ZM9.1472 14.9793L9.57839 14.215C9.95383 13.6949 9.95383 13.0023 9.57839 12.4822L9.1472 11.7179L8.71601 12.4822C8.3408 13.0023 8.3408 13.6949 8.71601 14.215L9.1472 14.9793ZM9.10129 12.7505L9.1472 12.6726L9.1931 12.7505C9.4566 13.1086 9.4566 13.5891 9.1931 13.9469L9.1472 14.0249L9.10129 13.9469C8.8378 13.5889 8.8378 13.1083 9.10129 12.7505ZM9.66598 15.5015L10.4262 15.9352C10.6848 16.1241 10.9862 16.2183 11.2877 16.2183C11.5891 16.2183 11.8906 16.1241 12.1491 15.9352L12.9094 15.5015L12.1491 15.0679C11.6322 14.6903 10.9436 14.6903 10.4262 15.0679L9.66598 15.5015ZM10.6932 15.548L10.6155 15.5018L10.6932 15.4556C11.049 15.1901 11.5271 15.1901 11.8826 15.4556L11.9603 15.5018L11.8826 15.548C11.5268 15.8129 11.0488 15.8129 10.6932 15.548ZM7.65666 16.4789L8.08785 15.714C8.46329 15.1939 8.46329 14.5016 8.08785 13.9815L7.65666 13.2165L7.22547 13.9813C6.85002 14.5014 6.85002 15.1937 7.22547 15.7138L7.65666 16.4789ZM7.61052 14.2498L7.65666 14.1716L7.7028 14.2498C7.96629 14.6074 7.96629 15.0882 7.7028 15.4455L7.65666 15.5237L7.61052 15.4455C7.34703 15.0879 7.34703 14.6072 7.61052 14.2498ZM8.93594 16.567L8.17568 17.0006L8.93594 17.4343C9.19451 17.6232 9.49594 17.7174 9.79738 17.7174C10.099 17.7174 10.4002 17.6232 10.6591 17.4343L11.4193 17.0006L10.6591 16.567C10.1419 16.1896 9.45332 16.1896 8.93594 16.567ZM9.20271 17.0468L9.12495 17.0006L9.20271 16.9544C9.55848 16.6894 10.0363 16.6894 10.392 16.9544L10.4698 17.0006L10.392 17.0468C10.0363 17.3122 9.55824 17.3122 9.20271 17.0468ZM14.4575 7.80369C14.5175 7.80369 14.5775 7.7806 14.6231 7.73467L15.9481 6.40215C16.0397 6.31005 16.0397 6.16118 15.9481 6.06908C15.8565 5.97697 15.7085 5.97697 15.6169 6.06908L14.292 7.4016C14.2004 7.4937 14.2004 7.64257 14.292 7.73467C14.3379 7.7806 14.3976 7.80369 14.4575 7.80369ZM15.2857 8.06774C15.3314 8.11367 15.3914 8.13676 15.4513 8.13676C15.5113 8.13676 15.5712 8.11367 15.6169 8.06774L17.273 6.40215C17.3646 6.31005 17.3646 6.16118 17.273 6.06908C17.1815 5.97697 17.0334 5.97697 16.9419 6.06908L15.2857 7.73467C15.1941 7.82653 15.1941 7.97564 15.2857 8.06774ZM18.2668 7.4016L16.6107 9.06719C16.5191 9.15929 16.5191 9.30816 16.6107 9.40026C16.6563 9.44619 16.7163 9.46928 16.7763 9.46928C16.8362 9.46928 16.8962 9.44619 16.9419 9.40026L18.598 7.73467C18.6896 7.64257 18.6896 7.4937 18.598 7.4016C18.5064 7.3095 18.3584 7.3095 18.2668 7.4016ZM16.7763 7.9012C16.8219 7.94714 16.8819 7.97022 16.9419 7.97022C17.0018 7.97022 17.0618 7.94714 17.1074 7.9012L18.598 6.40215C18.6896 6.31005 18.6896 6.16118 18.598 6.06908C18.5064 5.97697 18.3584 5.97697 18.2668 6.06908L16.7763 7.56813C16.6847 7.66 16.6847 7.8091 16.7763 7.9012ZM18.2668 8.73412L16.9419 10.0664C16.8503 10.1585 16.8503 10.3074 16.9419 10.3995C16.9875 10.4454 17.0475 10.4685 17.1074 10.4685C17.1674 10.4685 17.2274 10.4454 17.273 10.3995L18.598 9.06719C18.6896 8.97509 18.6896 8.82622 18.598 8.73412C18.5064 8.64202 18.3584 8.64202 18.2668 8.73412Z" fill="black"/>
</svg>
