<svg width="24" height="24" viewBox="0 0 24 24" fill="none" xmlns="http://www.w3.org/2000/svg">
<path fill-rule="evenodd" clip-rule="evenodd" d="M0.933333 11.9998C0.933333 18.1012 5.89875 23.0667 12.0001 23.0667C18.1015 23.0667 23.0667 18.1012 23.0667 11.9998C23.0667 5.89857 18.1015 0.933333 12.0001 0.933333C5.89871 0.933333 0.933333 5.89859 0.933333 11.9998ZM0 11.9998C0 18.6167 5.38327 24 12.0001 24C18.617 24 24 18.6167 24 11.9998C24 5.3831 18.617 0 12.0001 0C5.38327 0 0 5.3831 0 11.9998Z" fill="black"/>
<path d="M13.9763 15.9139C14.3172 15.9139 14.8188 15.6057 15.4251 15.0278C15.7302 14.7367 16.0542 14.3865 16.4072 13.9722C16.7653 13.5519 17.7388 12.327 17.833 12.2162C18.0822 11.9232 18.0221 11.576 17.729 11.3511C17.4208 11.1146 17.0206 11.1428 16.716 11.4955C16.144 12.1573 15.4503 12.9109 14.6347 13.7566C14.3673 14.0339 13.9414 13.6544 14.1863 13.357C14.2881 13.2332 14.3445 13.0789 14.3445 12.9149C14.3445 12.5339 14.038 12.2236 13.6616 12.2187H10.149C9.65158 12.2187 9.06983 12.4954 8.67762 12.9025C8.23327 13.3636 7.87781 13.7597 7.61198 14.09L8.72041 15.914L13.9763 15.9139ZM16.261 11.1023C16.7795 10.5023 17.5405 10.4487 18.095 10.874C18.6478 11.2982 18.7754 12.0361 18.2909 12.6056C18.2054 12.7062 17.2317 13.9313 16.8647 14.3621C16.4993 14.7908 16.162 15.1556 15.8398 15.4629C15.1285 16.1409 14.5198 16.5151 13.9764 16.5151H8.94355C8.57034 16.5151 7.20434 13.6373 7.29294 13.5316C7.54929 13.2265 7.86628 12.8778 8.24468 12.4854C8.74453 11.9667 9.47821 11.6175 10.149 11.6175H12.7063H13.6655C14.2658 11.6253 14.767 12.0407 14.9068 12.5989C15.4173 12.0553 15.8688 11.5563 16.261 11.1023L16.261 11.1023Z" fill="black"/>
<path d="M7.57812 17.4748L8.7929 16.7735L6.88931 13.4762L5.67453 14.1776L7.57812 17.4748ZM5.20041 13.7573L6.76224 12.8557C6.95388 12.745 7.19904 12.8106 7.30975 13.0024L9.41366 16.6465C9.52436 16.8381 9.45866 17.0833 9.26703 17.1939L7.70519 18.0957C7.51356 18.2063 7.2684 18.1407 7.15769 17.9489L5.05378 14.3048C4.94308 14.1132 5.00877 13.8681 5.20041 13.7573Z" fill="black"/>
<path d="M11.5478 12.2187C11.3819 12.2187 11.2473 12.0841 11.2473 11.918C11.2473 11.7521 11.3819 11.6175 11.5478 11.6175H13.6432C14.3625 11.6175 14.9456 12.2006 14.9456 12.9199C14.9456 13.6393 14.3625 14.2225 13.6432 14.2225H11.6394C11.4733 14.2225 11.3389 14.0879 11.3389 13.9218C11.3389 13.7559 11.4733 13.6213 11.6394 13.6213H13.6432C14.0305 13.6213 14.3446 13.3072 14.3446 12.9199C14.3446 12.5325 14.0306 12.2186 13.6432 12.2186L11.5478 12.2187Z" fill="black"/>
<path d="M13.5982 6.30062C14.3677 5.85642 15.3465 5.90898 16.5158 6.42851L16.7156 6.51741L16.6926 6.7349C16.558 8.00729 16.1142 8.88128 15.3447 9.32548C14.2586 9.9525 12.735 9.78715 12.3681 8.99659C12.0025 8.20895 12.5513 6.905 13.5982 6.30059L13.5982 6.30062ZM13.8988 6.82129C13.1032 7.2806 12.69 8.26225 12.9133 8.74363C13.104 9.15442 14.2275 9.27633 15.0441 8.805C15.5832 8.49372 15.9289 7.86431 16.0676 6.8916C15.1558 6.5254 14.4379 6.51001 13.8988 6.82129Z" fill="black"/>
<path d="M9.81463 7.96597C9.13182 7.84562 8.43363 8.12643 7.72918 8.77708L7.56104 8.93237L7.66587 9.13561C8.10545 9.98809 8.66542 10.4907 9.34822 10.6111C10.3163 10.7819 11.3947 10.2795 11.4509 9.58972C11.5058 8.91615 10.7453 8.13005 9.81464 7.96595L9.81463 7.96597ZM9.71021 8.55806C10.3596 8.67254 10.8787 9.20912 10.8517 9.54097C10.8445 9.62945 10.703 9.77789 10.4605 9.89083C10.1656 10.0282 9.79881 10.0802 9.45258 10.0191C9.0278 9.94422 8.64733 9.63405 8.31273 9.06489C8.8218 8.64459 9.28544 8.48314 9.71021 8.55807V8.55806Z" fill="black"/>
<path d="M12.3407 11.7177C12.3407 11.8836 12.2061 12.0182 12.04 12.0182C11.8741 12.0182 11.7395 11.8836 11.7395 11.7177C11.7395 10.9473 11.7395 10.9473 11.7396 9.89421C11.7581 9.40893 11.9193 9.04062 12.2356 8.81877C12.533 8.61009 13.2313 8.19089 14.4929 7.4508C14.6361 7.3668 14.8203 7.41474 14.9043 7.55801C14.9883 7.70114 14.9402 7.88536 14.7971 7.96922C13.5598 8.69507 12.8577 9.11663 12.5808 9.31093C12.4364 9.41212 12.3522 9.60431 12.3406 9.90567L12.3407 11.7177Z" fill="black"/>
<path d="M11.7395 11.317C11.7395 11.483 11.8741 11.6176 12.0402 11.6176C12.2061 11.6176 12.3407 11.483 12.3407 11.317L12.3377 10.6937C12.2873 10.3391 12.1365 10.0345 11.8888 9.78977C11.651 9.55494 11.4314 9.42117 11.2086 9.40707L9.50155 9.02005C9.3397 8.98343 9.17867 9.0849 9.14205 9.24676C9.10529 9.40862 9.20676 9.56964 9.36862 9.60641L11.136 10.007C11.1829 10.0127 11.2204 10.0238 11.2483 10.0401C11.3091 10.0758 11.3825 10.1348 11.4662 10.2174C11.615 10.3643 11.705 10.5416 11.7395 10.7584L11.7395 11.317Z" fill="black"/>
</svg>
