<svg width="24" height="24" viewBox="0 0 24 24" fill="none" xmlns="http://www.w3.org/2000/svg">
<path fill-rule="evenodd" clip-rule="evenodd" d="M0.933333 11.9998C0.933333 18.1012 5.89875 23.0667 12.0001 23.0667C18.1015 23.0667 23.0667 18.1012 23.0667 11.9998C23.0667 5.89857 18.1015 0.933333 12.0001 0.933333C5.89871 0.933333 0.933333 5.89859 0.933333 11.9998ZM0 11.9998C0 18.6167 5.38327 24 12.0001 24C18.617 24 24 18.6167 24 11.9998C24 5.3831 18.617 0 12.0001 0C5.38327 0 0 5.3831 0 11.9998Z" fill="black"/>
<path d="M15.4831 14.0404L13.4732 6L10.5679 16.4592L8.84271 8.98404L7.70637 12.393H5V12.9764H8.12696L8.74062 11.1354L10.5154 18.8269L13.4435 8.28608L15.5169 16.579L16.3172 12.9764H19V12.393H15.8494L15.4831 14.0404Z" fill="black"/>
</svg>
