<svg width="24" height="24" viewBox="0 0 24 24" fill="none" xmlns="http://www.w3.org/2000/svg">
<path fill-rule="evenodd" clip-rule="evenodd" d="M0.933333 11.9998C0.933333 18.1012 5.89875 23.0667 12.0001 23.0667C18.1015 23.0667 23.0667 18.1012 23.0667 11.9998C23.0667 5.89857 18.1015 0.933333 12.0001 0.933333C5.89871 0.933333 0.933333 5.89859 0.933333 11.9998ZM0 11.9998C0 18.6167 5.38327 24 12.0001 24C18.6169 24 24 18.6167 24 11.9998C24 5.3831 18.6169 0 12.0001 0C5.38327 0 0 5.3831 0 11.9998Z" fill="black"/>
<path fill-rule="evenodd" clip-rule="evenodd" d="M17.3404 14.1827C17.1278 14.3437 16.8995 14.4992 16.6636 14.6482C16.3232 14.0627 16.1212 13.3907 16.1212 12.6667C16.1212 11.9417 16.3237 11.2692 16.6646 10.6832C16.9778 10.8802 17.2727 11.0922 17.5429 11.3072C18.0712 11.7257 18.5045 12.1472 18.8035 12.4622C18.8748 12.5372 18.9374 12.6052 18.9924 12.6667C18.6758 13.0172 18.0939 13.6147 17.3404 14.1827ZM15.7742 15.1342C15.0854 15.4547 14.345 15.6692 13.596 15.6667C12.1399 15.6727 10.7071 14.8687 9.64899 14.0262C9.12071 13.6077 8.68737 13.1862 8.38838 12.8712C8.31717 12.7962 8.25455 12.7282 8.1995 12.6667C8.51616 12.3162 9.09798 11.7187 9.85152 11.1507C10.8869 10.3657 12.2308 9.66219 13.596 9.66669C14.345 9.66369 15.0864 9.87669 15.7753 10.1972C15.3551 10.9267 15.1111 11.7697 15.1111 12.6667C15.1111 13.5632 15.3545 14.4052 15.7742 15.1342ZM5.0101 14.2527V11.0807L6.61212 12.6667L5.0101 14.2527ZM18.1737 10.5262C17.0227 9.61869 15.4253 8.67269 13.596 8.66669C11.7667 8.67269 10.1692 9.61869 9.01818 10.5262C8.27424 11.1162 7.71717 11.6967 7.40909 12.0417L4.86212 9.52019C4.71768 9.37719 4.50051 9.33419 4.31162 9.41169C4.12323 9.48919 4 9.67169 4 9.87369V15.4597C4 15.6617 4.12323 15.8442 4.31162 15.9217C4.50051 15.9987 4.71768 15.9562 4.86212 15.8132L7.40909 13.2917C7.71717 13.6367 8.27424 14.2172 9.01818 14.8072C10.1692 15.7147 11.7667 16.6607 13.596 16.6667C15.4253 16.6607 17.0227 15.7147 18.1737 14.8072C19.3253 13.8942 20.0384 12.9942 20.054 12.9752C20.198 12.7937 20.198 12.5397 20.054 12.3582C20.0384 12.3392 19.3253 11.4392 18.1737 10.5262Z" fill="black"/>
<path fill-rule="evenodd" clip-rule="evenodd" d="M17.6364 11.6667C17.3576 11.6667 17.1313 11.8907 17.1313 12.1667C17.1313 12.4427 17.3576 12.6667 17.6364 12.6667C17.9152 12.6667 18.1414 12.4427 18.1414 12.1667C18.1414 11.8907 17.9152 11.6667 17.6364 11.6667Z" fill="black"/>
<path fill-rule="evenodd" clip-rule="evenodd" d="M13.596 12.6667C13.8747 12.6667 14.101 12.4427 14.101 12.1667C14.101 11.8907 13.8747 11.6667 13.596 11.6667C12.7591 11.6677 12.0818 12.3382 12.0808 13.1667C12.0818 13.9952 12.7591 14.6657 13.596 14.6667C13.8747 14.6667 14.101 14.4427 14.101 14.1667C14.101 13.8907 13.8747 13.6667 13.596 13.6667C13.3192 13.6662 13.0914 13.4407 13.0909 13.1667C13.0914 12.8927 13.3192 12.6672 13.596 12.6667Z" fill="black"/>
</svg>
