<svg width="24" height="24" viewBox="0 0 24 24" fill="none" xmlns="http://www.w3.org/2000/svg">
<g clip-path="url(#clip0_32_500)">
<path d="M8.66346 16.1908L8.09058 15.6177L3.84563 19.8639L4.41851 20.4369L8.66346 16.1908Z" fill="black"/>
<path d="M20.7076 4.14146L20.1348 3.56842L15.1808 8.5238L15.7536 9.09683L20.7076 4.14146Z" fill="black"/>
<path d="M21.3646 10.8408C21.1919 10.7478 20.9794 10.8076 20.8864 10.9803L19.2594 13.9297C19.0602 13.757 18.8344 13.6042 18.5953 13.4913L19.3258 11.0335C19.379 10.8475 19.2727 10.6482 19.0868 10.5951C18.9008 10.5419 18.7016 10.6482 18.6485 10.8342L17.9246 13.2588C17.7121 13.2123 17.4863 13.1857 17.2539 13.1857H16.3042C16.5035 12.6211 16.6164 12.0166 16.6164 11.3789C16.6164 8.40297 14.1925 5.97839 11.2174 5.97839C8.24226 5.97839 5.81836 8.40297 5.81836 11.3789C5.81836 12.1029 5.96445 12.8004 6.22345 13.4315L4.76246 14.0227C4.11166 14.2884 3.7597 14.9327 3.89915 15.6236C4.03197 16.3144 4.59644 16.7794 5.30037 16.7794H19.7708C20.063 16.7794 20.2954 16.5403 20.2954 16.2546V16.228C20.2954 15.5771 20.0895 14.9792 19.7442 14.481L21.4907 11.3191C21.597 11.1464 21.5372 10.9338 21.3646 10.8408ZM11.2306 6.81537C13.7475 6.81537 15.7929 8.86132 15.7929 11.3789C15.7929 13.8965 13.7409 15.9424 11.2306 15.9424C8.7204 15.9424 6.66838 13.8965 6.66838 11.3789C6.66838 8.86132 8.71376 6.81537 11.2306 6.81537ZM5.31365 15.7232C5.0281 15.7232 4.96169 15.4907 4.94176 15.4176C4.92848 15.3512 4.90856 15.1121 5.17419 14.9992L6.73479 14.3615C7.08676 14.8862 7.52505 15.3446 8.02976 15.7232H5.31365ZM13.9866 15.8627C14.5843 15.4176 15.0956 14.8663 15.4941 14.2352H17.0879C18.0973 14.2352 18.9473 14.9261 19.193 15.8627H13.9866Z" fill="black"/>
<path d="M11.2306 14.1356C12.7513 14.1356 13.9865 12.9001 13.9865 11.3789C13.9865 9.85773 12.7513 8.62219 11.2306 8.62219C9.70981 8.62219 8.47461 9.85773 8.47461 11.3789C8.47461 12.9001 9.70981 14.1356 11.2306 14.1356ZM11.2306 9.67838C12.1669 9.67838 12.9306 10.4423 12.9306 11.3789C12.9306 12.3155 12.1669 13.0794 11.2306 13.0794C10.2942 13.0794 9.5305 12.3155 9.5305 11.3789C9.5305 10.4423 10.2942 9.67838 11.2306 9.67838Z" fill="black"/>
<path fill-rule="evenodd" clip-rule="evenodd" d="M0.933333 12C0.933333 18.1 5.9 23.0667 12 23.0667C18.1 23.0667 23.0667 18.1 23.0667 12C23.0667 5.9 18.1 0.933333 12 0.933333C5.9 0.933333 0.933333 5.9 0.933333 12ZM0 12C0 18.62 5.38 24 12 24C18.62 24 24 18.6133 24 12C24 5.38 18.62 0 12 0C5.38 0 0 5.38 0 12Z" fill="black"/>
</g>
<defs>
<clipPath id="clip0_32_500">
<rect width="24" height="24" fill="white"/>
</clipPath>
</defs>
</svg>
