<svg width="24" height="24" viewBox="0 0 24 24" fill="none" xmlns="http://www.w3.org/2000/svg">
<path fill-rule="evenodd" clip-rule="evenodd" d="M0.933333 11.9998C0.933333 18.1012 5.89875 23.0667 12.0001 23.0667C18.1015 23.0667 23.0667 18.1012 23.0667 11.9998C23.0667 5.89857 18.1015 0.933333 12.0001 0.933333C5.89871 0.933333 0.933333 5.89859 0.933333 11.9998ZM0 11.9998C0 18.6167 5.38327 24 12.0001 24C18.6169 24 24 18.6167 24 11.9998C24 5.3831 18.6169 0 12.0001 0C5.38327 0 0 5.3831 0 11.9998Z" fill="black"/>
<path fill-rule="evenodd" clip-rule="evenodd" d="M13.0147 18.6152C13.1429 18.6237 13.2698 18.6279 13.3944 18.6279C13.3946 18.6279 13.3948 18.6279 13.3948 18.6279C15.0382 18.6279 16.4031 17.8844 17.3422 16.4781C18.6759 14.48 19.0035 11.2616 18.1541 8.83279C16.9358 9.42593 12.7612 11.6584 12.006 14.721C11.6874 16.0137 12.0269 17.3232 13.0147 18.6152ZM13.3948 19.3333C13.3946 19.3333 13.3946 19.3333 13.3942 19.3333C13.2343 19.3333 13.0702 19.3271 12.9059 19.3148C12.7831 19.336 12.6556 19.2958 12.576 19.1967C11.359 17.6783 10.9378 16.1151 11.324 14.5503C11.733 12.8935 13.022 11.2898 15.1551 9.78407C16.7205 8.67922 18.1484 8.05504 18.2083 8.02904C18.2949 7.99135 18.3925 7.99035 18.4803 8.02602C18.5674 8.06169 18.6369 8.13102 18.6729 8.21849C19.7823 10.9218 19.4683 14.5606 17.9263 16.8705C16.8508 18.4816 15.2837 19.3333 13.3948 19.3333Z" fill="black"/>
<path fill-rule="evenodd" clip-rule="evenodd" d="M12.2718 18.4401C12.2748 18.3258 12.3895 15.5826 16.4937 10.8285C16.6227 10.6791 16.8584 10.6548 17.02 10.7739C17.1813 10.8932 17.2078 11.111 17.079 11.2605C13.1594 15.8008 13.0214 18.432 13.0204 18.4579C13.0137 18.645 12.8477 18.7936 12.6464 18.7936C12.4299 18.7879 12.2673 18.6306 12.2718 18.4401Z" fill="black"/>
<path fill-rule="evenodd" clip-rule="evenodd" d="M5.7817 8.83546C5.09821 10.5817 5.24541 12.8836 6.16582 14.3431C6.81908 15.379 7.81607 15.9266 9.04859 15.9266C9.05078 15.9266 9.05277 15.9266 9.05496 15.9266C9.78659 15.0576 10.0689 14.1557 9.8946 13.2433C9.48383 11.0946 6.73394 9.37332 5.7817 8.83546ZM9.20355 16.6349C9.17351 16.6349 9.14308 16.6311 9.11324 16.6232C7.60203 16.6427 6.37588 15.9818 5.57721 14.7153C4.47916 12.9746 4.35961 10.173 5.29872 8.19863C5.3389 8.1142 5.41131 8.04948 5.49943 8.01901C5.58775 7.98854 5.68483 7.99492 5.76817 8.03654C5.94143 8.12256 10.0187 10.184 10.5783 13.1124C10.8043 14.2945 10.4289 15.4407 9.46275 16.519C9.39571 16.5941 9.30082 16.6349 9.20355 16.6349Z" fill="black"/>
<path fill-rule="evenodd" clip-rule="evenodd" d="M9.35247 16.4601C9.1596 16.4542 9.00763 16.2911 9.01244 16.0952C9.01264 16.0642 8.85042 14.8034 6.36174 11.2618C6.24906 11.1016 6.28575 10.879 6.44354 10.7648C6.60153 10.6501 6.82026 10.6878 6.93293 10.8479C9.58982 14.6287 9.71656 16.0268 9.71375 16.1149C9.70814 16.3078 9.55216 16.4603 9.36329 16.4603C9.35969 16.4603 9.35608 16.4603 9.35247 16.4601Z" fill="black"/>
</svg>
