<svg width="24" height="24" viewBox="0 0 24 24" fill="none" xmlns="http://www.w3.org/2000/svg">
<path fill-rule="evenodd" clip-rule="evenodd" d="M0.933334 11.9998C0.933334 18.1012 5.89875 23.0667 12.0001 23.0667C18.1015 23.0667 23.0667 18.1013 23.0667 11.9998C23.0667 5.89857 18.1015 0.933334 12.0001 0.933334C5.89872 0.933334 0.933334 5.8986 0.933334 11.9998ZM0 11.9998C0 18.6167 5.38328 24 12.0001 24C18.617 24 24 18.6167 24 11.9998C24 5.3831 18.617 0 12.0001 0C5.38328 0 0 5.3831 0 11.9998Z" fill="black"/>
<g clip-path="url(#clip0_2028_116)">
<path d="M18.7955 18.8437L18.7955 18.8437C19.1591 18.1799 19.1327 17.4022 18.7188 16.755L18.7188 16.755L18.7177 16.7534L14.6476 10.8948V7.05889C14.8771 6.91978 15.0332 6.66997 15.0332 6.38127V5.45443C15.0332 5.01568 14.6764 4.65874 14.2376 4.65874H10.2429C9.80412 4.65874 9.44729 5.01568 9.44729 5.45443V6.38127C9.44729 6.66997 9.60341 6.91977 9.83291 7.05889V10.8949L5.75638 16.763L5.75635 16.763L5.75531 16.7646C5.34784 17.4023 5.32165 18.1801 5.6851 18.8437L5.72585 18.8213L5.6851 18.8437C6.04865 19.5073 6.71813 19.9039 7.47479 19.9039H17.0058C17.7625 19.9039 18.4319 19.5074 18.7955 18.8437ZM18.1807 18.507L18.1807 18.5071C17.9419 18.9432 17.5032 19.2031 17.0058 19.2031H7.47479C6.97746 19.2031 6.53867 18.9432 6.29992 18.5071L6.29991 18.507C6.06101 18.0711 6.07831 17.5617 6.33904 17.1524L10.3667 11.355H14.114L18.1351 17.1429C18.4024 17.5618 18.4195 18.0712 18.1807 18.507ZM10.5338 7.17676H13.9468V10.6541H10.5338V7.17676ZM10.1482 5.45433C10.1482 5.40202 10.1908 5.35944 10.243 5.35944H14.2377C14.2899 5.35944 14.3325 5.40202 14.3325 5.45433V6.38117C14.3325 6.43336 14.2899 6.47596 14.2377 6.47596H10.243C10.1908 6.47596 10.1482 6.43336 10.1482 6.38117V5.45433Z" fill="black" stroke="black" stroke-width="0.1"/>
<path d="M10.6002 15.5993H9.53673C9.34319 15.5993 9.18633 15.7561 9.18633 15.9497C9.18633 16.1432 9.34319 16.3001 9.53673 16.3001H10.6002C11.0634 16.3001 11.4402 15.9233 11.4402 15.46C11.4402 14.9965 11.0632 14.623 10.6002 14.623H10.0234C9.9491 14.623 9.88713 14.5612 9.88713 14.4837C9.88713 14.4073 9.94806 14.3475 10.0234 14.3475H11.0897C11.2832 14.3475 11.4401 14.1906 11.4401 13.9971C11.4401 13.8035 11.2832 13.6467 11.0897 13.6467H10.0234C9.56179 13.6467 9.18633 14.0221 9.18633 14.4837C9.18633 14.945 9.56154 15.3238 10.0234 15.3238H10.6002C10.6794 15.3238 10.7394 15.3839 10.7394 15.46C10.7394 15.5368 10.6769 15.5993 10.6002 15.5993Z" fill="black" stroke="black" stroke-width="0.1"/>
<path d="M12.6295 16.3001H13.2781C13.686 16.3001 14.0177 15.9684 14.0177 15.5605V14.3864C14.0177 13.9785 13.686 13.6467 13.2781 13.6467H12.6295C12.2216 13.6467 11.8899 13.9784 11.8899 14.3864V15.5605C11.8899 15.9684 12.2216 16.3001 12.6295 16.3001ZM12.5907 14.3864C12.5907 14.3649 12.6083 14.3475 12.6295 14.3475H13.2781C13.2994 14.3475 13.3169 14.3648 13.3169 14.3864V15.5605C13.3169 15.5819 13.2995 15.5993 13.2781 15.5993H12.6295C12.6081 15.5993 12.5907 15.5819 12.5907 15.5605V14.3864Z" fill="black" stroke="black" stroke-width="0.1"/>
<path d="M15.3421 16.6698C15.4288 16.582 15.4257 16.4676 15.3939 16.3899C15.3729 16.3385 15.3196 16.252 15.1983 16.2501H15.1982C15.0023 16.2501 14.8477 16.4049 14.8477 16.5949C14.8477 16.7608 14.7132 16.8953 14.5474 16.8953L15.3421 16.6698ZM15.3421 16.6698L14.3334 17.6925L15.3421 16.6698ZM14.2241 18.0386C14.2785 18.169 14.4059 18.2539 14.5473 18.2539H15.8381C16.0316 18.2539 16.1885 18.097 16.1885 17.9035C16.1885 17.7099 16.0316 17.5531 15.8381 17.5531H15.3852L15.8055 17.127L15.8055 17.127C16.0603 16.8686 16.1348 16.4826 15.9964 16.1437L15.9964 16.1436C15.8616 15.8139 15.5594 15.6051 15.1935 15.5992L15.1935 15.5992H15.1927C14.6436 15.5992 14.197 16.0459 14.197 16.5949C14.197 16.7884 14.3538 16.9453 14.5473 16.9453L14.2241 18.0386ZM14.2241 18.0386C14.2241 18.0386 14.2241 18.0386 14.2241 18.0387L14.2702 18.0193L14.224 18.0386C14.1694 17.9082 14.1985 17.7579 14.2978 17.6574C14.2978 17.6574 14.2978 17.6574 14.2978 17.6574L15.3065 16.6347L15.3065 16.6347C15.3753 16.565 15.3742 16.4736 15.3476 16.4088L15.3476 16.4088C15.3296 16.3647 15.289 16.3017 15.1979 16.3001C15.0292 16.3002 14.8977 16.4331 14.8977 16.5949L14.2241 18.0386ZM15.3359 17.6031H15.2656L15.3149 17.5531L15.3359 17.6031Z" fill="black" stroke="black" stroke-width="0.1"/>
</g>
<defs>
<clipPath id="clip0_2028_116">
<rect width="14.2828" height="16" fill="white" transform="translate(5 4)"/>
</clipPath>
</defs>
</svg>
