<svg width="24" height="24" viewBox="0 0 24 24" fill="none" xmlns="http://www.w3.org/2000/svg">
<path fill-rule="evenodd" clip-rule="evenodd" d="M0.933333 11.9998C0.933333 18.1012 5.89875 23.0667 12.0001 23.0667C18.1015 23.0667 23.0667 18.1012 23.0667 11.9998C23.0667 5.89857 18.1015 0.933333 12.0001 0.933333C5.89871 0.933333 0.933333 5.89859 0.933333 11.9998ZM0 11.9998C0 18.6167 5.38327 24 12.0001 24C18.6169 24 24 18.6167 24 11.9998C24 5.3831 18.6169 0 12.0001 0C5.38327 0 0 5.3831 0 11.9998Z" fill="black"/>
<path fill-rule="evenodd" clip-rule="evenodd" d="M16.5388 10.3361C15.5894 10.3344 14.8166 9.56342 14.8149 8.61612C14.8149 8.29748 14.9075 8.00379 15.0593 7.74794L16.2341 8.92013C16.3143 9.00012 16.4255 9.04613 16.5388 9.04613C16.6522 9.04613 16.7634 9.00012 16.8435 8.92013L18.0184 7.74794C18.1701 8.00379 18.2628 8.29748 18.2628 8.61612C18.261 9.56342 17.4883 10.3344 16.5388 10.3361ZM13.9529 12.9162V12.9166L13.6655 13.7762H10.7925L10.5051 12.9162H10.5619L12.2859 9.47613L13.9529 12.9153V12.9162ZM13.091 15.4962H11.367L11.08 14.6362H13.378L13.091 15.4962ZM12.3639 17.6725C12.276 17.6432 12.182 17.6432 12.0941 17.6725L11.6545 16.3562H12.8035L12.3639 17.6725ZM7.91915 10.3361C6.9697 10.3344 6.19694 9.56342 6.19522 8.61612C6.19522 8.29748 6.28788 8.00379 6.43959 7.74794L7.61445 8.92013C7.69461 9.00012 7.80581 9.04613 7.91915 9.04613C8.0325 9.04613 8.1437 9.00012 8.22386 8.92013L9.39872 7.74794C9.55043 8.00379 9.64309 8.29748 9.64309 8.61612C9.64137 9.56342 8.86861 10.3344 7.91915 10.3361ZM16.5388 8.00809L15.3204 6.79246C15.1523 6.62476 14.8795 6.62476 14.711 6.79246C14.2438 7.25816 13.9529 7.90532 13.9529 8.61612C13.9534 9.70361 14.6304 10.6328 15.5855 11.0121C15.4342 11.5668 15.1446 12.0467 14.6968 12.3868L13.091 9.09171C13.091 8.66669 12.5557 8.61612 12.229 8.61612C11.9023 8.61612 11.367 8.80059 11.367 9.09085L9.76118 12.3868C9.31339 12.0467 9.00092 11.5668 8.84965 11.0121C9.80471 10.6328 10.493 9.70361 10.4938 8.61612C10.4938 7.90532 10.2085 7.25816 9.74135 6.79246C9.57284 6.62476 9.30304 6.62476 9.13453 6.79246L7.91786 8.00809L6.70033 6.79246C6.53182 6.62476 6.25944 6.62476 6.09092 6.79246C5.62374 7.25816 5.33282 7.90532 5.33325 8.61612C5.33411 10.0399 6.49217 11.1953 7.91915 11.1962C7.95579 11.1962 7.99199 11.1923 8.02819 11.1906C8.27084 12.1336 8.90567 12.9145 9.74609 13.3642L11.3955 18.2999L10.6313 19.0623C10.4628 19.23 10.4628 19.5026 10.6313 19.6703C10.7994 19.8384 11.0727 19.8384 11.2407 19.6703L12.0113 18.9019C12.0816 18.9204 12.1536 18.9363 12.229 18.9363C12.3044 18.9363 12.3764 18.9204 12.4466 18.9019L13.2172 19.6703C13.3853 19.8384 13.6586 19.8384 13.8266 19.6703C13.9952 19.5026 13.9952 19.23 13.8266 19.0623L13.0625 18.2999L14.7119 13.3642C15.5523 12.9145 16.1871 12.1336 16.4298 11.1906C16.466 11.1923 16.5022 11.1962 16.5388 11.1962C17.9658 11.1953 19.1239 10.0399 19.1247 8.61612C19.1247 7.90532 18.8338 7.25816 18.3666 6.79246C18.1981 6.62476 17.9253 6.62476 17.7572 6.79246L16.5388 8.00809Z" fill="black"/>
</svg>
