<svg width="24" height="24" viewBox="0 0 24 24" fill="none" xmlns="http://www.w3.org/2000/svg">
<path fill-rule="evenodd" clip-rule="evenodd" d="M0.933333 11.9998C0.933333 18.1012 5.89875 23.0667 12.0001 23.0667C18.1015 23.0667 23.0667 18.1012 23.0667 11.9998C23.0667 5.89857 18.1015 0.933333 12.0001 0.933333C5.89871 0.933333 0.933333 5.89859 0.933333 11.9998ZM0 11.9998C0 18.6167 5.38327 24 12.0001 24C18.6169 24 24 18.6167 24 11.9998C24 5.3831 18.6169 0 12.0001 0C5.38327 0 0 5.3831 0 11.9998Z" fill="black"/>
<path fill-rule="evenodd" clip-rule="evenodd" d="M20.4365 3.66332L11.7698 12.33L11.1099 11.67L19.7765 3.00336L20.4365 3.66332Z" fill="black"/>
<path fill-rule="evenodd" clip-rule="evenodd" d="M6.80215 17.2978L3.66338 20.4366L3.00342 19.7766L6.14219 16.6379L6.80215 17.2978Z" fill="black"/>
<path fill-rule="evenodd" clip-rule="evenodd" d="M8.49669 18.2816H8.15881C6.66384 18.2816 5.44727 17.1985 5.44727 15.8672V9.78403C5.44727 9.15262 5.52946 8.19308 5.76045 7.3934C6.11651 6.16063 6.68834 5.7666 7.17125 5.68106L7.45894 5.24016C7.53205 5.12798 7.65594 5.06067 7.78853 5.06067H9.31986C9.44375 5.06067 9.56052 5.11956 9.63521 5.21992L9.97626 5.67766C11.2671 5.88138 11.5459 7.99617 11.5459 9.78423V12.6831C11.5459 12.9042 11.3689 13.0837 11.1507 13.0837C10.9326 13.0837 10.7556 12.9042 10.7556 12.6831V9.78403C10.7556 7.73535 10.377 6.46271 9.7676 6.46271C9.64371 6.46271 9.52693 6.40382 9.45224 6.30346L9.12306 5.86175H8.00094L7.72589 6.28323C7.65278 6.3954 7.52889 6.46271 7.39631 6.46271C6.60594 6.46271 6.23763 8.44448 6.23763 9.78403V15.8674C6.23763 16.7568 7.09933 17.4805 8.15881 17.4805H8.49669C8.71483 17.4805 8.89188 17.66 8.89188 17.8812C8.89188 18.1023 8.71483 18.2816 8.49669 18.2816Z" fill="black"/>
<path fill-rule="evenodd" clip-rule="evenodd" d="M9.63078 12.7055C9.41264 12.7055 9.2356 12.526 9.2356 12.3049V8.71631C9.2356 8.49516 9.41264 8.31567 9.63078 8.31567C9.84892 8.31567 10.026 8.49516 10.026 8.71631V12.3049C10.026 12.526 9.84892 12.7055 9.63078 12.7055Z" fill="black"/>
<path fill-rule="evenodd" clip-rule="evenodd" d="M8.56241 5.46133C9.26431 5.46133 9.83332 5.17541 9.83332 4.8227C9.83332 4.47 9.26431 4.18408 8.56241 4.18408C7.86051 4.18408 7.2915 4.47 7.2915 4.8227C7.2915 5.17541 7.86051 5.46133 8.56241 5.46133Z" fill="black"/>
<path fill-rule="evenodd" clip-rule="evenodd" d="M8.76442 15.3984C8.65417 15.3984 8.5447 15.3521 8.46645 15.2612C8.3228 15.0945 8.3398 14.8413 8.50419 14.6959L13.5256 10.2528C13.5724 10.2113 13.6285 10.1817 13.6888 10.1661C13.7295 10.1554 14.7046 9.91084 15.8485 9.97875C17.4324 10.0721 18.5766 10.7195 19.1575 11.8505C19.2585 12.0467 19.1832 12.2888 18.9896 12.3908C18.7957 12.4938 18.5572 12.4169 18.4567 12.2205C17.4569 10.275 14.5171 10.8051 13.9702 10.9227L9.02425 15.2997C8.94917 15.366 8.8567 15.3984 8.76442 15.3984Z" fill="black"/>
<path fill-rule="evenodd" clip-rule="evenodd" d="M8.76432 19.8415C8.67975 19.8415 8.59617 19.8139 8.52721 19.7614C8.42763 19.6857 8.36914 19.5669 8.36914 19.4409V14.9978C8.36914 14.8195 8.48513 14.6628 8.65387 14.6131L18.6968 11.651C18.8162 11.6156 18.945 11.6396 19.0444 11.7153C19.144 11.791 19.2025 11.9096 19.2025 12.0358V16.4787C19.2025 16.657 19.0865 16.8137 18.9178 16.8633L8.87478 19.8255C8.83842 19.8363 8.80127 19.8415 8.76432 19.8415ZM9.15951 15.2984V18.907L18.4121 16.1781V12.5697L9.15951 15.2984Z" fill="black"/>
</svg>
