<svg width="24" height="24" viewBox="0 0 24 24" fill="none" xmlns="http://www.w3.org/2000/svg">
<path fill-rule="evenodd" clip-rule="evenodd" d="M0.933333 11.9998C0.933333 18.1012 5.89875 23.0667 12.0001 23.0667C18.1015 23.0667 23.0667 18.1012 23.0667 11.9998C23.0667 5.89857 18.1015 0.933333 12.0001 0.933333C5.89871 0.933333 0.933333 5.89859 0.933333 11.9998ZM0 11.9998C0 18.6167 5.38327 24 12.0001 24C18.6169 24 24 18.6167 24 11.9998C24 5.3831 18.6169 0 12.0001 0C5.38327 0 0 5.3831 0 11.9998Z" fill="black"/>
<path fill-rule="evenodd" clip-rule="evenodd" d="M9.46112 15.3487C9.46004 15.3487 9.46004 15.3487 9.46004 15.3487C7.46739 15.3487 5.51363 14.4598 4.36125 13.0291C3.49075 11.95 3.16351 10.6774 3.41623 9.34838L3.50047 8.89949L3.94112 8.97356C4.6399 9.08966 5.32139 8.96251 6.05473 8.83094C7.23519 8.61644 8.51286 8.52799 9.48488 9.10182C11.2982 10.1732 12.4139 12.0937 12.4701 14.2387L12.4765 14.5272L12.2292 14.6643C11.4235 15.1121 10.4655 15.3487 9.46112 15.3487ZM4.26189 9.95206C4.18305 11.0599 4.64206 11.9002 5.06974 12.4309C6.03637 13.6317 7.76116 14.4089 9.46004 14.4089C9.46004 14.4089 9.46004 14.4089 9.46112 14.4089C10.2074 14.4089 10.9191 14.2575 11.5358 13.9689C11.3987 12.2728 10.4763 10.7736 9.02479 9.91668C8.27093 9.47 7.29567 9.55956 6.21565 9.75636C5.58924 9.87025 4.92934 9.98855 4.26189 9.95206Z" fill="black"/>
<path fill-rule="evenodd" clip-rule="evenodd" d="M13.1009 18.8171H12.1828V15.8065C12.1828 15.3454 12.0057 14.912 11.686 14.5836L12.3362 13.9191C12.8298 14.4244 13.1009 15.0955 13.1009 15.8065V18.8171Z" fill="black"/>
<path fill-rule="evenodd" clip-rule="evenodd" d="M15.2975 14.7694C14.4713 14.7694 13.6958 14.5803 13.0543 14.2254L12.8059 14.0872L12.8145 13.7986C12.8459 12.6001 13.3546 11.448 14.2089 10.6364C14.8688 10.0106 15.5492 9.71765 16.3495 9.71765C16.7232 9.71765 17.0904 9.77957 17.4446 9.83927C17.9339 9.91998 18.4339 10.0051 18.989 9.93215L19.3757 9.88018L19.4891 10.2627C19.7937 11.2954 19.6468 12.2662 19.0646 13.0678C18.3043 14.117 16.8603 14.7694 15.2975 14.7694ZM13.7531 13.5266C14.2067 13.7245 14.7348 13.8285 15.2975 13.8285C16.5557 13.8285 17.7449 13.3099 18.327 12.5072C18.6672 12.0395 18.7892 11.4989 18.692 10.8985C18.192 10.9084 17.7297 10.8399 17.2956 10.7669C16.964 10.7116 16.6497 10.6586 16.3495 10.6586C15.9477 10.6586 15.453 10.7382 14.8331 11.3275C14.2294 11.8991 13.8449 12.6885 13.7531 13.5266Z" fill="black"/>
<path fill-rule="evenodd" clip-rule="evenodd" d="M13.1006 17.6275H12.1826V15.3664C12.1826 14.6555 12.4548 13.9843 12.9484 13.4791L13.5985 14.1436C13.2778 14.4719 13.1006 14.9065 13.1006 15.3664V17.6275Z" fill="black"/>
<path fill-rule="evenodd" clip-rule="evenodd" d="M6.81616 11.2225C6.82696 11.2247 10.6697 11.4005 12.3891 13.9866L11.632 14.5151C11.0315 12.9429 8.96325 11.8096 6.81616 11.2225Z" fill="black"/>
<path fill-rule="evenodd" clip-rule="evenodd" d="M17.221 11.6603C17.2134 11.6614 14.3902 11.7907 13.1277 13.6902L13.6839 14.0783C14.9432 12.3756 15.4811 12.5636 17.221 11.6603Z" fill="black"/>
</svg>
