<svg width="24" height="24" viewBox="0 0 24 24" fill="none" xmlns="http://www.w3.org/2000/svg">
<path fill-rule="evenodd" clip-rule="evenodd" d="M0.933334 11.9998C0.933334 18.1012 5.89875 23.0667 12.0001 23.0667C18.1015 23.0667 23.0667 18.1013 23.0667 11.9998C23.0667 5.89857 18.1015 0.933334 12.0001 0.933334C5.89872 0.933334 0.933334 5.8986 0.933334 11.9998ZM0 11.9998C0 18.6167 5.38328 24 12.0001 24C18.617 24 24 18.6167 24 11.9998C24 5.3831 18.617 0 12.0001 0C5.38328 0 0 5.3831 0 11.9998Z" fill="black"/>
<path d="M20.5749 10.0715V10.064V10.0603V9.91507H20.5712C20.4893 8.32884 19.1823 7.08518 17.5961 7.08518H15.2726C14.2039 7.08518 13.1688 6.72772 12.3236 6.07238C11.4299 5.37979 10.3278 5 9.1958 5H7.02125C4.80201 5.00372 3.0034 6.80221 3 9.02125V10.8086C3.00372 13.0278 4.80221 14.8264 7.02125 14.8298H12.5357C12.5357 14.8782 12.5319 14.9303 12.5319 14.9787C12.5319 17.198 14.3304 19 16.5532 19C18.776 19 20.5744 17.2015 20.5744 14.9787C20.5744 14.3941 20.4478 13.8207 20.2021 13.2883C20.4218 12.8936 20.5446 12.4542 20.5707 12.0037C20.5744 11.9627 20.5744 10.6073 20.5744 10.0711L20.5749 10.0715ZM7.02144 5.29784H9.19598C10.2647 5.29784 11.2998 5.6553 12.145 6.31064C13.0424 7.00323 14.1408 7.38302 15.2765 7.38302H17.5963C19.0745 7.38302 20.2735 8.58201 20.2772 10.0603V10.0714C20.2772 10.8459 19.9384 11.5869 19.3501 12.0933C19.0224 11.7768 18.6463 11.5199 18.2368 11.3263L18.3187 11.2853C19.1267 10.8795 19.5325 9.95973 19.2831 9.08845C19.0336 8.21716 18.125 7.71073 17.25 7.9602C17.0415 8.01978 16.8441 8.12031 16.6729 8.25809L16.375 8.49639C16.0212 8.7831 15.8611 9.24856 15.9728 9.68792C16.0473 9.98208 15.958 10.2949 15.7457 10.5108C15.5893 10.6672 15.4962 10.8757 15.4888 11.0991C14.5579 11.3561 13.7499 11.9407 13.2137 12.7412H7.02148C4.96609 12.7412 3.29777 11.0731 3.29777 9.0175C3.29777 6.96194 4.96592 5.29753 7.02148 5.29753L7.02144 5.29784ZM16.2596 9.61732C16.1776 9.28965 16.2931 8.93964 16.5612 8.72738L16.8591 8.48907C17.4399 8.02362 18.2852 8.12045 18.7506 8.69759C18.8623 8.83536 18.9442 8.99547 18.9926 9.16675C19.2011 9.89658 18.8586 10.6748 18.1809 11.0136L17.8644 11.17C17.1979 10.9392 16.483 10.8907 15.7941 11.0211C15.8165 10.9056 15.8723 10.7977 15.9542 10.7157C16.2409 10.4365 16.3601 10.0157 16.2596 9.61728L16.2596 9.61732ZM12.9158 13.0428L11.4264 14.5322H9.16619L10.6556 13.0428H12.9158ZM7.02147 13.0428H7.55395L6.16506 14.4317C5.61025 14.3014 5.0964 14.0444 4.65703 13.6795L5.5693 12.771C6.031 12.9497 6.52252 13.0428 7.02147 13.0428V13.0428ZM3.29776 10.8087V10.5406C3.67384 11.4603 4.3776 12.2087 5.27496 12.6444L4.43343 13.4859C3.70734 12.7822 3.29776 11.8178 3.29776 10.8087ZM6.52235 14.4987L7.97827 13.0428H10.2385L8.74906 14.5322H7.02133C6.85377 14.5322 6.68621 14.521 6.52239 14.4987L6.52235 14.4987ZM11.8509 14.5322L12.7743 13.6088C12.6663 13.9066 12.5919 14.2157 12.5584 14.5322H11.8509ZM16.5537 18.7026C14.4983 18.7026 12.83 17.0344 12.83 14.9789C12.83 12.9233 14.4981 11.2551 16.5537 11.2551C18.6093 11.2551 20.2774 12.9233 20.2774 14.9789C20.2737 17.0342 18.6093 18.6988 16.5537 18.7026ZM20.0354 12.9682C19.8976 12.7336 19.7375 12.5102 19.5587 12.3092C19.8604 12.0485 20.1024 11.7283 20.2774 11.3709C20.2774 11.7172 20.2774 11.9703 20.2736 11.9927C20.255 12.3278 20.1731 12.6592 20.0353 12.9683L20.0354 12.9682Z" fill="black"/>
<path d="M7.26352 12.0229L8.11251 12.0936C8.14974 12.0974 8.18325 12.0974 8.22049 12.0974C8.91308 12.0974 9.4716 11.5351 9.46789 10.8425C9.46789 10.4255 9.25937 10.0345 8.90937 9.80366C8.62265 9.61004 8.54445 9.22281 8.73436 8.93234C8.77532 8.87277 8.82372 8.82064 8.87958 8.77968L9.53121 8.2919C10.1195 7.84878 10.2387 7.01471 9.7993 6.4264C9.5461 6.09128 9.15142 5.89392 8.73438 5.89392H6.95825C5.37201 5.89392 4.0874 7.17853 4.0874 8.76477C4.0874 9.14456 4.16187 9.51693 4.30709 9.86693C4.81349 11.0845 5.9529 11.9149 7.26359 12.0229L7.26352 12.0229ZM5.13738 6.9439C5.61771 6.45983 6.27305 6.18802 6.95447 6.19173H8.73431C9.304 6.19173 9.76945 6.65344 9.76945 7.22687C9.76945 7.55082 9.61679 7.85988 9.35613 8.05349L8.70449 8.54127C8.29491 8.8466 8.21297 9.42746 8.51831 9.83704C8.58162 9.92268 8.65981 9.99343 8.74545 10.053C9.18482 10.3434 9.30026 10.9355 9.00982 11.3749C8.8162 11.6653 8.4848 11.8254 8.13851 11.7956L7.28952 11.7249C6.09053 11.628 5.04423 10.8647 4.58249 9.75138C4.18037 8.79069 4.40004 7.68111 5.13731 6.94382L5.13738 6.9439Z" fill="black"/>
<path d="M10.9832 9.81848C11.1582 10.0382 11.1396 10.351 10.9422 10.552C10.6108 10.8834 10.6108 11.4196 10.9422 11.751C11.0241 11.8329 11.1209 11.8962 11.2252 11.9372C11.5827 12.0824 11.9774 12.1085 12.3497 12.0154L13.6008 11.7026C14.461 11.4866 14.986 10.6153 14.77 9.75148C14.636 9.21901 14.2413 8.7908 13.72 8.61582L13.5077 8.54507C13.0311 8.38496 12.6252 8.07217 12.346 7.65513C12.0109 7.15619 11.3369 7.01841 10.8379 7.35352C10.6369 7.48757 10.4842 7.68492 10.4097 7.91579C10.2347 8.43707 10.339 9.01425 10.6815 9.44245L10.9832 9.81848ZM10.6927 8.01255C10.8305 7.59923 11.2773 7.37583 11.6906 7.51361C11.8582 7.56946 11.9997 7.67744 12.0965 7.82639C12.413 8.29929 12.8747 8.653 13.4146 8.83173L13.6269 8.90248C14.312 9.12962 14.6843 9.87433 14.4535 10.5595C14.312 10.984 13.962 11.3079 13.5301 11.4159L12.2789 11.7286C11.9662 11.8068 11.6348 11.7845 11.3369 11.6653C11.0539 11.5536 10.9161 11.2334 11.0316 10.9504C11.0576 10.8797 11.1023 10.8201 11.1544 10.7642C11.4598 10.4589 11.4858 9.97112 11.2177 9.636L10.9161 9.25992C10.6331 8.90617 10.5512 8.43701 10.6927 8.01252L10.6927 8.01255Z" fill="black"/>
<path d="M18.8326 12.4919L18.0544 13.2664C17.9725 13.1361 17.8683 13.0244 17.7491 12.9276L17.2204 12.5068C17.1571 12.4547 17.064 12.4659 17.0118 12.5292C16.9746 12.5739 16.9709 12.6372 16.9932 12.6893L17.3023 13.3223C17.3916 13.501 17.4289 13.7021 17.4177 13.9032L17.3507 13.9702L17.1049 13.5494C16.9001 13.2031 16.8145 12.801 16.8517 12.3989L16.915 11.7398C16.9225 11.6579 16.8629 11.5834 16.781 11.576C16.7326 11.5722 16.6842 11.5909 16.6507 11.6281L16.431 11.8925C15.932 12.4957 15.7831 13.3186 16.0437 14.0558C16.1554 14.3686 16.1108 14.7186 15.9208 14.9942C15.8538 15.091 15.7235 15.1133 15.6267 15.05C15.5634 15.0053 15.5262 14.9271 15.5373 14.8489L15.6304 14.0409C15.6416 13.959 15.582 13.8846 15.5001 13.8771C15.4442 13.8697 15.3847 13.8957 15.3549 13.9479L14.7405 14.9458C14.3942 15.5117 14.3048 16.1932 14.4873 16.8299L14.0591 17.2581L14.2713 17.4703L14.599 17.1426C14.6139 17.1762 14.6288 17.2097 14.6474 17.2432C14.9862 17.8985 15.6602 18.3081 16.3937 18.3081C16.5613 18.3081 16.7289 18.2858 16.889 18.2448L17.2502 18.148C18.2927 17.8724 18.9146 16.8001 18.639 15.7575C18.5832 15.5527 18.4975 15.3553 18.3784 15.1803C18.2332 14.9569 18.1848 14.6851 18.2443 14.4282L18.2481 14.4058C18.3151 14.1228 18.2927 13.8212 18.1885 13.5494L19.0337 12.7042L18.8326 12.4919ZM17.5741 13.1919L17.5555 13.1547L17.5629 13.1622C17.6746 13.2515 17.7677 13.3595 17.8384 13.4824L17.7044 13.6164C17.6821 13.4712 17.6374 13.326 17.5741 13.1919L17.5741 13.1919ZM16.5762 12.2015L16.5613 12.369C16.5166 12.8307 16.6171 13.2962 16.8517 13.6983L17.1347 14.1861L16.2001 15.1207C16.4198 14.7744 16.4682 14.3462 16.3304 13.959C16.1219 13.3707 16.2113 12.7153 16.5762 12.2015L16.5762 12.2015ZM16.9523 15.0872L17.3954 15.8431C17.5853 16.1745 17.5555 16.5878 17.3209 16.8857C17.0752 17.191 16.7028 17.3623 16.3118 17.3511C15.9953 17.34 15.7495 17.0793 15.7607 16.7628V16.7479C15.7756 16.5134 15.932 16.3086 16.1554 16.2341C16.524 16.1149 16.7996 15.8133 16.8815 15.4335L16.9523 15.0872ZM15.0011 15.1021L15.2618 14.6776L15.2469 14.8154C15.2134 15.0947 15.4145 15.3479 15.6937 15.3814C15.798 15.3925 15.906 15.3739 15.9991 15.3218L14.7405 16.5804C14.6362 16.074 14.7293 15.5452 15.0011 15.1021L15.0011 15.1021ZM17.9651 14.3351L17.9613 14.3574C17.8831 14.6963 17.9465 15.0537 18.1364 15.3441C18.6428 16.1075 18.4342 17.1352 17.6709 17.6378C17.522 17.7384 17.3544 17.8129 17.1831 17.8575L16.822 17.9543C16.0698 18.1517 15.2804 17.798 14.923 17.1054C14.8894 17.0421 14.8634 16.9788 14.8373 16.9117L16.6469 15.1021L16.5874 15.3814C16.5278 15.6532 16.3304 15.8729 16.0623 15.9585C15.7198 16.0702 15.4815 16.3793 15.4591 16.7405C15.4331 17.2208 15.8017 17.6304 16.2783 17.6527H16.2969H16.3453C16.8145 17.6527 17.2576 17.4405 17.5518 17.0719C17.8645 16.6772 17.9055 16.1298 17.6523 15.6942L17.0602 14.6851L17.2911 14.4542L17.3097 14.4877C17.3358 14.5324 17.3842 14.5622 17.44 14.5622H17.4438C17.4996 14.5585 17.548 14.5287 17.5704 14.4803C17.6374 14.3425 17.6858 14.1936 17.7044 14.0409L17.9613 13.784C18.006 13.9627 18.0097 14.1526 17.9651 14.3351L17.9651 14.3351Z" fill="black"/>
</svg>
