<svg width="24" height="24" viewBox="0 0 24 24" fill="none" xmlns="http://www.w3.org/2000/svg">
<path fill-rule="evenodd" clip-rule="evenodd" d="M0.933334 11.9998C0.933334 18.1012 5.89875 23.0667 12.0001 23.0667C18.1015 23.0667 23.0667 18.1013 23.0667 11.9998C23.0667 5.89857 18.1015 0.933334 12.0001 0.933334C5.89872 0.933334 0.933334 5.8986 0.933334 11.9998ZM0 11.9998C0 18.6167 5.38328 24 12.0001 24C18.617 24 24 18.6167 24 11.9998C24 5.3831 18.617 0 12.0001 0C5.38328 0 0 5.3831 0 11.9998Z" fill="black"/>
<path d="M23.5827 11.6168C22.2258 11.1021 20.7998 10.8413 19.3445 10.8413C18.6967 10.8413 18.0536 10.8966 17.4205 10.9999C17.475 10.3015 17.3969 9.61291 17.1971 8.96577L21.2226 7.29833C21.4839 7.19011 21.608 6.89052 21.4996 6.62918C21.3916 6.36834 21.0932 6.2439 20.8305 6.35212L16.806 8.01922C16.3017 7.06618 15.5166 6.26114 14.5187 5.73503L16.1865 1.70829C16.2949 1.44695 16.1708 1.14736 15.9094 1.03914C15.6477 0.930739 15.3483 1.05535 15.2403 1.31619L13.572 5.34429C12.4897 5.00954 11.3672 5.0278 10.3416 5.34497L8.67296 1.31619C8.5649 1.05535 8.26583 0.930909 8.0038 1.03914C7.74245 1.14736 7.61835 1.44695 7.72675 1.70829L9.39538 5.73708C8.44592 6.23792 7.63935 7.01872 7.11085 8.02058L3.08275 6.35212C2.8214 6.24356 2.52164 6.36783 2.41359 6.62918C2.30519 6.89052 2.42929 7.19011 2.69064 7.29833L6.71942 8.96714C6.51526 9.62656 6.43878 10.3135 6.49153 10.9987C5.86505 10.8966 5.2232 10.8413 4.56872 10.8413C3.11347 10.8413 1.68741 11.1021 0.330489 11.6168C0.130765 11.6924 -0.0010183 11.8841 5.92789e-06 12.0978C0.00563916 13.3474 0.205704 14.5521 0.569474 15.6845C0.578009 15.7222 0.589788 15.7596 0.60737 15.796C0.607541 15.7963 0.607882 15.7968 0.608053 15.7972C0.971482 16.8907 1.4882 17.9149 2.13398 18.8439C2.13466 18.8454 2.135 18.8471 2.13568 18.8487C2.16231 18.9047 2.19901 18.9523 2.24101 18.9934C4.41458 22.0205 7.96129 24 11.9553 24C12.1592 24 12.3626 23.9935 12.5652 23.9833C12.5754 23.9828 12.5858 23.9829 12.5961 23.9824C12.5986 23.9824 12.6007 23.9809 12.6032 23.9807C13.826 23.9152 15.0238 23.6649 16.1725 23.2317C16.1797 23.2293 16.187 23.2303 16.1942 23.2277C18.4237 22.3826 20.297 20.8908 21.6424 19.0211C21.6975 18.9752 21.7446 18.918 21.7774 18.8488C21.7808 18.8415 21.7823 18.8338 21.7854 18.8265C22.4199 17.9066 22.9235 16.8977 23.2833 15.8323C23.2907 15.82 23.2994 15.8093 23.3057 15.7961C23.3296 15.7468 23.3426 15.6956 23.3499 15.6442C23.7113 14.5128 23.9076 13.3194 23.9132 12.0982C23.9143 11.8845 23.7825 11.6928 23.5827 11.6171V11.6168ZM22.8813 12.4524C22.8499 13.2774 22.7233 14.0864 22.5119 14.8668C21.5058 14.4623 20.4437 14.2552 19.3445 14.2552C17.5371 14.2552 15.7758 14.8393 14.3202 15.9006C13.8545 15.2446 13.325 14.6376 12.74 14.0883C14.6329 12.6521 16.9557 11.8655 19.3445 11.8655C20.5548 11.8655 21.7431 12.0628 22.8813 12.4524ZM21.1069 17.9911C20.5394 17.7804 19.9493 17.6691 19.3445 17.6691C18.0485 17.6691 16.8389 18.1524 15.9028 19.0071C15.638 18.2189 15.2934 17.4675 14.878 16.7618C16.1675 15.8066 17.7353 15.2793 19.3445 15.2793C20.3339 15.2793 21.2897 15.4687 22.1927 15.8409C21.9097 16.5969 21.5449 17.3173 21.1069 17.9909V17.9911ZM7.83702 8.87581C8.77794 6.60425 11.3924 5.52233 13.663 6.46257C14.7838 6.92688 15.6266 7.80191 16.0692 8.85293C16.0719 8.86045 16.073 8.8683 16.076 8.87581C16.0774 8.87922 16.0801 8.88161 16.0817 8.88503C16.3792 9.60728 16.4862 10.4106 16.3678 11.2204C14.7662 11.6323 13.2581 12.3735 11.9477 13.4065C10.6637 12.3945 9.17107 11.6371 7.54426 11.2175C7.42938 10.426 7.52805 9.62161 7.83685 8.87581H7.83702ZM12.0843 22.9703C12.0411 22.9708 11.9984 22.9756 11.9553 22.9756C11.1803 22.9756 10.4244 22.8921 9.69411 22.7373C9.66116 19.9376 7.37629 17.6693 4.56872 17.6693C3.96017 17.6693 3.36663 17.7821 2.79596 17.9955C2.35879 17.3256 1.99434 16.6049 1.7108 15.845C2.61673 15.4701 3.57591 15.2796 4.56872 15.2796C8.71427 15.2796 12.087 18.6524 12.087 22.7979C12.087 22.8539 12.086 22.9116 12.0845 22.9705L12.0843 22.9703ZM3.42654 18.8649C3.79817 18.755 4.17952 18.6935 4.56855 18.6935C6.71857 18.6935 8.48433 20.3562 8.65572 22.4626C6.5762 21.8008 4.76333 20.532 3.42654 18.8649ZM13.1085 22.9077C13.109 22.8715 13.1111 22.8331 13.1111 22.7977C13.1111 18.0873 9.27896 14.2552 4.56855 14.2552C3.46837 14.2552 2.40522 14.4628 1.39807 14.868C1.18998 14.0927 1.0623 13.2847 1.0314 12.4524C2.16999 12.0628 3.35792 11.8655 4.56855 11.8655C10.4484 11.8655 15.2756 16.5536 15.4919 22.3886C14.7178 22.6535 13.9197 22.8221 13.1085 22.9078V22.9077ZM16.4938 21.9893C16.4514 21.3606 16.3596 20.7452 16.223 20.1464C17.006 19.2235 18.1282 18.6935 19.3445 18.6935C19.731 18.6935 20.1098 18.7543 20.4792 18.8628C19.4254 20.1839 18.0704 21.2677 16.4939 21.9894L16.4938 21.9893Z" fill="black"/>
</svg>
